<svg xmlns="http://www.w3.org/2000/svg" id="canvas" viewBox="204.596 276.646 859.307 79.010"><path d="M 208.08,314.31 C 208.47 314.20, 208.83 313.96, 209.56 313.34 C 210.29 312.72, 210.73 312.29, 211.74 311.22 C 212.76 310.15, 213.38 309.43, 214.64 307.98 C 215.90 306.53, 216.60 305.68, 218.03 303.97 C 219.46 302.27, 220.26 301.31, 221.79 299.47 C 223.33 297.63, 224.18 296.61, 225.72 294.75 C 227.26 292.90, 228.07 291.92, 229.50 290.19 C 230.93 288.47, 231.66 287.59, 232.88 286.14 C 234.11 284.68, 234.72 284.00, 235.62 282.93 C 236.53 281.87, 236.95 281.34, 237.42 280.80 C 237.88 280.25, 237.94 280.06, 237.95 280.21 C 237.95 280.35, 237.77 280.59, 237.43 281.53 C 237.10 282.47, 236.84 283.18, 236.25 284.90 C 235.66 286.62, 235.31 287.77, 234.49 290.15 C 233.67 292.53, 233.19 293.95, 232.15 296.81 C 231.11 299.66, 230.51 301.28, 229.30 304.41 C 228.09 307.55, 227.39 309.27, 226.11 312.49 C 224.83 315.70, 224.14 317.42, 222.91 320.50 C 221.68 323.57, 221.03 325.15, 219.97 327.87 C 218.90 330.59, 218.40 331.93, 217.58 334.11 C 216.75 336.30, 216.37 337.29, 215.84 338.80 C 215.30 340.31, 215.14 340.83, 214.88 341.67 C 214.62 342.50, 214.53 342.69, 214.52 342.98 C 214.52 343.28, 214.60 343.33, 214.84 343.14 C 215.07 342.95, 215.23 342.79, 215.68 342.03 C 216.13 341.26, 216.43 340.78, 217.09 339.31 C 217.75 337.83, 218.12 336.84, 218.98 334.66 C 219.84 332.48, 220.34 331.15, 221.39 328.42 C 222.44 325.69, 223.01 324.10, 224.22 321.02 C 225.42 317.93, 226.11 316.22, 227.41 313.00 C 228.70 309.79, 229.41 308.08, 230.68 304.96 C 231.94 301.84, 232.61 300.24, 233.75 297.41 C 234.88 294.58, 235.46 293.19, 236.33 290.80 C 237.21 288.42, 237.62 287.28, 238.12 285.48 C 238.62 283.68, 238.79 282.91, 238.83 281.79 C 238.88 280.68, 238.74 280.26, 238.33 279.90 C 237.92 279.53, 237.54 279.57, 236.78 279.98 C 236.02 280.39, 235.55 280.91, 234.53 281.94 C 233.52 282.96, 232.95 283.67, 231.69 285.11 C 230.43 286.55, 229.70 287.42, 228.24 289.13 C 226.78 290.84, 225.97 291.81, 224.41 293.66 C 222.85 295.50, 222.00 296.51, 220.45 298.34 C 218.90 300.16, 218.09 301.12, 216.64 302.79 C 215.19 304.47, 214.45 305.28, 213.19 306.72 C 211.94 308.16, 211.29 308.86, 210.35 309.99 C 209.42 311.12, 209.07 311.61, 208.52 312.38 C 207.97 313.15, 207.71 313.47, 207.62 313.86 C 207.53 314.24, 207.69 314.41, 208.08 314.31" style="stroke: white; fill: white;"/><path d="M 212.64,318.51 C 212.82 318.70, 212.96 318.78, 213.53 318.87 C 214.10 318.95, 214.47 318.99, 215.50 318.93 C 216.52 318.87, 217.19 318.80, 218.64 318.57 C 220.09 318.34, 220.99 318.18, 222.73 317.80 C 224.47 317.43, 225.46 317.18, 227.35 316.69 C 229.23 316.21, 230.24 315.90, 232.14 315.36 C 234.03 314.83, 235.02 314.53, 236.80 314.01 C 238.59 313.48, 239.50 313.24, 241.05 312.74 C 242.60 312.25, 243.37 311.96, 244.54 311.53 C 245.70 311.11, 246.42 310.90, 246.86 310.60 C 247.30 310.30, 247.26 310.10, 246.72 310.04 C 246.19 309.98, 245.42 310.06, 244.19 310.29 C 242.97 310.52, 242.16 310.78, 240.60 311.20 C 239.03 311.63, 238.13 311.92, 236.35 312.42 C 234.56 312.92, 233.57 313.20, 231.68 313.71 C 229.79 314.22, 228.78 314.51, 226.91 314.96 C 225.05 315.40, 224.07 315.62, 222.35 315.95 C 220.64 316.28, 219.75 316.38, 218.33 316.61 C 216.92 316.83, 216.25 316.88, 215.27 317.07 C 214.28 317.26, 213.95 317.38, 213.42 317.55 C 212.89 317.73, 212.78 317.75, 212.62 317.95 C 212.47 318.14, 212.46 318.33, 212.64 318.51" style="stroke: white; fill: white;"/><path d="M 280.11,311.31 C 279.86 311.41, 279.76 311.47, 279.38 312.00 C 279.00 312.54, 278.74 312.90, 278.21 313.98 C 277.68 315.06, 277.38 315.85, 276.72 317.41 C 276.07 318.97, 275.64 320.01, 274.94 321.79 C 274.23 323.58, 273.77 324.65, 273.18 326.35 C 272.59 328.05, 272.27 328.92, 271.99 330.29 C 271.71 331.66, 271.61 332.30, 271.79 333.19 C 271.97 334.07, 272.22 334.43, 272.88 334.72 C 273.54 335.02, 274.05 335.00, 275.07 334.65 C 276.09 334.30, 276.72 333.91, 277.97 332.98 C 279.22 332.05, 279.93 331.33, 281.30 329.99 C 282.68 328.66, 283.48 327.78, 284.85 326.31 C 286.22 324.84, 287.05 323.90, 288.16 322.65 C 289.27 321.39, 289.81 320.71, 290.40 320.03 C 291.00 319.34, 291.10 319.15, 291.14 319.21 C 291.18 319.27, 290.94 319.56, 290.62 320.33 C 290.30 321.10, 289.90 321.82, 289.54 323.06 C 289.18 324.31, 288.97 325.22, 288.83 326.55 C 288.68 327.88, 288.66 328.63, 288.83 329.72 C 289.00 330.81, 289.16 331.33, 289.69 332.01 C 290.23 332.69, 290.63 332.97, 291.50 333.12 C 292.38 333.28, 292.96 333.22, 294.07 332.81 C 295.18 332.40, 295.84 332.00, 297.05 331.07 C 298.26 330.14, 298.93 329.45, 300.12 328.14 C 301.31 326.83, 301.95 325.98, 302.99 324.52 C 304.03 323.07, 304.54 322.21, 305.31 320.86 C 306.07 319.50, 306.38 318.80, 306.82 317.75 C 307.26 316.69, 307.36 316.23, 307.50 315.59 C 307.64 314.95, 307.54 314.73, 307.51 314.54 C 307.48 314.36, 307.28 314.45, 307.33 314.66 C 307.39 314.86, 307.40 315.21, 307.80 315.56 C 308.20 315.92, 308.55 316.18, 309.34 316.43 C 310.12 316.67, 310.66 316.74, 311.72 316.80 C 312.78 316.86, 313.40 316.83, 314.64 316.72 C 315.88 316.60, 316.59 316.47, 317.91 316.21 C 319.23 315.95, 319.99 315.75, 321.23 315.42 C 322.47 315.08, 323.19 314.81, 324.12 314.53 C 325.04 314.25, 325.45 314.04, 325.86 314.03 C 326.27 314.02, 326.30 314.05, 326.17 314.49 C 326.04 314.93, 325.75 315.30, 325.20 316.25 C 324.64 317.20, 324.16 317.94, 323.40 319.26 C 322.64 320.58, 322.14 321.45, 321.40 322.87 C 320.67 324.28, 320.24 325.08, 319.74 326.35 C 319.23 327.63, 318.98 328.27, 318.88 329.24 C 318.77 330.21, 318.84 330.65, 319.22 331.20 C 319.60 331.74, 319.97 331.93, 320.77 331.95 C 321.57 331.98, 322.12 331.84, 323.23 331.32 C 324.34 330.81, 324.98 330.34, 326.32 329.38 C 327.66 328.42, 328.41 327.76, 329.94 326.51 C 331.47 325.27, 332.34 324.51, 333.97 323.16 C 335.61 321.81, 336.50 321.04, 338.10 319.76 C 339.71 318.48, 340.55 317.81, 341.99 316.75 C 343.43 315.70, 344.14 315.21, 345.31 314.49 C 346.48 313.77, 346.99 313.49, 347.83 313.16 C 348.67 312.83, 348.97 312.79, 349.49 312.84 C 350.02 312.89, 350.16 313.04, 350.44 313.41 C 350.72 313.79, 350.76 314.09, 350.89 314.73 C 351.02 315.38, 351.06 315.80, 351.07 316.65 C 351.09 317.49, 351.09 318.00, 350.96 318.96 C 350.82 319.92, 350.71 320.46, 350.40 321.45 C 350.09 322.44, 349.88 322.97, 349.42 323.92 C 348.95 324.86, 348.66 325.35, 348.07 326.17 C 347.47 326.99, 347.12 327.37, 346.44 328.00 C 345.76 328.63, 345.37 328.90, 344.67 329.31 C 343.97 329.72, 343.58 329.85, 342.94 330.04 C 342.30 330.23, 341.96 330.26, 341.48 330.27 C 341.00 330.28, 340.80 330.22, 340.54 330.09 C 340.28 329.97, 340.19 329.87, 340.18 329.65 C 340.18 329.42, 340.22 329.34, 340.52 328.97 C 340.82 328.59, 341.03 328.34, 341.67 327.77 C 342.32 327.20, 342.72 326.85, 343.74 326.11 C 344.76 325.36, 345.38 324.95, 346.75 324.05 C 348.13 323.14, 348.93 322.65, 350.61 321.58 C 352.29 320.52, 353.24 319.94, 355.15 318.72 C 357.05 317.49, 358.10 316.83, 360.13 315.45 C 362.16 314.06, 363.26 313.31, 365.31 311.79 C 367.37 310.27, 368.45 309.46, 370.41 307.86 C 372.37 306.25, 373.37 305.38, 375.10 303.77 C 376.82 302.15, 377.68 301.30, 379.04 299.79 C 380.40 298.27, 381.00 297.52, 381.90 296.20 C 382.80 294.89, 383.15 294.27, 383.52 293.22 C 383.90 292.18, 383.95 291.68, 383.77 290.98 C 383.58 290.29, 383.28 289.97, 382.62 289.76 C 381.95 289.55, 381.44 289.55, 380.42 289.95 C 379.41 290.35, 378.80 290.73, 377.56 291.77 C 376.32 292.81, 375.61 293.55, 374.25 295.15 C 372.88 296.74, 372.11 297.76, 370.74 299.74 C 369.37 301.73, 368.63 302.90, 367.38 305.07 C 366.13 307.23, 365.50 308.44, 364.49 310.57 C 363.49 312.69, 363.02 313.81, 362.34 315.69 C 361.66 317.57, 361.37 318.49, 361.08 319.98 C 360.80 321.48, 360.73 322.15, 360.91 323.16 C 361.10 324.18, 361.35 324.58, 362.02 325.05 C 362.68 325.52, 363.19 325.61, 364.25 325.51 C 365.31 325.40, 365.98 325.13, 367.33 324.53 C 368.67 323.94, 369.47 323.42, 370.95 322.52 C 372.44 321.62, 373.38 320.96, 374.77 320.05 C 376.16 319.14, 376.91 318.59, 377.90 317.97 C 378.89 317.36, 379.28 317.11, 379.73 316.97 C 380.18 316.83, 380.19 316.91, 380.16 317.27 C 380.12 317.64, 379.81 318.01, 379.54 318.81 C 379.27 319.60, 378.97 320.23, 378.81 321.25 C 378.65 322.27, 378.58 322.93, 378.73 323.91 C 378.88 324.89, 379.00 325.42, 379.55 326.15 C 380.11 326.87, 380.52 327.21, 381.52 327.52 C 382.52 327.84, 383.17 327.88, 384.56 327.73 C 385.94 327.58, 386.78 327.36, 388.44 326.78 C 390.09 326.20, 391.21 325.66, 392.84 324.83 C 394.47 324.01, 395.38 323.45, 396.60 322.64 C 397.82 321.83, 398.53 321.26, 398.94 320.79 C 399.35 320.32, 399.26 320.17, 398.65 320.27 C 398.04 320.38, 397.23 320.78, 395.90 321.34 C 394.57 321.89, 393.62 322.34, 392.00 323.06 C 390.37 323.78, 389.30 324.35, 387.76 324.94 C 386.22 325.53, 385.47 325.78, 384.30 326.03 C 383.12 326.27, 382.61 326.29, 381.87 326.17 C 381.12 326.04, 380.89 325.87, 380.59 325.40 C 380.29 324.93, 380.33 324.57, 380.37 323.81 C 380.42 323.05, 380.64 322.53, 380.81 321.59 C 380.98 320.65, 381.19 320.02, 381.23 319.11 C 381.27 318.20, 381.32 317.65, 381.01 317.04 C 380.70 316.43, 380.45 316.16, 379.69 316.07 C 378.93 315.98, 378.39 316.11, 377.20 316.58 C 376.02 317.06, 375.23 317.59, 373.77 318.43 C 372.31 319.27, 371.37 319.92, 369.92 320.80 C 368.46 321.69, 367.68 322.19, 366.49 322.86 C 365.30 323.53, 364.76 323.85, 363.96 324.14 C 363.17 324.42, 362.90 324.51, 362.51 324.29 C 362.12 324.07, 362.03 323.84, 362.03 323.05 C 362.02 322.25, 362.11 321.66, 362.47 320.30 C 362.83 318.94, 363.11 318.04, 363.81 316.25 C 364.52 314.45, 364.99 313.36, 366.00 311.30 C 367.02 309.24, 367.65 308.06, 368.90 305.96 C 370.16 303.86, 370.90 302.72, 372.26 300.81 C 373.62 298.90, 374.40 297.93, 375.71 296.40 C 377.02 294.88, 377.73 294.21, 378.82 293.19 C 379.91 292.18, 380.41 291.84, 381.14 291.33 C 381.87 290.83, 382.12 290.71, 382.47 290.66 C 382.82 290.62, 382.91 290.70, 382.88 291.11 C 382.86 291.52, 382.79 291.88, 382.36 292.73 C 381.92 293.58, 381.61 294.16, 380.72 295.36 C 379.82 296.56, 379.23 297.29, 377.88 298.73 C 376.54 300.17, 375.69 301.01, 373.99 302.57 C 372.28 304.14, 371.29 304.99, 369.35 306.56 C 367.42 308.13, 366.35 308.93, 364.31 310.42 C 362.27 311.91, 361.18 312.65, 359.16 314.02 C 357.14 315.38, 356.10 316.02, 354.20 317.23 C 352.30 318.44, 351.34 319.01, 349.65 320.06 C 347.96 321.12, 347.15 321.61, 345.75 322.52 C 344.35 323.43, 343.70 323.82, 342.64 324.62 C 341.58 325.42, 341.11 325.78, 340.43 326.50 C 339.75 327.23, 339.51 327.59, 339.23 328.26 C 338.95 328.92, 338.92 329.27, 339.05 329.84 C 339.17 330.41, 339.39 330.75, 339.87 331.11 C 340.34 331.48, 340.71 331.58, 341.41 331.66 C 342.10 331.74, 342.53 331.69, 343.33 331.49 C 344.14 331.29, 344.60 331.12, 345.43 330.66 C 346.27 330.19, 346.72 329.88, 347.50 329.18 C 348.29 328.48, 348.70 328.04, 349.38 327.14 C 350.06 326.24, 350.38 325.70, 350.91 324.67 C 351.44 323.64, 351.68 323.06, 352.04 321.97 C 352.39 320.88, 352.54 320.29, 352.70 319.21 C 352.86 318.13, 352.90 317.56, 352.84 316.57 C 352.78 315.59, 352.69 315.08, 352.39 314.28 C 352.08 313.49, 351.85 313.10, 351.30 312.60 C 350.76 312.10, 350.42 311.90, 349.64 311.77 C 348.87 311.64, 348.44 311.67, 347.43 311.96 C 346.41 312.24, 345.85 312.52, 344.57 313.21 C 343.30 313.91, 342.56 314.40, 341.05 315.44 C 339.55 316.48, 338.69 317.14, 337.04 318.41 C 335.40 319.67, 334.49 320.43, 332.83 321.76 C 331.18 323.09, 330.30 323.83, 328.76 325.04 C 327.23 326.25, 326.45 326.86, 325.17 327.81 C 323.90 328.75, 323.29 329.17, 322.38 329.78 C 321.46 330.38, 321.11 330.61, 320.61 330.82 C 320.12 331.02, 320.00 331.05, 319.91 330.79 C 319.82 330.53, 319.88 330.27, 320.15 329.52 C 320.42 328.77, 320.68 328.19, 321.26 327.04 C 321.85 325.90, 322.30 325.14, 323.09 323.79 C 323.88 322.44, 324.47 321.64, 325.22 320.28 C 325.97 318.92, 326.43 318.14, 326.82 316.98 C 327.22 315.82, 327.33 315.25, 327.19 314.48 C 327.05 313.71, 326.79 313.41, 326.11 313.11 C 325.43 312.80, 324.87 312.85, 323.81 312.97 C 322.75 313.08, 322.04 313.38, 320.79 313.68 C 319.54 313.97, 318.82 314.19, 317.56 314.43 C 316.30 314.67, 315.62 314.79, 314.47 314.89 C 313.33 314.98, 312.76 314.99, 311.84 314.92 C 310.92 314.85, 310.52 314.70, 309.87 314.54 C 309.22 314.38, 309.03 314.23, 308.58 314.12 C 308.14 314.01, 307.96 313.98, 307.63 314.00 C 307.31 314.03, 307.21 314.02, 306.96 314.26 C 306.71 314.50, 306.69 314.62, 306.40 315.20 C 306.11 315.77, 306.00 316.17, 305.50 317.13 C 304.99 318.09, 304.67 318.74, 303.88 320.01 C 303.08 321.27, 302.56 322.08, 301.52 323.45 C 300.49 324.82, 299.85 325.64, 298.72 326.87 C 297.59 328.10, 296.94 328.72, 295.88 329.61 C 294.81 330.50, 294.25 330.85, 293.40 331.32 C 292.55 331.79, 292.18 331.93, 291.62 331.94 C 291.07 331.95, 290.87 331.84, 290.62 331.37 C 290.37 330.91, 290.32 330.52, 290.36 329.62 C 290.40 328.72, 290.56 328.07, 290.81 326.86 C 291.07 325.64, 291.39 324.81, 291.62 323.55 C 291.85 322.29, 292.02 321.48, 291.97 320.54 C 291.93 319.60, 291.85 319.14, 291.39 318.85 C 290.93 318.56, 290.56 318.59, 289.66 319.10 C 288.76 319.61, 288.13 320.24, 286.89 321.42 C 285.65 322.60, 284.85 323.56, 283.46 324.99 C 282.07 326.42, 281.27 327.28, 279.93 328.58 C 278.59 329.88, 277.86 330.53, 276.76 331.48 C 275.67 332.43, 275.16 332.84, 274.43 333.34 C 273.71 333.84, 273.46 334.02, 273.14 333.97 C 272.82 333.92, 272.78 333.77, 272.85 333.11 C 272.91 332.45, 273.06 331.91, 273.47 330.68 C 273.87 329.45, 274.20 328.60, 274.86 326.97 C 275.51 325.35, 276.00 324.30, 276.76 322.54 C 277.51 320.79, 277.99 319.77, 278.63 318.20 C 279.28 316.64, 279.60 315.86, 279.99 314.72 C 280.38 313.58, 280.46 313.15, 280.58 312.52 C 280.71 311.88, 280.70 311.77, 280.60 311.53 C 280.50 311.29, 280.35 311.22, 280.11 311.31" style="stroke: white; fill: white;"/><path d="M 449.26,305.61 C 449.64 305.48, 449.99 305.20, 450.67 304.55 C 451.36 303.91, 451.80 303.45, 452.68 302.38 C 453.56 301.32, 454.11 300.58, 455.07 299.23 C 456.03 297.88, 456.55 297.10, 457.49 295.62 C 458.43 294.14, 458.92 293.32, 459.75 291.82 C 460.59 290.32, 461.02 289.50, 461.67 288.10 C 462.31 286.70, 462.61 286.01, 462.97 284.83 C 463.33 283.64, 463.47 283.08, 463.48 282.20 C 463.49 281.32, 463.40 280.90, 463.02 280.42 C 462.64 279.95, 462.30 279.74, 461.58 279.81 C 460.86 279.88, 460.39 280.01, 459.43 280.77 C 458.47 281.53, 457.94 282.10, 456.79 283.60 C 455.63 285.10, 454.98 286.06, 453.65 288.26 C 452.32 290.46, 451.60 291.82, 450.15 294.60 C 448.70 297.38, 447.92 299.00, 446.40 302.16 C 444.88 305.32, 444.07 307.08, 442.56 310.42 C 441.04 313.77, 440.26 315.57, 438.80 318.88 C 437.35 322.19, 436.61 323.93, 435.28 326.98 C 433.96 330.02, 433.26 331.55, 432.16 334.11 C 431.06 336.67, 430.56 337.89, 429.77 339.78 C 428.98 341.68, 428.64 342.50, 428.21 343.58 C 427.79 344.66, 427.72 345.01, 427.65 345.18 C 427.59 345.36, 427.73 345.16, 427.90 344.46 C 428.07 343.77, 428.26 343.10, 428.49 341.70 C 428.72 340.31, 428.83 339.28, 429.06 337.50 C 429.29 335.72, 429.38 334.62, 429.63 332.79 C 429.88 330.95, 430.04 329.97, 430.30 328.32 C 430.56 326.67, 430.70 325.88, 430.93 324.53 C 431.15 323.19, 431.23 322.59, 431.42 321.60 C 431.61 320.62, 431.64 320.21, 431.88 319.60 C 432.11 318.98, 432.18 318.82, 432.60 318.51 C 433.01 318.20, 433.22 318.19, 433.96 318.06 C 434.70 317.93, 435.15 317.95, 436.29 317.85 C 437.43 317.74, 438.14 317.72, 439.66 317.54 C 441.17 317.36, 442.08 317.25, 443.87 316.95 C 445.65 316.65, 446.65 316.46, 448.59 316.04 C 450.53 315.63, 451.59 315.38, 453.57 314.87 C 455.55 314.35, 456.61 314.06, 458.47 313.47 C 460.34 312.89, 461.28 312.55, 462.88 311.95 C 464.47 311.35, 465.24 311.03, 466.44 310.46 C 467.63 309.89, 468.16 309.62, 468.84 309.10 C 469.52 308.58, 469.72 308.30, 469.84 307.86 C 469.95 307.42, 469.82 307.14, 469.41 306.92 C 469.00 306.69, 468.58 306.58, 467.81 306.72 C 467.03 306.86, 466.49 307.06, 465.53 307.63 C 464.58 308.20, 464.01 308.66, 463.03 309.57 C 462.05 310.49, 461.48 311.07, 460.62 312.20 C 459.75 313.32, 459.29 314.01, 458.70 315.20 C 458.11 316.40, 457.86 317.06, 457.67 318.17 C 457.48 319.28, 457.50 319.85, 457.77 320.74 C 458.04 321.63, 458.34 322.05, 459.03 322.61 C 459.72 323.17, 460.23 323.38, 461.22 323.53 C 462.20 323.68, 462.83 323.63, 463.96 323.35 C 465.08 323.08, 465.71 322.79, 466.83 322.15 C 467.94 321.52, 468.53 321.06, 469.51 320.17 C 470.49 319.28, 470.98 318.72, 471.71 317.69 C 472.45 316.65, 472.76 316.05, 473.16 315.00 C 473.56 313.95, 473.66 313.37, 473.71 312.42 C 473.77 311.46, 473.65 310.99, 473.43 310.23 C 473.20 309.48, 472.95 309.11, 472.58 308.64 C 472.20 308.16, 471.90 307.96, 471.55 307.85 C 471.19 307.74, 470.90 307.88, 470.81 308.09 C 470.71 308.29, 470.72 308.59, 471.07 308.87 C 471.42 309.15, 471.76 309.31, 472.55 309.48 C 473.35 309.65, 473.91 309.67, 475.06 309.70 C 476.21 309.73, 476.93 309.69, 478.30 309.63 C 479.67 309.57, 480.48 309.50, 481.93 309.41 C 483.37 309.33, 484.18 309.24, 485.54 309.19 C 486.89 309.15, 487.60 309.12, 488.70 309.19 C 489.80 309.26, 490.35 309.29, 491.03 309.55 C 491.71 309.80, 491.93 309.96, 492.11 310.46 C 492.29 310.97, 492.20 311.30, 491.94 312.07 C 491.68 312.84, 491.37 313.34, 490.81 314.32 C 490.26 315.29, 489.82 315.93, 489.17 316.92 C 488.51 317.92, 488.03 318.49, 487.55 319.31 C 487.06 320.13, 486.85 320.55, 486.74 321.02 C 486.64 321.49, 486.73 321.67, 487.03 321.66 C 487.34 321.64, 487.65 321.48, 488.27 320.94 C 488.88 320.40, 489.30 319.90, 490.11 318.95 C 490.93 318.01, 491.38 317.32, 492.34 316.21 C 493.30 315.11, 493.86 314.46, 494.91 313.43 C 495.96 312.40, 496.55 311.89, 497.61 311.06 C 498.67 310.23, 499.21 309.86, 500.22 309.28 C 501.23 308.70, 501.71 308.49, 502.67 308.16 C 503.63 307.84, 504.09 307.76, 505.04 307.64 C 505.98 307.51, 506.43 307.54, 507.40 307.54 C 508.38 307.54, 508.97 307.63, 509.92 307.63 C 510.87 307.63, 511.40 307.63, 512.16 307.54 C 512.92 307.45, 513.40 307.37, 513.71 307.18 C 514.03 306.99, 514.03 306.80, 513.73 306.59 C 513.42 306.39, 512.95 306.29, 512.20 306.15 C 511.44 306.02, 510.92 305.97, 509.95 305.93 C 508.99 305.88, 508.39 305.89, 507.36 305.94 C 506.34 305.99, 505.85 306.01, 504.82 306.18 C 503.79 306.34, 503.27 306.42, 502.20 306.78 C 501.14 307.14, 500.60 307.36, 499.49 307.96 C 498.37 308.55, 497.79 308.93, 496.63 309.76 C 495.48 310.60, 494.85 311.11, 493.70 312.13 C 492.55 313.16, 491.93 313.79, 490.88 314.88 C 489.83 315.97, 489.24 316.58, 488.45 317.59 C 487.66 318.61, 487.29 319.18, 486.93 319.95 C 486.57 320.72, 486.55 321.11, 486.65 321.44 C 486.76 321.77, 487.00 321.82, 487.46 321.61 C 487.92 321.39, 488.29 321.08, 488.95 320.36 C 489.62 319.64, 490.08 319.04, 490.78 318.00 C 491.49 316.97, 491.95 316.29, 492.48 315.17 C 493.00 314.05, 493.27 313.43, 493.41 312.40 C 493.55 311.37, 493.54 310.82, 493.18 310.02 C 492.81 309.21, 492.44 308.86, 491.58 308.38 C 490.72 307.90, 490.08 307.81, 488.87 307.63 C 487.66 307.45, 486.92 307.49, 485.52 307.48 C 484.11 307.48, 483.30 307.55, 481.84 307.60 C 480.39 307.65, 479.59 307.71, 478.25 307.72 C 476.90 307.74, 476.21 307.72, 475.12 307.68 C 474.03 307.64, 473.54 307.55, 472.79 307.53 C 472.03 307.51, 471.76 307.48, 471.36 307.59 C 470.95 307.69, 470.86 307.84, 470.76 308.07 C 470.65 308.30, 470.70 308.45, 470.84 308.73 C 470.97 309.01, 471.18 309.10, 471.42 309.48 C 471.67 309.86, 471.91 310.07, 472.08 310.64 C 472.25 311.20, 472.34 311.55, 472.27 312.31 C 472.20 313.07, 472.10 313.54, 471.72 314.42 C 471.34 315.30, 471.05 315.81, 470.37 316.70 C 469.70 317.60, 469.23 318.09, 468.34 318.87 C 467.46 319.65, 466.91 320.05, 465.94 320.61 C 464.97 321.18, 464.42 321.41, 463.50 321.69 C 462.59 321.96, 462.11 322.02, 461.37 322.00 C 460.63 321.98, 460.28 321.90, 459.81 321.58 C 459.33 321.26, 459.13 321.03, 458.99 320.41 C 458.86 319.78, 458.88 319.36, 459.12 318.48 C 459.36 317.60, 459.61 317.02, 460.20 315.99 C 460.78 314.96, 461.22 314.33, 462.05 313.33 C 462.87 312.34, 463.41 311.80, 464.32 311.01 C 465.24 310.21, 465.80 309.88, 466.61 309.34 C 467.43 308.80, 467.84 308.64, 468.39 308.31 C 468.93 307.97, 469.14 307.82, 469.33 307.66 C 469.51 307.49, 469.53 307.42, 469.30 307.50 C 469.07 307.57, 468.88 307.71, 468.18 308.03 C 467.49 308.35, 467.00 308.61, 465.83 309.10 C 464.66 309.58, 463.90 309.90, 462.33 310.45 C 460.76 311.01, 459.82 311.33, 457.99 311.87 C 456.15 312.42, 455.10 312.71, 453.15 313.20 C 451.19 313.68, 450.14 313.92, 448.23 314.32 C 446.31 314.71, 445.33 314.88, 443.57 315.15 C 441.82 315.43, 440.93 315.51, 439.43 315.70 C 437.93 315.88, 437.24 315.91, 436.07 316.10 C 434.89 316.29, 434.42 316.34, 433.57 316.65 C 432.73 316.95, 432.42 317.11, 431.86 317.60 C 431.29 318.10, 431.12 318.37, 430.76 319.11 C 430.41 319.85, 430.34 320.27, 430.07 321.30 C 429.81 322.33, 429.72 322.91, 429.44 324.26 C 429.16 325.60, 429.00 326.39, 428.67 328.03 C 428.34 329.68, 428.15 330.66, 427.81 332.50 C 427.47 334.34, 427.24 335.41, 426.98 337.22 C 426.73 339.02, 426.56 340.06, 426.53 341.52 C 426.50 342.99, 426.57 343.73, 426.83 344.53 C 427.08 345.33, 427.34 345.61, 427.82 345.53 C 428.30 345.44, 428.58 345.14, 429.24 344.10 C 429.89 343.07, 430.22 342.24, 431.10 340.36 C 431.97 338.49, 432.50 337.29, 433.59 334.72 C 434.68 332.15, 435.27 330.58, 436.55 327.52 C 437.83 324.45, 438.55 322.71, 439.99 319.40 C 441.44 316.10, 442.22 314.30, 443.76 310.97 C 445.29 307.65, 446.11 305.91, 447.68 302.79 C 449.25 299.68, 450.09 298.10, 451.61 295.40 C 453.13 292.69, 453.93 291.39, 455.27 289.26 C 456.62 287.13, 457.26 286.20, 458.32 284.74 C 459.37 283.29, 459.85 282.77, 460.56 281.99 C 461.27 281.20, 461.51 281.04, 461.86 280.81 C 462.21 280.58, 462.25 280.61, 462.32 280.86 C 462.39 281.11, 462.37 281.37, 462.22 282.07 C 462.06 282.76, 461.95 283.27, 461.55 284.34 C 461.14 285.41, 460.86 286.08, 460.20 287.40 C 459.55 288.73, 459.12 289.53, 458.27 290.98 C 457.43 292.43, 456.95 293.22, 456.00 294.65 C 455.04 296.07, 454.47 296.79, 453.51 298.10 C 452.54 299.42, 451.97 300.12, 451.18 301.23 C 450.38 302.33, 450.03 302.84, 449.54 303.63 C 449.06 304.43, 448.82 304.79, 448.76 305.19 C 448.70 305.58, 448.87 305.73, 449.26 305.61" style="stroke: white; fill: white;"/><path d="M 557.00,286.25 C 556.75 286.34, 556.66 286.43, 556.26 286.96 C 555.86 287.49, 555.63 287.80, 554.99 288.89 C 554.36 289.97, 553.99 290.72, 553.08 292.39 C 552.17 294.07, 551.62 295.15, 550.46 297.24 C 549.29 299.34, 548.56 300.58, 547.27 302.87 C 545.98 305.16, 545.22 306.43, 544.00 308.70 C 542.79 310.97, 542.13 312.18, 541.21 314.22 C 540.28 316.25, 539.83 317.26, 539.37 318.90 C 538.90 320.54, 538.76 321.28, 538.86 322.40 C 538.97 323.53, 539.19 323.98, 539.89 324.53 C 540.58 325.09, 541.13 325.23, 542.35 325.16 C 543.57 325.09, 544.36 324.84, 545.97 324.18 C 547.57 323.51, 548.51 322.94, 550.37 321.82 C 552.22 320.71, 553.28 319.96, 555.24 318.61 C 557.21 317.27, 558.30 316.46, 560.19 315.10 C 562.08 313.74, 563.07 313.00, 564.70 311.82 C 566.33 310.64, 567.12 310.07, 568.34 309.19 C 569.56 308.30, 570.10 307.96, 570.81 307.40 C 571.51 306.85, 571.71 306.68, 571.89 306.43 C 572.06 306.18, 571.94 306.11, 571.68 306.14 C 571.43 306.17, 571.13 306.23, 570.63 306.58 C 570.12 306.93, 569.82 307.21, 569.17 307.90 C 568.52 308.59, 568.13 309.08, 567.39 310.02 C 566.65 310.96, 566.19 311.54, 565.46 312.60 C 564.73 313.66, 564.32 314.27, 563.74 315.33 C 563.17 316.39, 562.88 316.96, 562.60 317.91 C 562.33 318.86, 562.27 319.35, 562.38 320.09 C 562.49 320.84, 562.67 321.20, 563.16 321.66 C 563.65 322.12, 564.05 322.30, 564.83 322.39 C 565.62 322.47, 566.14 322.39, 567.07 322.07 C 568.00 321.75, 568.54 321.45, 569.48 320.79 C 570.42 320.13, 570.94 319.67, 571.78 318.77 C 572.62 317.87, 573.06 317.32, 573.68 316.29 C 574.30 315.27, 574.58 314.68, 574.89 313.66 C 575.20 312.63, 575.26 312.08, 575.23 311.17 C 575.21 310.26, 575.06 309.83, 574.78 309.13 C 574.51 308.43, 574.25 308.10, 573.86 307.67 C 573.46 307.23, 573.14 307.05, 572.79 306.96 C 572.44 306.87, 572.17 307.04, 572.12 307.21 C 572.06 307.38, 572.11 307.65, 572.52 307.81 C 572.93 307.97, 573.28 308.06, 574.17 308.01 C 575.07 307.95, 575.66 307.87, 576.98 307.55 C 578.29 307.23, 579.08 306.99, 580.73 306.40 C 582.37 305.82, 583.32 305.44, 585.20 304.61 C 587.07 303.77, 588.12 303.27, 590.10 302.23 C 592.09 301.19, 593.18 300.59, 595.14 299.42 C 597.10 298.25, 598.11 297.58, 599.89 296.38 C 601.68 295.18, 602.60 294.52, 604.08 293.41 C 605.57 292.29, 606.37 291.67, 607.32 290.80 C 608.26 289.92, 608.60 289.42, 608.80 289.02 C 609.00 288.61, 608.84 288.46, 608.34 288.77 C 607.84 289.08, 607.33 289.45, 606.29 290.57 C 605.26 291.70, 604.52 292.60, 603.17 294.39 C 601.81 296.19, 601.01 297.42, 599.50 299.55 C 597.99 301.69, 597.11 302.92, 595.62 305.07 C 594.12 307.23, 593.32 308.39, 592.03 310.33 C 590.74 312.27, 590.11 313.27, 589.16 314.77 C 588.21 316.28, 587.81 316.94, 587.29 317.86 C 586.77 318.79, 586.64 319.07, 586.56 319.40 C 586.48 319.74, 586.62 319.72, 586.89 319.54 C 587.15 319.37, 587.54 319.10, 587.88 318.54 C 588.23 317.98, 588.49 317.46, 588.61 316.75 C 588.73 316.04, 588.63 315.54, 588.47 314.97 C 588.32 314.40, 588.15 314.13, 587.83 313.92 C 587.51 313.70, 587.18 313.69, 586.87 313.89 C 586.56 314.10, 586.29 314.43, 586.28 314.95 C 586.28 315.46, 586.39 315.91, 586.84 316.48 C 587.29 317.05, 587.65 317.37, 588.53 317.79 C 589.40 318.20, 589.96 318.39, 591.22 318.56 C 592.47 318.73, 593.22 318.75, 594.81 318.62 C 596.40 318.49, 597.32 318.33, 599.16 317.91 C 600.99 317.48, 602.02 317.15, 603.96 316.50 C 605.91 315.86, 606.97 315.44, 608.88 314.68 C 610.80 313.92, 611.82 313.46, 613.54 312.70 C 615.25 311.94, 616.11 311.52, 617.48 310.89 C 618.85 310.25, 619.48 309.96, 620.37 309.52 C 621.27 309.09, 621.60 308.92, 621.95 308.71 C 622.30 308.51, 622.27 308.44, 622.14 308.51 C 622.01 308.58, 621.73 308.66, 621.29 309.05 C 620.86 309.44, 620.53 309.76, 619.96 310.45 C 619.40 311.14, 619.09 311.64, 618.48 312.51 C 617.87 313.38, 617.53 313.88, 616.93 314.80 C 616.33 315.72, 616.02 316.21, 615.50 317.09 C 614.98 317.97, 614.74 318.41, 614.32 319.21 C 613.89 320.00, 613.71 320.39, 613.38 321.07 C 613.04 321.74, 612.92 322.06, 612.64 322.58 C 612.35 323.11, 612.23 323.31, 611.97 323.68 C 611.70 324.05, 611.59 324.20, 611.33 324.41 C 611.07 324.63, 610.95 324.65, 610.68 324.74 C 610.40 324.83, 610.20 324.78, 609.95 324.86 C 609.71 324.93, 609.61 325.00, 609.43 325.10 C 609.26 325.21, 609.17 325.23, 609.09 325.38 C 609.01 325.53, 608.95 325.69, 609.02 325.86 C 609.09 326.03, 609.20 326.14, 609.44 326.25 C 609.67 326.35, 609.84 326.41, 610.20 326.38 C 610.56 326.35, 610.82 326.30, 611.22 326.11 C 611.63 325.93, 611.85 325.78, 612.22 325.46 C 612.59 325.14, 612.75 324.94, 613.08 324.51 C 613.41 324.07, 613.56 323.84, 613.89 323.29 C 614.21 322.74, 614.34 322.42, 614.70 321.75 C 615.06 321.09, 615.23 320.72, 615.67 319.96 C 616.11 319.20, 616.35 318.79, 616.90 317.96 C 617.44 317.12, 617.76 316.66, 618.39 315.80 C 619.02 314.94, 619.39 314.48, 620.04 313.66 C 620.68 312.83, 621.10 312.43, 621.61 311.67 C 622.12 310.91, 622.37 310.51, 622.59 309.87 C 622.80 309.23, 622.83 308.88, 622.68 308.48 C 622.52 308.08, 622.37 307.92, 621.80 307.88 C 621.24 307.83, 620.86 307.94, 619.87 308.26 C 618.88 308.58, 618.25 308.88, 616.85 309.47 C 615.46 310.05, 614.60 310.45, 612.88 311.17 C 611.16 311.89, 610.15 312.33, 608.25 313.06 C 606.36 313.79, 605.31 314.19, 603.41 314.80 C 601.51 315.42, 600.50 315.73, 598.75 316.13 C 597.00 316.53, 596.12 316.67, 594.66 316.80 C 593.19 316.93, 592.52 316.89, 591.44 316.77 C 590.36 316.65, 589.91 316.47, 589.26 316.19 C 588.61 315.90, 588.48 315.64, 588.18 315.33 C 587.89 315.03, 587.92 314.88, 587.78 314.67 C 587.64 314.46, 587.60 314.38, 587.48 314.30 C 587.37 314.22, 587.32 314.14, 587.19 314.27 C 587.05 314.39, 586.99 314.52, 586.81 314.93 C 586.63 315.33, 586.44 315.67, 586.29 316.29 C 586.14 316.91, 586.08 317.38, 586.08 318.01 C 586.07 318.64, 586.09 319.09, 586.27 319.45 C 586.45 319.81, 586.57 319.99, 586.99 319.81 C 587.40 319.64, 587.64 319.41, 588.32 318.57 C 589.01 317.73, 589.41 317.07, 590.42 315.61 C 591.44 314.15, 592.07 313.17, 593.40 311.27 C 594.73 309.37, 595.54 308.22, 597.07 306.10 C 598.61 303.99, 599.51 302.78, 601.08 300.70 C 602.64 298.62, 603.56 297.49, 604.90 295.69 C 606.24 293.89, 606.95 293.01, 607.77 291.71 C 608.59 290.42, 608.87 289.86, 609.01 289.22 C 609.15 288.58, 608.99 288.43, 608.46 288.51 C 607.94 288.59, 607.46 288.91, 606.39 289.63 C 605.32 290.34, 604.60 291.02, 603.11 292.10 C 601.63 293.17, 600.74 293.83, 598.97 295.00 C 597.20 296.17, 596.20 296.80, 594.26 297.94 C 592.33 299.07, 591.25 299.66, 589.29 300.66 C 587.33 301.66, 586.30 302.15, 584.47 302.94 C 582.63 303.73, 581.70 304.08, 580.11 304.62 C 578.52 305.16, 577.74 305.32, 576.51 305.62 C 575.27 305.92, 574.73 305.94, 573.92 306.12 C 573.10 306.30, 572.84 306.31, 572.43 306.52 C 572.03 306.73, 571.97 306.90, 571.90 307.18 C 571.83 307.47, 571.91 307.64, 572.08 307.93 C 572.26 308.22, 572.49 308.28, 572.77 308.62 C 573.05 308.96, 573.28 309.13, 573.48 309.64 C 573.69 310.15, 573.81 310.47, 573.79 311.18 C 573.77 311.88, 573.71 312.32, 573.40 313.16 C 573.09 314.01, 572.83 314.51, 572.25 315.38 C 571.66 316.25, 571.25 316.75, 570.48 317.52 C 569.71 318.30, 569.22 318.69, 568.41 319.27 C 567.60 319.85, 567.13 320.08, 566.41 320.42 C 565.70 320.76, 565.34 320.87, 564.83 320.96 C 564.32 321.04, 564.12 321.04, 563.87 320.85 C 563.62 320.66, 563.55 320.51, 563.58 320.02 C 563.61 319.53, 563.69 319.17, 564.02 318.41 C 564.35 317.64, 564.64 317.14, 565.23 316.19 C 565.82 315.25, 566.24 314.67, 566.97 313.68 C 567.71 312.70, 568.16 312.15, 568.91 311.27 C 569.67 310.39, 570.14 309.99, 570.73 309.26 C 571.32 308.54, 571.58 308.22, 571.87 307.65 C 572.16 307.08, 572.23 306.77, 572.18 306.41 C 572.14 306.05, 572.06 305.87, 571.65 305.86 C 571.24 305.85, 570.97 305.94, 570.14 306.36 C 569.32 306.78, 568.79 307.14, 567.51 307.97 C 566.23 308.79, 565.43 309.35, 563.76 310.49 C 562.10 311.63, 561.10 312.35, 559.19 313.67 C 557.28 314.98, 556.17 315.78, 554.21 317.08 C 552.25 318.38, 551.18 319.09, 549.38 320.18 C 547.58 321.26, 546.65 321.77, 545.20 322.49 C 543.75 323.21, 543.09 323.50, 542.14 323.77 C 541.18 324.03, 540.85 324.09, 540.41 323.82 C 539.98 323.54, 539.91 323.28, 539.97 322.38 C 540.04 321.49, 540.20 320.84, 540.74 319.34 C 541.28 317.85, 541.71 316.87, 542.67 314.91 C 543.63 312.94, 544.29 311.76, 545.53 309.53 C 546.77 307.31, 547.54 306.05, 548.86 303.78 C 550.18 301.51, 550.95 300.28, 552.14 298.20 C 553.34 296.11, 553.94 295.03, 554.84 293.34 C 555.74 291.64, 556.12 290.89, 556.64 289.73 C 557.15 288.56, 557.24 288.17, 557.41 287.52 C 557.58 286.88, 557.58 286.74, 557.50 286.49 C 557.42 286.23, 557.25 286.15, 557.00 286.25" style="stroke: white; fill: white;"/><path d="M 670.62,311.34 C 670.56 311.08, 670.43 310.88, 670.06 310.63 C 669.68 310.37, 669.39 310.19, 668.74 310.08 C 668.08 309.96, 667.64 309.91, 666.78 310.05 C 665.92 310.19, 665.44 310.33, 664.44 310.77 C 663.45 311.22, 662.87 311.52, 661.79 312.26 C 660.71 313.00, 660.07 313.49, 659.06 314.48 C 658.05 315.48, 657.48 316.10, 656.73 317.22 C 655.98 318.34, 655.62 318.99, 655.30 320.07 C 654.99 321.14, 654.95 321.73, 655.17 322.59 C 655.40 323.45, 655.69 323.87, 656.44 324.38 C 657.18 324.89, 657.75 325.07, 658.89 325.13 C 660.03 325.20, 660.77 325.08, 662.15 324.68 C 663.52 324.29, 664.34 323.91, 665.76 323.14 C 667.18 322.37, 667.97 321.85, 669.25 320.84 C 670.53 319.84, 671.20 319.23, 672.18 318.13 C 673.16 317.04, 673.60 316.42, 674.15 315.37 C 674.69 314.31, 674.84 313.76, 674.92 312.87 C 675.01 311.97, 674.87 311.54, 674.58 310.89 C 674.29 310.25, 673.96 309.94, 673.48 309.64 C 673.00 309.34, 672.57 309.28, 672.19 309.40 C 671.81 309.51, 671.54 309.87, 671.58 310.22 C 671.62 310.57, 671.76 310.90, 672.38 311.16 C 673.00 311.42, 673.49 311.55, 674.67 311.50 C 675.84 311.46, 676.61 311.34, 678.26 310.94 C 679.90 310.53, 680.89 310.23, 682.90 309.48 C 684.90 308.73, 686.05 308.24, 688.28 307.19 C 690.51 306.13, 691.75 305.49, 694.04 304.19 C 696.33 302.90, 697.57 302.15, 699.75 300.70 C 701.92 299.25, 703.05 298.44, 704.91 296.97 C 706.77 295.49, 707.68 294.68, 709.04 293.31 C 710.39 291.95, 710.98 291.26, 711.69 290.12 C 712.40 288.98, 712.60 288.43, 712.61 287.62 C 712.61 286.82, 712.38 286.42, 711.72 286.10 C 711.06 285.79, 710.49 285.71, 709.32 286.04 C 708.15 286.37, 707.41 286.70, 705.89 287.76 C 704.36 288.81, 703.46 289.56, 701.70 291.32 C 699.94 293.07, 698.95 294.18, 697.07 296.55 C 695.19 298.91, 694.18 300.34, 692.29 303.14 C 690.40 305.95, 689.41 307.56, 687.62 310.56 C 685.84 313.57, 684.96 315.21, 683.36 318.17 C 681.77 321.13, 680.98 322.69, 679.64 325.36 C 678.31 328.03, 677.69 329.37, 676.68 331.53 C 675.66 333.70, 675.22 334.69, 674.55 336.18 C 673.89 337.67, 673.63 338.24, 673.35 338.99 C 673.07 339.75, 673.08 339.92, 673.15 339.95 C 673.22 339.99, 673.45 339.77, 673.71 339.17 C 673.97 338.57, 674.19 338.00, 674.45 336.96 C 674.71 335.91, 674.78 335.16, 675.00 333.95 C 675.22 332.74, 675.31 332.01, 675.55 330.89 C 675.79 329.76, 675.90 329.20, 676.20 328.32 C 676.50 327.45, 676.62 327.09, 677.05 326.51 C 677.49 325.93, 677.70 325.76, 678.37 325.42 C 679.04 325.09, 679.42 325.02, 680.42 324.83 C 681.41 324.63, 682.01 324.60, 683.34 324.44 C 684.68 324.28, 685.46 324.21, 687.08 324.03 C 688.70 323.84, 689.62 323.75, 691.43 323.51 C 693.24 323.28, 694.24 323.15, 696.13 322.86 C 698.03 322.56, 699.17 322.37, 700.90 322.02 C 702.63 321.67, 703.51 321.47, 704.76 321.12 C 706.02 320.76, 706.73 320.53, 707.19 320.25 C 707.65 319.98, 707.62 319.81, 707.09 319.72 C 706.55 319.64, 705.82 319.71, 704.53 319.83 C 703.23 319.95, 702.34 320.06, 700.60 320.31 C 698.87 320.56, 697.74 320.81, 695.86 321.10 C 693.98 321.39, 693.00 321.53, 691.21 321.76 C 689.41 321.99, 688.49 322.05, 686.87 322.24 C 685.25 322.42, 684.48 322.48, 683.11 322.68 C 681.74 322.89, 681.12 322.95, 680.04 323.25 C 678.96 323.56, 678.50 323.72, 677.69 324.21 C 676.89 324.70, 676.58 324.98, 676.00 325.69 C 675.43 326.40, 675.24 326.81, 674.81 327.76 C 674.37 328.71, 674.21 329.28, 673.85 330.44 C 673.49 331.59, 673.28 332.30, 673.00 333.54 C 672.71 334.77, 672.52 335.51, 672.41 336.61 C 672.30 337.71, 672.32 338.34, 672.46 339.06 C 672.59 339.77, 672.76 340.09, 673.11 340.18 C 673.46 340.26, 673.66 340.16, 674.20 339.48 C 674.73 338.80, 675.01 338.23, 675.78 336.78 C 676.55 335.32, 677.00 334.34, 678.04 332.19 C 679.09 330.04, 679.69 328.70, 681.00 326.03 C 682.31 323.36, 683.03 321.78, 684.59 318.83 C 686.16 315.88, 687.04 314.25, 688.82 311.28 C 690.61 308.31, 691.61 306.72, 693.52 303.99 C 695.44 301.27, 696.51 299.91, 698.41 297.64 C 700.31 295.38, 701.32 294.34, 703.03 292.67 C 704.75 291.00, 705.63 290.33, 706.99 289.29 C 708.36 288.25, 708.99 287.95, 709.88 287.47 C 710.78 286.99, 711.10 286.88, 711.48 286.89 C 711.85 286.89, 711.91 287.01, 711.74 287.50 C 711.56 288.00, 711.36 288.41, 710.61 289.36 C 709.85 290.30, 709.31 290.95, 707.97 292.22 C 706.63 293.48, 705.73 294.26, 703.90 295.67 C 702.07 297.09, 700.95 297.88, 698.81 299.28 C 696.66 300.67, 695.44 301.40, 693.18 302.66 C 690.92 303.91, 689.70 304.53, 687.51 305.54 C 685.32 306.55, 684.19 307.01, 682.25 307.71 C 680.31 308.41, 679.34 308.66, 677.79 309.03 C 676.25 309.41, 675.55 309.44, 674.51 309.58 C 673.48 309.71, 673.13 309.62, 672.61 309.70 C 672.10 309.78, 672.04 309.81, 671.94 309.96 C 671.84 310.11, 671.93 310.29, 672.10 310.45 C 672.26 310.61, 672.48 310.58, 672.75 310.77 C 673.03 310.96, 673.31 311.00, 673.49 311.39 C 673.67 311.77, 673.79 312.05, 673.67 312.70 C 673.54 313.35, 673.41 313.78, 672.87 314.64 C 672.33 315.50, 671.91 316.05, 670.97 317.01 C 670.04 317.97, 669.40 318.53, 668.18 319.43 C 666.96 320.33, 666.20 320.81, 664.88 321.50 C 663.56 322.20, 662.80 322.52, 661.60 322.92 C 660.39 323.33, 659.78 323.44, 658.87 323.53 C 657.97 323.61, 657.57 323.57, 657.06 323.33 C 656.55 323.09, 656.39 322.90, 656.32 322.35 C 656.25 321.80, 656.34 321.39, 656.71 320.56 C 657.07 319.74, 657.41 319.18, 658.13 318.23 C 658.86 317.28, 659.40 316.70, 660.34 315.81 C 661.28 314.92, 661.88 314.46, 662.85 313.78 C 663.81 313.09, 664.34 312.80, 665.18 312.40 C 666.03 312.01, 666.40 311.92, 667.07 311.80 C 667.73 311.69, 668.01 311.80, 668.51 311.84 C 669.01 311.87, 669.20 311.96, 669.56 311.98 C 669.93 311.99, 670.11 312.05, 670.32 311.92 C 670.53 311.80, 670.67 311.60, 670.62 311.34" style="stroke: white; fill: white;"/><path d="M 751.35,292.64 C 751.11 292.74, 751.02 292.85, 750.70 293.35 C 750.38 293.84, 750.21 294.13, 749.74 295.13 C 749.26 296.12, 749.01 296.82, 748.34 298.32 C 747.67 299.83, 747.27 300.79, 746.37 302.65 C 745.48 304.50, 744.91 305.60, 743.86 307.60 C 742.80 309.60, 742.16 310.73, 741.11 312.66 C 740.06 314.59, 739.46 315.61, 738.60 317.26 C 737.74 318.91, 737.29 319.69, 736.83 320.90 C 736.37 322.11, 736.22 322.62, 736.31 323.29 C 736.40 323.97, 736.64 324.18, 737.28 324.28 C 737.91 324.37, 738.42 324.23, 739.48 323.76 C 740.54 323.29, 741.22 322.81, 742.59 321.91 C 743.96 321.02, 744.77 320.33, 746.31 319.29 C 747.84 318.24, 748.72 317.61, 750.27 316.68 C 751.81 315.75, 752.66 315.28, 754.04 314.64 C 755.41 313.99, 756.10 313.74, 757.13 313.45 C 758.17 313.16, 758.61 313.13, 759.22 313.19 C 759.84 313.26, 760.02 313.39, 760.21 313.77 C 760.40 314.15, 760.37 314.42, 760.19 315.08 C 760.01 315.74, 759.84 316.18, 759.33 317.06 C 758.81 317.95, 758.47 318.53, 757.62 319.52 C 756.77 320.51, 756.21 321.07, 755.08 322.01 C 753.94 322.94, 753.23 323.44, 751.95 324.19 C 750.67 324.94, 749.92 325.28, 748.67 325.78 C 747.42 326.27, 746.74 326.44, 745.71 326.65 C 744.68 326.86, 744.19 326.87, 743.51 326.84 C 742.82 326.80, 742.57 326.68, 742.30 326.46 C 742.03 326.23, 742.00 326.08, 742.13 325.71 C 742.27 325.33, 742.43 325.11, 742.97 324.58 C 743.52 324.05, 743.90 323.71, 744.85 323.06 C 745.80 322.41, 746.40 322.01, 747.71 321.32 C 749.01 320.64, 749.80 320.27, 751.38 319.62 C 752.97 318.97, 753.89 318.64, 755.62 318.06 C 757.35 317.47, 758.29 317.18, 760.03 316.69 C 761.77 316.20, 762.69 315.98, 764.31 315.61 C 765.92 315.24, 766.75 315.08, 768.10 314.85 C 769.45 314.61, 770.07 314.52, 771.05 314.42 C 772.03 314.33, 772.45 314.32, 773.00 314.36 C 773.55 314.40, 773.68 314.43, 773.82 314.64 C 773.95 314.85, 773.84 314.97, 773.66 315.40 C 773.48 315.82, 773.25 316.12, 772.91 316.78 C 772.57 317.45, 772.31 317.90, 771.95 318.72 C 771.60 319.55, 771.37 320.06, 771.13 320.90 C 770.88 321.74, 770.74 322.20, 770.74 322.92 C 770.74 323.65, 770.80 324.02, 771.12 324.54 C 771.45 325.05, 771.71 325.30, 772.35 325.49 C 772.99 325.69, 773.42 325.69, 774.32 325.52 C 775.21 325.35, 775.74 325.14, 776.83 324.64 C 777.92 324.13, 778.53 323.75, 779.77 323.01 C 781.00 322.27, 781.70 321.80, 783.01 320.94 C 784.31 320.09, 785.02 319.58, 786.28 318.73 C 787.55 317.87, 788.23 317.42, 789.34 316.68 C 790.45 315.95, 791.08 315.55, 791.85 315.06 C 792.62 314.56, 792.92 314.33, 793.19 314.19 C 793.47 314.05, 793.41 314.07, 793.22 314.36 C 793.03 314.66, 792.74 314.95, 792.25 315.66 C 791.77 316.37, 791.37 316.94, 790.77 317.92 C 790.17 318.89, 789.80 319.56, 789.25 320.53 C 788.69 321.50, 788.32 322.02, 787.98 322.77 C 787.64 323.52, 787.52 323.88, 787.55 324.30 C 787.58 324.72, 787.75 324.86, 788.14 324.86 C 788.52 324.87, 788.86 324.73, 789.47 324.32 C 790.07 323.90, 790.45 323.50, 791.17 322.77 C 791.90 322.04, 792.29 321.49, 793.10 320.66 C 793.91 319.84, 794.38 319.37, 795.23 318.64 C 796.08 317.92, 796.52 317.58, 797.34 317.05 C 798.17 316.51, 798.56 316.31, 799.35 315.97 C 800.15 315.63, 800.51 315.55, 801.30 315.36 C 802.10 315.16, 802.47 315.15, 803.34 315.00 C 804.21 314.85, 804.64 314.83, 805.65 314.60 C 806.65 314.38, 807.19 314.28, 808.36 313.86 C 809.54 313.44, 810.18 313.18, 811.52 312.51 C 812.86 311.84, 813.59 311.44, 815.07 310.50 C 816.55 309.57, 817.36 309.01, 818.93 307.84 C 820.51 306.68, 821.35 306.00, 822.94 304.69 C 824.53 303.38, 825.38 302.63, 826.87 301.28 C 828.36 299.92, 829.14 299.18, 830.41 297.92 C 831.69 296.67, 832.42 295.98, 833.27 295.00 C 834.11 294.02, 834.44 293.49, 834.65 293.02 C 834.86 292.55, 834.74 292.39, 834.32 292.65 C 833.90 292.90, 833.47 293.25, 832.54 294.30 C 831.62 295.35, 830.95 296.20, 829.69 297.90 C 828.42 299.60, 827.67 300.76, 826.24 302.82 C 824.81 304.87, 824.00 306.07, 822.55 308.18 C 821.10 310.29, 820.31 311.43, 818.98 313.38 C 817.66 315.32, 816.98 316.33, 815.92 317.92 C 814.86 319.51, 814.38 320.24, 813.69 321.34 C 813.00 322.44, 812.81 322.82, 812.46 323.42 C 812.12 324.02, 812.03 324.11, 811.98 324.34 C 811.93 324.57, 811.99 324.64, 812.22 324.56 C 812.45 324.49, 812.62 324.44, 813.14 323.95 C 813.65 323.47, 813.99 323.16, 814.80 322.13 C 815.62 321.09, 816.09 320.36, 817.20 318.80 C 818.31 317.24, 819.00 316.25, 820.36 314.33 C 821.72 312.41, 822.52 311.28, 824.02 309.21 C 825.51 307.13, 826.34 305.96, 827.83 303.95 C 829.31 301.95, 830.20 300.90, 831.43 299.18 C 832.67 297.46, 833.32 296.59, 834.02 295.35 C 834.72 294.11, 834.90 293.55, 834.93 292.98 C 834.96 292.40, 834.73 292.29, 834.17 292.47 C 833.62 292.65, 833.15 293.04, 832.16 293.89 C 831.18 294.74, 830.54 295.50, 829.25 296.72 C 827.97 297.95, 827.22 298.69, 825.73 300.01 C 824.25 301.34, 823.41 302.06, 821.84 303.35 C 820.27 304.63, 819.43 305.29, 817.89 306.43 C 816.35 307.56, 815.56 308.11, 814.13 309.02 C 812.70 309.92, 812.01 310.30, 810.74 310.96 C 809.46 311.61, 808.87 311.86, 807.78 312.28 C 806.68 312.69, 806.21 312.80, 805.27 313.05 C 804.33 313.29, 803.92 313.32, 803.06 313.50 C 802.19 313.68, 801.80 313.72, 800.95 313.94 C 800.09 314.16, 799.68 314.25, 798.79 314.61 C 797.91 314.96, 797.45 315.17, 796.52 315.71 C 795.60 316.24, 795.10 316.58, 794.15 317.29 C 793.20 318.00, 792.67 318.45, 791.77 319.25 C 790.86 320.04, 790.32 320.49, 789.61 321.26 C 788.89 322.03, 788.54 322.47, 788.17 323.10 C 787.80 323.72, 787.73 324.07, 787.74 324.38 C 787.75 324.69, 787.90 324.79, 788.22 324.65 C 788.54 324.50, 788.82 324.26, 789.35 323.65 C 789.89 323.03, 790.23 322.51, 790.89 321.58 C 791.54 320.66, 792.02 320.05, 792.62 319.02 C 793.22 318.00, 793.58 317.36, 793.88 316.44 C 794.18 315.52, 794.25 315.02, 794.11 314.41 C 793.98 313.81, 793.77 313.54, 793.19 313.41 C 792.60 313.28, 792.14 313.37, 791.19 313.75 C 790.24 314.12, 789.62 314.56, 788.45 315.27 C 787.28 315.97, 786.62 316.45, 785.33 317.28 C 784.05 318.11, 783.33 318.60, 782.02 319.42 C 780.72 320.24, 780.02 320.68, 778.81 321.39 C 777.61 322.09, 776.99 322.43, 776.00 322.93 C 775.01 323.43, 774.55 323.61, 773.86 323.88 C 773.17 324.16, 772.91 324.26, 772.55 324.29 C 772.19 324.32, 772.13 324.28, 772.06 324.05 C 771.98 323.81, 772.02 323.61, 772.17 323.10 C 772.32 322.59, 772.49 322.22, 772.80 321.51 C 773.12 320.79, 773.38 320.32, 773.74 319.51 C 774.11 318.71, 774.37 318.26, 774.62 317.48 C 774.87 316.70, 775.00 316.27, 774.99 315.60 C 774.98 314.92, 774.91 314.58, 774.56 314.11 C 774.21 313.64, 773.95 313.46, 773.23 313.24 C 772.51 313.02, 772.05 313.00, 770.98 313.02 C 769.90 313.04, 769.26 313.12, 767.86 313.32 C 766.45 313.52, 765.61 313.67, 763.96 314.02 C 762.30 314.36, 761.36 314.58, 759.58 315.06 C 757.80 315.53, 756.84 315.82, 755.07 316.40 C 753.29 316.98, 752.35 317.29, 750.70 317.95 C 749.06 318.61, 748.24 318.96, 746.85 319.68 C 745.46 320.41, 744.79 320.79, 743.77 321.56 C 742.74 322.33, 742.28 322.75, 741.73 323.55 C 741.17 324.34, 741.01 324.81, 740.98 325.54 C 740.95 326.26, 741.11 326.67, 741.57 327.19 C 742.04 327.70, 742.44 327.92, 743.32 328.11 C 744.19 328.30, 744.77 328.30, 745.96 328.14 C 747.14 327.98, 747.88 327.81, 749.25 327.32 C 750.62 326.83, 751.42 326.48, 752.81 325.70 C 754.21 324.92, 754.97 324.41, 756.22 323.41 C 757.46 322.41, 758.08 321.82, 759.02 320.72 C 759.96 319.61, 760.38 318.98, 760.90 317.89 C 761.42 316.80, 761.58 316.21, 761.62 315.28 C 761.66 314.34, 761.54 313.86, 761.10 313.22 C 760.66 312.58, 760.30 312.32, 759.44 312.09 C 758.59 311.87, 758.04 311.87, 756.83 312.08 C 755.62 312.30, 754.88 312.55, 753.39 313.16 C 751.90 313.77, 751.01 314.24, 749.38 315.14 C 747.75 316.03, 746.83 316.64, 745.23 317.65 C 743.64 318.66, 742.75 319.26, 741.42 320.19 C 740.09 321.12, 739.45 321.63, 738.61 322.30 C 737.76 322.97, 737.49 323.31, 737.18 323.53 C 736.87 323.74, 736.89 323.77, 737.07 323.36 C 737.26 322.95, 737.51 322.55, 738.10 321.49 C 738.69 320.42, 739.12 319.63, 740.03 318.04 C 740.94 316.44, 741.55 315.43, 742.64 313.51 C 743.73 311.60, 744.38 310.47, 745.48 308.47 C 746.57 306.47, 747.17 305.37, 748.10 303.50 C 749.04 301.63, 749.49 300.67, 750.16 299.13 C 750.83 297.59, 751.11 296.88, 751.45 295.81 C 751.80 294.74, 751.82 294.39, 751.90 293.80 C 751.99 293.20, 751.99 293.07, 751.88 292.84 C 751.76 292.61, 751.58 292.54, 751.35 292.64" style="stroke: white; fill: white;"/><path d="M 812.03,319.54 C 812.12 319.80, 812.24 320.06, 812.75 320.32 C 813.25 320.58, 813.62 320.76, 814.54 320.84 C 815.46 320.92, 816.07 320.95, 817.35 320.73 C 818.63 320.51, 819.37 320.29, 820.94 319.72 C 822.52 319.15, 823.40 318.76, 825.20 317.88 C 827.01 316.99, 828.03 316.46, 829.99 315.29 C 831.95 314.13, 833.01 313.43, 835.01 312.06 C 837.01 310.69, 838.08 309.91, 840.00 308.43 C 841.91 306.95, 842.90 306.13, 844.58 304.67 C 846.26 303.22, 847.10 302.44, 848.39 301.14 C 849.69 299.84, 850.32 299.20, 851.08 298.17 C 851.85 297.14, 852.11 296.63, 852.22 295.98 C 852.34 295.32, 852.16 295.01, 851.64 294.89 C 851.13 294.76, 850.62 294.81, 849.65 295.36 C 848.68 295.90, 848.04 296.40, 846.78 297.60 C 845.52 298.80, 844.79 299.68, 843.36 301.35 C 841.93 303.03, 841.08 304.08, 839.63 305.97 C 838.18 307.86, 837.38 308.95, 836.11 310.82 C 834.83 312.68, 834.19 313.68, 833.24 315.31 C 832.28 316.94, 831.84 317.72, 831.35 318.98 C 830.85 320.25, 830.69 320.80, 830.76 321.63 C 830.83 322.45, 831.06 322.77, 831.69 323.10 C 832.33 323.43, 832.84 323.44, 833.93 323.27 C 835.02 323.09, 835.74 322.79, 837.13 322.20 C 838.52 321.61, 839.37 321.10, 840.87 320.33 C 842.37 319.56, 843.30 319.02, 844.63 318.34 C 845.96 317.67, 846.64 317.32, 847.52 316.96 C 848.40 316.60, 848.70 316.51, 849.03 316.56 C 849.37 316.61, 849.30 316.76, 849.19 317.20 C 849.08 317.63, 848.76 318.00, 848.48 318.74 C 848.20 319.48, 847.93 320.03, 847.80 320.91 C 847.67 321.78, 847.63 322.34, 847.83 323.12 C 848.03 323.91, 848.20 324.33, 848.81 324.83 C 849.42 325.33, 849.86 325.53, 850.88 325.63 C 851.90 325.74, 852.53 325.67, 853.90 325.35 C 855.26 325.03, 856.07 324.71, 857.70 324.04 C 859.32 323.38, 860.27 322.90, 862.02 322.04 C 863.76 321.18, 864.73 320.64, 866.42 319.75 C 868.11 318.86, 869.01 318.36, 870.46 317.58 C 871.91 316.81, 872.63 316.45, 873.68 315.88 C 874.73 315.30, 875.17 315.10, 875.70 314.73 C 876.24 314.36, 876.34 314.23, 876.36 314.02 C 876.37 313.82, 876.18 313.70, 875.77 313.71 C 875.36 313.71, 875.00 313.76, 874.32 314.05 C 873.63 314.35, 873.23 314.60, 872.35 315.18 C 871.48 315.76, 870.93 316.16, 869.94 316.94 C 868.95 317.72, 868.35 318.20, 867.40 319.08 C 866.45 319.97, 865.94 320.49, 865.20 321.38 C 864.46 322.27, 864.08 322.75, 863.69 323.55 C 863.31 324.35, 863.19 324.77, 863.26 325.38 C 863.33 325.99, 863.53 326.31, 864.05 326.60 C 864.57 326.88, 864.99 326.97, 865.86 326.80 C 866.73 326.63, 867.27 326.40, 868.40 325.74 C 869.53 325.07, 870.17 324.59, 871.50 323.49 C 872.83 322.40, 873.58 321.71, 875.05 320.27 C 876.52 318.84, 877.32 317.98, 878.84 316.33 C 880.35 314.67, 881.16 313.75, 882.62 312.00 C 884.08 310.26, 884.83 309.30, 886.13 307.61 C 887.44 305.92, 888.07 305.05, 889.13 303.55 C 890.19 302.06, 890.71 301.34, 891.42 300.12 C 892.13 298.90, 892.47 298.24, 892.67 297.45 C 892.88 296.66, 892.79 296.29, 892.44 296.16 C 892.09 296.03, 891.68 296.15, 890.94 296.81 C 890.20 297.46, 889.69 298.06, 888.74 299.44 C 887.79 300.83, 887.21 301.87, 886.19 303.74 C 885.16 305.60, 884.56 306.76, 883.62 308.78 C 882.67 310.80, 882.16 311.91, 881.47 313.83 C 880.77 315.74, 880.43 316.72, 880.15 318.35 C 879.87 319.98, 879.82 320.75, 880.05 321.96 C 880.28 323.18, 880.55 323.71, 881.31 324.43 C 882.06 325.14, 882.63 325.37, 883.84 325.54 C 885.06 325.72, 885.84 325.64, 887.38 325.29 C 888.93 324.95, 889.83 324.58, 891.58 323.83 C 893.32 323.07, 894.30 322.51, 896.11 321.51 C 897.91 320.51, 898.89 319.88, 900.60 318.83 C 902.31 317.77, 903.19 317.17, 904.64 316.22 C 906.10 315.26, 906.80 314.79, 907.88 314.05 C 908.97 313.30, 909.43 313.01, 910.04 312.50 C 910.66 311.99, 910.82 311.81, 910.94 311.49 C 911.07 311.16, 910.95 311.03, 910.68 310.87 C 910.40 310.72, 910.09 310.63, 909.58 310.73 C 909.06 310.82, 908.73 310.98, 908.09 311.35 C 907.45 311.72, 907.15 312.00, 906.37 312.58 C 905.60 313.17, 905.11 313.49, 904.22 314.27 C 903.32 315.05, 902.78 315.53, 901.90 316.46 C 901.02 317.39, 900.56 317.94, 899.83 318.92 C 899.09 319.91, 898.69 320.45, 898.24 321.38 C 897.78 322.31, 897.61 322.80, 897.56 323.58 C 897.51 324.37, 897.62 324.79, 898.01 325.32 C 898.40 325.85, 898.75 326.08, 899.51 326.23 C 900.27 326.38, 900.78 326.36, 901.80 326.09 C 902.82 325.82, 903.43 325.54, 904.61 324.90 C 905.79 324.25, 906.45 323.78, 907.71 322.87 C 908.97 321.96, 909.69 321.39, 910.91 320.35 C 912.13 319.31, 912.89 318.64, 913.80 317.65 C 914.72 316.67, 915.14 316.07, 915.48 315.42 C 915.83 314.77, 915.78 314.50, 915.54 314.40 C 915.30 314.30, 914.90 314.43, 914.27 314.93 C 913.64 315.43, 913.04 315.95, 912.38 316.90 C 911.73 317.85, 911.35 318.60, 910.99 319.67 C 910.63 320.74, 910.52 321.35, 910.59 322.24 C 910.66 323.13, 910.79 323.56, 911.34 324.12 C 911.89 324.67, 912.33 324.89, 913.33 325.00 C 914.34 325.11, 915.03 325.02, 916.36 324.67 C 917.69 324.33, 918.48 323.98, 919.98 323.27 C 921.48 322.57, 922.35 322.05, 923.88 321.15 C 925.40 320.26, 926.27 319.69, 927.63 318.78 C 928.98 317.88, 929.74 317.33, 930.65 316.62 C 931.56 315.91, 931.85 315.49, 932.19 315.23 C 932.53 314.96, 932.29 315.31, 932.35 315.29 C 932.41 315.28, 932.55 315.31, 932.48 315.17 C 932.40 315.02, 932.51 314.54, 931.97 314.57 C 931.44 314.60, 930.87 314.76, 929.81 315.30 C 928.75 315.84, 928.03 316.43, 926.66 317.28 C 925.29 318.13, 924.45 318.70, 922.95 319.55 C 921.45 320.40, 920.59 320.87, 919.17 321.54 C 917.74 322.21, 917.00 322.50, 915.83 322.90 C 914.67 323.29, 914.10 323.44, 913.35 323.53 C 912.59 323.63, 912.34 323.62, 912.05 323.37 C 911.77 323.13, 911.77 322.89, 911.92 322.31 C 912.07 321.73, 912.33 321.31, 912.81 320.47 C 913.28 319.63, 913.78 319.04, 914.31 318.11 C 914.84 317.18, 915.20 316.54, 915.47 315.81 C 915.74 315.08, 915.82 314.71, 915.66 314.47 C 915.50 314.24, 915.28 314.26, 914.66 314.64 C 914.04 315.02, 913.56 315.52, 912.56 316.37 C 911.57 317.23, 910.90 317.94, 909.71 318.93 C 908.52 319.93, 907.82 320.49, 906.62 321.35 C 905.41 322.21, 904.75 322.63, 903.68 323.24 C 902.61 323.86, 902.07 324.09, 901.25 324.42 C 900.44 324.76, 900.09 324.86, 899.61 324.92 C 899.12 324.98, 898.98 324.96, 898.82 324.73 C 898.66 324.51, 898.64 324.30, 898.80 323.78 C 898.96 323.26, 899.13 322.89, 899.61 322.13 C 900.08 321.37, 900.47 320.87, 901.19 319.99 C 901.91 319.11, 902.37 318.59, 903.22 317.73 C 904.07 316.87, 904.59 316.41, 905.44 315.68 C 906.29 314.95, 906.74 314.61, 907.47 314.08 C 908.21 313.55, 908.56 313.42, 909.13 313.04 C 909.70 312.67, 909.98 312.54, 910.32 312.21 C 910.66 311.87, 910.77 311.61, 910.81 311.37 C 910.86 311.13, 910.84 310.99, 910.55 311.01 C 910.26 311.03, 910.05 311.11, 909.36 311.47 C 908.66 311.83, 908.20 312.13, 907.08 312.80 C 905.96 313.47, 905.25 313.94, 903.77 314.84 C 902.29 315.75, 901.41 316.33, 899.70 317.34 C 897.99 318.35, 897.01 318.96, 895.24 319.91 C 893.46 320.87, 892.49 321.39, 890.83 322.12 C 889.17 322.86, 888.33 323.19, 886.95 323.59 C 885.58 324.00, 884.93 324.13, 883.95 324.13 C 882.97 324.14, 882.59 324.08, 882.05 323.61 C 881.52 323.14, 881.36 322.78, 881.28 321.79 C 881.19 320.80, 881.26 320.12, 881.62 318.65 C 881.97 317.18, 882.30 316.24, 883.04 314.43 C 883.77 312.62, 884.30 311.53, 885.29 309.60 C 886.27 307.66, 886.94 306.56, 887.98 304.75 C 889.02 302.93, 889.67 301.96, 890.48 300.54 C 891.30 299.12, 891.66 298.49, 892.05 297.65 C 892.44 296.82, 892.52 296.51, 892.44 296.38 C 892.37 296.24, 892.16 296.40, 891.70 296.98 C 891.24 297.57, 890.91 298.18, 890.14 299.31 C 889.37 300.44, 888.91 301.18, 887.85 302.63 C 886.79 304.09, 886.14 304.94, 884.83 306.59 C 883.52 308.24, 882.77 309.18, 881.31 310.89 C 879.85 312.59, 879.04 313.50, 877.53 315.12 C 876.02 316.73, 875.21 317.56, 873.77 318.94 C 872.32 320.32, 871.57 320.98, 870.29 322.02 C 869.02 323.06, 868.38 323.47, 867.40 324.13 C 866.41 324.80, 865.98 325.01, 865.37 325.33 C 864.76 325.65, 864.58 325.73, 864.35 325.75 C 864.11 325.77, 864.10 325.72, 864.21 325.43 C 864.33 325.14, 864.48 324.88, 864.93 324.30 C 865.38 323.71, 865.72 323.27, 866.46 322.50 C 867.20 321.73, 867.69 321.25, 868.62 320.44 C 869.55 319.64, 870.14 319.19, 871.11 318.47 C 872.08 317.76, 872.65 317.43, 873.48 316.87 C 874.32 316.30, 874.72 316.11, 875.29 315.65 C 875.85 315.19, 876.09 314.93, 876.30 314.56 C 876.50 314.18, 876.52 313.93, 876.32 313.77 C 876.11 313.60, 875.91 313.56, 875.25 313.72 C 874.60 313.88, 874.15 314.07, 873.04 314.55 C 871.93 315.03, 871.20 315.39, 869.71 316.12 C 868.23 316.85, 867.31 317.33, 865.61 318.18 C 863.91 319.03, 862.94 319.55, 861.21 320.36 C 859.48 321.18, 858.53 321.63, 856.97 322.28 C 855.41 322.92, 854.64 323.21, 853.43 323.58 C 852.21 323.95, 851.69 324.05, 850.91 324.11 C 850.13 324.18, 849.86 324.13, 849.53 323.90 C 849.20 323.67, 849.21 323.46, 849.25 322.94 C 849.28 322.42, 849.51 322.05, 849.71 321.30 C 849.91 320.54, 850.14 320.02, 850.25 319.18 C 850.37 318.35, 850.47 317.80, 850.28 317.12 C 850.09 316.44, 849.94 316.08, 849.32 315.78 C 848.69 315.48, 848.24 315.43, 847.15 315.61 C 846.06 315.80, 845.31 316.10, 843.88 316.69 C 842.44 317.27, 841.49 317.79, 839.97 318.53 C 838.45 319.26, 837.58 319.73, 836.29 320.37 C 834.99 321.02, 834.35 321.36, 833.49 321.75 C 832.62 322.14, 832.32 322.34, 831.96 322.32 C 831.60 322.30, 831.56 322.22, 831.69 321.67 C 831.82 321.11, 832.02 320.66, 832.60 319.55 C 833.19 318.45, 833.61 317.68, 834.59 316.13 C 835.58 314.59, 836.22 313.61, 837.52 311.81 C 838.82 310.01, 839.63 308.95, 841.10 307.12 C 842.57 305.29, 843.43 304.27, 844.86 302.66 C 846.28 301.04, 847.07 300.25, 848.22 299.05 C 849.37 297.84, 849.91 297.34, 850.61 296.63 C 851.31 295.91, 851.53 295.65, 851.70 295.46 C 851.88 295.26, 851.82 295.28, 851.48 295.65 C 851.14 296.01, 850.84 296.39, 850.01 297.27 C 849.17 298.14, 848.60 298.79, 847.30 300.02 C 846.00 301.25, 845.18 302.01, 843.51 303.42 C 841.84 304.84, 840.86 305.64, 838.96 307.08 C 837.07 308.52, 836.00 309.28, 834.03 310.62 C 832.05 311.96, 831.01 312.63, 829.08 313.76 C 827.16 314.89, 826.16 315.40, 824.41 316.25 C 822.66 317.09, 821.80 317.46, 820.32 317.99 C 818.84 318.52, 818.16 318.68, 817.02 318.89 C 815.87 319.10, 815.38 319.01, 814.60 319.04 C 813.82 319.07, 813.56 319.04, 813.11 319.04 C 812.66 319.03, 812.55 318.90, 812.33 319.00 C 812.11 319.10, 811.95 319.27, 812.03 319.54" style="stroke: white; fill: white;"/><path d="M 935.95,318.39 C 936.22 318.46, 936.44 318.33, 936.89 318.19 C 937.33 318.06, 937.59 317.94, 938.16 317.71 C 938.73 317.47, 939.08 317.28, 939.74 317.01 C 940.40 316.75, 940.77 316.60, 941.45 316.37 C 942.14 316.14, 942.51 316.09, 943.18 315.87 C 943.84 315.64, 944.49 315.51, 944.79 315.23 C 945.10 314.95, 945.08 314.66, 944.69 314.48 C 944.31 314.29, 943.62 314.26, 942.87 314.31 C 942.13 314.35, 941.73 314.51, 940.97 314.70 C 940.21 314.89, 939.79 314.99, 939.07 315.26 C 938.34 315.52, 937.94 315.69, 937.34 316.03 C 936.75 316.36, 936.46 316.56, 936.10 316.92 C 935.74 317.29, 935.57 317.55, 935.54 317.84 C 935.52 318.13, 935.68 318.31, 935.95 318.39" style="stroke: white; fill: white;"/><path d="M 953.42,312.81 C 953.15 312.83, 953.05 312.85, 952.40 313.26 C 951.74 313.66, 951.30 313.92, 950.16 314.85 C 949.01 315.79, 948.32 316.42, 946.67 317.92 C 945.02 319.41, 943.99 320.36, 941.93 322.34 C 939.87 324.31, 938.67 325.53, 936.38 327.81 C 934.09 330.09, 932.78 331.37, 930.49 333.72 C 928.19 336.07, 926.93 337.34, 924.89 339.54 C 922.85 341.74, 921.82 342.86, 920.29 344.71 C 918.75 346.55, 918.07 347.45, 917.21 348.77 C 916.35 350.08, 916.26 350.56, 915.98 351.29 C 915.69 352.03, 915.76 352.19, 915.78 352.44 C 915.80 352.70, 915.88 352.71, 916.06 352.55 C 916.24 352.40, 916.22 352.27, 916.66 351.66 C 917.11 351.06, 917.31 350.73, 918.27 349.54 C 919.24 348.35, 919.92 347.50, 921.47 345.71 C 923.02 343.92, 924.02 342.79, 926.04 340.60 C 928.06 338.42, 929.27 337.10, 931.56 334.78 C 933.85 332.45, 935.16 331.17, 937.50 328.96 C 939.83 326.75, 941.12 325.63, 943.22 323.71 C 945.32 321.80, 946.36 320.87, 948.00 319.38 C 949.63 317.88, 950.35 317.27, 951.40 316.24 C 952.45 315.21, 952.78 314.83, 953.26 314.22 C 953.74 313.61, 953.75 313.48, 953.79 313.20 C 953.82 312.92, 953.70 312.80, 953.42 312.81" style="stroke: white; fill: white;"/><path d="M 1009.14,301.78 C 1009.48 301.61, 1009.78 301.24, 1010.26 300.57 C 1010.74 299.91, 1011.05 299.42, 1011.55 298.45 C 1012.04 297.48, 1012.35 296.82, 1012.74 295.72 C 1013.13 294.63, 1013.29 294.05, 1013.50 292.99 C 1013.71 291.93, 1013.81 291.38, 1013.78 290.43 C 1013.76 289.47, 1013.70 288.97, 1013.38 288.20 C 1013.06 287.44, 1012.81 287.06, 1012.17 286.62 C 1011.52 286.18, 1011.09 286.00, 1010.16 286.02 C 1009.24 286.03, 1008.70 286.11, 1007.56 286.69 C 1006.42 287.27, 1005.80 287.68, 1004.46 288.90 C 1003.13 290.12, 1002.38 290.93, 1000.89 292.81 C 999.40 294.69, 998.57 295.85, 996.99 298.32 C 995.41 300.79, 994.60 302.25, 993.00 305.16 C 991.39 308.07, 990.57 309.71, 988.96 312.87 C 987.35 316.03, 986.53 317.75, 984.96 320.97 C 983.39 324.19, 982.60 325.89, 981.10 328.98 C 979.60 332.07, 978.83 333.65, 977.46 336.41 C 976.08 339.17, 975.38 340.53, 974.22 342.77 C 973.07 345.01, 972.53 346.05, 971.68 347.61 C 970.84 349.17, 970.47 349.69, 969.99 350.57 C 969.50 351.44, 969.43 351.64, 969.24 351.99 C 969.05 352.34, 969.06 352.21, 969.04 352.31 C 969.02 352.41, 969.00 352.46, 969.13 352.48 C 969.26 352.49, 969.33 352.65, 969.69 352.39 C 970.05 352.13, 970.29 352.01, 970.93 351.19 C 971.57 350.37, 971.95 349.84, 972.89 348.30 C 973.82 346.76, 974.41 345.72, 975.58 343.47 C 976.76 341.22, 977.42 339.83, 978.76 337.05 C 980.11 334.27, 980.83 332.66, 982.31 329.56 C 983.78 326.46, 984.57 324.76, 986.15 321.55 C 987.72 318.33, 988.55 316.63, 990.18 313.50 C 991.81 310.37, 992.65 308.75, 994.31 305.91 C 995.97 303.06, 996.86 301.68, 998.47 299.29 C 1000.07 296.90, 1000.90 295.78, 1002.34 293.97 C 1003.79 292.15, 1004.50 291.38, 1005.70 290.22 C 1006.90 289.05, 1007.45 288.69, 1008.36 288.13 C 1009.27 287.57, 1009.64 287.50, 1010.27 287.40 C 1010.89 287.30, 1011.10 287.38, 1011.47 287.64 C 1011.84 287.89, 1011.94 288.12, 1012.10 288.67 C 1012.26 289.23, 1012.31 289.62, 1012.27 290.41 C 1012.23 291.20, 1012.15 291.69, 1011.90 292.61 C 1011.64 293.54, 1011.40 294.04, 1010.98 295.05 C 1010.57 296.05, 1010.23 296.67, 1009.81 297.64 C 1009.40 298.60, 1009.16 299.11, 1008.90 299.87 C 1008.65 300.64, 1008.49 301.08, 1008.53 301.46 C 1008.58 301.84, 1008.79 301.96, 1009.14 301.78" style="stroke: white; fill: white;"/><path d="M 973.89,326.79 C 974.13 326.98, 974.34 327.02, 975.05 327.11 C 975.75 327.19, 976.24 327.25, 977.41 327.20 C 978.58 327.16, 979.36 327.11, 980.91 326.89 C 982.46 326.67, 983.38 326.52, 985.16 326.10 C 986.95 325.68, 987.94 325.42, 989.83 324.80 C 991.73 324.19, 992.75 323.80, 994.63 323.02 C 996.52 322.24, 997.51 321.78, 999.28 320.89 C 1001.05 320.00, 1001.95 319.48, 1003.50 318.57 C 1005.04 317.66, 1005.82 317.17, 1006.99 316.32 C 1008.17 315.47, 1008.78 314.97, 1009.37 314.33 C 1009.96 313.69, 1010.06 313.31, 1009.93 313.13 C 1009.80 312.95, 1009.41 312.99, 1008.73 313.43 C 1008.04 313.87, 1007.44 314.33, 1006.51 315.33 C 1005.58 316.32, 1004.94 317.13, 1004.08 318.40 C 1003.22 319.68, 1002.73 320.49, 1002.22 321.71 C 1001.70 322.92, 1001.51 323.54, 1001.49 324.47 C 1001.47 325.41, 1001.60 325.84, 1002.13 326.39 C 1002.65 326.94, 1003.11 327.14, 1004.10 327.23 C 1005.10 327.31, 1005.76 327.21, 1007.08 326.81 C 1008.41 326.42, 1009.21 326.04, 1010.75 325.25 C 1012.28 324.45, 1013.17 323.88, 1014.77 322.86 C 1016.36 321.84, 1017.26 321.20, 1018.72 320.13 C 1020.18 319.06, 1021.04 318.41, 1022.06 317.53 C 1023.09 316.64, 1023.50 316.15, 1023.85 315.69 C 1024.20 315.23, 1024.10 315.11, 1023.81 315.23 C 1023.52 315.35, 1023.05 315.61, 1022.38 316.28 C 1021.71 316.95, 1021.12 317.54, 1020.46 318.57 C 1019.81 319.59, 1019.46 320.33, 1019.11 321.39 C 1018.75 322.44, 1018.62 322.99, 1018.70 323.82 C 1018.79 324.64, 1018.95 325.03, 1019.52 325.50 C 1020.09 325.96, 1020.55 326.13, 1021.56 326.15 C 1022.57 326.17, 1023.22 326.02, 1024.56 325.58 C 1025.90 325.14, 1026.70 324.75, 1028.27 323.97 C 1029.84 323.18, 1030.77 322.61, 1032.41 321.66 C 1034.05 320.70, 1034.97 320.10, 1036.46 319.18 C 1037.95 318.26, 1038.81 317.74, 1039.86 317.05 C 1040.91 316.37, 1041.35 316.02, 1041.72 315.77 C 1042.10 315.51, 1041.99 315.52, 1041.72 315.78 C 1041.44 316.04, 1041.02 316.36, 1040.34 317.07 C 1039.67 317.78, 1039.09 318.35, 1038.35 319.31 C 1037.60 320.27, 1037.13 320.94, 1036.63 321.87 C 1036.13 322.81, 1035.90 323.31, 1035.86 323.98 C 1035.82 324.65, 1035.91 324.96, 1036.42 325.22 C 1036.92 325.48, 1037.37 325.51, 1038.39 325.28 C 1039.41 325.06, 1040.11 324.72, 1041.53 324.09 C 1042.96 323.45, 1043.87 322.91, 1045.52 322.11 C 1047.17 321.32, 1048.24 320.79, 1049.79 320.11 C 1051.35 319.44, 1052.19 319.08, 1053.31 318.72 C 1054.42 318.36, 1054.87 318.27, 1055.39 318.31 C 1055.91 318.36, 1055.94 318.49, 1055.92 318.93 C 1055.89 319.37, 1055.59 319.73, 1055.26 320.51 C 1054.93 321.29, 1054.56 321.83, 1054.27 322.81 C 1053.97 323.80, 1053.77 324.42, 1053.76 325.42 C 1053.76 326.42, 1053.76 327.02, 1054.23 327.80 C 1054.70 328.57, 1055.23 328.91, 1056.10 329.31 C 1056.97 329.71, 1057.68 329.82, 1058.59 329.81 C 1059.50 329.80, 1060.23 329.51, 1060.63 329.24 C 1061.03 328.97, 1060.97 328.69, 1060.58 328.48 C 1060.20 328.26, 1059.48 328.27, 1058.70 328.15 C 1057.92 328.02, 1057.34 328.05, 1056.67 327.85 C 1056.00 327.65, 1055.60 327.60, 1055.34 327.14 C 1055.08 326.69, 1055.22 326.32, 1055.38 325.57 C 1055.54 324.83, 1055.84 324.33, 1056.14 323.40 C 1056.44 322.48, 1056.74 321.90, 1056.88 320.96 C 1057.03 320.03, 1057.13 319.46, 1056.88 318.74 C 1056.63 318.03, 1056.41 317.69, 1055.63 317.40 C 1054.85 317.10, 1054.28 317.06, 1052.97 317.26 C 1051.67 317.46, 1050.77 317.79, 1049.11 318.39 C 1047.45 318.98, 1046.35 319.48, 1044.65 320.24 C 1042.95 321.01, 1042.00 321.49, 1040.63 322.20 C 1039.26 322.90, 1038.62 323.29, 1037.81 323.76 C 1037.00 324.24, 1036.76 324.45, 1036.55 324.56 C 1036.35 324.67, 1036.48 324.65, 1036.81 324.33 C 1037.13 324.01, 1037.50 323.68, 1038.17 322.96 C 1038.84 322.23, 1039.42 321.67, 1040.16 320.70 C 1040.89 319.73, 1041.39 319.05, 1041.85 318.10 C 1042.31 317.15, 1042.51 316.58, 1042.45 315.96 C 1042.40 315.34, 1042.25 315.06, 1041.58 315.00 C 1040.91 314.95, 1040.32 315.15, 1039.12 315.67 C 1037.91 316.20, 1037.08 316.77, 1035.55 317.64 C 1034.02 318.51, 1033.10 319.11, 1031.47 320.03 C 1029.84 320.95, 1028.91 321.47, 1027.40 322.23 C 1025.89 322.99, 1025.11 323.33, 1023.92 323.82 C 1022.72 324.31, 1022.19 324.48, 1021.43 324.66 C 1020.66 324.84, 1020.39 324.86, 1020.09 324.70 C 1019.79 324.54, 1019.77 324.38, 1019.90 323.87 C 1020.04 323.36, 1020.28 322.97, 1020.78 322.16 C 1021.29 321.35, 1021.82 320.79, 1022.43 319.81 C 1023.04 318.83, 1023.47 318.15, 1023.85 317.26 C 1024.22 316.38, 1024.39 315.86, 1024.30 315.40 C 1024.21 314.94, 1024.04 314.80, 1023.39 314.96 C 1022.74 315.12, 1022.21 315.47, 1021.07 316.21 C 1019.93 316.95, 1019.13 317.64, 1017.67 318.66 C 1016.21 319.67, 1015.33 320.31, 1013.77 321.28 C 1012.21 322.26, 1011.32 322.78, 1009.86 323.54 C 1008.40 324.29, 1007.65 324.62, 1006.49 325.08 C 1005.33 325.53, 1004.81 325.69, 1004.07 325.82 C 1003.32 325.95, 1003.05 325.97, 1002.77 325.74 C 1002.50 325.50, 1002.49 325.28, 1002.68 324.64 C 1002.88 323.99, 1003.12 323.50, 1003.75 322.51 C 1004.38 321.51, 1004.95 320.82, 1005.83 319.66 C 1006.71 318.49, 1007.39 317.76, 1008.17 316.69 C 1008.94 315.62, 1009.35 315.03, 1009.70 314.31 C 1010.06 313.58, 1010.15 313.25, 1009.94 313.06 C 1009.73 312.88, 1009.41 312.98, 1008.64 313.36 C 1007.87 313.75, 1007.29 314.24, 1006.10 315.00 C 1004.90 315.77, 1004.19 316.29, 1002.68 317.17 C 1001.16 318.05, 1000.27 318.54, 998.54 319.40 C 996.80 320.25, 995.84 320.70, 993.99 321.44 C 992.14 322.19, 991.14 322.56, 989.30 323.13 C 987.45 323.71, 986.50 323.95, 984.76 324.31 C 983.03 324.68, 982.15 324.76, 980.64 324.96 C 979.14 325.15, 978.39 325.16, 977.25 325.31 C 976.11 325.46, 975.63 325.54, 974.95 325.72 C 974.27 325.90, 974.06 325.99, 973.85 326.20 C 973.64 326.41, 973.65 326.61, 973.89 326.79" style="stroke: white; fill: white;"/></svg>