<svg xmlns="http://www.w3.org/2000/svg" id="canvas" viewBox="203.732 218.208 757.862 183.975"><path d="M 206.80,267.30 C 206.52 269.17, 207.17 271.85, 207.55 276.38 C 207.92 280.92, 208.17 283.99, 208.66 289.97 C 209.15 295.96, 209.66 299.97, 209.98 306.32 C 210.29 312.67, 210.09 315.78, 210.23 321.74 C 210.37 327.71, 210.57 330.79, 210.67 336.15 C 210.78 341.50, 210.81 344.15, 210.73 348.51 C 210.66 352.87, 210.07 354.96, 210.28 357.95 C 210.50 360.94, 210.98 362.23, 211.80 363.44 C 212.63 364.65, 213.54 365.18, 214.40 363.99 C 215.27 362.79, 215.57 361.33, 216.11 357.46 C 216.66 353.60, 216.46 350.65, 217.13 344.68 C 217.79 338.71, 218.32 334.91, 219.43 327.61 C 220.55 320.30, 221.18 316.07, 222.69 308.15 C 224.20 300.23, 225.09 295.88, 226.99 288.00 C 228.90 280.13, 230.09 275.96, 232.20 268.78 C 234.31 261.60, 235.40 258.17, 237.55 252.12 C 239.69 246.07, 240.83 243.14, 242.93 238.54 C 245.03 233.94, 246.33 231.95, 248.06 229.13 C 249.78 226.32, 250.44 225.44, 251.55 224.45 C 252.65 223.46, 252.81 223.40, 253.58 224.19 C 254.34 224.98, 254.45 225.89, 255.36 228.40 C 256.28 230.92, 257.12 232.71, 258.15 236.76 C 259.17 240.81, 259.68 243.38, 260.49 248.66 C 261.29 253.93, 261.70 257.07, 262.18 263.12 C 262.66 269.17, 262.76 272.49, 262.88 278.93 C 263.01 285.37, 263.02 288.79, 262.83 295.32 C 262.64 301.86, 262.41 305.36, 261.93 311.60 C 261.46 317.85, 261.14 320.88, 260.47 326.56 C 259.80 332.24, 259.30 335.10, 258.59 340.00 C 257.87 344.91, 257.32 347.32, 256.89 351.09 C 256.46 354.87, 256.14 356.54, 256.42 358.88 C 256.70 361.21, 257.29 362.16, 258.27 362.77 C 259.26 363.37, 260.28 363.13, 261.34 361.91 C 262.41 360.68, 263.44 359.18, 263.60 356.63 C 263.76 354.08, 263.36 351.81, 262.15 349.14 C 260.95 346.46, 259.52 345.07, 257.57 343.27 C 255.61 341.47, 254.47 340.94, 252.39 340.13 C 250.31 339.32, 249.11 339.12, 247.17 339.24 C 245.22 339.36, 243.85 339.67, 242.67 340.72 C 241.49 341.76, 241.12 343.05, 241.26 344.46 C 241.40 345.87, 241.95 346.82, 243.37 347.78 C 244.79 348.74, 245.77 349.19, 248.35 349.26 C 250.93 349.33, 252.61 349.06, 256.27 348.14 C 259.93 347.23, 262.03 346.46, 266.67 344.68 C 271.31 342.90, 274.06 341.75, 279.48 339.25 C 284.90 336.75, 287.99 335.41, 293.77 332.17 C 299.55 328.93, 302.57 327.17, 308.37 323.05 C 314.17 318.92, 317.14 316.35, 322.77 311.54 C 328.39 306.74, 331.24 304.16, 336.52 299.02 C 341.79 293.87, 344.58 291.04, 349.13 285.84 C 353.68 280.63, 355.75 277.87, 359.26 272.99 C 362.77 268.12, 364.43 265.89, 366.68 261.46 C 368.92 257.02, 369.64 254.71, 370.48 250.82 C 371.33 246.93, 371.52 245.06, 370.89 241.99 C 370.26 238.92, 369.33 237.44, 367.34 235.49 C 365.35 233.54, 363.89 232.54, 360.93 232.24 C 357.98 231.94, 356.16 232.35, 352.57 233.98 C 348.99 235.61, 346.99 236.93, 343.01 240.38 C 339.04 243.83, 336.90 246.14, 332.69 251.22 C 328.48 256.31, 326.06 259.65, 321.95 265.79 C 317.84 271.93, 315.52 275.49, 312.14 281.92 C 308.76 288.36, 307.12 291.81, 305.04 297.97 C 302.97 304.12, 302.20 307.32, 301.77 312.71 C 301.33 318.11, 301.51 320.64, 302.86 324.94 C 304.21 329.25, 305.55 331.28, 308.51 334.23 C 311.48 337.17, 313.57 338.28, 317.70 339.67 C 321.82 341.06, 324.40 341.23, 329.14 341.17 C 333.89 341.10, 336.66 340.58, 341.42 339.34 C 346.19 338.10, 348.49 336.95, 352.97 334.97 C 357.44 332.99, 359.79 331.70, 363.79 329.44 C 367.78 327.18, 370.15 325.74, 372.94 323.65 C 375.74 321.56, 376.81 320.16, 377.75 319.01 C 378.69 317.85, 378.48 317.46, 377.63 317.85 C 376.78 318.25, 375.26 318.83, 373.51 320.99 C 371.76 323.15, 370.44 325.31, 368.87 328.68 C 367.30 332.04, 366.34 334.47, 365.65 337.80 C 364.96 341.12, 364.72 342.71, 365.42 345.30 C 366.12 347.89, 366.98 349.15, 369.15 350.74 C 371.32 352.34, 372.82 353.03, 376.27 353.27 C 379.71 353.51, 382.34 352.85, 386.38 351.94 C 390.41 351.03, 392.97 350.11, 396.42 348.72 C 399.87 347.34, 402.33 346.17, 403.63 345.03 C 404.92 343.88, 404.58 343.05, 402.88 343.02 C 401.19 342.98, 398.63 343.94, 395.14 344.85 C 391.65 345.77, 389.19 346.84, 385.44 347.61 C 381.70 348.37, 379.28 348.66, 376.43 348.67 C 373.58 348.69, 372.65 348.50, 371.19 347.68 C 369.74 346.86, 369.29 346.28, 369.16 344.57 C 369.02 342.87, 369.56 341.82, 370.52 339.14 C 371.49 336.45, 372.42 334.21, 373.96 331.15 C 375.51 328.08, 377.17 326.40, 378.25 323.83 C 379.33 321.27, 379.75 319.75, 379.38 318.31 C 379.01 316.87, 378.15 316.25, 376.39 316.65 C 374.62 317.06, 373.41 318.35, 370.55 320.35 C 367.70 322.34, 365.87 324.26, 362.11 326.63 C 358.34 329.00, 356.02 330.26, 351.73 332.21 C 347.44 334.15, 345.18 335.21, 340.66 336.37 C 336.13 337.53, 333.49 337.95, 329.10 338.00 C 324.71 338.06, 322.39 337.84, 318.69 336.65 C 315.00 335.46, 313.27 334.56, 310.62 332.05 C 307.98 329.54, 306.74 327.93, 305.45 324.10 C 304.16 320.27, 303.83 317.97, 304.16 312.89 C 304.49 307.80, 305.13 304.65, 307.10 298.65 C 309.07 292.65, 310.66 289.22, 313.99 282.90 C 317.33 276.57, 319.64 273.03, 323.76 267.02 C 327.88 261.01, 330.35 257.70, 334.60 252.84 C 338.84 247.99, 341.07 245.81, 344.97 242.74 C 348.87 239.68, 350.98 238.79, 354.11 237.51 C 357.23 236.23, 358.47 236.20, 360.59 236.32 C 362.71 236.45, 363.43 236.84, 364.72 238.14 C 366.02 239.43, 366.53 240.38, 367.06 242.80 C 367.59 245.22, 367.91 246.73, 367.36 250.23 C 366.81 253.74, 366.32 256.03, 364.33 260.32 C 362.34 264.61, 360.76 266.86, 357.41 271.69 C 354.06 276.52, 352.03 279.30, 347.57 284.48 C 343.12 289.66, 340.35 292.49, 335.13 297.60 C 329.91 302.71, 327.07 305.28, 321.48 310.03 C 315.88 314.78, 312.93 317.31, 307.16 321.34 C 301.40 325.36, 298.41 327.06, 292.66 330.15 C 286.90 333.24, 283.81 334.51, 278.40 336.78 C 272.98 339.05, 270.18 340.12, 265.58 341.50 C 260.99 342.88, 258.86 343.22, 255.41 343.68 C 251.95 344.14, 250.44 343.69, 248.31 343.79 C 246.18 343.90, 245.63 344.11, 244.76 344.19 C 243.89 344.26, 243.96 344.20, 243.95 344.17 C 243.93 344.14, 244.01 344.11, 244.68 344.03 C 245.35 343.95, 246.09 343.76, 247.29 343.79 C 248.50 343.82, 249.41 343.59, 250.70 344.18 C 252.00 344.77, 252.69 345.25, 253.75 346.76 C 254.81 348.26, 255.25 349.62, 256.00 351.68 C 256.76 353.75, 257.03 355.21, 257.51 357.08 C 258.00 358.94, 258.05 360.01, 258.44 361.01 C 258.82 362.01, 259.08 362.51, 259.43 362.06 C 259.77 361.62, 259.98 360.93, 260.16 358.79 C 260.33 356.66, 260.08 355.09, 260.31 351.40 C 260.54 347.71, 260.80 345.26, 261.31 340.34 C 261.82 335.43, 262.29 332.54, 262.87 326.82 C 263.45 321.11, 263.75 318.05, 264.19 311.77 C 264.63 305.48, 264.86 301.97, 265.06 295.39 C 265.26 288.82, 265.26 285.38, 265.20 278.89 C 265.13 272.40, 265.07 269.07, 264.73 262.95 C 264.40 256.82, 264.07 253.67, 263.50 248.27 C 262.94 242.87, 262.69 240.30, 261.93 235.95 C 261.17 231.61, 261.08 229.37, 259.71 226.54 C 258.33 223.71, 257.00 222.70, 255.04 221.81 C 253.09 220.93, 251.90 221.00, 249.94 222.12 C 247.98 223.24, 247.11 224.34, 245.24 227.43 C 243.38 230.51, 242.55 232.74, 240.62 237.55 C 238.69 242.35, 237.62 245.30, 235.57 251.44 C 233.53 257.58, 232.46 261.03, 230.39 268.25 C 228.31 275.48, 227.13 279.67, 225.21 287.57 C 223.29 295.48, 222.39 299.85, 220.79 307.78 C 219.19 315.71, 218.53 319.93, 217.19 327.23 C 215.86 334.52, 215.12 338.30, 214.09 344.25 C 213.07 350.20, 212.42 353.12, 212.05 356.98 C 211.68 360.84, 211.86 362.33, 212.24 363.55 C 212.62 364.78, 213.51 364.24, 213.95 363.09 C 214.38 361.93, 214.45 360.71, 214.42 357.78 C 214.39 354.85, 214.04 352.80, 213.80 348.45 C 213.57 344.11, 213.48 341.42, 213.25 336.07 C 213.01 330.71, 212.79 327.65, 212.65 321.68 C 212.50 315.71, 212.76 312.59, 212.51 306.21 C 212.26 299.83, 211.81 295.79, 211.39 289.77 C 210.98 283.75, 210.92 280.65, 210.43 276.11 C 209.93 271.56, 209.66 268.80, 208.93 267.04 C 208.21 265.28, 207.08 265.43, 206.80 267.30" style="stroke: white; fill: white;"/><path d="M 407.87,274.62 C 408.55 274.22, 408.86 273.71, 408.88 273.05 C 408.90 272.39, 408.68 271.75, 407.97 271.32 C 407.27 270.90, 406.18 270.59, 405.36 270.93 C 404.54 271.28, 403.85 272.24, 403.87 273.05 C 403.90 273.87, 404.67 274.70, 405.47 275.02 C 406.27 275.33, 407.19 275.01, 407.87 274.62" style="stroke: white; fill: white;"/><path d="M 437.55,362.51 C 438.36 362.12, 439.03 361.79, 439.72 360.24 C 440.40 358.68, 441.39 356.13, 440.96 354.75 C 440.53 353.38, 438.87 352.60, 437.57 353.36 C 436.26 354.12, 434.81 356.77, 434.43 358.54 C 434.05 360.31, 435.03 361.42, 435.65 362.21 C 436.28 363.01, 436.73 362.91, 437.55 362.51" style="stroke: white; fill: white;"/><path d="M 477.22,298.07 C 476.29 298.65, 475.60 299.57, 474.46 301.70 C 473.32 303.82, 472.76 305.46, 471.52 308.69 C 470.28 311.93, 469.62 314.21, 468.27 317.87 C 466.92 321.52, 466.05 323.66, 464.77 326.97 C 463.49 330.28, 462.38 331.80, 461.87 334.44 C 461.36 337.07, 461.33 338.64, 462.22 340.15 C 463.10 341.67, 464.10 342.44, 466.30 342.00 C 468.50 341.56, 469.91 340.33, 473.22 337.95 C 476.53 335.56, 478.43 333.42, 482.86 330.05 C 487.29 326.69, 490.24 324.50, 495.36 321.12 C 500.47 317.73, 503.60 315.62, 508.43 313.13 C 513.26 310.64, 516.00 309.71, 519.51 308.67 C 523.02 307.63, 524.39 307.66, 525.97 307.94 C 527.56 308.22, 527.49 308.47, 527.43 310.06 C 527.37 311.65, 526.46 313.11, 525.68 315.91 C 524.90 318.71, 524.32 320.69, 523.53 324.06 C 522.74 327.42, 522.05 329.39, 521.73 332.73 C 521.41 336.06, 521.08 337.89, 521.92 340.73 C 522.77 343.56, 523.54 345.21, 525.95 346.90 C 528.37 348.59, 530.18 349.18, 534.00 349.19 C 537.81 349.20, 540.27 348.39, 545.02 346.94 C 549.76 345.48, 552.44 344.22, 557.73 341.91 C 563.02 339.59, 566.11 337.98, 571.48 335.36 C 576.85 332.74, 579.74 331.22, 584.58 328.82 C 589.43 326.41, 591.72 325.22, 595.71 323.32 C 599.69 321.41, 601.63 320.66, 604.52 319.30 C 607.41 317.94, 608.40 317.35, 610.17 316.53 C 611.93 315.72, 612.46 315.85, 613.35 315.22 C 614.24 314.60, 614.49 314.25, 614.60 313.42 C 614.72 312.59, 614.68 311.91, 613.93 311.08 C 613.17 310.25, 612.57 309.61, 610.85 309.28 C 609.12 308.94, 607.87 308.73, 605.28 309.40 C 602.70 310.07, 601.17 310.82, 597.91 312.64 C 594.66 314.47, 592.68 315.83, 589.01 318.53 C 585.34 321.24, 583.00 323.04, 579.55 326.17 C 576.10 329.29, 574.22 331.16, 571.77 334.17 C 569.31 337.19, 568.16 338.61, 567.27 341.24 C 566.38 343.87, 566.46 345.48, 567.33 347.31 C 568.19 349.13, 569.30 349.88, 571.59 350.35 C 573.88 350.83, 575.64 350.58, 578.79 349.67 C 581.94 348.76, 583.72 347.71, 587.35 345.81 C 590.98 343.91, 593.09 342.68, 596.93 340.16 C 600.77 337.65, 602.99 335.89, 606.57 333.24 C 610.15 330.59, 612.18 329.14, 614.83 326.90 C 617.48 324.65, 618.64 323.37, 619.82 322.01 C 621.00 320.65, 620.97 320.20, 620.73 320.09 C 620.48 319.97, 619.66 320.33, 618.58 321.42 C 617.51 322.50, 616.34 323.48, 615.34 325.51 C 614.34 327.55, 613.81 329.18, 613.58 331.58 C 613.35 333.98, 613.43 335.49, 614.17 337.53 C 614.92 339.57, 615.57 340.55, 617.30 341.79 C 619.04 343.02, 620.24 343.49, 622.83 343.70 C 625.41 343.90, 626.98 343.64, 630.24 342.80 C 633.50 341.96, 635.39 341.07, 639.12 339.49 C 642.86 337.91, 644.86 336.88, 648.90 334.90 C 652.93 332.92, 655.15 331.69, 659.31 329.60 C 663.47 327.50, 665.70 326.34, 669.69 324.43 C 673.68 322.52, 675.65 321.60, 679.28 320.06 C 682.91 318.52, 684.67 317.81, 687.83 316.71 C 691.00 315.62, 692.56 315.28, 695.09 314.58 C 697.62 313.89, 698.59 313.53, 700.48 313.24 C 702.36 312.96, 703.02 313.04, 704.50 313.18 C 705.98 313.31, 706.69 313.59, 707.87 313.92 C 709.04 314.25, 709.56 314.40, 710.37 314.82 C 711.19 315.25, 711.49 315.58, 711.95 316.04 C 712.42 316.51, 712.66 316.67, 712.71 317.14 C 712.75 317.61, 712.61 317.72, 712.19 318.40 C 711.76 319.08, 711.36 319.53, 710.58 320.55 C 709.79 321.57, 709.32 322.25, 708.27 323.51 C 707.23 324.78, 706.54 325.45, 705.36 326.88 C 704.17 328.31, 703.53 329.23, 702.35 330.67 C 701.18 332.10, 700.61 332.63, 699.46 334.07 C 698.32 335.51, 697.58 336.25, 696.61 337.88 C 695.64 339.51, 695.35 340.53, 694.61 342.21 C 693.88 343.89, 693.69 344.63, 692.93 346.27 C 692.18 347.90, 691.56 348.68, 690.83 350.38 C 690.11 352.09, 689.90 353.18, 689.31 354.80 C 688.72 356.42, 688.41 357.04, 687.88 358.49 C 687.35 359.94, 687.16 360.66, 686.68 362.06 C 686.21 363.46, 685.93 364.13, 685.49 365.48 C 685.06 366.84, 684.88 367.49, 684.51 368.84 C 684.13 370.19, 683.97 370.87, 683.61 372.24 C 683.25 373.60, 683.01 374.27, 682.72 375.66 C 682.44 377.06, 682.27 377.80, 682.19 379.21 C 682.10 380.62, 682.17 381.38, 682.31 382.69 C 682.45 384.00, 682.55 384.60, 682.88 385.77 C 683.22 386.94, 683.49 387.54, 684.00 388.53 C 684.51 389.52, 684.85 389.82, 685.44 390.73 C 686.04 391.64, 686.21 392.12, 686.97 393.09 C 687.74 394.07, 688.17 394.67, 689.28 395.60 C 690.40 396.52, 691.06 397.05, 692.54 397.73 C 694.02 398.42, 694.90 398.79, 696.70 399.03 C 698.50 399.27, 699.45 399.22, 701.54 398.94 C 703.64 398.66, 704.70 398.41, 707.16 397.65 C 709.62 396.88, 710.89 396.40, 713.83 395.13 C 716.78 393.85, 718.41 393.04, 721.88 391.27 C 725.34 389.51, 727.28 388.53, 731.15 386.30 C 735.02 384.06, 737.12 382.82, 741.22 380.10 C 745.32 377.38, 747.46 375.76, 751.65 372.68 C 755.84 369.61, 757.97 367.88, 762.17 364.72 C 766.37 361.56, 768.71 360.00, 772.65 356.90 C 776.60 353.80, 778.47 352.14, 781.90 349.22 C 785.33 346.31, 786.88 345.04, 789.79 342.33 C 792.71 339.62, 794.13 338.27, 796.48 335.68 C 798.83 333.08, 799.81 331.77, 801.54 329.36 C 803.27 326.95, 804.11 325.87, 805.11 323.63 C 806.11 321.38, 806.52 320.13, 806.54 318.13 C 806.56 316.13, 806.27 315.04, 805.22 313.63 C 804.16 312.23, 803.31 311.52, 801.25 311.11 C 799.19 310.70, 797.63 310.53, 794.91 311.57 C 792.20 312.61, 790.77 313.87, 787.69 316.31 C 784.61 318.74, 782.93 320.38, 779.51 323.74 C 776.09 327.10, 774.00 329.16, 770.58 333.10 C 767.16 337.04, 765.27 339.28, 762.41 343.44 C 759.56 347.61, 758.23 350.02, 756.30 353.94 C 754.37 357.86, 753.35 359.67, 752.76 363.03 C 752.18 366.40, 752.28 368.14, 753.38 370.76 C 754.47 373.38, 755.69 374.77, 758.25 376.13 C 760.81 377.50, 762.69 377.82, 766.17 377.60 C 769.65 377.38, 771.66 376.66, 775.65 375.02 C 779.65 373.39, 781.90 372.28, 786.15 369.42 C 790.39 366.57, 792.67 364.65, 796.89 360.76 C 801.11 356.87, 803.42 354.25, 807.24 349.96 C 811.06 345.67, 813.10 343.30, 816.01 339.30 C 818.92 335.30, 820.66 332.91, 821.78 329.97 C 822.89 327.03, 822.62 325.49, 821.59 324.61 C 820.57 323.73, 818.84 324.00, 816.63 325.56 C 814.43 327.13, 812.90 329.12, 810.57 332.44 C 808.24 335.75, 806.71 338.29, 804.99 342.13 C 803.28 345.97, 802.22 348.20, 802.00 351.63 C 801.78 355.06, 802.23 356.86, 803.89 359.26 C 805.55 361.67, 807.06 362.74, 810.31 363.67 C 813.57 364.60, 815.74 364.37, 820.14 363.91 C 824.55 363.45, 827.22 362.76, 832.34 361.37 C 837.47 359.97, 840.39 358.78, 845.77 356.93 C 851.15 355.08, 854.13 353.94, 859.23 352.12 C 864.34 350.30, 866.96 349.29, 871.30 347.83 C 875.64 346.36, 877.93 345.64, 880.94 344.79 C 883.95 343.94, 885.15 343.58, 886.35 343.57 C 887.55 343.56, 887.26 343.64, 886.93 344.75 C 886.59 345.86, 885.77 346.86, 884.67 349.10 C 883.56 351.34, 882.80 353.26, 881.40 355.95 C 880.00 358.65, 878.84 360.17, 877.66 362.57 C 876.48 364.96, 875.88 366.39, 875.50 367.94 C 875.12 369.50, 875.33 370.07, 875.76 370.33 C 876.18 370.58, 876.74 370.34, 877.63 369.22 C 878.52 368.10, 879.28 367.29, 880.21 364.74 C 881.14 362.19, 881.26 360.06, 882.26 356.47 C 883.26 352.89, 883.93 350.53, 885.21 346.81 C 886.49 343.09, 887.23 340.96, 888.65 337.89 C 890.07 334.82, 890.88 333.56, 892.31 331.47 C 893.74 329.38, 894.31 328.56, 895.80 327.44 C 897.28 326.31, 897.92 326.19, 899.74 325.86 C 901.55 325.52, 902.60 325.67, 904.86 325.76 C 907.12 325.85, 908.44 326.04, 911.04 326.30 C 913.64 326.56, 914.95 326.82, 917.88 327.05 C 920.80 327.29, 922.44 327.40, 925.65 327.48 C 928.87 327.57, 930.64 327.57, 933.97 327.48 C 937.29 327.40, 939.07 327.25, 942.27 327.06 C 945.48 326.86, 947.56 326.76, 950.00 326.51 C 952.43 326.27, 953.46 325.80, 954.45 325.82 C 955.45 325.83, 955.46 325.83, 954.96 326.58 C 954.47 327.33, 953.61 327.79, 951.98 329.57 C 950.35 331.35, 949.06 332.85, 946.83 335.50 C 944.60 338.15, 943.06 339.89, 940.84 342.82 C 938.62 345.75, 937.23 347.24, 935.71 350.15 C 934.19 353.06, 933.52 354.70, 933.22 357.37 C 932.91 360.04, 932.99 361.33, 934.18 363.52 C 935.36 365.71, 936.74 366.93, 939.14 368.32 C 941.54 369.70, 943.60 370.05, 946.17 370.43 C 948.75 370.80, 950.08 370.57, 952.01 370.19 C 953.94 369.81, 955.09 369.22, 955.80 368.53 C 956.52 367.85, 956.36 367.29, 955.61 366.78 C 954.85 366.26, 953.72 366.35, 952.03 365.96 C 950.34 365.56, 949.31 365.25, 947.16 364.80 C 945.01 364.34, 943.25 364.32, 941.29 363.68 C 939.32 363.05, 938.16 362.73, 937.35 361.61 C 936.53 360.48, 936.73 359.91, 937.21 358.07 C 937.70 356.23, 938.31 354.87, 939.76 352.39 C 941.22 349.92, 942.28 348.37, 944.48 345.68 C 946.67 342.98, 948.38 341.51, 950.74 338.92 C 953.10 336.33, 954.86 335.12, 956.30 332.73 C 957.73 330.34, 958.02 328.93, 957.89 326.98 C 957.76 325.04, 957.26 324.11, 955.66 323.01 C 954.06 321.91, 952.64 321.60, 949.89 321.46 C 947.14 321.33, 945.12 322.04, 941.91 322.34 C 938.70 322.64, 937.05 322.88, 933.84 322.97 C 930.63 323.06, 928.95 322.99, 925.85 322.80 C 922.76 322.62, 921.24 322.40, 918.38 322.05 C 915.53 321.70, 914.27 321.32, 911.56 321.05 C 908.84 320.79, 907.39 320.59, 904.82 320.73 C 902.24 320.86, 900.96 321.02, 898.68 321.73 C 896.41 322.43, 895.45 322.81, 893.46 324.25 C 891.46 325.69, 890.41 326.55, 888.70 328.93 C 886.98 331.31, 886.37 332.88, 884.88 336.16 C 883.39 339.45, 882.70 341.61, 881.24 345.36 C 879.78 349.11, 878.96 351.40, 877.59 354.91 C 876.21 358.42, 875.06 360.21, 874.35 362.91 C 873.63 365.60, 873.74 366.76, 874.00 368.38 C 874.26 370.01, 874.68 370.69, 875.63 371.04 C 876.58 371.39, 877.33 371.23, 878.74 370.13 C 880.15 369.02, 881.11 367.81, 882.69 365.50 C 884.26 363.20, 885.16 361.50, 886.60 358.58 C 888.03 355.66, 889.21 353.73, 889.87 350.91 C 890.52 348.09, 890.47 346.50, 889.87 344.50 C 889.28 342.51, 888.87 341.61, 886.90 340.94 C 884.92 340.27, 883.32 340.34, 879.99 341.15 C 876.66 341.96, 874.60 343.29, 870.27 344.97 C 865.93 346.64, 863.38 347.67, 858.30 349.53 C 853.22 351.39, 850.22 352.51, 844.87 354.27 C 839.53 356.04, 836.57 357.14, 831.56 358.35 C 826.56 359.55, 823.87 360.01, 819.82 360.30 C 815.78 360.59, 813.94 360.39, 811.33 359.79 C 808.73 359.18, 807.84 358.81, 806.81 357.27 C 805.77 355.73, 805.71 354.74, 806.16 352.09 C 806.60 349.44, 807.38 347.41, 809.04 344.02 C 810.70 340.62, 812.37 338.24, 814.46 335.11 C 816.56 331.99, 818.22 330.38, 819.51 328.40 C 820.80 326.43, 821.15 325.23, 820.93 325.23 C 820.72 325.22, 819.93 325.90, 818.45 328.37 C 816.96 330.83, 816.15 333.58, 813.50 337.54 C 810.85 341.50, 808.89 343.92, 805.20 348.16 C 801.50 352.39, 799.16 354.97, 795.01 358.70 C 790.86 362.43, 788.59 364.23, 784.45 366.80 C 780.32 369.37, 778.05 370.26, 774.34 371.56 C 770.62 372.85, 768.75 373.07, 765.89 373.27 C 763.02 373.46, 761.84 373.31, 760.01 372.53 C 758.18 371.75, 757.45 371.15, 756.74 369.38 C 756.03 367.61, 755.95 366.49, 756.45 363.68 C 756.95 360.87, 757.55 359.05, 759.24 355.34 C 760.94 351.64, 762.19 349.19, 764.92 345.15 C 767.65 341.11, 769.50 338.92, 772.90 335.16 C 776.30 331.39, 778.43 329.37, 781.90 326.31 C 785.37 323.25, 787.24 321.81, 790.25 319.85 C 793.26 317.89, 794.79 317.46, 796.94 316.52 C 799.08 315.57, 799.85 315.33, 800.99 315.13 C 802.12 314.92, 802.30 314.97, 802.62 315.50 C 802.95 316.02, 802.91 316.50, 802.62 317.74 C 802.32 318.98, 802.09 319.90, 801.13 321.71 C 800.17 323.53, 799.34 324.51, 797.83 326.81 C 796.32 329.11, 795.64 330.59, 793.57 333.21 C 791.50 335.84, 790.21 337.19, 787.48 339.93 C 784.75 342.68, 783.24 343.99, 779.92 346.94 C 776.59 349.88, 774.76 351.55, 770.88 354.66 C 766.99 357.77, 764.67 359.34, 760.49 362.48 C 756.31 365.62, 754.15 367.36, 749.96 370.36 C 745.77 373.37, 743.64 374.93, 739.54 377.51 C 735.44 380.09, 733.36 381.24, 729.48 383.26 C 725.61 385.28, 723.66 386.14, 720.17 387.60 C 716.69 389.06, 714.98 389.57, 712.07 390.55 C 709.16 391.53, 707.88 391.83, 705.60 392.50 C 703.33 393.17, 702.36 393.55, 700.70 393.90 C 699.04 394.25, 698.46 394.38, 697.29 394.26 C 696.13 394.13, 695.76 393.82, 694.87 393.27 C 693.98 392.71, 693.64 392.24, 692.84 391.50 C 692.03 390.76, 691.61 390.30, 690.85 389.58 C 690.08 388.87, 689.61 388.52, 689.02 387.92 C 688.43 387.33, 688.21 387.27, 687.91 386.62 C 687.62 385.96, 687.71 385.54, 687.56 384.66 C 687.41 383.77, 687.27 383.20, 687.16 382.18 C 687.05 381.16, 686.94 380.64, 687.03 379.55 C 687.12 378.47, 687.33 377.98, 687.63 376.76 C 687.93 375.55, 688.21 374.81, 688.53 373.47 C 688.86 372.14, 688.93 371.39, 689.25 370.07 C 689.56 368.76, 689.73 368.21, 690.11 366.90 C 690.49 365.59, 690.73 364.87, 691.16 363.52 C 691.58 362.18, 691.65 361.55, 692.22 360.18 C 692.79 358.81, 693.32 358.23, 694.00 356.68 C 694.68 355.12, 694.92 354.07, 695.62 352.40 C 696.32 350.73, 696.78 349.97, 697.50 348.33 C 698.22 346.68, 698.56 345.78, 699.23 344.18 C 699.89 342.58, 700.04 341.73, 700.83 340.32 C 701.62 338.92, 702.09 338.39, 703.17 337.15 C 704.25 335.91, 704.96 335.45, 706.24 334.13 C 707.52 332.81, 708.29 331.96, 709.57 330.55 C 710.86 329.13, 711.55 328.48, 712.67 327.06 C 713.79 325.65, 714.40 324.90, 715.18 323.47 C 715.95 322.05, 716.23 321.33, 716.54 319.94 C 716.85 318.55, 716.97 317.84, 716.73 316.50 C 716.49 315.16, 716.18 314.36, 715.33 313.24 C 714.48 312.12, 713.77 311.61, 712.49 310.90 C 711.21 310.20, 710.48 310.07, 708.94 309.71 C 707.40 309.35, 706.60 309.20, 704.80 309.09 C 703.01 308.98, 702.14 308.93, 699.96 309.16 C 697.77 309.40, 696.57 309.49, 693.87 310.27 C 691.17 311.06, 689.65 311.76, 686.45 313.09 C 683.25 314.42, 681.52 315.23, 677.88 316.92 C 674.25 318.60, 672.28 319.55, 668.28 321.50 C 664.27 323.45, 662.04 324.63, 657.86 326.68 C 653.69 328.72, 651.45 329.92, 647.41 331.72 C 643.37 333.53, 641.34 334.44, 637.67 335.69 C 634.01 336.93, 632.04 337.32, 629.09 337.95 C 626.13 338.59, 624.86 338.73, 622.91 338.86 C 620.96 338.99, 620.25 339.05, 619.33 338.59 C 618.42 338.14, 618.29 337.76, 618.32 336.60 C 618.35 335.44, 618.85 334.53, 619.47 332.79 C 620.09 331.05, 620.82 329.90, 621.40 327.92 C 621.99 325.94, 622.42 324.62, 622.42 322.90 C 622.42 321.17, 622.36 320.04, 621.43 319.31 C 620.49 318.57, 619.61 318.34, 617.76 319.23 C 615.91 320.12, 614.85 321.51, 612.18 323.74 C 609.51 325.98, 607.84 327.72, 604.41 330.40 C 600.97 333.07, 598.77 334.79, 594.99 337.11 C 591.22 339.44, 589.07 340.48, 585.53 342.03 C 581.99 343.58, 580.06 343.95, 577.31 344.87 C 574.55 345.78, 573.27 346.31, 571.76 346.61 C 570.25 346.91, 569.91 347.12, 569.74 346.35 C 569.58 345.58, 569.94 344.71, 570.94 342.75 C 571.94 340.79, 572.53 339.35, 574.74 336.57 C 576.95 333.79, 578.68 331.82, 581.98 328.85 C 585.28 325.87, 587.62 324.10, 591.23 321.70 C 594.84 319.30, 596.94 318.20, 600.02 316.85 C 603.10 315.51, 604.53 315.43, 606.62 314.98 C 608.71 314.53, 609.27 314.76, 610.48 314.62 C 611.70 314.48, 612.09 314.61, 612.71 314.30 C 613.33 313.99, 613.64 313.42, 613.59 313.08 C 613.54 312.74, 613.43 312.59, 612.46 312.60 C 611.50 312.60, 610.70 312.42, 608.78 313.09 C 606.86 313.75, 605.74 314.43, 602.86 315.94 C 599.97 317.45, 598.24 318.54, 594.35 320.64 C 590.45 322.74, 588.18 323.96, 583.37 326.43 C 578.57 328.89, 575.69 330.41, 570.33 332.98 C 564.98 335.55, 561.86 337.12, 556.61 339.27 C 551.37 341.42, 548.62 342.54, 544.10 343.73 C 539.58 344.93, 537.19 345.26, 534.00 345.26 C 530.81 345.26, 529.75 344.84, 528.16 343.74 C 526.56 342.63, 526.37 341.82, 526.03 339.73 C 525.68 337.65, 525.96 336.22, 526.43 333.32 C 526.90 330.42, 527.54 328.51, 528.37 325.23 C 529.19 321.95, 530.10 320.06, 530.54 316.91 C 530.99 313.76, 531.36 311.83, 530.59 309.49 C 529.82 307.15, 529.09 306.01, 526.70 305.23 C 524.30 304.45, 522.54 304.50, 518.63 305.59 C 514.72 306.67, 512.09 308.02, 507.13 310.66 C 502.18 313.30, 499.09 315.45, 493.85 318.80 C 488.61 322.14, 485.54 324.23, 480.94 327.40 C 476.34 330.56, 474.00 332.33, 470.82 334.63 C 467.64 336.93, 466.35 337.90, 465.04 338.88 C 463.73 339.86, 464.04 340.16, 464.28 339.53 C 464.52 338.90, 465.31 337.93, 466.23 335.73 C 467.16 333.53, 467.65 331.80, 468.89 328.55 C 470.13 325.29, 470.99 323.08, 472.43 319.46 C 473.87 315.84, 474.81 313.68, 476.08 310.46 C 477.34 307.24, 478.13 305.70, 478.74 303.37 C 479.35 301.04, 479.41 299.85, 479.10 298.79 C 478.80 297.73, 478.15 297.49, 477.22 298.07" style="stroke: white; fill: white;"/><path d="M 955.26,295.90 C 955.43 296.65, 955.78 297.10, 956.28 297.21 C 956.78 297.32, 957.31 297.09, 957.77 296.45 C 958.23 295.81, 958.68 294.84, 958.58 294.01 C 958.48 293.19, 957.89 292.43, 957.26 292.31 C 956.63 292.20, 955.83 292.72, 955.43 293.43 C 955.03 294.15, 955.09 295.14, 955.26 295.90" style="stroke: \; fill: white;"/></svg>