<svg xmlns="http://www.w3.org/2000/svg" id="canvas" viewBox="204.063 284.379 935.963 62.581"><path d="M 224.78,310.13 C 224.69 309.91, 224.53 309.70, 224.12 309.48 C 223.72 309.26, 223.42 309.10, 222.75 309.03 C 222.09 308.96, 221.65 308.93, 220.79 309.14 C 219.93 309.36, 219.46 309.54, 218.45 310.10 C 217.44 310.66, 216.86 311.03, 215.74 311.95 C 214.62 312.86, 213.97 313.47, 212.86 314.69 C 211.75 315.91, 211.12 316.68, 210.19 318.05 C 209.25 319.42, 208.78 320.22, 208.18 321.52 C 207.57 322.82, 207.33 323.51, 207.16 324.54 C 206.99 325.58, 207.04 326.07, 207.34 326.72 C 207.64 327.36, 207.96 327.60, 208.66 327.78 C 209.35 327.95, 209.85 327.91, 210.82 327.60 C 211.79 327.29, 212.37 326.96, 213.50 326.22 C 214.64 325.48, 215.27 324.95, 216.48 323.89 C 217.69 322.83, 218.36 322.16, 219.54 320.92 C 220.71 319.68, 221.34 318.93, 222.37 317.70 C 223.39 316.46, 223.93 315.78, 224.66 314.72 C 225.38 313.66, 225.71 313.07, 225.98 312.39 C 226.25 311.70, 226.21 311.40, 226.00 311.29 C 225.79 311.17, 225.46 311.30, 224.93 311.80 C 224.40 312.30, 223.96 312.79, 223.34 313.79 C 222.72 314.79, 222.35 315.57, 221.83 316.79 C 221.32 318.01, 221.06 318.76, 220.77 319.89 C 220.49 321.03, 220.38 321.60, 220.42 322.46 C 220.46 323.32, 220.57 323.71, 220.98 324.20 C 221.39 324.68, 221.74 324.85, 222.47 324.90 C 223.19 324.94, 223.66 324.84, 224.61 324.44 C 225.55 324.04, 226.10 323.68, 227.19 322.90 C 228.28 322.13, 228.89 321.58, 230.06 320.56 C 231.22 319.55, 231.87 318.90, 233.02 317.83 C 234.16 316.76, 234.78 316.15, 235.76 315.23 C 236.75 314.31, 237.28 313.81, 237.94 313.21 C 238.59 312.62, 238.82 312.37, 239.02 312.25 C 239.22 312.12, 239.13 312.21, 238.94 312.58 C 238.76 312.96, 238.49 313.34, 238.08 314.12 C 237.67 314.90, 237.34 315.50, 236.89 316.47 C 236.44 317.44, 236.14 318.06, 235.81 318.96 C 235.49 319.85, 235.30 320.32, 235.25 320.95 C 235.20 321.58, 235.25 321.87, 235.56 322.12 C 235.88 322.36, 236.17 322.39, 236.82 322.17 C 237.48 321.95, 237.92 321.66, 238.83 321.02 C 239.74 320.37, 240.29 319.84, 241.37 318.96 C 242.45 318.07, 243.10 317.47, 244.23 316.57 C 245.36 315.67, 246.02 315.16, 247.02 314.46 C 248.02 313.75, 248.54 313.43, 249.24 313.06 C 249.94 312.68, 250.21 312.57, 250.52 312.57 C 250.83 312.57, 250.83 312.66, 250.79 313.04 C 250.74 313.41, 250.55 313.73, 250.30 314.44 C 250.04 315.15, 249.79 315.66, 249.50 316.57 C 249.20 317.48, 248.97 318.07, 248.81 318.98 C 248.66 319.88, 248.64 320.65, 248.72 321.09 C 248.81 321.54, 248.98 321.56, 249.24 321.21 C 249.51 320.85, 249.69 320.16, 250.03 319.32 C 250.37 318.49, 250.63 317.96, 250.94 317.05 C 251.25 316.14, 251.45 315.58, 251.57 314.76 C 251.69 313.93, 251.73 313.48, 251.54 312.92 C 251.36 312.36, 251.18 312.12, 250.64 311.96 C 250.09 311.80, 249.70 311.84, 248.84 312.13 C 247.98 312.42, 247.43 312.74, 246.33 313.41 C 245.24 314.07, 244.56 314.58, 243.38 315.46 C 242.19 316.33, 241.50 316.90, 240.41 317.78 C 239.32 318.65, 238.74 319.15, 237.92 319.85 C 237.11 320.56, 236.76 320.91, 236.33 321.30 C 235.90 321.69, 235.83 321.83, 235.79 321.81 C 235.75 321.79, 235.88 321.66, 236.13 321.20 C 236.39 320.74, 236.63 320.33, 237.07 319.53 C 237.51 318.72, 237.89 318.14, 238.35 317.16 C 238.82 316.19, 239.14 315.55, 239.40 314.65 C 239.66 313.75, 239.75 313.23, 239.66 312.66 C 239.58 312.09, 239.44 311.84, 238.97 311.79 C 238.50 311.73, 238.12 311.88, 237.31 312.38 C 236.50 312.88, 235.96 313.40, 234.92 314.29 C 233.88 315.18, 233.26 315.80, 232.11 316.85 C 230.96 317.89, 230.30 318.52, 229.15 319.50 C 228.00 320.49, 227.38 321.00, 226.36 321.76 C 225.34 322.52, 224.84 322.85, 224.05 323.30 C 223.27 323.75, 222.94 323.90, 222.43 323.99 C 221.93 324.08, 221.75 324.06, 221.54 323.76 C 221.34 323.46, 221.31 323.19, 221.41 322.49 C 221.50 321.80, 221.64 321.28, 222.01 320.27 C 222.38 319.26, 222.71 318.57, 223.25 317.43 C 223.80 316.28, 224.22 315.57, 224.72 314.56 C 225.22 313.54, 225.50 313.00, 225.75 312.36 C 226.00 311.73, 226.08 311.45, 225.98 311.36 C 225.88 311.28, 225.72 311.42, 225.26 311.95 C 224.80 312.48, 224.46 313.03, 223.69 314.01 C 222.91 314.99, 222.41 315.68, 221.39 316.87 C 220.36 318.07, 219.73 318.79, 218.57 319.99 C 217.41 321.18, 216.74 321.83, 215.57 322.84 C 214.40 323.86, 213.76 324.34, 212.72 325.07 C 211.68 325.79, 211.17 326.10, 210.38 326.48 C 209.59 326.87, 209.25 327.00, 208.78 326.99 C 208.30 326.99, 208.14 326.90, 208.01 326.46 C 207.88 326.01, 207.90 325.64, 208.15 324.76 C 208.40 323.88, 208.64 323.25, 209.27 322.06 C 209.89 320.87, 210.35 320.10, 211.27 318.81 C 212.19 317.52, 212.80 316.78, 213.87 315.61 C 214.94 314.45, 215.56 313.87, 216.61 312.99 C 217.65 312.12, 218.20 311.76, 219.10 311.24 C 220.00 310.72, 220.40 310.58, 221.11 310.39 C 221.82 310.21, 222.13 310.29, 222.66 310.31 C 223.19 310.33, 223.40 310.43, 223.78 310.49 C 224.15 310.54, 224.35 310.64, 224.55 310.57 C 224.75 310.50, 224.86 310.35, 224.78 310.13" style="stroke: white; fill: white;"/><path d="M 268.42,315.27 C 268.65 315.15, 268.88 314.87, 269.06 314.44 C 269.24 314.01, 269.36 313.67, 269.33 313.12 C 269.29 312.58, 269.23 312.17, 268.89 311.71 C 268.56 311.24, 268.29 311.03, 267.66 310.82 C 267.04 310.61, 266.64 310.54, 265.77 310.66 C 264.91 310.78, 264.37 310.93, 263.33 311.42 C 262.29 311.92, 261.67 312.32, 260.59 313.15 C 259.50 313.98, 258.88 314.56, 257.91 315.58 C 256.94 316.60, 256.43 317.22, 255.74 318.24 C 255.05 319.26, 254.73 319.82, 254.45 320.68 C 254.18 321.54, 254.16 321.98, 254.37 322.54 C 254.57 323.11, 254.85 323.35, 255.49 323.49 C 256.14 323.63, 256.60 323.60, 257.59 323.24 C 258.57 322.89, 259.18 322.56, 260.41 321.70 C 261.65 320.85, 262.34 320.25, 263.76 318.97 C 265.17 317.70, 265.97 316.91, 267.48 315.31 C 269.00 313.72, 269.85 312.79, 271.34 311.02 C 272.84 309.25, 273.62 308.25, 274.94 306.48 C 276.26 304.71, 276.92 303.76, 277.96 302.19 C 279.01 300.61, 279.51 299.84, 280.16 298.61 C 280.81 297.39, 281.06 296.77, 281.22 296.07 C 281.37 295.37, 281.26 295.11, 280.91 295.13 C 280.57 295.16, 280.19 295.38, 279.51 296.17 C 278.83 296.97, 278.36 297.64, 277.51 299.09 C 276.66 300.55, 276.15 301.60, 275.27 303.45 C 274.39 305.30, 273.89 306.41, 273.13 308.34 C 272.36 310.26, 271.96 311.29, 271.46 313.07 C 270.95 314.84, 270.73 315.74, 270.60 317.21 C 270.47 318.67, 270.50 319.34, 270.80 320.40 C 271.10 321.45, 271.38 321.87, 272.11 322.46 C 272.83 323.06, 273.36 323.24, 274.42 323.38 C 275.49 323.52, 276.16 323.44, 277.44 323.16 C 278.73 322.88, 279.58 322.51, 280.83 321.97 C 282.08 321.42, 282.76 321.02, 283.71 320.44 C 284.65 319.87, 285.22 319.43, 285.55 319.07 C 285.87 318.72, 285.80 318.60, 285.33 318.68 C 284.87 318.75, 284.22 319.06, 283.21 319.46 C 282.20 319.85, 281.50 320.17, 280.28 320.65 C 279.06 321.13, 278.27 321.52, 277.12 321.86 C 275.96 322.19, 275.40 322.32, 274.50 322.31 C 273.61 322.30, 273.21 322.22, 272.64 321.80 C 272.07 321.37, 271.87 321.07, 271.68 320.17 C 271.48 319.28, 271.48 318.68, 271.67 317.33 C 271.86 315.98, 272.08 315.11, 272.62 313.42 C 273.16 311.72, 273.57 310.71, 274.37 308.85 C 275.17 306.99, 275.72 305.90, 276.62 304.10 C 277.52 302.30, 278.11 301.31, 278.88 299.85 C 279.64 298.39, 280.03 297.70, 280.46 296.80 C 280.89 295.90, 281.02 295.55, 281.04 295.35 C 281.07 295.15, 280.94 295.26, 280.57 295.80 C 280.20 296.34, 279.92 296.92, 279.20 298.06 C 278.49 299.21, 278.03 299.99, 276.98 301.53 C 275.93 303.06, 275.27 303.99, 273.94 305.72 C 272.61 307.45, 271.83 308.44, 270.35 310.17 C 268.86 311.90, 268.01 312.82, 266.51 314.38 C 265.00 315.93, 264.21 316.70, 262.83 317.94 C 261.45 319.17, 260.75 319.72, 259.60 320.55 C 258.45 321.39, 257.90 321.69, 257.09 322.12 C 256.28 322.55, 255.97 322.67, 255.56 322.72 C 255.14 322.77, 255.03 322.71, 255.00 322.37 C 254.97 322.04, 255.05 321.74, 255.40 321.06 C 255.75 320.38, 256.05 319.87, 256.75 318.97 C 257.45 318.06, 257.95 317.47, 258.89 316.53 C 259.83 315.59, 260.43 315.04, 261.44 314.27 C 262.45 313.49, 263.03 313.13, 263.95 312.66 C 264.86 312.18, 265.31 312.05, 266.00 311.89 C 266.69 311.72, 266.98 311.75, 267.38 311.83 C 267.78 311.91, 267.87 312.02, 268.00 312.28 C 268.14 312.54, 268.07 312.77, 268.05 313.14 C 268.03 313.52, 267.94 313.76, 267.91 314.15 C 267.88 314.53, 267.80 314.86, 267.90 315.08 C 268.01 315.31, 268.19 315.40, 268.42 315.27" style="stroke: white; fill: white;"/><path d="M 310.66,311.40 C 310.49 311.50, 310.42 311.62, 310.25 312.00 C 310.08 312.38, 309.93 312.67, 309.82 313.31 C 309.71 313.95, 309.66 314.43, 309.71 315.19 C 309.76 315.96, 309.82 316.43, 310.08 317.14 C 310.34 317.85, 310.51 318.23, 311.01 318.74 C 311.51 319.24, 311.84 319.47, 312.59 319.66 C 313.34 319.85, 313.80 319.87, 314.75 319.69 C 315.70 319.52, 316.25 319.31, 317.35 318.79 C 318.45 318.26, 319.08 317.87, 320.26 317.08 C 321.43 316.29, 322.09 315.76, 323.24 314.84 C 324.38 313.92, 325.00 313.36, 325.96 312.48 C 326.92 311.59, 327.45 311.08, 328.05 310.43 C 328.66 309.78, 328.86 309.44, 328.98 309.22 C 329.11 309.01, 328.99 309.00, 328.69 309.36 C 328.39 309.72, 328.08 310.07, 327.48 311.03 C 326.88 311.99, 326.47 312.71, 325.67 314.17 C 324.86 315.64, 324.40 316.56, 323.46 318.33 C 322.53 320.10, 321.99 321.11, 320.99 323.03 C 320.00 324.95, 319.46 326.01, 318.49 327.94 C 317.51 329.86, 317.00 330.89, 316.12 332.66 C 315.24 334.43, 314.81 335.32, 314.08 336.78 C 313.35 338.24, 313.01 338.91, 312.46 339.94 C 311.92 340.98, 311.66 341.38, 311.37 341.94 C 311.07 342.50, 311.00 342.67, 310.98 342.74 C 310.96 342.81, 311.06 342.72, 311.26 342.29 C 311.47 341.86, 311.60 341.49, 311.99 340.58 C 312.38 339.68, 312.58 339.04, 313.20 337.77 C 313.82 336.49, 314.20 335.69, 315.10 334.22 C 315.99 332.74, 316.52 331.92, 317.68 330.38 C 318.84 328.83, 319.51 328.03, 320.87 326.50 C 322.23 324.98, 323.01 324.20, 324.49 322.76 C 325.97 321.32, 326.76 320.60, 328.28 319.29 C 329.80 317.98, 330.61 317.36, 332.09 316.23 C 333.57 315.10, 334.34 314.57, 335.68 313.64 C 337.02 312.72, 337.67 312.30, 338.80 311.60 C 339.92 310.89, 340.45 310.61, 341.29 310.14 C 342.13 309.67, 342.50 309.52, 342.99 309.23 C 343.47 308.95, 343.61 308.86, 343.73 308.72 C 343.85 308.57, 343.78 308.50, 343.58 308.49 C 343.39 308.49, 343.17 308.48, 342.76 308.68 C 342.36 308.88, 342.07 309.05, 341.55 309.50 C 341.03 309.95, 340.72 310.27, 340.14 310.92 C 339.56 311.56, 339.21 311.95, 338.64 312.71 C 338.08 313.47, 337.76 313.93, 337.32 314.74 C 336.88 315.55, 336.67 316.00, 336.46 316.77 C 336.25 317.53, 336.18 317.93, 336.25 318.57 C 336.33 319.20, 336.45 319.52, 336.81 319.95 C 337.18 320.38, 337.48 320.57, 338.09 320.72 C 338.69 320.86, 339.11 320.86, 339.85 320.70 C 340.60 320.53, 341.04 320.34, 341.82 319.88 C 342.60 319.43, 343.03 319.09, 343.75 318.42 C 344.47 317.74, 344.85 317.31, 345.44 316.51 C 346.02 315.70, 346.30 315.23, 346.67 314.40 C 347.04 313.56, 347.17 313.11, 347.28 312.32 C 347.39 311.53, 347.37 311.11, 347.23 310.44 C 347.09 309.77, 346.91 309.46, 346.58 308.98 C 346.24 308.49, 345.97 308.27, 345.56 308.03 C 345.15 307.78, 344.85 307.70, 344.51 307.74 C 344.17 307.78, 343.94 307.96, 343.85 308.21 C 343.77 308.47, 343.79 308.74, 344.08 309.03 C 344.36 309.32, 344.64 309.48, 345.28 309.65 C 345.91 309.83, 346.35 309.87, 347.27 309.89 C 348.18 309.92, 348.74 309.89, 349.84 309.78 C 350.93 309.68, 351.58 309.57, 352.76 309.36 C 353.93 309.14, 354.59 308.98, 355.71 308.72 C 356.84 308.46, 357.45 308.31, 358.38 308.07 C 359.32 307.83, 359.82 307.67, 360.39 307.53 C 360.96 307.38, 361.14 307.27, 361.23 307.34 C 361.33 307.42, 361.18 307.51, 360.86 307.91 C 360.54 308.32, 360.19 308.63, 359.62 309.35 C 359.06 310.07, 358.62 310.60, 358.02 311.50 C 357.41 312.40, 357.04 312.97, 356.59 313.86 C 356.15 314.75, 355.93 315.21, 355.80 315.95 C 355.66 316.69, 355.68 317.06, 355.92 317.56 C 356.17 318.06, 356.43 318.28, 357.02 318.45 C 357.62 318.63, 358.05 318.62, 358.91 318.44 C 359.78 318.25, 360.30 318.03, 361.34 317.52 C 362.38 317.01, 362.99 316.62, 364.11 315.89 C 365.24 315.15, 365.88 314.67, 366.99 313.83 C 368.10 313.00, 368.70 312.51, 369.65 311.72 C 370.60 310.94, 371.13 310.49, 371.73 309.89 C 372.34 309.30, 372.55 308.99, 372.69 308.76 C 372.83 308.52, 372.70 308.50, 372.44 308.70 C 372.17 308.89, 371.84 309.14, 371.37 309.74 C 370.91 310.34, 370.53 310.84, 370.10 311.68 C 369.67 312.52, 369.45 313.10, 369.21 313.94 C 368.97 314.78, 368.85 315.23, 368.91 315.90 C 368.96 316.58, 369.07 316.91, 369.47 317.32 C 369.88 317.74, 370.21 317.91, 370.95 317.99 C 371.68 318.08, 372.16 318.00, 373.13 317.73 C 374.10 317.46, 374.68 317.20, 375.80 316.64 C 376.92 316.09, 377.57 315.69, 378.74 314.97 C 379.91 314.26, 380.54 313.80, 381.64 313.06 C 382.73 312.32, 383.31 311.91, 384.20 311.28 C 385.08 310.66, 385.54 310.32, 386.08 309.94 C 386.62 309.57, 386.77 309.42, 386.90 309.40 C 387.02 309.37, 386.90 309.47, 386.69 309.82 C 386.48 310.17, 386.22 310.49, 385.84 311.14 C 385.45 311.79, 385.18 312.29, 384.78 313.08 C 384.37 313.86, 384.12 314.36, 383.83 315.06 C 383.53 315.76, 383.37 316.11, 383.30 316.58 C 383.23 317.04, 383.29 317.24, 383.48 317.37 C 383.68 317.49, 383.90 317.47, 384.30 317.21 C 384.70 316.95, 384.97 316.67, 385.48 316.07 C 385.99 315.47, 386.27 315.00, 386.85 314.21 C 387.44 313.42, 387.77 312.92, 388.40 312.12 C 389.03 311.32, 389.39 310.88, 390.02 310.21 C 390.65 309.53, 390.96 309.20, 391.56 308.74 C 392.15 308.27, 392.42 308.10, 392.98 307.86 C 393.54 307.62, 393.78 307.59, 394.36 307.54 C 394.94 307.48, 395.20 307.54, 395.86 307.59 C 396.51 307.64, 396.85 307.73, 397.62 307.81 C 398.38 307.88, 398.87 307.94, 399.66 307.96 C 400.46 307.97, 400.94 307.97, 401.61 307.88 C 402.28 307.79, 402.73 307.67, 403.00 307.51 C 403.28 307.34, 403.27 307.19, 402.99 307.04 C 402.71 306.90, 402.26 306.86, 401.61 306.77 C 400.95 306.69, 400.50 306.66, 399.72 306.61 C 398.94 306.56, 398.47 306.56, 397.70 306.53 C 396.94 306.50, 396.60 306.45, 395.91 306.45 C 395.21 306.44, 394.90 306.41, 394.24 306.51 C 393.57 306.60, 393.26 306.65, 392.59 306.92 C 391.92 307.18, 391.58 307.37, 390.90 307.85 C 390.21 308.34, 389.85 308.66, 389.15 309.34 C 388.44 310.02, 388.06 310.46, 387.36 311.25 C 386.66 312.04, 386.26 312.50, 385.64 313.29 C 385.03 314.07, 384.68 314.51, 384.26 315.17 C 383.84 315.84, 383.68 316.19, 383.54 316.61 C 383.40 317.02, 383.44 317.20, 383.55 317.27 C 383.66 317.34, 383.81 317.27, 384.10 316.95 C 384.40 316.64, 384.61 316.33, 385.03 315.70 C 385.44 315.08, 385.75 314.61, 386.18 313.81 C 386.60 313.02, 386.89 312.51, 387.16 311.74 C 387.42 310.98, 387.54 310.54, 387.51 309.99 C 387.49 309.44, 387.40 309.17, 387.03 308.99 C 386.65 308.80, 386.34 308.83, 385.64 309.09 C 384.94 309.34, 384.47 309.69, 383.53 310.27 C 382.58 310.84, 382.02 311.27, 380.92 311.97 C 379.82 312.68, 379.18 313.12, 378.03 313.80 C 376.88 314.48, 376.24 314.85, 375.17 315.38 C 374.11 315.91, 373.56 316.14, 372.72 316.46 C 371.88 316.77, 371.50 316.88, 370.96 316.95 C 370.42 317.01, 370.23 316.99, 370.01 316.78 C 369.79 316.58, 369.78 316.41, 369.87 315.93 C 369.96 315.46, 370.12 315.11, 370.47 314.42 C 370.81 313.72, 371.16 313.26, 371.58 312.47 C 372.01 311.67, 372.33 311.16, 372.61 310.45 C 372.89 309.74, 373.01 309.33, 372.99 308.91 C 372.96 308.49, 372.87 308.31, 372.48 308.34 C 372.09 308.36, 371.76 308.55, 371.04 309.02 C 370.31 309.50, 369.82 309.98, 368.85 310.72 C 367.88 311.47, 367.29 311.96, 366.19 312.76 C 365.10 313.55, 364.46 314.01, 363.36 314.71 C 362.26 315.41, 361.66 315.76, 360.71 316.26 C 359.75 316.76, 359.27 316.96, 358.56 317.22 C 357.85 317.49, 357.56 317.58, 357.16 317.59 C 356.77 317.60, 356.65 317.56, 356.58 317.29 C 356.50 317.01, 356.55 316.78, 356.78 316.23 C 357.01 315.67, 357.24 315.28, 357.74 314.51 C 358.24 313.74, 358.66 313.24, 359.28 312.38 C 359.90 311.51, 360.35 311.00, 360.84 310.19 C 361.33 309.38, 361.58 308.95, 361.73 308.31 C 361.88 307.68, 361.87 307.37, 361.59 307.02 C 361.30 306.68, 361.00 306.60, 360.30 306.57 C 359.61 306.54, 359.09 306.70, 358.12 306.87 C 357.15 307.05, 356.56 307.23, 355.44 307.46 C 354.32 307.69, 353.67 307.84, 352.53 308.03 C 351.38 308.21, 350.76 308.31, 349.71 308.39 C 348.67 308.47, 348.14 308.45, 347.31 308.43 C 346.47 308.40, 346.10 308.32, 345.54 308.26 C 344.98 308.21, 344.78 308.15, 344.50 308.16 C 344.23 308.17, 344.19 308.23, 344.16 308.32 C 344.13 308.41, 344.20 308.48, 344.36 308.61 C 344.52 308.73, 344.70 308.75, 344.97 308.94 C 345.24 309.13, 345.47 309.24, 345.72 309.58 C 345.96 309.92, 346.11 310.13, 346.20 310.65 C 346.30 311.16, 346.31 311.49, 346.19 312.14 C 346.07 312.79, 345.94 313.17, 345.59 313.89 C 345.23 314.61, 344.96 315.03, 344.41 315.74 C 343.87 316.45, 343.51 316.84, 342.85 317.44 C 342.19 318.04, 341.79 318.32, 341.13 318.73 C 340.46 319.14, 340.10 319.29, 339.52 319.49 C 338.95 319.68, 338.67 319.72, 338.25 319.70 C 337.84 319.68, 337.67 319.63, 337.47 319.39 C 337.26 319.16, 337.20 318.97, 337.22 318.52 C 337.24 318.07, 337.31 317.75, 337.55 317.12 C 337.80 316.49, 338.00 316.09, 338.43 315.37 C 338.87 314.65, 339.18 314.23, 339.73 313.53 C 340.27 312.84, 340.61 312.47, 341.18 311.89 C 341.74 311.31, 342.09 311.09, 342.56 310.64 C 343.04 310.19, 343.29 310.01, 343.57 309.65 C 343.85 309.28, 343.94 309.06, 343.95 308.79 C 343.97 308.52, 343.92 308.37, 343.65 308.29 C 343.38 308.22, 343.19 308.24, 342.62 308.42 C 342.06 308.61, 341.68 308.78, 340.80 309.23 C 339.92 309.67, 339.37 309.96, 338.22 310.65 C 337.07 311.35, 336.40 311.77, 335.03 312.69 C 333.66 313.62, 332.89 314.15, 331.38 315.28 C 329.87 316.42, 329.04 317.05, 327.49 318.37 C 325.94 319.69, 325.14 320.42, 323.63 321.87 C 322.12 323.33, 321.33 324.11, 319.93 325.66 C 318.54 327.20, 317.84 328.02, 316.64 329.59 C 315.44 331.16, 314.88 331.98, 313.93 333.49 C 312.97 334.99, 312.52 335.79, 311.87 337.12 C 311.22 338.44, 310.96 339.11, 310.68 340.12 C 310.39 341.13, 310.37 341.60, 310.43 342.17 C 310.50 342.75, 310.67 342.96, 310.99 343.01 C 311.31 343.06, 311.54 342.93, 312.02 342.42 C 312.50 341.91, 312.76 341.48, 313.38 340.46 C 313.99 339.44, 314.33 338.75, 315.09 337.30 C 315.86 335.85, 316.30 334.96, 317.21 333.21 C 318.11 331.45, 318.62 330.43, 319.61 328.51 C 320.60 326.60, 321.14 325.54, 322.16 323.64 C 323.18 321.74, 323.73 320.75, 324.70 319.00 C 325.67 317.26, 326.22 316.38, 327.01 314.91 C 327.81 313.45, 328.23 312.73, 328.69 311.67 C 329.16 310.60, 329.30 310.15, 329.33 309.59 C 329.36 309.02, 329.23 308.85, 328.83 308.85 C 328.43 308.86, 328.07 309.07, 327.33 309.60 C 326.58 310.13, 326.09 310.67, 325.11 311.51 C 324.12 312.35, 323.52 312.90, 322.40 313.79 C 321.27 314.68, 320.62 315.18, 319.49 315.94 C 318.36 316.70, 317.76 317.07, 316.76 317.58 C 315.76 318.09, 315.28 318.29, 314.49 318.51 C 313.70 318.72, 313.36 318.73, 312.82 318.64 C 312.27 318.55, 312.07 318.41, 311.77 318.04 C 311.46 317.67, 311.39 317.37, 311.28 316.79 C 311.17 316.21, 311.19 315.80, 311.20 315.14 C 311.20 314.47, 311.27 314.05, 311.29 313.46 C 311.31 312.87, 311.34 312.57, 311.30 312.17 C 311.26 311.78, 311.23 311.62, 311.10 311.47 C 310.97 311.31, 310.83 311.29, 310.66 311.40" style="stroke: white; fill: white;"/><path d="M 435.12,292.73 C 434.95 292.83, 434.89 292.93, 434.67 293.35 C 434.45 293.77, 434.33 294.02, 434.01 294.83 C 433.69 295.63, 433.52 296.19, 433.06 297.37 C 432.60 298.55, 432.33 299.30, 431.70 300.74 C 431.08 302.18, 430.67 303.02, 429.94 304.57 C 429.20 306.11, 428.75 306.97, 428.02 308.46 C 427.29 309.95, 426.88 310.74, 426.27 312.01 C 425.67 313.28, 425.34 313.87, 425.00 314.80 C 424.65 315.74, 424.52 316.13, 424.54 316.67 C 424.56 317.21, 424.69 317.40, 425.09 317.50 C 425.48 317.60, 425.81 317.51, 426.51 317.17 C 427.21 316.84, 427.65 316.49, 428.57 315.81 C 429.50 315.13, 430.04 314.60, 431.13 313.77 C 432.21 312.93, 432.85 312.41, 434.00 311.63 C 435.15 310.84, 435.80 310.43, 436.89 309.85 C 437.97 309.26, 438.54 309.01, 439.44 308.69 C 440.34 308.37, 440.76 308.30, 441.39 308.26 C 442.01 308.23, 442.25 308.30, 442.57 308.51 C 442.88 308.73, 442.95 308.90, 442.97 309.34 C 442.99 309.78, 442.92 310.07, 442.66 310.70 C 442.41 311.33, 442.20 311.74, 441.68 312.49 C 441.17 313.24, 440.83 313.70, 440.08 314.46 C 439.33 315.22, 438.85 315.64, 437.94 316.30 C 437.03 316.96, 436.48 317.29, 435.54 317.77 C 434.59 318.25, 434.07 318.45, 433.21 318.70 C 432.35 318.96, 431.90 319.02, 431.24 319.06 C 430.59 319.09, 430.30 319.03, 429.91 318.89 C 429.53 318.75, 429.40 318.63, 429.31 318.37 C 429.22 318.11, 429.25 317.95, 429.46 317.57 C 429.67 317.20, 429.85 316.97, 430.37 316.50 C 430.89 316.03, 431.23 315.74, 432.04 315.23 C 432.85 314.72, 433.36 314.44, 434.42 313.94 C 435.48 313.45, 436.11 313.19, 437.34 312.75 C 438.58 312.30, 439.27 312.09, 440.57 311.71 C 441.88 311.33, 442.58 311.15, 443.86 310.85 C 445.13 310.55, 445.80 310.41, 446.94 310.20 C 448.08 309.99, 448.65 309.91, 449.57 309.80 C 450.48 309.69, 450.89 309.67, 451.50 309.65 C 452.11 309.64, 452.34 309.67, 452.62 309.75 C 452.91 309.84, 452.94 309.88, 452.93 310.09 C 452.93 310.29, 452.80 310.41, 452.60 310.77 C 452.40 311.13, 452.21 311.37, 451.92 311.89 C 451.64 312.41, 451.45 312.75, 451.19 313.35 C 450.93 313.96, 450.76 314.32, 450.62 314.92 C 450.47 315.52, 450.41 315.85, 450.46 316.37 C 450.52 316.88, 450.60 317.15, 450.89 317.50 C 451.19 317.85, 451.43 318.00, 451.95 318.11 C 452.47 318.23, 452.81 318.23, 453.51 318.08 C 454.22 317.93, 454.62 317.75, 455.46 317.37 C 456.31 316.99, 456.79 316.71, 457.74 316.16 C 458.68 315.60, 459.21 315.24, 460.19 314.59 C 461.17 313.94, 461.70 313.56, 462.65 312.90 C 463.60 312.25, 464.10 311.89, 464.93 311.31 C 465.77 310.73, 466.23 310.40, 466.81 310.01 C 467.40 309.61, 467.64 309.44, 467.88 309.32 C 468.12 309.20, 468.11 309.21, 468.03 309.41 C 467.95 309.61, 467.78 309.81, 467.48 310.32 C 467.19 310.82, 466.94 311.23, 466.55 311.94 C 466.17 312.65, 465.93 313.13, 465.56 313.86 C 465.19 314.58, 464.94 314.97, 464.70 315.55 C 464.46 316.12, 464.35 316.40, 464.34 316.74 C 464.33 317.07, 464.43 317.19, 464.66 317.21 C 464.89 317.24, 465.11 317.16, 465.49 316.85 C 465.88 316.55, 466.12 316.25, 466.57 315.69 C 467.03 315.12, 467.27 314.70, 467.79 314.01 C 468.31 313.33, 468.62 312.91, 469.17 312.26 C 469.73 311.60, 470.03 311.26, 470.57 310.75 C 471.12 310.23, 471.38 310.03, 471.90 309.68 C 472.43 309.34, 472.66 309.22, 473.19 309.03 C 473.72 308.83, 473.95 308.82, 474.54 308.70 C 475.12 308.58, 475.42 308.57, 476.11 308.42 C 476.81 308.26, 477.19 308.19, 478.01 307.93 C 478.83 307.67, 479.27 307.53, 480.21 307.12 C 481.14 306.71, 481.65 306.46, 482.68 305.87 C 483.72 305.29, 484.27 304.94, 485.37 304.19 C 486.46 303.44, 487.05 303.00, 488.16 302.13 C 489.27 301.25, 489.87 300.75, 490.94 299.80 C 492.01 298.86, 492.56 298.32, 493.51 297.39 C 494.47 296.46, 494.96 295.99, 495.73 295.16 C 496.50 294.34, 496.92 293.89, 497.36 293.28 C 497.81 292.67, 497.92 292.35, 497.94 292.12 C 497.95 291.90, 497.80 291.86, 497.44 292.16 C 497.08 292.47, 496.77 292.79, 496.12 293.64 C 495.48 294.50, 495.06 295.15, 494.22 296.45 C 493.39 297.74, 492.90 298.59, 491.96 300.12 C 491.01 301.65, 490.47 302.53, 489.50 304.10 C 488.52 305.67, 487.99 306.52, 487.09 307.97 C 486.19 309.42, 485.72 310.16, 485.01 311.35 C 484.31 312.55, 484.03 313.14, 483.56 313.95 C 483.10 314.75, 482.82 315.03, 482.70 315.36 C 482.58 315.69, 482.66 315.77, 482.97 315.58 C 483.28 315.40, 483.65 315.15, 484.25 314.43 C 484.86 313.71, 485.22 313.13, 486.00 311.97 C 486.77 310.81, 487.21 310.06, 488.14 308.63 C 489.06 307.19, 489.60 306.36, 490.61 304.81 C 491.61 303.26, 492.17 302.38, 493.15 300.88 C 494.14 299.38, 494.70 298.58, 495.53 297.29 C 496.37 295.99, 496.81 295.36, 497.32 294.40 C 497.83 293.45, 497.99 293.02, 498.08 292.51 C 498.16 292.01, 498.04 291.86, 497.75 291.87 C 497.45 291.88, 497.18 292.08, 496.60 292.57 C 496.02 293.06, 495.66 293.54, 494.87 294.33 C 494.08 295.12, 493.62 295.61, 492.67 296.51 C 491.72 297.42, 491.17 297.94, 490.11 298.86 C 489.05 299.78, 488.46 300.27, 487.37 301.12 C 486.28 301.98, 485.71 302.40, 484.64 303.13 C 483.58 303.86, 483.04 304.19, 482.05 304.76 C 481.06 305.32, 480.58 305.56, 479.69 305.95 C 478.80 306.35, 478.39 306.47, 477.62 306.73 C 476.84 307.00, 476.49 307.09, 475.83 307.27 C 475.16 307.45, 474.89 307.48, 474.29 307.64 C 473.69 307.80, 473.41 307.82, 472.82 308.05 C 472.23 308.27, 471.94 308.40, 471.33 308.77 C 470.73 309.13, 470.42 309.34, 469.79 309.86 C 469.16 310.38, 468.82 310.72, 468.20 311.36 C 467.57 312.01, 467.22 312.42, 466.65 313.09 C 466.07 313.77, 465.74 314.13, 465.31 314.74 C 464.89 315.35, 464.70 315.69, 464.53 316.15 C 464.36 316.60, 464.37 316.84, 464.45 317.02 C 464.53 317.20, 464.67 317.23, 464.94 317.06 C 465.20 316.89, 465.39 316.67, 465.77 316.17 C 466.15 315.67, 466.39 315.27, 466.82 314.57 C 467.26 313.87, 467.58 313.42, 467.95 312.65 C 468.32 311.89, 468.53 311.43, 468.67 310.76 C 468.81 310.09, 468.81 309.74, 468.65 309.32 C 468.48 308.91, 468.30 308.74, 467.82 308.68 C 467.35 308.63, 467.00 308.73, 466.29 309.05 C 465.57 309.37, 465.12 309.72, 464.25 310.28 C 463.38 310.84, 462.89 311.21, 461.93 311.85 C 460.98 312.49, 460.44 312.86, 459.47 313.48 C 458.49 314.10, 457.97 314.44, 457.05 314.97 C 456.13 315.50, 455.65 315.74, 454.87 316.11 C 454.10 316.48, 453.74 316.64, 453.17 316.84 C 452.61 317.04, 452.38 317.09, 452.05 317.12 C 451.72 317.15, 451.63 317.13, 451.51 316.99 C 451.40 316.84, 451.42 316.71, 451.48 316.37 C 451.54 316.04, 451.62 315.78, 451.81 315.29 C 452.01 314.81, 452.18 314.50, 452.45 313.94 C 452.73 313.39, 452.95 313.08, 453.20 312.52 C 453.44 311.95, 453.60 311.65, 453.69 311.13 C 453.78 310.61, 453.79 310.33, 453.65 309.92 C 453.50 309.51, 453.36 309.32, 452.94 309.07 C 452.52 308.83, 452.25 308.75, 451.55 308.68 C 450.85 308.60, 450.42 308.62, 449.46 308.70 C 448.50 308.77, 447.91 308.84, 446.74 309.03 C 445.56 309.23, 444.88 309.36, 443.58 309.65 C 442.28 309.94, 441.56 310.12, 440.23 310.49 C 438.89 310.86, 438.18 311.07, 436.90 311.51 C 435.63 311.96, 434.97 312.21, 433.85 312.73 C 432.73 313.24, 432.19 313.51, 431.31 314.09 C 430.43 314.66, 430.02 314.98, 429.46 315.60 C 428.90 316.22, 428.68 316.58, 428.50 317.19 C 428.32 317.80, 428.35 318.16, 428.56 318.67 C 428.77 319.17, 429.00 319.41, 429.54 319.70 C 430.08 319.98, 430.46 320.08, 431.25 320.10 C 432.05 320.13, 432.55 320.07, 433.51 319.82 C 434.48 319.58, 435.05 319.37, 436.08 318.88 C 437.12 318.39, 437.71 318.05, 438.70 317.36 C 439.69 316.66, 440.21 316.23, 441.04 315.40 C 441.86 314.58, 442.25 314.10, 442.81 313.23 C 443.37 312.37, 443.61 311.89, 443.82 311.08 C 444.04 310.27, 444.05 309.83, 443.89 309.19 C 443.73 308.55, 443.53 308.24, 443.03 307.86 C 442.53 307.49, 442.18 307.37, 441.39 307.33 C 440.61 307.29, 440.13 307.36, 439.11 307.64 C 438.10 307.93, 437.50 308.18, 436.33 308.76 C 435.16 309.33, 434.48 309.74, 433.26 310.51 C 432.05 311.27, 431.37 311.78, 430.25 312.60 C 429.12 313.42, 428.52 313.89, 427.64 314.61 C 426.76 315.33, 426.36 315.72, 425.85 316.22 C 425.34 316.71, 425.21 316.95, 425.08 317.06 C 424.94 317.18, 424.99 317.15, 425.17 316.78 C 425.35 316.41, 425.52 316.07, 425.96 315.23 C 426.39 314.38, 426.70 313.78, 427.34 312.54 C 427.99 311.30, 428.40 310.51, 429.17 309.04 C 429.93 307.56, 430.38 306.70, 431.15 305.16 C 431.91 303.61, 432.34 302.76, 433.00 301.31 C 433.65 299.86, 433.97 299.11, 434.43 297.90 C 434.89 296.69, 435.08 296.12, 435.31 295.26 C 435.54 294.41, 435.55 294.10, 435.59 293.62 C 435.64 293.13, 435.62 293.02, 435.52 292.84 C 435.43 292.66, 435.29 292.63, 435.12 292.73" style="stroke: white; fill: white;"/><path d="M 481.75,312.39 C 481.82 312.58, 481.93 312.78, 482.31 312.96 C 482.69 313.14, 482.97 313.24, 483.65 313.28 C 484.33 313.33, 484.76 313.35, 485.70 313.17 C 486.63 313.00, 487.18 312.84, 488.32 312.43 C 489.46 312.01, 490.09 311.73, 491.38 311.09 C 492.67 310.45, 493.38 310.06, 494.78 309.22 C 496.17 308.38, 496.93 307.90, 498.35 306.91 C 499.78 305.92, 500.53 305.35, 501.90 304.27 C 503.27 303.20, 503.98 302.61, 505.19 301.53 C 506.41 300.46, 507.01 299.88, 507.96 298.90 C 508.91 297.91, 509.35 297.42, 509.95 296.62 C 510.55 295.82, 510.78 295.43, 510.94 294.88 C 511.10 294.33, 511.03 294.07, 510.76 293.87 C 510.49 293.68, 510.19 293.64, 509.60 293.91 C 509.00 294.17, 508.60 294.45, 507.79 295.20 C 506.98 295.95, 506.50 296.52, 505.55 297.68 C 504.59 298.83, 504.03 299.58, 503.02 300.96 C 502.00 302.34, 501.43 303.17, 500.47 304.60 C 499.52 306.03, 499.02 306.81, 498.25 308.11 C 497.49 309.41, 497.11 310.06, 496.64 311.10 C 496.17 312.15, 495.99 312.61, 495.91 313.32 C 495.83 314.02, 495.91 314.30, 496.23 314.63 C 496.56 314.95, 496.87 315.02, 497.55 314.95 C 498.22 314.87, 498.69 314.69, 499.61 314.26 C 500.53 313.83, 501.10 313.44, 502.15 312.81 C 503.21 312.18, 503.84 311.74, 504.89 311.11 C 505.93 310.49, 506.55 310.12, 507.38 309.67 C 508.21 309.22, 508.58 309.02, 509.03 308.86 C 509.47 308.70, 509.55 308.70, 509.61 308.87 C 509.67 309.03, 509.52 309.22, 509.33 309.68 C 509.14 310.14, 508.89 310.51, 508.67 311.17 C 508.46 311.83, 508.31 312.28, 508.26 312.97 C 508.20 313.67, 508.18 314.07, 508.39 314.64 C 508.59 315.22, 508.77 315.51, 509.29 315.84 C 509.80 316.17, 510.16 316.27, 510.97 316.29 C 511.79 316.30, 512.29 316.21, 513.36 315.91 C 514.42 315.60, 515.06 315.33, 516.30 314.78 C 517.53 314.22, 518.24 313.83, 519.54 313.14 C 520.84 312.45, 521.57 312.02, 522.81 311.32 C 524.05 310.62, 524.71 310.24, 525.75 309.64 C 526.79 309.04, 527.30 308.77, 528.01 308.33 C 528.72 307.89, 529.00 307.73, 529.31 307.44 C 529.61 307.16, 529.63 307.05, 529.54 306.92 C 529.45 306.78, 529.25 306.72, 528.85 306.77 C 528.46 306.83, 528.14 306.92, 527.57 307.22 C 526.99 307.52, 526.65 307.78, 525.98 308.28 C 525.32 308.77, 524.93 309.09, 524.25 309.70 C 523.57 310.31, 523.19 310.67, 522.58 311.32 C 521.98 311.98, 521.66 312.34, 521.24 312.98 C 520.82 313.62, 520.62 313.96, 520.46 314.53 C 520.31 315.09, 520.30 315.39, 520.47 315.79 C 520.64 316.19, 520.83 316.40, 521.30 316.54 C 521.77 316.68, 522.11 316.70, 522.80 316.49 C 523.49 316.28, 523.90 316.07, 524.75 315.50 C 525.60 314.94, 526.08 314.53, 527.05 313.65 C 528.02 312.78, 528.56 312.23, 529.60 311.11 C 530.64 310.00, 531.20 309.34, 532.24 308.09 C 533.29 306.84, 533.84 306.14, 534.82 304.85 C 535.79 303.56, 536.27 302.86, 537.11 301.64 C 537.94 300.42, 538.35 299.80, 538.98 298.75 C 539.62 297.70, 539.97 297.14, 540.29 296.37 C 540.61 295.61, 540.67 295.21, 540.58 294.91 C 540.48 294.61, 540.26 294.57, 539.83 294.86 C 539.39 295.15, 539.04 295.49, 538.39 296.37 C 537.74 297.26, 537.31 297.97, 536.57 299.29 C 535.83 300.61, 535.40 301.49, 534.69 302.98 C 533.98 304.48, 533.58 305.31, 533.02 306.75 C 532.46 308.20, 532.16 308.95, 531.88 310.21 C 531.60 311.46, 531.52 312.07, 531.62 313.03 C 531.72 313.98, 531.88 314.41, 532.39 315.00 C 532.90 315.58, 533.29 315.79, 534.16 315.96 C 535.03 316.13, 535.60 316.08, 536.73 315.84 C 537.85 315.61, 538.49 315.34, 539.77 314.78 C 541.05 314.21, 541.76 313.79, 543.11 313.03 C 544.46 312.26, 545.20 311.77, 546.51 310.95 C 547.82 310.12, 548.51 309.65, 549.66 308.89 C 550.81 308.14, 551.38 307.75, 552.26 307.17 C 553.15 306.59, 553.54 306.36, 554.07 305.98 C 554.61 305.60, 554.78 305.49, 554.95 305.27 C 555.12 305.05, 555.05 304.97, 554.91 304.88 C 554.76 304.80, 554.56 304.77, 554.22 304.85 C 553.87 304.94, 553.68 305.01, 553.18 305.30 C 552.68 305.60, 552.37 305.82, 551.71 306.31 C 551.05 306.80, 550.63 307.11, 549.88 307.76 C 549.13 308.41, 548.70 308.80, 547.96 309.54 C 547.22 310.28, 546.80 310.70, 546.18 311.46 C 545.56 312.22, 545.25 312.64, 544.88 313.35 C 544.52 314.05, 544.38 314.42, 544.34 315.00 C 544.30 315.57, 544.39 315.86, 544.68 316.23 C 544.98 316.60, 545.25 316.77, 545.84 316.86 C 546.42 316.95, 546.82 316.92, 547.60 316.69 C 548.39 316.46, 548.85 316.22, 549.75 315.70 C 550.65 315.19, 551.16 314.82, 552.11 314.11 C 553.07 313.39, 553.59 312.95, 554.52 312.13 C 555.45 311.32, 555.97 310.85, 556.76 310.03 C 557.54 309.22, 558.00 308.73, 558.45 308.07 C 558.89 307.42, 559.00 307.07, 558.99 306.77 C 558.98 306.47, 558.77 306.42, 558.39 306.58 C 558.00 306.74, 557.61 306.98, 557.05 307.56 C 556.50 308.15, 556.09 308.66, 555.62 309.49 C 555.15 310.32, 554.94 310.90, 554.71 311.72 C 554.47 312.55, 554.38 312.97, 554.46 313.62 C 554.55 314.27, 554.68 314.58, 555.12 314.97 C 555.56 315.36, 555.91 315.51, 556.67 315.57 C 557.42 315.62, 557.91 315.53, 558.88 315.23 C 559.85 314.93, 560.41 314.65, 561.50 314.08 C 562.60 313.51, 563.22 313.11, 564.35 312.38 C 565.48 311.65, 566.12 311.18, 567.15 310.42 C 568.19 309.66, 568.79 309.21, 569.54 308.58 C 570.28 307.95, 570.59 307.61, 570.87 307.28 C 571.15 306.96, 571.10 306.87, 570.93 306.96 C 570.76 307.05, 570.45 307.24, 570.00 307.72 C 569.55 308.20, 569.13 308.62, 568.68 309.37 C 568.23 310.12, 567.98 310.67, 567.75 311.44 C 567.52 312.22, 567.43 312.65, 567.53 313.27 C 567.62 313.88, 567.77 314.17, 568.22 314.50 C 568.67 314.83, 569.02 314.94, 569.80 314.93 C 570.57 314.92, 571.09 314.79, 572.09 314.43 C 573.09 314.07, 573.68 313.74, 574.81 313.13 C 575.94 312.51, 576.59 312.09, 577.72 311.36 C 578.85 310.64, 579.54 310.16, 580.48 309.49 C 581.42 308.82, 581.88 308.41, 582.43 308.02 C 582.98 307.62, 583.13 307.45, 583.22 307.50 C 583.31 307.55, 583.19 307.68, 582.87 308.26 C 582.54 308.85, 582.22 309.33, 581.60 310.43 C 580.98 311.53, 580.58 312.30, 579.75 313.79 C 578.93 315.27, 578.45 316.15, 577.48 317.84 C 576.52 319.53, 575.97 320.47, 574.94 322.22 C 573.91 323.98, 573.38 324.93, 572.33 326.61 C 571.29 328.30, 570.74 329.15, 569.72 330.63 C 568.70 332.10, 568.16 332.82, 567.24 333.98 C 566.32 335.15, 565.87 335.68, 565.11 336.45 C 564.35 337.22, 563.98 337.50, 563.44 337.85 C 562.91 338.21, 562.69 338.27, 562.43 338.22 C 562.16 338.17, 562.12 338.03, 562.12 337.58 C 562.11 337.14, 562.14 336.80, 562.39 336.01 C 562.65 335.21, 562.80 334.68, 563.39 333.62 C 563.98 332.56, 564.37 331.90, 565.34 330.70 C 566.31 329.50, 566.91 328.85, 568.24 327.63 C 569.57 326.41, 570.38 325.77, 572.00 324.59 C 573.62 323.42, 574.57 322.82, 576.33 321.75 C 578.09 320.67, 579.05 320.14, 580.81 319.20 C 582.56 318.27, 583.47 317.83, 585.11 317.06 C 586.75 316.28, 587.67 315.93, 589.03 315.33 C 590.38 314.73, 590.98 314.49, 591.87 314.06 C 592.77 313.63, 593.21 313.43, 593.51 313.18 C 593.81 312.94, 593.77 312.83, 593.38 312.85 C 593.00 312.87, 592.53 312.99, 591.57 313.28 C 590.61 313.56, 589.98 313.73, 588.59 314.27 C 587.19 314.81, 586.27 315.20, 584.60 315.97 C 582.93 316.74, 582.02 317.19, 580.24 318.13 C 578.45 319.07, 577.47 319.58, 575.68 320.66 C 573.88 321.75, 572.91 322.35, 571.24 323.55 C 569.58 324.74, 568.74 325.40, 567.35 326.66 C 565.96 327.92, 565.33 328.59, 564.29 329.84 C 563.26 331.10, 562.79 331.78, 562.16 332.95 C 561.54 334.12, 561.34 334.74, 561.16 335.70 C 560.98 336.67, 561.05 337.14, 561.26 337.77 C 561.48 338.39, 561.74 338.64, 562.26 338.81 C 562.78 338.98, 563.14 338.94, 563.85 338.61 C 564.57 338.29, 564.98 337.98, 565.83 337.20 C 566.69 336.42, 567.15 335.88, 568.12 334.70 C 569.09 333.52, 569.65 332.80, 570.70 331.31 C 571.75 329.83, 572.31 328.96, 573.38 327.27 C 574.45 325.59, 574.99 324.63, 576.05 322.88 C 577.10 321.13, 577.66 320.20, 578.66 318.52 C 579.66 316.85, 580.19 315.99, 581.04 314.51 C 581.88 313.02, 582.33 312.28, 582.88 311.09 C 583.43 309.90, 583.67 309.34, 583.78 308.56 C 583.89 307.78, 583.80 307.47, 583.45 307.19 C 583.10 306.91, 582.75 306.93, 582.01 307.17 C 581.27 307.41, 580.77 307.79, 579.76 308.39 C 578.76 308.99, 578.11 309.49, 576.98 310.19 C 575.85 310.88, 575.21 311.29, 574.13 311.87 C 573.05 312.46, 572.47 312.74, 571.58 313.13 C 570.68 313.51, 570.25 313.66, 569.66 313.81 C 569.07 313.96, 568.86 313.98, 568.62 313.87 C 568.37 313.76, 568.35 313.64, 568.43 313.26 C 568.51 312.87, 568.68 312.58, 569.02 311.97 C 569.37 311.37, 569.73 310.95, 570.14 310.23 C 570.55 309.51, 570.85 309.02, 571.08 308.37 C 571.31 307.73, 571.41 307.35, 571.30 307.02 C 571.19 306.68, 571.03 306.58, 570.54 306.70 C 570.04 306.82, 569.65 307.07, 568.81 307.60 C 567.98 308.13, 567.42 308.61, 566.38 309.34 C 565.34 310.07, 564.72 310.53, 563.61 311.23 C 562.51 311.93, 561.89 312.29, 560.85 312.84 C 559.82 313.39, 559.28 313.63, 558.44 313.95 C 557.60 314.28, 557.21 314.39, 556.64 314.47 C 556.08 314.56, 555.86 314.54, 555.61 314.36 C 555.36 314.19, 555.32 314.04, 555.38 313.60 C 555.45 313.17, 555.59 312.85, 555.93 312.19 C 556.26 311.54, 556.61 311.10, 557.08 310.35 C 557.54 309.60, 557.89 309.11, 558.26 308.45 C 558.62 307.78, 558.80 307.40, 558.89 307.02 C 558.97 306.65, 558.94 306.50, 558.68 306.56 C 558.43 306.62, 558.17 306.82, 557.60 307.33 C 557.03 307.84, 556.63 308.35, 555.84 309.11 C 555.05 309.87, 554.56 310.35, 553.65 311.13 C 552.75 311.91, 552.22 312.33, 551.30 313.00 C 550.38 313.67, 549.87 314.00, 549.04 314.49 C 548.21 314.98, 547.80 315.17, 547.16 315.45 C 546.52 315.72, 546.25 315.80, 545.86 315.86 C 545.47 315.93, 545.35 315.93, 545.21 315.79 C 545.08 315.64, 545.08 315.52, 545.20 315.15 C 545.33 314.77, 545.47 314.49, 545.85 313.92 C 546.24 313.34, 546.53 312.96, 547.14 312.28 C 547.75 311.60, 548.17 311.20, 548.90 310.51 C 549.63 309.82, 550.05 309.44, 550.79 308.84 C 551.52 308.23, 551.93 307.94, 552.57 307.48 C 553.21 307.01, 553.55 306.85, 553.99 306.50 C 554.44 306.15, 554.59 306.02, 554.80 305.73 C 555.02 305.45, 555.08 305.25, 555.06 305.06 C 555.04 304.88, 554.99 304.77, 554.70 304.79 C 554.41 304.81, 554.20 304.87, 553.60 305.16 C 552.99 305.45, 552.59 305.69, 551.67 306.23 C 550.76 306.77, 550.17 307.14, 549.00 307.86 C 547.83 308.58, 547.13 309.04, 545.82 309.84 C 544.51 310.64, 543.77 311.11, 542.45 311.85 C 541.12 312.59, 540.42 312.98, 539.21 313.53 C 538.00 314.08, 537.40 314.32, 536.42 314.61 C 535.43 314.90, 534.97 315.00, 534.29 314.97 C 533.60 314.94, 533.34 314.88, 532.99 314.48 C 532.65 314.08, 532.57 313.77, 532.57 312.97 C 532.57 312.17, 532.66 311.63, 532.98 310.49 C 533.31 309.34, 533.60 308.61, 534.20 307.24 C 534.79 305.86, 535.21 305.05, 535.96 303.62 C 536.72 302.18, 537.24 301.37, 537.97 300.07 C 538.69 298.77, 539.12 298.08, 539.61 297.13 C 540.09 296.17, 540.27 295.75, 540.40 295.29 C 540.53 294.83, 540.46 294.71, 540.26 294.83 C 540.06 294.95, 539.84 295.22, 539.39 295.88 C 538.93 296.54, 538.64 297.12, 537.99 298.13 C 537.34 299.14, 536.95 299.76, 536.12 300.95 C 535.28 302.14, 534.79 302.82, 533.81 304.08 C 532.84 305.34, 532.28 306.03, 531.24 307.25 C 530.20 308.47, 529.64 309.11, 528.61 310.19 C 527.59 311.26, 527.05 311.78, 526.12 312.62 C 525.19 313.45, 524.71 313.81, 523.95 314.35 C 523.20 314.90, 522.85 315.07, 522.34 315.35 C 521.83 315.63, 521.65 315.69, 521.40 315.74 C 521.16 315.79, 521.12 315.77, 521.12 315.60 C 521.11 315.43, 521.17 315.27, 521.39 314.89 C 521.60 314.50, 521.78 314.21, 522.20 313.68 C 522.63 313.14, 522.93 312.80, 523.52 312.22 C 524.10 311.63, 524.48 311.29, 525.15 310.74 C 525.81 310.19, 526.21 309.92, 526.85 309.47 C 527.49 309.02, 527.86 308.85, 528.36 308.48 C 528.86 308.10, 529.09 307.91, 529.33 307.60 C 529.57 307.30, 529.64 307.10, 529.57 306.94 C 529.50 306.79, 529.40 306.73, 528.98 306.82 C 528.57 306.91, 528.27 307.04, 527.50 307.39 C 526.74 307.75, 526.23 308.03, 525.17 308.59 C 524.11 309.15, 523.44 309.52, 522.19 310.19 C 520.93 310.86, 520.21 311.27, 518.92 311.93 C 517.62 312.59, 516.92 312.96, 515.72 313.49 C 514.53 314.02, 513.91 314.27, 512.95 314.59 C 511.99 314.92, 511.55 315.03, 510.91 315.13 C 510.26 315.22, 510.04 315.21, 509.72 315.07 C 509.41 314.92, 509.36 314.78, 509.33 314.41 C 509.30 314.04, 509.43 313.76, 509.58 313.20 C 509.74 312.63, 509.94 312.24, 510.11 311.58 C 510.27 310.91, 510.41 310.47, 510.40 309.87 C 510.40 309.26, 510.37 308.91, 510.07 308.55 C 509.77 308.19, 509.55 308.06, 508.90 308.06 C 508.26 308.06, 507.81 308.20, 506.87 308.57 C 505.93 308.94, 505.29 309.30, 504.19 309.89 C 503.10 310.48, 502.44 310.89, 501.39 311.51 C 500.33 312.13, 499.75 312.49, 498.93 312.99 C 498.11 313.49, 497.75 313.76, 497.28 314.02 C 496.81 314.28, 496.68 314.39, 496.56 314.29 C 496.45 314.18, 496.49 314.04, 496.70 313.50 C 496.91 312.96, 497.10 312.54, 497.62 311.59 C 498.14 310.64, 498.51 309.99, 499.30 308.74 C 500.08 307.49, 500.59 306.73, 501.56 305.34 C 502.53 303.95, 503.12 303.14, 504.14 301.80 C 505.17 300.46, 505.76 299.75, 506.69 298.63 C 507.63 297.51, 508.13 297.00, 508.82 296.21 C 509.52 295.43, 509.81 295.12, 510.17 294.71 C 510.53 294.29, 510.60 294.16, 510.62 294.13 C 510.64 294.09, 510.57 294.18, 510.27 294.54 C 509.97 294.91, 509.75 295.24, 509.12 295.95 C 508.50 296.66, 508.08 297.15, 507.13 298.08 C 506.18 299.01, 505.59 299.57, 504.39 300.61 C 503.19 301.66, 502.48 302.24, 501.13 303.28 C 499.77 304.33, 499.03 304.89, 497.62 305.85 C 496.22 306.81, 495.48 307.29, 494.11 308.10 C 492.74 308.91, 492.04 309.29, 490.79 309.90 C 489.54 310.51, 488.93 310.77, 487.86 311.15 C 486.79 311.53, 486.28 311.65, 485.44 311.81 C 484.60 311.97, 484.23 311.92, 483.65 311.96 C 483.08 312.00, 482.88 311.99, 482.54 312.00 C 482.20 312.00, 482.12 311.90, 481.96 311.98 C 481.80 312.06, 481.68 312.19, 481.75 312.39" style="stroke: white; fill: white;"/><path d="M 632.03,305.17 C 631.97 304.96, 631.85 304.78, 631.50 304.56 C 631.15 304.35, 630.89 304.20, 630.28 304.11 C 629.66 304.03, 629.26 303.99, 628.42 304.15 C 627.59 304.31, 627.12 304.46, 626.10 304.90 C 625.08 305.35, 624.48 305.65, 623.34 306.38 C 622.20 307.10, 621.52 307.57, 620.40 308.51 C 619.28 309.46, 618.66 310.04, 617.74 311.09 C 616.82 312.15, 616.36 312.75, 615.81 313.78 C 615.25 314.80, 615.04 315.34, 614.96 316.23 C 614.89 317.12, 614.98 317.57, 615.42 318.21 C 615.85 318.86, 616.23 319.14, 617.14 319.44 C 618.05 319.74, 618.66 319.79, 619.97 319.72 C 621.28 319.64, 622.08 319.48, 623.68 319.06 C 625.27 318.65, 626.20 318.30, 627.95 317.63 C 629.70 316.95, 630.67 316.51, 632.43 315.69 C 634.20 314.87, 635.14 314.39, 636.78 313.54 C 638.42 312.69, 639.25 312.22, 640.63 311.45 C 642.01 310.67, 642.67 310.29, 643.68 309.68 C 644.70 309.07, 645.13 308.81, 645.71 308.38 C 646.29 307.95, 646.44 307.77, 646.56 307.51 C 646.68 307.25, 646.57 307.13, 646.30 307.06 C 646.04 307.00, 645.75 306.99, 645.23 307.18 C 644.71 307.36, 644.39 307.54, 643.71 307.99 C 643.03 308.44, 642.62 308.78, 641.83 309.43 C 641.04 310.07, 640.55 310.45, 639.74 311.20 C 638.93 311.95, 638.47 312.39, 637.78 313.16 C 637.08 313.93, 636.72 314.34, 636.28 315.05 C 635.83 315.76, 635.64 316.12, 635.54 316.69 C 635.44 317.26, 635.50 317.56, 635.77 317.90 C 636.05 318.25, 636.33 318.39, 636.91 318.42 C 637.49 318.45, 637.88 318.37, 638.66 318.06 C 639.45 317.75, 639.92 317.46, 640.82 316.86 C 641.72 316.26, 642.23 315.83, 643.17 315.05 C 644.10 314.27, 644.63 313.79, 645.49 312.94 C 646.35 312.10, 646.88 311.58, 647.47 310.83 C 648.06 310.09, 648.30 309.67, 648.46 309.24 C 648.62 308.80, 648.52 308.65, 648.26 308.66 C 648.01 308.67, 647.68 308.82, 647.19 309.29 C 646.70 309.76, 646.28 310.22, 645.81 311.02 C 645.34 311.82, 645.09 312.42, 644.83 313.30 C 644.57 314.17, 644.47 314.67, 644.53 315.39 C 644.59 316.12, 644.70 316.47, 645.12 316.92 C 645.53 317.36, 645.86 317.54, 646.60 317.61 C 647.34 317.69, 647.82 317.63, 648.83 317.29 C 649.84 316.94, 650.44 316.63, 651.66 315.87 C 652.88 315.12, 653.58 314.59, 654.92 313.50 C 656.26 312.41, 656.99 311.75, 658.37 310.43 C 659.74 309.11, 660.49 308.35, 661.80 306.92 C 663.12 305.49, 663.80 304.69, 664.96 303.28 C 666.12 301.87, 666.67 301.13, 667.59 299.86 C 668.51 298.60, 668.94 297.98, 669.54 296.95 C 670.14 295.92, 670.41 295.38, 670.58 294.72 C 670.76 294.05, 670.69 293.75, 670.40 293.62 C 670.12 293.48, 669.79 293.56, 669.16 294.06 C 668.54 294.56, 668.10 295.04, 667.29 296.12 C 666.47 297.20, 665.98 298.00, 665.09 299.46 C 664.19 300.91, 663.69 301.82, 662.81 303.38 C 661.92 304.94, 661.44 305.81, 660.65 307.27 C 659.86 308.73, 659.46 309.48, 658.84 310.70 C 658.23 311.93, 657.93 312.51, 657.57 313.40 C 657.20 314.29, 657.07 314.66, 657.02 315.16 C 656.97 315.66, 657.06 315.81, 657.33 315.89 C 657.61 315.97, 657.87 315.89, 658.39 315.54 C 658.91 315.19, 659.24 314.84, 659.93 314.16 C 660.62 313.48, 661.02 312.97, 661.83 312.15 C 662.65 311.33, 663.15 310.84, 664.01 310.07 C 664.88 309.31, 665.37 308.91, 666.16 308.31 C 666.94 307.72, 667.34 307.47, 667.95 307.11 C 668.56 306.74, 668.84 306.64, 669.20 306.50 C 669.56 306.36, 669.66 306.35, 669.75 306.42 C 669.84 306.49, 669.79 306.56, 669.67 306.83 C 669.55 307.11, 669.42 307.31, 669.13 307.80 C 668.85 308.29, 668.66 308.63, 668.25 309.28 C 667.84 309.93, 667.57 310.33, 667.09 311.05 C 666.60 311.77, 666.29 312.18, 665.83 312.88 C 665.37 313.58, 665.11 313.94, 664.78 314.57 C 664.46 315.20, 664.29 315.50, 664.20 316.01 C 664.11 316.53, 664.12 316.78, 664.32 317.16 C 664.52 317.54, 664.72 317.73, 665.21 317.91 C 665.70 318.09, 666.04 318.12, 666.77 318.06 C 667.50 318.00, 667.94 317.89, 668.86 317.62 C 669.78 317.35, 670.32 317.14, 671.38 316.70 C 672.44 316.26, 673.03 315.98, 674.15 315.41 C 675.26 314.84, 675.87 314.51, 676.96 313.87 C 678.04 313.23, 678.62 312.87, 679.58 312.21 C 680.54 311.55, 681.02 311.20, 681.75 310.57 C 682.48 309.95, 682.81 309.63, 683.22 309.08 C 683.62 308.53, 683.75 308.25, 683.79 307.81 C 683.82 307.38, 683.70 307.13, 683.37 306.89 C 683.05 306.65, 682.73 306.55, 682.14 306.61 C 681.55 306.68, 681.14 306.81, 680.44 307.22 C 679.73 307.62, 679.30 307.96, 678.63 308.63 C 677.95 309.31, 677.56 309.77, 677.05 310.59 C 676.54 311.42, 676.27 311.91, 676.06 312.77 C 675.85 313.62, 675.80 314.10, 676.00 314.86 C 676.20 315.63, 676.42 316.04, 677.07 316.60 C 677.72 317.16, 678.20 317.39, 679.25 317.68 C 680.31 317.97, 680.98 318.04, 682.34 318.04 C 683.70 318.05, 684.64 317.92, 686.05 317.70 C 687.46 317.48, 688.27 317.26, 689.38 316.93 C 690.50 316.60, 691.20 316.32, 691.62 316.06 C 692.05 315.79, 692.01 315.66, 691.52 315.62 C 691.03 315.58, 690.29 315.72, 689.16 315.85 C 688.03 315.98, 687.23 316.12, 685.86 316.28 C 684.49 316.43, 683.58 316.59, 682.32 316.63 C 681.05 316.68, 680.45 316.65, 679.53 316.48 C 678.60 316.32, 678.22 316.17, 677.70 315.80 C 677.19 315.43, 677.05 315.18, 676.95 314.64 C 676.84 314.10, 676.92 313.76, 677.16 313.09 C 677.40 312.43, 677.67 312.02, 678.16 311.33 C 678.65 310.65, 679.02 310.24, 679.63 309.66 C 680.24 309.09, 680.64 308.83, 681.20 308.44 C 681.77 308.06, 682.07 307.92, 682.45 307.72 C 682.83 307.52, 682.97 307.45, 683.11 307.44 C 683.25 307.43, 683.28 307.46, 683.15 307.65 C 683.02 307.85, 682.89 308.02, 682.47 308.43 C 682.05 308.84, 681.74 309.13, 681.02 309.69 C 680.31 310.24, 679.84 310.58, 678.90 311.19 C 677.96 311.81, 677.39 312.15, 676.32 312.76 C 675.25 313.37, 674.65 313.69, 673.56 314.23 C 672.46 314.76, 671.88 315.02, 670.86 315.43 C 669.84 315.84, 669.31 316.01, 668.45 316.28 C 667.59 316.54, 667.19 316.62, 666.58 316.76 C 665.97 316.90, 665.73 316.95, 665.39 316.97 C 665.06 316.99, 664.98 316.99, 664.92 316.86 C 664.86 316.72, 664.91 316.62, 665.08 316.29 C 665.25 315.95, 665.42 315.70, 665.78 315.17 C 666.15 314.63, 666.40 314.28, 666.89 313.62 C 667.38 312.95, 667.70 312.56, 668.22 311.85 C 668.74 311.13, 669.05 310.74, 669.48 310.04 C 669.91 309.35, 670.14 308.98, 670.36 308.36 C 670.58 307.73, 670.64 307.40, 670.59 306.92 C 670.54 306.44, 670.42 306.21, 670.11 305.96 C 669.80 305.71, 669.56 305.64, 669.03 305.68 C 668.50 305.72, 668.17 305.84, 667.46 306.17 C 666.74 306.49, 666.32 306.75, 665.46 307.33 C 664.59 307.90, 664.07 308.29, 663.14 309.04 C 662.21 309.79, 661.66 310.26, 660.79 311.07 C 659.93 311.88, 659.44 312.36, 658.80 313.10 C 658.16 313.84, 657.90 314.27, 657.60 314.78 C 657.30 315.29, 657.28 315.53, 657.29 315.65 C 657.31 315.77, 657.41 315.74, 657.66 315.38 C 657.90 315.01, 658.07 314.67, 658.51 313.84 C 658.95 313.01, 659.22 312.43, 659.87 311.24 C 660.52 310.04, 660.92 309.31, 661.75 307.88 C 662.57 306.45, 663.06 305.59, 663.98 304.07 C 664.91 302.55, 665.46 301.68, 666.37 300.26 C 667.27 298.84, 667.81 298.09, 668.53 296.98 C 669.24 295.88, 669.56 295.37, 669.93 294.73 C 670.30 294.10, 670.37 293.87, 670.36 293.81 C 670.34 293.74, 670.21 293.88, 669.86 294.40 C 669.51 294.91, 669.25 295.41, 668.61 296.37 C 667.97 297.32, 667.57 297.95, 666.65 299.17 C 665.73 300.40, 665.17 301.12, 664.01 302.50 C 662.86 303.87, 662.18 304.65, 660.87 306.05 C 659.56 307.44, 658.82 308.19, 657.46 309.47 C 656.09 310.75, 655.37 311.39, 654.06 312.43 C 652.75 313.48, 652.06 313.96, 650.92 314.69 C 649.78 315.42, 649.22 315.70, 648.36 316.09 C 647.50 316.47, 647.15 316.56, 646.61 316.62 C 646.08 316.68, 645.90 316.63, 645.69 316.39 C 645.48 316.16, 645.46 315.94, 645.56 315.43 C 645.65 314.91, 645.82 314.52, 646.17 313.81 C 646.52 313.09, 646.88 312.62, 647.29 311.85 C 647.70 311.09, 647.98 310.59, 648.22 309.99 C 648.46 309.38, 648.55 309.07, 648.49 308.83 C 648.43 308.59, 648.31 308.56, 647.92 308.79 C 647.53 309.02, 647.21 309.34, 646.54 309.98 C 645.86 310.61, 645.41 311.16, 644.56 311.96 C 643.70 312.76, 643.19 313.24, 642.28 313.98 C 641.38 314.72, 640.85 315.09, 640.01 315.66 C 639.17 316.23, 638.73 316.47, 638.08 316.83 C 637.44 317.20, 637.17 317.32, 636.80 317.46 C 636.43 317.60, 636.32 317.64, 636.23 317.54 C 636.14 317.44, 636.16 317.32, 636.36 316.95 C 636.56 316.59, 636.74 316.30, 637.21 315.71 C 637.68 315.13, 638.02 314.73, 638.71 314.04 C 639.40 313.34, 639.85 312.92, 640.65 312.22 C 641.46 311.53, 641.93 311.16, 642.72 310.56 C 643.51 309.97, 643.96 309.71, 644.59 309.25 C 645.22 308.79, 645.50 308.61, 645.88 308.26 C 646.25 307.90, 646.40 307.70, 646.48 307.48 C 646.57 307.27, 646.55 307.15, 646.30 307.17 C 646.05 307.20, 645.86 307.29, 645.23 307.60 C 644.60 307.91, 644.18 308.18, 643.14 308.74 C 642.11 309.30, 641.45 309.68, 640.07 310.41 C 638.68 311.15, 637.85 311.61, 636.22 312.43 C 634.58 313.25, 633.64 313.72, 631.89 314.51 C 630.14 315.29, 629.18 315.72, 627.47 316.36 C 625.75 317.00, 624.84 317.32, 623.32 317.73 C 621.80 318.14, 621.04 318.28, 619.86 318.42 C 618.67 318.56, 618.16 318.56, 617.41 318.42 C 616.66 318.29, 616.39 318.16, 616.09 317.74 C 615.78 317.33, 615.74 317.03, 615.88 316.36 C 616.02 315.68, 616.23 315.23, 616.79 314.35 C 617.35 313.47, 617.79 312.91, 618.69 311.95 C 619.58 310.99, 620.19 310.44, 621.27 309.56 C 622.35 308.67, 623.00 308.22, 624.08 307.54 C 625.15 306.86, 625.73 306.56, 626.65 306.14 C 627.57 305.72, 627.98 305.60, 628.68 305.45 C 629.39 305.30, 629.67 305.37, 630.16 305.39 C 630.65 305.40, 630.81 305.49, 631.13 305.53 C 631.46 305.57, 631.61 305.67, 631.79 305.60 C 631.97 305.52, 632.09 305.38, 632.03 305.17" style="stroke: white; fill: white;"/><path d="M 719.73,307.89 C 719.57 308.01, 719.57 308.13, 719.38 308.52 C 719.19 308.91, 719.06 309.16, 718.79 309.84 C 718.52 310.53, 718.34 311.04, 718.01 311.94 C 717.69 312.84, 717.46 313.41, 717.15 314.35 C 716.84 315.29, 716.62 315.80, 716.46 316.62 C 716.29 317.44, 716.21 317.86, 716.31 318.45 C 716.41 319.05, 716.54 319.33, 716.96 319.62 C 717.38 319.90, 717.69 319.97, 718.40 319.88 C 719.11 319.79, 719.54 319.63, 720.51 319.16 C 721.48 318.69, 722.05 318.31, 723.24 317.54 C 724.44 316.77, 725.12 316.25, 726.49 315.32 C 727.87 314.39, 728.66 313.83, 730.11 312.90 C 731.56 311.97, 732.37 311.45, 733.74 310.66 C 735.11 309.87, 735.82 309.48, 736.97 308.94 C 738.11 308.41, 738.66 308.21, 739.49 307.98 C 740.32 307.75, 740.65 307.73, 741.12 307.81 C 741.59 307.88, 741.70 308.00, 741.84 308.35 C 741.98 308.70, 741.94 308.97, 741.83 309.56 C 741.72 310.16, 741.59 310.55, 741.29 311.33 C 740.98 312.11, 740.76 312.59, 740.29 313.45 C 739.82 314.31, 739.52 314.79, 738.93 315.61 C 738.34 316.43, 737.99 316.86, 737.36 317.54 C 736.72 318.23, 736.36 318.55, 735.75 319.04 C 735.13 319.53, 734.80 319.72, 734.29 320.00 C 733.77 320.28, 733.52 320.33, 733.17 320.43 C 732.83 320.53, 732.68 320.55, 732.57 320.49 C 732.46 320.44, 732.47 320.36, 732.63 320.17 C 732.78 319.98, 732.99 319.96, 733.35 319.56 C 733.71 319.16, 734.33 318.58, 734.42 318.17 C 734.52 317.76, 734.28 317.43, 733.83 317.51 C 733.38 317.59, 732.59 318.06, 732.18 318.56 C 731.77 319.05, 731.78 319.48, 731.77 319.97 C 731.77 320.46, 731.86 320.74, 732.16 321.01 C 732.46 321.28, 732.77 321.35, 733.29 321.34 C 733.80 321.33, 734.12 321.23, 734.75 320.96 C 735.38 320.68, 735.75 320.47, 736.45 319.95 C 737.14 319.44, 737.53 319.10, 738.24 318.39 C 738.94 317.67, 739.33 317.23, 739.97 316.38 C 740.62 315.52, 740.96 315.03, 741.48 314.11 C 741.99 313.19, 742.26 312.68, 742.56 311.79 C 742.85 310.90, 742.96 310.41, 742.95 309.65 C 742.95 308.89, 742.87 308.50, 742.53 307.98 C 742.20 307.45, 741.95 307.24, 741.30 307.05 C 740.64 306.86, 740.23 306.85, 739.27 307.02 C 738.32 307.19, 737.74 307.39, 736.51 307.90 C 735.28 308.41, 734.55 308.80, 733.13 309.57 C 731.71 310.35, 730.88 310.86, 729.40 311.78 C 727.92 312.69, 727.11 313.25, 725.73 314.16 C 724.34 315.08, 723.64 315.58, 722.47 316.34 C 721.30 317.09, 720.73 317.44, 719.87 317.94 C 719.00 318.45, 718.65 318.64, 718.14 318.87 C 717.62 319.09, 717.49 319.16, 717.30 319.07 C 717.11 318.98, 717.12 318.85, 717.19 318.42 C 717.25 318.00, 717.37 317.66, 717.62 316.94 C 717.88 316.23, 718.10 315.73, 718.47 314.84 C 718.84 313.94, 719.12 313.38, 719.46 312.47 C 719.80 311.56, 719.99 311.03, 720.17 310.28 C 720.35 309.53, 720.37 309.20, 720.37 308.73 C 720.36 308.26, 720.29 308.11, 720.16 307.94 C 720.04 307.77, 719.89 307.78, 719.73 307.89" style="stroke: white; fill: white;"/><path d="M 778.89,309.22 C 778.90 309.02, 778.84 308.83, 778.60 308.57 C 778.36 308.32, 778.16 308.13, 777.69 307.95 C 777.22 307.77, 776.91 307.67, 776.26 307.66 C 775.60 307.66, 775.24 307.70, 774.43 307.93 C 773.61 308.16, 773.14 308.32, 772.19 308.82 C 771.25 309.31, 770.68 309.65, 769.70 310.40 C 768.72 311.14, 768.15 311.63, 767.28 312.53 C 766.42 313.43, 765.97 313.98, 765.38 314.89 C 764.79 315.80, 764.54 316.29, 764.34 317.07 C 764.14 317.86, 764.15 318.26, 764.38 318.81 C 764.61 319.37, 764.87 319.62, 765.49 319.85 C 766.10 320.09, 766.54 320.12, 767.44 319.99 C 768.34 319.85, 768.89 319.66, 769.99 319.19 C 771.08 318.71, 771.72 318.33, 772.91 317.59 C 774.10 316.85, 774.78 316.36, 775.93 315.48 C 777.09 314.60, 777.72 314.05, 778.69 313.18 C 779.67 312.31, 780.18 311.84, 780.80 311.13 C 781.42 310.42, 781.65 310.03, 781.79 309.63 C 781.93 309.22, 781.80 309.07, 781.49 309.11 C 781.18 309.15, 780.80 309.32, 780.23 309.84 C 779.67 310.35, 779.24 310.82, 778.68 311.67 C 778.12 312.52, 777.82 313.14, 777.44 314.08 C 777.06 315.02, 776.87 315.55, 776.80 316.37 C 776.73 317.19, 776.78 317.62, 777.09 318.20 C 777.41 318.78, 777.70 319.03, 778.39 319.27 C 779.07 319.50, 779.54 319.53, 780.53 319.39 C 781.52 319.24, 782.11 319.04, 783.32 318.55 C 784.53 318.06, 785.21 317.68, 786.56 316.94 C 787.91 316.20, 788.67 315.71, 790.06 314.87 C 791.45 314.03, 792.21 313.52, 793.50 312.72 C 794.80 311.92, 795.47 311.48, 796.55 310.86 C 797.63 310.23, 798.14 309.95, 798.91 309.58 C 799.69 309.21, 800.00 309.10, 800.44 309.01 C 800.88 308.92, 800.97 308.95, 801.11 309.12 C 801.26 309.29, 801.21 309.47, 801.15 309.87 C 801.10 310.28, 801.02 310.57, 800.85 311.15 C 800.68 311.74, 800.59 312.12, 800.33 312.81 C 800.06 313.50, 799.91 313.91, 799.54 314.61 C 799.18 315.32, 798.95 315.69, 798.51 316.34 C 798.07 316.99, 797.82 317.31, 797.33 317.86 C 796.84 318.42, 796.56 318.67, 796.06 319.10 C 795.57 319.54, 795.29 319.73, 794.83 320.03 C 794.38 320.33, 794.11 320.42, 793.77 320.62 C 793.43 320.82, 793.32 320.90, 793.12 321.02 C 792.93 321.15, 792.85 321.15, 792.79 321.25 C 792.72 321.35, 792.71 321.45, 792.81 321.54 C 792.91 321.63, 793.02 321.70, 793.30 321.70 C 793.57 321.71, 793.76 321.72, 794.19 321.57 C 794.62 321.43, 794.92 321.31, 795.44 320.99 C 795.97 320.68, 796.27 320.46, 796.82 319.99 C 797.37 319.52, 797.67 319.25, 798.21 318.66 C 798.75 318.07, 799.03 317.74, 799.52 317.05 C 800.02 316.37, 800.28 315.98, 800.69 315.23 C 801.11 314.48, 801.31 314.06, 801.60 313.30 C 801.89 312.54, 802.04 312.14, 802.16 311.44 C 802.27 310.74, 802.29 310.36, 802.17 309.80 C 802.06 309.25, 801.93 308.96, 801.57 308.65 C 801.21 308.34, 800.98 308.24, 800.37 308.23 C 799.76 308.23, 799.40 308.32, 798.52 308.64 C 797.65 308.96, 797.12 309.24, 795.98 309.84 C 794.85 310.44, 794.17 310.86, 792.85 311.64 C 791.53 312.41, 790.76 312.90, 789.37 313.72 C 787.98 314.54, 787.22 315.01, 785.90 315.73 C 784.58 316.44, 783.91 316.79, 782.79 317.28 C 781.66 317.77, 781.12 317.95, 780.29 318.17 C 779.46 318.39, 779.11 318.43, 778.62 318.37 C 778.12 318.30, 777.97 318.20, 777.82 317.84 C 777.68 317.48, 777.70 317.18, 777.88 316.56 C 778.06 315.93, 778.28 315.49, 778.73 314.69 C 779.17 313.90, 779.59 313.39, 780.10 312.59 C 780.61 311.78, 780.95 311.29, 781.28 310.65 C 781.61 310.01, 781.76 309.67, 781.77 309.39 C 781.78 309.11, 781.70 309.07, 781.34 309.25 C 780.99 309.43, 780.69 309.72, 779.99 310.31 C 779.30 310.91, 778.83 311.40, 777.86 312.22 C 776.89 313.04, 776.26 313.57, 775.13 314.40 C 773.99 315.24, 773.32 315.71, 772.18 316.41 C 771.04 317.11, 770.41 317.44, 769.41 317.91 C 768.41 318.39, 767.92 318.56, 767.18 318.78 C 766.44 319.00, 766.14 319.05, 765.71 319.01 C 765.29 318.97, 765.15 318.89, 765.06 318.57 C 764.98 318.24, 765.02 317.98, 765.28 317.39 C 765.54 316.79, 765.78 316.37, 766.37 315.58 C 766.96 314.80, 767.40 314.29, 768.23 313.47 C 769.07 312.66, 769.61 312.19, 770.53 311.50 C 771.45 310.81, 771.98 310.48, 772.83 310.01 C 773.68 309.55, 774.11 309.39, 774.80 309.17 C 775.48 308.95, 775.76 308.94, 776.25 308.94 C 776.74 308.94, 776.92 309.06, 777.27 309.17 C 777.62 309.28, 777.74 309.38, 778.00 309.46 C 778.26 309.55, 778.39 309.63, 778.57 309.59 C 778.74 309.54, 778.89 309.42, 778.89 309.22" style="stroke: white; fill: white;"/><path d="M 841.88,308.46 C 841.84 308.26, 841.74 308.08, 841.43 307.87 C 841.13 307.65, 840.89 307.49, 840.34 307.38 C 839.80 307.27, 839.42 307.23, 838.70 307.32 C 837.99 307.41, 837.56 307.54, 836.76 307.83 C 835.96 308.11, 835.48 308.32, 834.69 308.77 C 833.89 309.21, 833.43 309.48, 832.78 310.04 C 832.12 310.60, 831.80 310.93, 831.43 311.56 C 831.06 312.20, 830.95 312.55, 830.93 313.20 C 830.92 313.85, 831.03 314.20, 831.36 314.83 C 831.69 315.46, 831.99 315.78, 832.58 316.35 C 833.17 316.92, 833.59 317.19, 834.29 317.69 C 834.99 318.18, 835.42 318.41, 836.06 318.83 C 836.69 319.25, 837.04 319.45, 837.48 319.78 C 837.91 320.11, 838.11 320.24, 838.24 320.49 C 838.36 320.74, 838.35 320.82, 838.12 321.05 C 837.88 321.28, 837.65 321.38, 837.07 321.64 C 836.50 321.89, 836.07 322.05, 835.23 322.32 C 834.40 322.59, 833.85 322.75, 832.90 322.98 C 831.95 323.21, 831.37 323.32, 830.50 323.47 C 829.63 323.61, 829.17 323.65, 828.55 323.70 C 827.93 323.75, 827.67 323.75, 827.41 323.72 C 827.15 323.69, 827.10 323.69, 827.25 323.54 C 827.39 323.40, 827.57 323.32, 828.11 323.00 C 828.66 322.68, 829.04 322.45, 829.96 321.96 C 830.88 321.47, 831.47 321.16, 832.71 320.56 C 833.95 319.95, 834.69 319.60, 836.16 318.93 C 837.62 318.25, 838.45 317.89, 840.03 317.19 C 841.60 316.49, 842.45 316.11, 844.01 315.43 C 845.58 314.75, 846.40 314.39, 847.83 313.78 C 849.27 313.17, 850.00 312.86, 851.20 312.37 C 852.39 311.88, 852.97 311.67, 853.81 311.32 C 854.65 310.98, 855.04 310.80, 855.41 310.65 C 855.77 310.50, 855.79 310.42, 855.62 310.57 C 855.46 310.72, 855.16 310.88, 854.57 311.40 C 853.99 311.92, 853.53 312.33, 852.70 313.18 C 851.87 314.02, 851.31 314.63, 850.43 315.61 C 849.55 316.59, 849.02 317.17, 848.30 318.08 C 847.58 319.00, 847.21 319.46, 846.83 320.19 C 846.45 320.92, 846.34 321.26, 846.39 321.73 C 846.45 322.21, 846.62 322.41, 847.10 322.56 C 847.58 322.72, 847.98 322.72, 848.80 322.52 C 849.62 322.32, 850.15 322.08, 851.19 321.58 C 852.23 321.07, 852.86 320.68, 854.02 319.99 C 855.17 319.30, 855.91 318.82, 856.97 318.13 C 858.03 317.44, 858.62 317.03, 859.33 316.54 C 860.05 316.06, 860.31 315.84, 860.55 315.70 C 860.79 315.55, 860.72 315.59, 860.53 315.83 C 860.34 316.07, 860.00 316.33, 859.60 316.88 C 859.20 317.44, 858.84 317.90, 858.53 318.61 C 858.21 319.33, 858.07 319.80, 858.02 320.45 C 857.96 321.11, 857.99 321.46, 858.26 321.90 C 858.53 322.34, 858.77 322.53, 859.36 322.65 C 859.95 322.78, 860.37 322.75, 861.21 322.52 C 862.05 322.29, 862.56 322.04, 863.54 321.49 C 864.52 320.94, 865.09 320.54, 866.11 319.79 C 867.12 319.04, 867.71 318.56, 868.63 317.74 C 869.54 316.92, 870.01 316.44, 870.70 315.67 C 871.38 314.91, 871.69 314.52, 872.06 313.93 C 872.44 313.34, 872.53 313.08, 872.58 312.73 C 872.63 312.37, 872.49 312.23, 872.31 312.16 C 872.13 312.09, 871.85 312.14, 871.67 312.38 C 871.49 312.63, 871.34 312.93, 871.42 313.36 C 871.50 313.79, 871.66 314.11, 872.07 314.54 C 872.47 314.96, 872.77 315.19, 873.46 315.51 C 874.15 315.82, 874.58 315.96, 875.51 316.10 C 876.45 316.24, 877.01 316.28, 878.13 316.22 C 879.25 316.17, 879.90 316.07, 881.11 315.83 C 882.32 315.59, 883.00 315.41, 884.20 315.03 C 885.40 314.65, 886.05 314.41, 887.11 313.94 C 888.17 313.47, 888.71 313.19, 889.51 312.67 C 890.31 312.16, 890.68 311.88, 891.12 311.35 C 891.57 310.82, 891.71 310.52, 891.73 310.04 C 891.74 309.56, 891.61 309.26, 891.21 308.94 C 890.80 308.62, 890.44 308.47, 889.69 308.44 C 888.95 308.40, 888.43 308.47, 887.47 308.76 C 886.51 309.06, 885.92 309.33, 884.87 309.93 C 883.83 310.54, 883.23 310.96, 882.25 311.77 C 881.27 312.59, 880.74 313.09, 880.00 314.02 C 879.25 314.94, 878.89 315.47, 878.50 316.39 C 878.11 317.32, 877.99 317.82, 878.04 318.65 C 878.09 319.48, 878.24 319.91, 878.75 320.55 C 879.25 321.18, 879.66 321.47, 880.56 321.82 C 881.47 322.17, 882.06 322.26, 883.28 322.29 C 884.51 322.31, 885.24 322.22, 886.68 321.94 C 888.12 321.67, 888.93 321.43, 890.47 320.89 C 892.01 320.36, 892.86 320.01, 894.39 319.29 C 895.91 318.57, 896.73 318.13, 898.10 317.30 C 899.47 316.48, 900.16 316.00, 901.24 315.16 C 902.32 314.33, 902.81 313.88, 903.50 313.13 C 904.18 312.37, 904.44 312.01, 904.67 311.38 C 904.90 310.76, 904.88 310.44, 904.64 310.01 C 904.41 309.59, 904.12 309.37, 903.49 309.24 C 902.87 309.11, 902.38 309.12, 901.51 309.36 C 900.65 309.61, 900.12 309.87, 899.17 310.46 C 898.23 311.05, 897.67 311.48, 896.77 312.31 C 895.87 313.14, 895.37 313.65, 894.67 314.60 C 893.98 315.55, 893.64 316.11, 893.30 317.06 C 892.95 318.01, 892.86 318.53, 892.96 319.35 C 893.06 320.18, 893.25 320.61, 893.82 321.19 C 894.40 321.77, 894.84 322.03, 895.83 322.26 C 896.83 322.49, 897.47 322.52, 898.81 322.34 C 900.14 322.16, 900.93 321.94, 902.51 321.36 C 904.10 320.78, 905.00 320.36, 906.75 319.43 C 908.50 318.50, 909.47 317.92, 911.26 316.71 C 913.05 315.49, 913.98 314.75, 915.71 313.36 C 917.43 311.97, 918.32 311.19, 919.89 309.75 C 921.47 308.30, 922.27 307.53, 923.57 306.16 C 924.86 304.79, 925.44 304.06, 926.38 302.90 C 927.31 301.74, 927.72 301.21, 928.24 300.35 C 928.75 299.49, 928.90 299.06, 928.93 298.62 C 928.96 298.17, 928.78 298.02, 928.39 298.15 C 927.99 298.28, 927.63 298.53, 926.96 299.27 C 926.29 300.01, 925.86 300.60, 925.03 301.84 C 924.19 303.09, 923.71 303.95, 922.80 305.49 C 921.88 307.03, 921.36 307.96, 920.45 309.55 C 919.54 311.15, 919.05 312.01, 918.23 313.48 C 917.41 314.94, 917.00 315.69, 916.35 316.88 C 915.70 318.07, 915.41 318.65, 914.99 319.43 C 914.56 320.22, 914.42 320.53, 914.23 320.80 C 914.04 321.08, 914.08 321.04, 914.04 320.81 C 913.99 320.58, 914.07 320.25, 913.99 319.65 C 913.91 319.04, 913.88 318.54, 913.63 317.79 C 913.37 317.04, 913.15 316.55, 912.72 315.89 C 912.30 315.23, 912.01 314.89, 911.51 314.48 C 911.02 314.07, 910.71 313.92, 910.26 313.84 C 909.80 313.75, 909.48 313.82, 909.22 314.07 C 908.96 314.31, 908.83 314.62, 908.95 315.06 C 909.07 315.49, 909.25 315.81, 909.82 316.25 C 910.39 316.69, 910.81 316.92, 911.79 317.27 C 912.77 317.61, 913.40 317.76, 914.71 317.96 C 916.02 318.16, 916.80 318.23, 918.35 318.29 C 919.90 318.35, 920.80 318.32, 922.47 318.25 C 924.15 318.17, 925.07 318.08, 926.72 317.92 C 928.38 317.75, 929.25 317.64, 930.77 317.42 C 932.28 317.20, 933.09 317.06, 934.30 316.83 C 935.51 316.61, 936.04 316.50, 936.81 316.29 C 937.59 316.08, 937.81 315.95, 938.18 315.78 C 938.56 315.61, 938.59 315.56, 938.68 315.45 C 938.76 315.34, 938.74 315.28, 938.62 315.24 C 938.49 315.19, 938.44 315.20, 938.05 315.22 C 937.65 315.24, 937.41 315.24, 936.62 315.34 C 935.84 315.43, 935.32 315.52, 934.11 315.70 C 932.91 315.87, 932.10 316.01, 930.60 316.20 C 929.10 316.40, 928.24 316.51, 926.61 316.66 C 924.97 316.80, 924.06 316.88, 922.42 316.94 C 920.78 316.99, 919.90 317.01, 918.40 316.94 C 916.91 316.87, 916.17 316.79, 914.93 316.59 C 913.70 316.38, 913.13 316.20, 912.24 315.92 C 911.36 315.64, 911.03 315.43, 910.52 315.17 C 910.01 314.92, 909.88 314.78, 909.69 314.65 C 909.50 314.52, 909.50 314.50, 909.55 314.51 C 909.61 314.51, 909.73 314.52, 909.96 314.68 C 910.20 314.83, 910.41 314.92, 910.73 315.30 C 911.04 315.67, 911.25 315.95, 911.54 316.55 C 911.83 317.15, 911.91 317.61, 912.16 318.30 C 912.41 319.00, 912.50 319.45, 912.79 320.03 C 913.08 320.60, 913.25 320.93, 913.61 321.18 C 913.97 321.42, 914.15 321.50, 914.60 321.26 C 915.05 321.02, 915.29 320.73, 915.84 319.97 C 916.39 319.21, 916.66 318.62, 917.35 317.45 C 918.04 316.27, 918.45 315.54, 919.30 314.09 C 920.15 312.65, 920.65 311.80, 921.60 310.23 C 922.55 308.66, 923.09 307.75, 924.03 306.25 C 924.98 304.75, 925.55 303.95, 926.34 302.71 C 927.14 301.46, 927.54 300.87, 928.01 300.03 C 928.49 299.19, 928.64 298.83, 928.73 298.51 C 928.82 298.18, 928.73 298.16, 928.47 298.42 C 928.20 298.67, 928.00 299.03, 927.41 299.78 C 926.82 300.54, 926.46 301.09, 925.52 302.20 C 924.58 303.31, 924.00 304.01, 922.71 305.34 C 921.42 306.66, 920.63 307.43, 919.07 308.83 C 917.51 310.24, 916.62 311.01, 914.91 312.37 C 913.21 313.73, 912.29 314.45, 910.53 315.63 C 908.78 316.80, 907.82 317.36, 906.12 318.25 C 904.43 319.15, 903.55 319.54, 902.05 320.10 C 900.54 320.66, 899.81 320.85, 898.61 321.06 C 897.41 321.27, 896.87 321.26, 896.04 321.15 C 895.21 321.05, 894.89 320.90, 894.46 320.53 C 894.03 320.15, 893.92 319.88, 893.90 319.27 C 893.87 318.66, 893.98 318.26, 894.34 317.48 C 894.70 316.70, 895.02 316.21, 895.69 315.38 C 896.36 314.55, 896.84 314.08, 897.69 313.33 C 898.54 312.59, 899.08 312.21, 899.93 311.67 C 900.78 311.13, 901.25 310.93, 901.95 310.63 C 902.65 310.34, 903.00 310.27, 903.44 310.21 C 903.87 310.14, 904.03 310.14, 904.14 310.30 C 904.24 310.47, 904.23 310.61, 903.95 311.03 C 903.67 311.45, 903.43 311.75, 902.75 312.39 C 902.06 313.03, 901.59 313.46, 900.53 314.23 C 899.48 315.00, 898.80 315.46, 897.47 316.23 C 896.13 317.01, 895.33 317.44, 893.84 318.12 C 892.36 318.80, 891.53 319.14, 890.04 319.64 C 888.56 320.15, 887.77 320.36, 886.42 320.63 C 885.07 320.90, 884.38 320.97, 883.28 320.99 C 882.18 321.01, 881.69 320.95, 880.92 320.74 C 880.16 320.53, 879.86 320.36, 879.47 319.94 C 879.08 319.51, 878.97 319.24, 878.98 318.62 C 878.99 318.01, 879.11 317.62, 879.50 316.86 C 879.89 316.10, 880.23 315.63, 880.94 314.82 C 881.66 314.01, 882.18 313.55, 883.10 312.81 C 884.03 312.08, 884.61 311.70, 885.57 311.16 C 886.53 310.61, 887.08 310.41, 887.92 310.11 C 888.75 309.81, 889.17 309.76, 889.75 309.66 C 890.33 309.56, 890.56 309.56, 890.82 309.62 C 891.09 309.68, 891.15 309.74, 891.07 309.95 C 891.00 310.16, 890.88 310.32, 890.45 310.67 C 890.01 311.02, 889.68 311.27, 888.92 311.70 C 888.16 312.12, 887.65 312.38, 886.63 312.80 C 885.61 313.22, 884.98 313.45, 883.82 313.80 C 882.67 314.14, 882.01 314.31, 880.86 314.53 C 879.71 314.75, 879.10 314.83, 878.07 314.88 C 877.04 314.93, 876.52 314.89, 875.71 314.78 C 874.89 314.66, 874.53 314.54, 873.99 314.31 C 873.45 314.07, 873.27 313.88, 873.00 313.62 C 872.73 313.35, 872.75 313.21, 872.64 313.00 C 872.53 312.79, 872.53 312.73, 872.45 312.59 C 872.37 312.44, 872.34 312.32, 872.24 312.30 C 872.15 312.27, 872.18 312.25, 871.98 312.46 C 871.78 312.66, 871.68 312.84, 871.25 313.32 C 870.82 313.80, 870.53 314.16, 869.83 314.84 C 869.13 315.53, 868.67 315.98, 867.76 316.74 C 866.85 317.50, 866.27 317.95, 865.28 318.65 C 864.30 319.35, 863.73 319.71, 862.82 320.24 C 861.92 320.76, 861.46 320.98, 860.78 321.28 C 860.09 321.58, 859.79 321.68, 859.42 321.74 C 859.04 321.80, 858.95 321.78, 858.90 321.58 C 858.84 321.37, 858.93 321.18, 859.14 320.73 C 859.36 320.28, 859.64 319.96, 859.98 319.32 C 860.32 318.68, 860.62 318.20, 860.85 317.53 C 861.08 316.85, 861.22 316.41, 861.16 315.94 C 861.09 315.46, 860.98 315.24, 860.51 315.16 C 860.03 315.09, 859.65 315.19, 858.80 315.54 C 857.95 315.90, 857.35 316.31, 856.25 316.94 C 855.14 317.58, 854.42 318.06, 853.27 318.73 C 852.13 319.39, 851.49 319.73, 850.51 320.25 C 849.53 320.77, 849.04 320.99, 848.37 321.32 C 847.70 321.65, 847.44 321.81, 847.16 321.90 C 846.87 321.99, 846.85 322.01, 846.96 321.78 C 847.07 321.55, 847.24 321.33, 847.70 320.76 C 848.17 320.19, 848.53 319.75, 849.29 318.93 C 850.06 318.10, 850.61 317.56, 851.52 316.63 C 852.43 315.70, 853.05 315.15, 853.85 314.26 C 854.65 313.37, 855.07 312.91, 855.52 312.19 C 855.97 311.47, 856.13 311.11, 856.10 310.67 C 856.06 310.24, 855.87 310.08, 855.35 310.01 C 854.82 309.93, 854.38 310.06, 853.47 310.32 C 852.55 310.58, 851.99 310.83, 850.77 311.30 C 849.55 311.77, 848.82 312.07, 847.37 312.66 C 845.92 313.26, 845.09 313.61, 843.52 314.28 C 841.95 314.94, 841.09 315.31, 839.51 316.00 C 837.92 316.68, 837.08 317.04, 835.60 317.69 C 834.12 318.35, 833.36 318.68, 832.09 319.28 C 830.82 319.88, 830.19 320.15, 829.25 320.71 C 828.31 321.26, 827.90 321.54, 827.38 322.07 C 826.86 322.60, 826.71 322.89, 826.65 323.35 C 826.59 323.80, 826.72 324.04, 827.10 324.33 C 827.47 324.62, 827.81 324.72, 828.52 324.80 C 829.23 324.89, 829.73 324.84, 830.67 324.76 C 831.60 324.67, 832.21 324.57, 833.21 324.36 C 834.22 324.14, 834.80 324.01, 835.70 323.68 C 836.60 323.36, 837.06 323.16, 837.69 322.73 C 838.32 322.31, 838.58 322.04, 838.84 321.54 C 839.10 321.04, 839.12 320.75, 839.00 320.24 C 838.88 319.73, 838.67 319.47, 838.23 318.98 C 837.79 318.49, 837.43 318.26, 836.80 317.78 C 836.17 317.30, 835.75 317.06, 835.08 316.58 C 834.41 316.10, 834.02 315.85, 833.46 315.38 C 832.90 314.92, 832.60 314.69, 832.28 314.26 C 831.96 313.83, 831.85 313.64, 831.86 313.22 C 831.86 312.79, 831.97 312.58, 832.31 312.15 C 832.65 311.71, 832.95 311.46, 833.55 311.02 C 834.16 310.59, 834.59 310.34, 835.33 309.96 C 836.06 309.58, 836.51 309.38, 837.23 309.12 C 837.94 308.87, 838.31 308.77, 838.89 308.68 C 839.48 308.59, 839.73 308.64, 840.16 308.67 C 840.58 308.70, 840.73 308.79, 841.02 308.83 C 841.31 308.87, 841.45 308.95, 841.62 308.88 C 841.80 308.80, 841.92 308.66, 841.88 308.46" style="stroke: white; fill: white;"/><path d="M 972.67,314.82 C 972.91 314.75, 973.13 314.56, 973.40 314.21 C 973.67 313.86, 973.83 313.59, 974.01 313.07 C 974.20 312.55, 974.31 312.19, 974.33 311.62 C 974.35 311.05, 974.32 310.74, 974.12 310.21 C 973.91 309.69, 973.76 309.40, 973.30 309.00 C 972.84 308.61, 972.54 308.40, 971.81 308.24 C 971.08 308.09, 970.63 308.04, 969.64 308.21 C 968.66 308.38, 968.07 308.55, 966.91 309.09 C 965.75 309.62, 965.06 310.02, 963.84 310.88 C 962.62 311.73, 961.92 312.31, 960.81 313.36 C 959.70 314.41, 959.12 315.05, 958.31 316.12 C 957.49 317.19, 957.12 317.77, 956.72 318.70 C 956.31 319.64, 956.21 320.10, 956.27 320.79 C 956.34 321.48, 956.53 321.79, 957.03 322.15 C 957.53 322.51, 957.95 322.61, 958.78 322.59 C 959.62 322.57, 960.16 322.43, 961.22 322.04 C 962.28 321.64, 962.90 321.30, 964.10 320.61 C 965.29 319.92, 965.98 319.45, 967.21 318.58 C 968.43 317.70, 969.13 317.17, 970.23 316.25 C 971.34 315.34, 971.98 314.79, 972.73 314.02 C 973.48 313.24, 973.76 312.81, 973.98 312.38 C 974.20 311.95, 974.10 311.82, 973.82 311.88 C 973.53 311.93, 973.14 312.12, 972.57 312.66 C 972.00 313.20, 971.51 313.70, 970.96 314.58 C 970.40 315.45, 970.10 316.10, 969.78 317.03 C 969.47 317.97, 969.34 318.48, 969.37 319.25 C 969.41 320.02, 969.51 320.39, 969.96 320.87 C 970.42 321.36, 970.79 321.55, 971.64 321.66 C 972.49 321.76, 973.06 321.69, 974.22 321.40 C 975.39 321.10, 976.08 320.80, 977.47 320.17 C 978.86 319.55, 979.67 319.09, 981.18 318.25 C 982.69 317.42, 983.53 316.88, 985.01 315.99 C 986.50 315.11, 987.29 314.60, 988.59 313.83 C 989.90 313.06, 990.55 312.68, 991.54 312.13 C 992.53 311.59, 992.95 311.38, 993.55 311.12 C 994.14 310.87, 994.31 310.82, 994.51 310.86 C 994.71 310.89, 994.64 310.99, 994.54 311.31 C 994.44 311.63, 994.28 311.88, 994.00 312.46 C 993.73 313.03, 993.56 313.43, 993.19 314.19 C 992.82 314.95, 992.60 315.43, 992.15 316.26 C 991.70 317.09, 991.45 317.55, 990.94 318.33 C 990.42 319.11, 990.13 319.50, 989.56 320.15 C 989.00 320.81, 988.68 321.11, 988.11 321.60 C 987.53 322.09, 987.23 322.29, 986.68 322.60 C 986.13 322.92, 985.83 323.02, 985.36 323.17 C 984.88 323.32, 984.66 323.34, 984.31 323.36 C 983.96 323.37, 983.83 323.30, 983.61 323.26 C 983.40 323.21, 983.34 323.17, 983.25 323.14 C 983.16 323.10, 983.18 323.09, 983.18 323.08 C 983.17 323.08, 983.21 323.11, 983.22 323.13 C 983.23 323.15, 983.26 323.16, 983.24 323.19 C 983.23 323.21, 983.17 323.21, 983.16 323.25 C 983.14 323.30, 983.11 323.37, 983.18 323.43 C 983.25 323.50, 983.33 323.52, 983.51 323.57 C 983.70 323.62, 983.80 323.65, 984.08 323.69 C 984.36 323.74, 984.54 323.77, 984.92 323.79 C 985.30 323.82, 985.51 323.82, 985.99 323.80 C 986.47 323.78, 986.74 323.77, 987.32 323.70 C 987.91 323.62, 988.23 323.56, 988.91 323.41 C 989.59 323.26, 989.96 323.17, 990.72 322.94 C 991.48 322.72, 991.89 322.58, 992.69 322.29 C 993.49 322.01, 993.92 321.84, 994.73 321.50 C 995.54 321.16, 995.97 320.98, 996.76 320.61 C 997.54 320.24, 997.92 320.03, 998.64 319.65 C 999.37 319.26, 999.73 319.06, 1000.39 318.68 C 1001.06 318.30, 1001.38 318.10, 1001.98 317.73 C 1002.58 317.35, 1002.85 317.16, 1003.38 316.80 C 1003.90 316.44, 1004.15 316.26, 1004.62 315.91 C 1005.08 315.57, 1005.33 315.43, 1005.72 315.06 C 1006.10 314.69, 1006.44 314.35, 1006.54 314.07 C 1006.64 313.78, 1006.50 313.61, 1006.20 313.64 C 1005.91 313.67, 1005.51 313.93, 1005.06 314.21 C 1004.61 314.48, 1004.42 314.67, 1003.95 315.00 C 1003.49 315.34, 1003.26 315.52, 1002.74 315.87 C 1002.23 316.22, 1001.96 316.40, 1001.38 316.76 C 1000.79 317.12, 1000.48 317.30, 999.82 317.67 C 999.16 318.04, 998.81 318.23, 998.10 318.60 C 997.38 318.96, 997.01 319.16, 996.25 319.51 C 995.48 319.85, 995.05 320.02, 994.26 320.34 C 993.46 320.65, 993.04 320.82, 992.26 321.09 C 991.48 321.36, 991.08 321.49, 990.36 321.70 C 989.63 321.91, 989.27 321.99, 988.63 322.13 C 987.99 322.27, 987.69 322.33, 987.15 322.40 C 986.61 322.47, 986.37 322.48, 985.94 322.49 C 985.51 322.50, 985.34 322.49, 985.01 322.47 C 984.68 322.44, 984.55 322.40, 984.31 322.36 C 984.06 322.32, 983.98 322.29, 983.81 322.26 C 983.63 322.23, 983.57 322.20, 983.41 322.22 C 983.25 322.23, 983.15 322.28, 983.01 322.35 C 982.87 322.42, 982.80 322.47, 982.70 322.57 C 982.61 322.66, 982.57 322.70, 982.53 322.84 C 982.49 322.98, 982.47 323.10, 982.51 323.28 C 982.56 323.46, 982.60 323.57, 982.76 323.74 C 982.93 323.91, 983.02 324.00, 983.33 324.13 C 983.64 324.25, 983.85 324.35, 984.31 324.37 C 984.78 324.38, 985.08 324.36, 985.66 324.20 C 986.24 324.04, 986.58 323.92, 987.22 323.57 C 987.85 323.23, 988.19 323.01, 988.84 322.48 C 989.48 321.96, 989.83 321.64, 990.45 320.95 C 991.08 320.26, 991.40 319.86, 991.98 319.05 C 992.55 318.25, 992.83 317.78, 993.33 316.93 C 993.83 316.08, 994.11 315.62, 994.49 314.81 C 994.87 314.00, 995.06 313.58, 995.23 312.88 C 995.40 312.18, 995.45 311.81, 995.34 311.31 C 995.24 310.80, 995.12 310.56, 994.71 310.36 C 994.30 310.16, 994.02 310.14, 993.29 310.29 C 992.55 310.45, 992.10 310.66, 991.04 311.15 C 989.98 311.65, 989.32 312.03, 987.99 312.77 C 986.65 313.51, 985.85 314.01, 984.35 314.86 C 982.86 315.72, 982.01 316.24, 980.52 317.05 C 979.03 317.85, 978.22 318.28, 976.89 318.89 C 975.56 319.51, 974.89 319.77, 973.85 320.11 C 972.81 320.45, 972.35 320.56, 971.68 320.60 C 971.01 320.65, 970.78 320.60, 970.52 320.34 C 970.25 320.08, 970.25 319.85, 970.36 319.30 C 970.47 318.75, 970.66 318.35, 971.07 317.58 C 971.48 316.82, 971.90 316.32, 972.41 315.49 C 972.92 314.66, 973.28 314.12, 973.61 313.44 C 973.95 312.76, 974.11 312.39, 974.10 312.09 C 974.08 311.79, 973.98 311.72, 973.54 311.93 C 973.10 312.13, 972.74 312.46, 971.91 313.11 C 971.08 313.77, 970.49 314.35, 969.40 315.22 C 968.30 316.09, 967.62 316.62, 966.42 317.46 C 965.22 318.30, 964.54 318.74, 963.40 319.40 C 962.25 320.06, 961.66 320.35, 960.71 320.77 C 959.76 321.19, 959.31 321.33, 958.65 321.48 C 957.99 321.64, 957.73 321.67, 957.41 321.53 C 957.09 321.39, 957.00 321.26, 957.05 320.78 C 957.10 320.31, 957.22 319.95, 957.66 319.17 C 958.10 318.39, 958.46 317.86, 959.27 316.89 C 960.08 315.93, 960.65 315.32, 961.72 314.34 C 962.79 313.36, 963.48 312.81, 964.63 312.01 C 965.78 311.21, 966.44 310.84, 967.49 310.33 C 968.54 309.82, 969.07 309.66, 969.89 309.47 C 970.72 309.28, 971.07 309.31, 971.61 309.38 C 972.16 309.45, 972.33 309.57, 972.63 309.81 C 972.93 310.04, 973.01 310.22, 973.09 310.56 C 973.18 310.89, 973.13 311.08, 973.05 311.49 C 972.97 311.91, 972.83 312.19, 972.69 312.63 C 972.56 313.07, 972.46 313.31, 972.37 313.70 C 972.28 314.08, 972.16 314.32, 972.22 314.55 C 972.29 314.77, 972.44 314.88, 972.67 314.82" style="stroke: white; fill: white;"/><path d="M 1031.10,310.72 C 1031.31 310.72, 1031.46 310.61, 1031.78 310.41 C 1032.11 310.21, 1032.30 310.05, 1032.72 309.72 C 1033.14 309.39, 1033.39 309.15, 1033.89 308.75 C 1034.38 308.36, 1034.66 308.14, 1035.18 307.75 C 1035.70 307.36, 1035.99 307.16, 1036.48 306.83 C 1036.97 306.50, 1037.24 306.34, 1037.62 306.09 C 1038.01 305.84, 1038.21 305.69, 1038.40 305.58 C 1038.60 305.46, 1038.62 305.40, 1038.61 305.52 C 1038.60 305.64, 1038.52 305.77, 1038.35 306.20 C 1038.18 306.64, 1038.05 306.96, 1037.77 307.68 C 1037.49 308.41, 1037.29 308.90, 1036.96 309.81 C 1036.62 310.72, 1036.40 311.27, 1036.10 312.23 C 1035.81 313.19, 1035.63 313.72, 1035.48 314.62 C 1035.32 315.52, 1035.26 315.98, 1035.33 316.72 C 1035.39 317.47, 1035.48 317.82, 1035.81 318.34 C 1036.14 318.85, 1036.39 319.07, 1036.98 319.29 C 1037.56 319.51, 1037.94 319.55, 1038.72 319.42 C 1039.50 319.29, 1039.96 319.10, 1040.89 318.62 C 1041.82 318.14, 1042.34 317.77, 1043.37 317.01 C 1044.39 316.25, 1044.97 315.75, 1046.02 314.82 C 1047.07 313.88, 1047.65 313.31, 1048.62 312.33 C 1049.60 311.36, 1050.16 310.78, 1050.90 309.95 C 1051.63 309.13, 1051.97 308.68, 1052.31 308.20 C 1052.64 307.73, 1052.66 307.53, 1052.56 307.58 C 1052.46 307.64, 1052.25 307.80, 1051.80 308.47 C 1051.35 309.14, 1051.01 309.71, 1050.33 310.94 C 1049.65 312.17, 1049.25 313.01, 1048.39 314.64 C 1047.54 316.26, 1047.04 317.23, 1046.05 319.08 C 1045.06 320.93, 1044.53 321.94, 1043.45 323.89 C 1042.37 325.83, 1041.79 326.89, 1040.66 328.81 C 1039.54 330.73, 1038.93 331.75, 1037.83 333.50 C 1036.73 335.25, 1036.17 336.12, 1035.16 337.56 C 1034.15 339.00, 1033.63 339.67, 1032.78 340.69 C 1031.93 341.70, 1031.52 342.10, 1030.92 342.65 C 1030.33 343.19, 1030.10 343.34, 1029.82 343.40 C 1029.53 343.45, 1029.49 343.35, 1029.50 342.90 C 1029.50 342.46, 1029.57 342.08, 1029.84 341.17 C 1030.12 340.27, 1030.29 339.64, 1030.88 338.37 C 1031.48 337.10, 1031.86 336.31, 1032.83 334.83 C 1033.79 333.35, 1034.41 332.53, 1035.71 330.97 C 1037.02 329.42, 1037.80 328.60, 1039.35 327.06 C 1040.91 325.53, 1041.79 324.75, 1043.49 323.31 C 1045.18 321.86, 1046.10 321.13, 1047.84 319.82 C 1049.58 318.51, 1050.51 317.88, 1052.20 316.75 C 1053.90 315.61, 1054.77 315.08, 1056.31 314.13 C 1057.85 313.17, 1058.61 312.74, 1059.90 311.97 C 1061.20 311.21, 1061.81 310.88, 1062.79 310.31 C 1063.77 309.74, 1064.19 309.52, 1064.80 309.13 C 1065.40 308.73, 1065.60 308.59, 1065.80 308.33 C 1066.01 308.06, 1065.98 307.94, 1065.82 307.82 C 1065.66 307.69, 1065.46 307.58, 1065.00 307.70 C 1064.54 307.82, 1064.18 307.95, 1063.52 308.40 C 1062.86 308.85, 1062.43 309.24, 1061.68 309.95 C 1060.94 310.67, 1060.49 311.12, 1059.78 311.98 C 1059.07 312.83, 1058.65 313.34, 1058.13 314.22 C 1057.61 315.10, 1057.37 315.59, 1057.16 316.38 C 1056.96 317.18, 1056.94 317.58, 1057.11 318.20 C 1057.28 318.82, 1057.49 319.12, 1058.00 319.48 C 1058.52 319.83, 1058.92 319.96, 1059.69 319.98 C 1060.45 320.01, 1060.95 319.91, 1061.84 319.60 C 1062.72 319.30, 1063.23 319.02, 1064.12 318.45 C 1065.01 317.88, 1065.49 317.49, 1066.28 316.74 C 1067.07 315.99, 1067.47 315.55, 1068.06 314.72 C 1068.65 313.89, 1068.90 313.42, 1069.24 312.60 C 1069.57 311.77, 1069.67 311.34, 1069.73 310.60 C 1069.79 309.86, 1069.71 309.49, 1069.54 308.90 C 1069.38 308.32, 1069.18 308.03, 1068.89 307.68 C 1068.60 307.32, 1068.36 307.19, 1068.09 307.13 C 1067.81 307.07, 1067.59 307.18, 1067.52 307.37 C 1067.44 307.56, 1067.45 307.81, 1067.72 308.08 C 1068.00 308.35, 1068.26 308.52, 1068.90 308.72 C 1069.54 308.92, 1069.98 309.00, 1070.90 309.07 C 1071.82 309.15, 1072.39 309.15, 1073.49 309.11 C 1074.58 309.08, 1075.22 309.00, 1076.37 308.89 C 1077.52 308.77, 1078.17 308.69, 1079.24 308.54 C 1080.31 308.38, 1080.93 308.25, 1081.72 308.11 C 1082.51 307.98, 1082.86 307.85, 1083.20 307.86 C 1083.53 307.88, 1083.54 307.90, 1083.39 308.17 C 1083.25 308.44, 1082.98 308.65, 1082.48 309.23 C 1081.98 309.81, 1081.54 310.25, 1080.88 311.07 C 1080.23 311.90, 1079.80 312.46, 1079.22 313.36 C 1078.65 314.25, 1078.33 314.75, 1078.02 315.56 C 1077.72 316.36, 1077.61 316.76, 1077.69 317.37 C 1077.78 317.98, 1077.95 318.27, 1078.45 318.60 C 1078.96 318.92, 1079.36 319.02, 1080.23 319.00 C 1081.10 318.97, 1081.65 318.84, 1082.79 318.48 C 1083.93 318.11, 1084.61 317.79, 1085.92 317.17 C 1087.22 316.55, 1087.98 316.11, 1089.32 315.36 C 1090.66 314.60, 1091.41 314.13, 1092.62 313.38 C 1093.83 312.63, 1094.51 312.18, 1095.35 311.60 C 1096.19 311.02, 1096.51 310.71, 1096.80 310.47 C 1097.09 310.23, 1097.01 310.21, 1096.79 310.41 C 1096.57 310.61, 1096.22 310.85, 1095.70 311.47 C 1095.18 312.10, 1094.71 312.62, 1094.19 313.52 C 1093.66 314.43, 1093.37 315.05, 1093.09 315.99 C 1092.81 316.92, 1092.71 317.41, 1092.79 318.18 C 1092.87 318.95, 1093.00 319.33, 1093.50 319.83 C 1094.01 320.33, 1094.42 320.53, 1095.33 320.67 C 1096.24 320.81, 1096.83 320.77, 1098.06 320.53 C 1099.28 320.30, 1100.02 320.05, 1101.45 319.48 C 1102.89 318.92, 1103.72 318.52, 1105.25 317.71 C 1106.78 316.90, 1107.60 316.40, 1109.09 315.45 C 1110.59 314.50, 1111.37 313.97, 1112.73 312.98 C 1114.08 311.98, 1114.75 311.45, 1115.88 310.50 C 1117.01 309.54, 1117.51 309.06, 1118.37 308.20 C 1119.22 307.33, 1119.59 306.93, 1120.17 306.18 C 1120.74 305.43, 1120.95 305.07, 1121.24 304.45 C 1121.54 303.82, 1121.64 303.37, 1121.64 303.06 C 1121.65 302.75, 1121.50 302.70, 1121.27 302.89 C 1121.04 303.08, 1120.89 303.49, 1120.51 304.01 C 1120.13 304.54, 1119.95 304.85, 1119.36 305.53 C 1118.78 306.21, 1118.45 306.61, 1117.60 307.42 C 1116.75 308.24, 1116.25 308.69, 1115.14 309.60 C 1114.02 310.52, 1113.35 311.03, 1112.01 311.98 C 1110.67 312.93, 1109.89 313.45, 1108.41 314.36 C 1106.94 315.27, 1106.12 315.75, 1104.63 316.52 C 1103.14 317.29, 1102.32 317.65, 1100.95 318.19 C 1099.57 318.73, 1098.87 318.95, 1097.77 319.23 C 1096.66 319.50, 1096.16 319.57, 1095.42 319.57 C 1094.68 319.57, 1094.40 319.50, 1094.07 319.22 C 1093.73 318.94, 1093.70 318.71, 1093.75 318.16 C 1093.80 317.61, 1093.96 317.23, 1094.34 316.47 C 1094.71 315.71, 1095.13 315.22, 1095.63 314.36 C 1096.13 313.51, 1096.52 312.95, 1096.85 312.18 C 1097.19 311.42, 1097.34 310.99, 1097.30 310.54 C 1097.25 310.09, 1097.14 309.92, 1096.63 309.93 C 1096.12 309.94, 1095.70 310.14, 1094.76 310.60 C 1093.82 311.07, 1093.16 311.54, 1091.94 312.26 C 1090.72 312.97, 1089.98 313.44, 1088.65 314.17 C 1087.33 314.89, 1086.58 315.30, 1085.31 315.89 C 1084.05 316.49, 1083.37 316.76, 1082.33 317.14 C 1081.29 317.53, 1080.80 317.67, 1080.10 317.82 C 1079.39 317.98, 1079.12 318.01, 1078.80 317.92 C 1078.47 317.82, 1078.42 317.72, 1078.47 317.34 C 1078.52 316.97, 1078.67 316.69, 1079.06 316.05 C 1079.44 315.42, 1079.78 314.97, 1080.39 314.17 C 1081.01 313.36, 1081.49 312.87, 1082.13 312.03 C 1082.76 311.18, 1083.17 310.70, 1083.56 309.94 C 1083.95 309.19, 1084.10 308.81, 1084.07 308.26 C 1084.04 307.72, 1083.90 307.47, 1083.41 307.21 C 1082.92 306.95, 1082.49 306.95, 1081.62 306.96 C 1080.75 306.96, 1080.15 307.13, 1079.07 307.25 C 1078.00 307.37, 1077.37 307.46, 1076.25 307.55 C 1075.13 307.64, 1074.50 307.70, 1073.45 307.71 C 1072.41 307.72, 1071.87 307.69, 1071.03 307.61 C 1070.19 307.53, 1069.82 307.40, 1069.24 307.31 C 1068.67 307.21, 1068.46 307.13, 1068.14 307.13 C 1067.82 307.13, 1067.74 307.20, 1067.64 307.32 C 1067.54 307.45, 1067.56 307.56, 1067.65 307.75 C 1067.73 307.94, 1067.88 308.00, 1068.06 308.29 C 1068.24 308.58, 1068.43 308.74, 1068.55 309.19 C 1068.68 309.63, 1068.75 309.90, 1068.68 310.50 C 1068.61 311.09, 1068.52 311.45, 1068.20 312.15 C 1067.88 312.85, 1067.64 313.27, 1067.08 313.99 C 1066.52 314.72, 1066.14 315.12, 1065.40 315.79 C 1064.66 316.45, 1064.20 316.80, 1063.39 317.31 C 1062.59 317.83, 1062.12 318.05, 1061.37 318.35 C 1060.62 318.65, 1060.23 318.75, 1059.65 318.82 C 1059.06 318.90, 1058.80 318.88, 1058.46 318.72 C 1058.12 318.56, 1058.00 318.42, 1057.94 318.01 C 1057.89 317.61, 1057.93 317.33, 1058.18 316.71 C 1058.43 316.08, 1058.66 315.67, 1059.19 314.90 C 1059.72 314.14, 1060.13 313.66, 1060.83 312.89 C 1061.54 312.13, 1061.99 311.72, 1062.72 311.06 C 1063.44 310.41, 1063.89 310.12, 1064.46 309.63 C 1065.03 309.14, 1065.27 308.94, 1065.55 308.62 C 1065.83 308.29, 1065.87 308.16, 1065.85 308.00 C 1065.84 307.85, 1065.80 307.78, 1065.49 307.84 C 1065.19 307.90, 1064.98 308.00, 1064.33 308.31 C 1063.69 308.62, 1063.27 308.85, 1062.27 309.39 C 1061.28 309.93, 1060.66 310.26, 1059.34 311.01 C 1058.03 311.76, 1057.27 312.19, 1055.71 313.14 C 1054.15 314.09, 1053.26 314.62, 1051.55 315.76 C 1049.83 316.90, 1048.88 317.53, 1047.11 318.85 C 1045.34 320.17, 1044.41 320.90, 1042.68 322.36 C 1040.95 323.82, 1040.05 324.60, 1038.46 326.15 C 1036.86 327.70, 1036.06 328.53, 1034.70 330.12 C 1033.35 331.70, 1032.70 332.55, 1031.68 334.08 C 1030.66 335.61, 1030.20 336.41, 1029.59 337.77 C 1028.97 339.14, 1028.77 339.83, 1028.60 340.89 C 1028.43 341.95, 1028.50 342.46, 1028.74 343.07 C 1028.98 343.68, 1029.26 343.89, 1029.81 343.95 C 1030.36 344.00, 1030.72 343.87, 1031.48 343.35 C 1032.23 342.84, 1032.67 342.42, 1033.59 341.39 C 1034.52 340.37, 1035.05 339.68, 1036.10 338.23 C 1037.15 336.79, 1037.73 335.91, 1038.85 334.15 C 1039.98 332.39, 1040.60 331.37, 1041.74 329.44 C 1042.88 327.52, 1043.47 326.46, 1044.57 324.51 C 1045.67 322.57, 1046.21 321.56, 1047.23 319.72 C 1048.25 317.88, 1048.79 316.94, 1049.68 315.33 C 1050.57 313.71, 1051.04 312.91, 1051.66 311.63 C 1052.28 310.35, 1052.56 309.74, 1052.78 308.91 C 1053.01 308.09, 1052.99 307.77, 1052.79 307.51 C 1052.59 307.25, 1052.33 307.29, 1051.77 307.60 C 1051.22 307.92, 1050.82 308.32, 1050.01 309.08 C 1049.19 309.84, 1048.67 310.44, 1047.69 311.39 C 1046.72 312.33, 1046.15 312.90, 1045.12 313.80 C 1044.09 314.70, 1043.52 315.17, 1042.54 315.90 C 1041.56 316.63, 1041.06 316.97, 1040.24 317.45 C 1039.42 317.93, 1039.05 318.10, 1038.45 318.29 C 1037.86 318.49, 1037.62 318.50, 1037.24 318.42 C 1036.87 318.34, 1036.74 318.24, 1036.56 317.89 C 1036.39 317.55, 1036.36 317.29, 1036.38 316.69 C 1036.40 316.08, 1036.47 315.67, 1036.67 314.87 C 1036.87 314.06, 1037.05 313.57, 1037.38 312.66 C 1037.71 311.75, 1037.97 311.23, 1038.32 310.33 C 1038.68 309.43, 1038.92 308.95, 1039.16 308.16 C 1039.40 307.38, 1039.50 306.99, 1039.51 306.40 C 1039.52 305.82, 1039.45 305.54, 1039.20 305.22 C 1038.96 304.89, 1038.71 304.79, 1038.29 304.76 C 1037.87 304.73, 1037.59 304.86, 1037.09 305.07 C 1036.60 305.27, 1036.35 305.47, 1035.82 305.79 C 1035.29 306.11, 1034.99 306.30, 1034.43 306.67 C 1033.87 307.04, 1033.54 307.23, 1033.01 307.63 C 1032.48 308.03, 1032.18 308.27, 1031.78 308.68 C 1031.38 309.08, 1031.22 309.31, 1031.01 309.65 C 1030.80 309.99, 1030.72 310.18, 1030.74 310.39 C 1030.76 310.61, 1030.89 310.72, 1031.10 310.72" style="stroke: white; fill: white;"/><path d="M 1136.56,287.42 C 1136.38 287.51, 1136.35 287.61, 1136.07 287.99 C 1135.79 288.38, 1135.61 288.60, 1135.16 289.34 C 1134.71 290.08, 1134.44 290.62, 1133.82 291.69 C 1133.20 292.76, 1132.82 293.44, 1132.07 294.70 C 1131.33 295.96, 1130.87 296.69, 1130.08 297.99 C 1129.28 299.30, 1128.83 299.98, 1128.09 301.23 C 1127.35 302.47, 1126.97 303.10, 1126.38 304.20 C 1125.80 305.31, 1125.54 305.88, 1125.17 306.76 C 1124.80 307.63, 1124.70 307.99, 1124.54 308.57 C 1124.39 309.15, 1124.41 309.34, 1124.40 309.65 C 1124.40 309.96, 1124.45 310.03, 1124.52 310.13 C 1124.58 310.23, 1124.65 310.22, 1124.74 310.15 C 1124.83 310.08, 1124.82 310.04, 1124.95 309.78 C 1125.08 309.53, 1125.16 309.39, 1125.40 308.88 C 1125.64 308.36, 1125.74 308.03, 1126.15 307.20 C 1126.55 306.38, 1126.81 305.83, 1127.41 304.77 C 1128.01 303.70, 1128.39 303.08, 1129.15 301.87 C 1129.90 300.65, 1130.37 299.98, 1131.19 298.69 C 1132.02 297.40, 1132.50 296.68, 1133.28 295.43 C 1134.06 294.18, 1134.48 293.52, 1135.11 292.43 C 1135.73 291.34, 1136.02 290.80, 1136.39 289.99 C 1136.76 289.18, 1136.83 288.88, 1136.95 288.39 C 1137.06 287.91, 1137.04 287.76, 1136.96 287.57 C 1136.88 287.37, 1136.74 287.34, 1136.56 287.42" style="stroke: white; fill: white;"/><path d="M 1122.62,322.84 C 1122.61 323.02, 1122.63 323.10, 1122.70 323.19 C 1122.77 323.28, 1122.84 323.28, 1122.97 323.29 C 1123.10 323.29, 1123.24 323.31, 1123.36 323.20 C 1123.48 323.09, 1123.54 322.94, 1123.57 322.74 C 1123.60 322.53, 1123.55 322.36, 1123.49 322.18 C 1123.43 322.00, 1123.34 321.93, 1123.26 321.85 C 1123.18 321.77, 1123.15 321.71, 1123.09 321.78 C 1123.02 321.85, 1122.97 321.97, 1122.92 322.18 C 1122.86 322.39, 1122.81 322.60, 1122.82 322.81 C 1122.83 323.03, 1122.90 323.18, 1122.96 323.26 C 1123.01 323.33, 1123.07 323.27, 1123.09 323.20 C 1123.12 323.13, 1123.10 323.07, 1123.10 322.92 C 1123.10 322.78, 1123.09 322.63, 1123.09 322.47 C 1123.09 322.31, 1123.10 322.20, 1123.11 322.11 C 1123.13 322.03, 1123.17 322.06, 1123.16 322.04 C 1123.15 322.02, 1123.14 321.97, 1123.06 322.02 C 1122.98 322.06, 1122.87 322.11, 1122.78 322.27 C 1122.69 322.43, 1122.64 322.65, 1122.62 322.84" style="stroke: white; fill: white;"/></svg>