<svg xmlns="http://www.w3.org/2000/svg" id="canvas" viewBox="201.522 281.704 867.562 63.514"><path d="M 216.96,291.59 C 216.77 291.80, 216.72 292.02, 216.49 292.71 C 216.26 293.39, 216.14 293.80, 215.81 295.01 C 215.47 296.22, 215.32 297.04, 214.83 298.74 C 214.35 300.45, 214.05 301.47, 213.39 303.54 C 212.73 305.60, 212.31 306.79, 211.53 309.07 C 210.75 311.35, 210.29 312.61, 209.50 314.93 C 208.71 317.25, 208.28 318.50, 207.59 320.68 C 206.90 322.86, 206.56 323.98, 206.05 325.84 C 205.53 327.71, 205.31 328.61, 205.02 330.01 C 204.73 331.40, 204.68 331.97, 204.59 332.83 C 204.50 333.69, 204.51 333.91, 204.56 334.31 C 204.61 334.70, 204.74 334.73, 204.84 334.81 C 204.94 334.88, 205.04 334.71, 205.05 334.67 C 205.07 334.63, 204.93 334.59, 204.92 334.61 C 204.91 334.63, 204.94 334.81, 205.00 334.76 C 205.06 334.71, 205.12 334.71, 205.22 334.36 C 205.33 334.00, 205.35 333.80, 205.53 332.98 C 205.71 332.17, 205.79 331.62, 206.13 330.26 C 206.48 328.90, 206.71 328.02, 207.25 326.18 C 207.79 324.35, 208.14 323.25, 208.85 321.09 C 209.56 318.92, 210.00 317.69, 210.80 315.38 C 211.61 313.07, 212.08 311.81, 212.88 309.54 C 213.68 307.26, 214.12 306.07, 214.81 304.00 C 215.50 301.92, 215.85 300.90, 216.33 299.17 C 216.82 297.44, 217.00 296.60, 217.24 295.35 C 217.48 294.09, 217.50 293.64, 217.54 292.91 C 217.58 292.17, 217.55 291.92, 217.43 291.66 C 217.32 291.40, 217.15 291.38, 216.96 291.59" style="stroke: white; fill: white;"/><path d="M 225.53,299.11 C 225.77 299.09, 226.05 298.75, 226.20 298.55 C 226.36 298.36, 226.32 298.03, 226.30 298.14 C 226.29 298.24, 226.30 298.32, 226.14 299.07 C 225.99 299.83, 225.89 300.51, 225.53 301.91 C 225.17 303.31, 224.92 304.28, 224.36 306.09 C 223.80 307.90, 223.44 308.97, 222.74 310.98 C 222.04 312.98, 221.61 314.11, 220.86 316.12 C 220.10 318.13, 219.68 319.21, 218.97 321.04 C 218.26 322.88, 217.92 323.79, 217.32 325.30 C 216.73 326.82, 216.45 327.52, 216.00 328.62 C 215.55 329.71, 215.34 330.12, 215.07 330.77 C 214.79 331.41, 214.72 331.55, 214.62 331.82 C 214.52 332.10, 214.53 332.10, 214.57 332.12 C 214.61 332.15, 214.77 332.05, 214.81 331.95 C 214.84 331.85, 214.91 331.66, 214.76 331.62 C 214.61 331.57, 214.17 331.62, 214.04 331.73 C 213.91 331.84, 214.00 332.03, 214.12 332.17 C 214.23 332.31, 214.40 332.41, 214.61 332.42 C 214.81 332.42, 214.89 332.44, 215.15 332.19 C 215.41 331.95, 215.53 331.82, 215.91 331.20 C 216.28 330.57, 216.52 330.16, 217.03 329.07 C 217.54 327.98, 217.83 327.27, 218.46 325.77 C 219.09 324.26, 219.45 323.35, 220.19 321.52 C 220.93 319.69, 221.37 318.62, 222.15 316.61 C 222.94 314.60, 223.37 313.48, 224.11 311.47 C 224.86 309.46, 225.27 308.41, 225.88 306.57 C 226.48 304.73, 226.82 303.77, 227.13 302.28 C 227.44 300.79, 227.52 300.05, 227.44 299.14 C 227.37 298.22, 227.13 298.00, 226.76 297.71 C 226.38 297.43, 225.92 297.51, 225.57 297.70 C 225.21 297.89, 224.99 298.37, 224.98 298.65 C 224.97 298.93, 225.28 299.13, 225.53 299.11" style="stroke: white; fill: white;"/><path d="M 210.50,317.78 C 210.62 317.94, 210.71 318.03, 211.13 318.15 C 211.55 318.27, 211.82 318.35, 212.59 318.37 C 213.36 318.39, 213.87 318.37, 214.98 318.23 C 216.08 318.09, 216.76 317.98, 218.12 317.68 C 219.48 317.39, 220.26 317.19, 221.77 316.76 C 223.29 316.32, 224.12 316.05, 225.68 315.52 C 227.25 314.99, 228.09 314.68, 229.62 314.10 C 231.14 313.51, 231.94 313.18, 233.30 312.61 C 234.67 312.03, 235.36 311.71, 236.46 311.20 C 237.55 310.69, 238.09 310.46, 238.79 310.05 C 239.49 309.63, 239.75 309.42, 239.97 309.12 C 240.18 308.82, 240.12 308.64, 239.86 308.56 C 239.60 308.49, 239.28 308.47, 238.67 308.75 C 238.05 309.03, 237.61 309.29, 236.79 309.97 C 235.96 310.66, 235.47 311.17, 234.56 312.18 C 233.65 313.18, 233.10 313.82, 232.25 315.00 C 231.39 316.17, 230.92 316.86, 230.27 318.05 C 229.62 319.25, 229.32 319.90, 229.00 320.98 C 228.68 322.06, 228.60 322.61, 228.69 323.44 C 228.77 324.28, 228.94 324.67, 229.41 325.16 C 229.88 325.66, 230.27 325.84, 231.04 325.93 C 231.80 326.02, 232.31 325.94, 233.24 325.61 C 234.18 325.28, 234.72 324.97, 235.69 324.27 C 236.66 323.58, 237.20 323.09, 238.12 322.15 C 239.04 321.20, 239.53 320.61, 240.29 319.55 C 241.04 318.49, 241.41 317.88, 241.89 316.83 C 242.38 315.78, 242.56 315.22, 242.71 314.31 C 242.86 313.41, 242.82 312.96, 242.66 312.30 C 242.51 311.65, 242.28 311.38, 241.94 311.05 C 241.59 310.71, 241.29 310.61, 240.94 310.63 C 240.59 310.64, 240.29 310.82, 240.18 311.12 C 240.06 311.42, 240.07 311.77, 240.35 312.11 C 240.63 312.45, 240.92 312.63, 241.59 312.80 C 242.26 312.97, 242.71 312.99, 243.69 312.95 C 244.68 312.91, 245.30 312.82, 246.52 312.59 C 247.73 312.37, 248.45 312.18, 249.78 311.82 C 251.11 311.47, 251.87 311.23, 253.18 310.83 C 254.48 310.44, 255.19 310.21, 256.31 309.87 C 257.43 309.52, 258.02 309.31, 258.78 309.12 C 259.54 308.92, 259.84 308.80, 260.12 308.90 C 260.41 309.00, 260.39 309.08, 260.21 309.60 C 260.03 310.13, 259.79 310.49, 259.23 311.51 C 258.67 312.53, 258.26 313.24, 257.40 314.71 C 256.55 316.18, 256.01 317.10, 254.97 318.87 C 253.93 320.64, 253.31 321.67, 252.21 323.56 C 251.10 325.46, 250.50 326.50, 249.45 328.36 C 248.39 330.22, 247.84 331.21, 246.93 332.85 C 246.02 334.50, 245.55 335.32, 244.89 336.58 C 244.23 337.85, 243.94 338.43, 243.63 339.17 C 243.32 339.91, 243.28 340.18, 243.36 340.28 C 243.45 340.39, 243.64 340.28, 244.05 339.68 C 244.45 339.08, 244.74 338.53, 245.39 337.29 C 246.04 336.05, 246.40 335.15, 247.28 333.47 C 248.17 331.80, 248.68 330.78, 249.81 328.92 C 250.94 327.06, 251.60 326.03, 252.92 324.18 C 254.23 322.34, 254.97 321.38, 256.37 319.69 C 257.78 318.00, 258.54 317.17, 259.94 315.74 C 261.34 314.32, 262.06 313.66, 263.38 312.58 C 264.69 311.50, 265.35 311.05, 266.50 310.35 C 267.65 309.66, 268.20 309.42, 269.14 309.11 C 270.08 308.79, 270.50 308.75, 271.20 308.77 C 271.89 308.79, 272.17 308.91, 272.61 309.19 C 273.04 309.47, 273.18 309.70, 273.36 310.19 C 273.55 310.67, 273.59 310.99, 273.53 311.62 C 273.47 312.26, 273.40 312.64, 273.08 313.38 C 272.77 314.11, 272.53 314.53, 271.97 315.29 C 271.40 316.06, 271.01 316.49, 270.25 317.21 C 269.49 317.92, 269.01 318.29, 268.16 318.88 C 267.30 319.46, 266.80 319.74, 265.99 320.15 C 265.17 320.56, 264.73 320.72, 264.08 320.93 C 263.43 321.15, 263.12 321.18, 262.73 321.23 C 262.34 321.29, 262.20 321.27, 262.11 321.21 C 262.01 321.14, 262.05 321.10, 262.25 320.91 C 262.44 320.71, 262.59 320.58, 263.07 320.23 C 263.54 319.88, 263.85 319.64, 264.62 319.16 C 265.39 318.68, 265.87 318.39, 266.92 317.83 C 267.96 317.28, 268.59 316.97, 269.85 316.37 C 271.10 315.78, 271.82 315.47, 273.20 314.86 C 274.58 314.25, 275.35 313.94, 276.76 313.33 C 278.18 312.72, 278.95 312.39, 280.28 311.80 C 281.62 311.21, 282.30 310.90, 283.43 310.39 C 284.56 309.88, 285.12 309.63, 285.95 309.24 C 286.78 308.86, 287.14 308.70, 287.58 308.47 C 288.02 308.24, 288.14 308.10, 288.14 308.11 C 288.15 308.11, 287.97 308.15, 287.62 308.49 C 287.28 308.84, 286.94 309.16, 286.43 309.83 C 285.91 310.51, 285.58 311.02, 285.05 311.88 C 284.52 312.73, 284.18 313.26, 283.79 314.10 C 283.39 314.95, 283.18 315.40, 283.08 316.10 C 282.98 316.80, 283.01 317.15, 283.28 317.61 C 283.54 318.08, 283.80 318.28, 284.42 318.42 C 285.04 318.56, 285.48 318.54, 286.39 318.32 C 287.29 318.10, 287.84 317.85, 288.95 317.31 C 290.06 316.77, 290.70 316.36, 291.95 315.60 C 293.19 314.84, 293.90 314.35, 295.19 313.51 C 296.48 312.66, 297.18 312.16, 298.38 311.37 C 299.58 310.58, 300.21 310.17, 301.18 309.57 C 302.15 308.97, 302.65 308.68, 303.23 308.35 C 303.82 308.03, 304.00 307.92, 304.11 307.95 C 304.23 307.98, 304.08 308.09, 303.82 308.50 C 303.55 308.90, 303.25 309.25, 302.77 309.96 C 302.29 310.67, 301.95 311.20, 301.42 312.05 C 300.89 312.90, 300.53 313.43, 300.14 314.20 C 299.74 314.98, 299.52 315.39, 299.43 315.94 C 299.34 316.49, 299.40 316.73, 299.69 316.94 C 299.98 317.14, 300.26 317.16, 300.90 316.96 C 301.54 316.77, 301.98 316.52, 302.89 315.97 C 303.81 315.41, 304.39 314.94, 305.49 314.19 C 306.58 313.43, 307.24 312.93, 308.38 312.20 C 309.52 311.47, 310.18 311.07, 311.19 310.53 C 312.19 309.98, 312.73 309.74, 313.42 309.47 C 314.11 309.20, 314.36 309.13, 314.64 309.16 C 314.92 309.20, 314.89 309.31, 314.82 309.65 C 314.75 310.00, 314.56 310.29, 314.31 310.89 C 314.06 311.50, 313.82 311.93, 313.57 312.68 C 313.33 313.42, 313.16 313.90, 313.10 314.63 C 313.03 315.36, 313.00 315.76, 313.23 316.32 C 313.46 316.87, 313.65 317.15, 314.23 317.41 C 314.80 317.66, 315.20 317.72, 316.10 317.60 C 317.00 317.48, 317.55 317.30, 318.72 316.82 C 319.89 316.35, 320.58 315.98, 321.95 315.24 C 323.31 314.51, 324.10 314.01, 325.54 313.15 C 326.98 312.29, 327.78 311.79, 329.16 310.94 C 330.53 310.09, 331.27 309.64, 332.42 308.91 C 333.58 308.18, 334.15 307.85, 334.93 307.30 C 335.70 306.75, 336.00 306.53, 336.30 306.17 C 336.60 305.80, 336.59 305.65, 336.42 305.49 C 336.24 305.33, 335.96 305.26, 335.43 305.37 C 334.90 305.47, 334.48 305.61, 333.75 306.01 C 333.02 306.42, 332.58 306.76, 331.78 307.38 C 330.97 308.00, 330.49 308.39, 329.73 309.12 C 328.96 309.85, 328.53 310.28, 327.94 311.02 C 327.35 311.75, 327.06 312.14, 326.78 312.80 C 326.50 313.45, 326.42 313.78, 326.52 314.27 C 326.62 314.77, 326.80 315.02, 327.28 315.27 C 327.76 315.51, 328.15 315.59, 328.92 315.51 C 329.69 315.42, 330.18 315.25, 331.12 314.84 C 332.06 314.43, 332.62 314.09, 333.63 313.47 C 334.65 312.84, 335.23 312.43, 336.20 311.70 C 337.17 310.98, 337.74 310.50, 338.47 309.85 C 339.20 309.20, 339.54 308.82, 339.86 308.45 C 340.19 308.08, 340.20 307.92, 340.11 308.01 C 340.02 308.11, 339.81 308.27, 339.42 308.92 C 339.02 309.57, 338.71 310.10, 338.15 311.25 C 337.58 312.40, 337.25 313.19, 336.57 314.69 C 335.89 316.19, 335.51 317.07, 334.75 318.77 C 333.99 320.47, 333.59 321.40, 332.77 323.18 C 331.96 324.95, 331.54 325.90, 330.69 327.63 C 329.85 329.36, 329.41 330.26, 328.56 331.82 C 327.70 333.38, 327.26 334.14, 326.40 335.43 C 325.55 336.71, 325.10 337.31, 324.26 338.25 C 323.43 339.20, 323.00 339.59, 322.25 340.16 C 321.49 340.73, 321.11 340.90, 320.48 341.09 C 319.85 341.29, 319.56 341.28, 319.12 341.15 C 318.67 341.01, 318.49 340.85, 318.26 340.42 C 318.03 339.98, 317.94 339.68, 317.97 338.96 C 317.99 338.24, 318.01 337.78, 318.37 336.82 C 318.72 335.86, 318.98 335.28, 319.74 334.14 C 320.51 333.01, 321.01 332.37, 322.20 331.15 C 323.39 329.93, 324.12 329.27, 325.68 328.04 C 327.24 326.81, 328.17 326.19, 330.00 325.01 C 331.84 323.83, 332.88 323.24, 334.85 322.13 C 336.81 321.02, 337.86 320.46, 339.82 319.45 C 341.79 318.45, 342.80 317.96, 344.66 317.10 C 346.52 316.24, 347.45 315.85, 349.11 315.14 C 350.76 314.44, 351.63 314.10, 352.93 313.56 C 354.23 313.02, 354.78 312.82, 355.61 312.43 C 356.44 312.05, 356.81 311.86, 357.08 311.63 C 357.35 311.41, 357.30 311.29, 356.95 311.29 C 356.60 311.29, 356.21 311.39, 355.32 311.62 C 354.42 311.85, 353.84 311.97, 352.50 312.45 C 351.16 312.92, 350.29 313.29, 348.62 313.99 C 346.94 314.69, 346.00 315.08, 344.13 315.94 C 342.25 316.80, 341.22 317.28, 339.23 318.28 C 337.24 319.28, 336.18 319.84, 334.18 320.95 C 332.19 322.06, 331.13 322.65, 329.26 323.84 C 327.38 325.04, 326.43 325.67, 324.81 326.93 C 323.20 328.19, 322.43 328.87, 321.18 330.15 C 319.93 331.44, 319.39 332.11, 318.56 333.35 C 317.74 334.60, 317.44 335.24, 317.07 336.37 C 316.70 337.49, 316.65 338.07, 316.71 338.99 C 316.77 339.91, 316.95 340.36, 317.37 340.97 C 317.80 341.58, 318.15 341.83, 318.83 342.05 C 319.50 342.27, 319.94 342.27, 320.75 342.07 C 321.56 341.87, 322.01 341.66, 322.89 341.05 C 323.77 340.45, 324.23 340.03, 325.14 339.04 C 326.05 338.05, 326.52 337.44, 327.43 336.12 C 328.33 334.80, 328.79 334.02, 329.68 332.44 C 330.57 330.87, 331.02 329.96, 331.89 328.22 C 332.76 326.48, 333.19 325.53, 334.02 323.76 C 334.86 321.99, 335.27 321.06, 336.06 319.37 C 336.85 317.69, 337.27 316.83, 337.98 315.35 C 338.69 313.86, 339.11 313.13, 339.62 311.93 C 340.13 310.73, 340.37 310.16, 340.54 309.35 C 340.71 308.55, 340.69 308.23, 340.47 307.90 C 340.24 307.57, 340.00 307.55, 339.43 307.72 C 338.86 307.89, 338.44 308.20, 337.62 308.76 C 336.80 309.31, 336.28 309.83, 335.33 310.51 C 334.37 311.19, 333.81 311.58, 332.84 312.17 C 331.87 312.75, 331.32 313.03, 330.48 313.43 C 329.64 313.84, 329.23 314.00, 328.64 314.20 C 328.05 314.41, 327.82 314.46, 327.54 314.46 C 327.26 314.47, 327.21 314.44, 327.25 314.21 C 327.29 313.99, 327.41 313.80, 327.75 313.34 C 328.09 312.88, 328.36 312.53, 328.96 311.90 C 329.55 311.27, 329.96 310.86, 330.71 310.21 C 331.47 309.56, 331.95 309.21, 332.73 308.65 C 333.51 308.09, 333.97 307.86, 334.62 307.41 C 335.26 306.96, 335.59 306.74, 335.95 306.39 C 336.31 306.04, 336.43 305.82, 336.42 305.66 C 336.41 305.50, 336.32 305.45, 335.90 305.58 C 335.48 305.71, 335.15 305.88, 334.32 306.33 C 333.50 306.77, 332.93 307.12, 331.75 307.81 C 330.58 308.50, 329.83 308.94, 328.44 309.76 C 327.05 310.57, 326.25 311.06, 324.80 311.89 C 323.36 312.72, 322.57 313.19, 321.23 313.90 C 319.90 314.60, 319.21 314.94, 318.13 315.43 C 317.05 315.91, 316.55 316.10, 315.83 316.33 C 315.11 316.55, 314.86 316.60, 314.51 316.55 C 314.17 316.50, 314.14 316.40, 314.12 316.07 C 314.10 315.74, 314.23 315.48, 314.43 314.90 C 314.62 314.32, 314.85 313.91, 315.10 313.19 C 315.35 312.46, 315.57 311.99, 315.68 311.27 C 315.79 310.54, 315.84 310.11, 315.67 309.56 C 315.51 309.01, 315.36 308.74, 314.85 308.52 C 314.34 308.29, 313.98 308.26, 313.13 308.42 C 312.27 308.58, 311.69 308.82, 310.59 309.32 C 309.48 309.82, 308.81 310.23, 307.60 310.93 C 306.40 311.63, 305.70 312.09, 304.58 312.83 C 303.45 313.56, 302.83 313.98, 301.98 314.61 C 301.14 315.24, 300.78 315.57, 300.34 315.97 C 299.91 316.38, 299.84 316.56, 299.82 316.63 C 299.81 316.70, 299.96 316.65, 300.27 316.32 C 300.58 315.99, 300.86 315.66, 301.38 314.98 C 301.89 314.31, 302.28 313.81, 302.84 312.96 C 303.39 312.10, 303.77 311.56, 304.15 310.73 C 304.53 309.89, 304.70 309.41, 304.74 308.77 C 304.78 308.14, 304.72 307.82, 304.35 307.55 C 303.98 307.29, 303.65 307.25, 302.89 307.43 C 302.13 307.62, 301.60 307.91, 300.55 308.47 C 299.50 309.03, 298.88 309.45, 297.65 310.22 C 296.42 310.98, 295.70 311.47, 294.40 312.29 C 293.11 313.11, 292.40 313.59, 291.17 314.32 C 289.95 315.05, 289.31 315.40, 288.27 315.94 C 287.22 316.47, 286.72 316.68, 285.97 316.98 C 285.21 317.28, 284.91 317.39, 284.50 317.45 C 284.09 317.51, 283.99 317.50, 283.92 317.29 C 283.85 317.08, 283.91 316.89, 284.14 316.39 C 284.37 315.89, 284.59 315.51, 285.05 314.79 C 285.51 314.07, 285.90 313.59, 286.45 312.78 C 287.00 311.97, 287.37 311.49, 287.80 310.73 C 288.22 309.97, 288.45 309.55, 288.58 308.98 C 288.70 308.40, 288.67 308.12, 288.42 307.85 C 288.17 307.58, 287.92 307.56, 287.34 307.62 C 286.76 307.69, 286.39 307.84, 285.50 308.16 C 284.62 308.49, 284.07 308.74, 282.93 309.23 C 281.78 309.71, 281.10 310.02, 279.76 310.59 C 278.42 311.16, 277.65 311.48, 276.23 312.08 C 274.81 312.68, 274.04 312.98, 272.64 313.58 C 271.25 314.18, 270.52 314.48, 269.24 315.07 C 267.96 315.66, 267.31 315.96, 266.23 316.52 C 265.14 317.08, 264.62 317.35, 263.81 317.89 C 262.99 318.43, 262.62 318.69, 262.14 319.22 C 261.66 319.75, 261.50 320.05, 261.40 320.54 C 261.29 321.02, 261.36 321.31, 261.62 321.64 C 261.88 321.97, 262.14 322.11, 262.70 322.19 C 263.25 322.28, 263.62 322.25, 264.39 322.07 C 265.16 321.90, 265.64 321.73, 266.55 321.32 C 267.45 320.90, 267.99 320.62, 268.92 320.00 C 269.85 319.39, 270.37 319.01, 271.21 318.23 C 272.04 317.45, 272.47 316.99, 273.10 316.11 C 273.72 315.24, 274.00 314.77, 274.34 313.88 C 274.67 312.99, 274.78 312.50, 274.78 311.67 C 274.78 310.85, 274.68 310.40, 274.35 309.74 C 274.03 309.08, 273.76 308.76, 273.13 308.37 C 272.51 307.97, 272.11 307.83, 271.24 307.77 C 270.38 307.72, 269.88 307.77, 268.82 308.08 C 267.75 308.40, 267.16 308.65, 265.92 309.36 C 264.67 310.07, 263.99 310.54, 262.61 311.64 C 261.23 312.73, 260.49 313.41, 259.04 314.85 C 257.59 316.29, 256.81 317.13, 255.36 318.84 C 253.91 320.54, 253.15 321.51, 251.79 323.37 C 250.43 325.23, 249.74 326.27, 248.55 328.14 C 247.37 330.01, 246.77 331.01, 245.85 332.71 C 244.93 334.41, 244.50 335.30, 243.95 336.62 C 243.41 337.95, 243.25 338.58, 243.14 339.33 C 243.03 340.09, 243.14 340.34, 243.39 340.40 C 243.65 340.46, 243.90 340.27, 244.41 339.63 C 244.92 338.98, 245.22 338.40, 245.95 337.17 C 246.68 335.94, 247.12 335.11, 248.06 333.49 C 248.99 331.86, 249.55 330.87, 250.62 329.04 C 251.70 327.20, 252.30 326.17, 253.43 324.29 C 254.56 322.41, 255.20 321.41, 256.27 319.65 C 257.33 317.89, 257.92 317.00, 258.77 315.49 C 259.62 313.99, 260.05 313.28, 260.52 312.12 C 260.99 310.97, 261.13 310.48, 261.11 309.72 C 261.10 308.96, 260.94 308.66, 260.44 308.33 C 259.94 307.99, 259.51 307.97, 258.62 308.02 C 257.72 308.07, 257.12 308.30, 255.96 308.59 C 254.79 308.88, 254.09 309.12, 252.79 309.48 C 251.48 309.84, 250.72 310.07, 249.42 310.40 C 248.11 310.72, 247.41 310.88, 246.25 311.09 C 245.09 311.29, 244.50 311.34, 243.61 311.40 C 242.72 311.46, 242.35 311.41, 241.82 311.39 C 241.28 311.36, 241.14 311.29, 240.92 311.28 C 240.70 311.27, 240.71 311.30, 240.70 311.33 C 240.69 311.35, 240.74 311.35, 240.86 311.41 C 240.98 311.48, 241.12 311.43, 241.28 311.65 C 241.45 311.86, 241.62 312.00, 241.68 312.49 C 241.74 312.98, 241.77 313.33, 241.58 314.08 C 241.40 314.83, 241.22 315.33, 240.74 316.26 C 240.25 317.19, 239.90 317.76, 239.17 318.73 C 238.43 319.70, 237.95 320.26, 237.08 321.13 C 236.21 322.00, 235.70 322.44, 234.83 323.08 C 233.96 323.73, 233.48 323.99, 232.73 324.35 C 231.98 324.70, 231.61 324.82, 231.07 324.86 C 230.53 324.91, 230.30 324.87, 230.02 324.58 C 229.74 324.29, 229.66 324.05, 229.68 323.41 C 229.71 322.76, 229.80 322.30, 230.15 321.37 C 230.51 320.43, 230.80 319.82, 231.46 318.73 C 232.11 317.63, 232.58 316.98, 233.43 315.89 C 234.28 314.79, 234.83 314.19, 235.72 313.25 C 236.61 312.32, 237.14 311.91, 237.89 311.22 C 238.63 310.54, 239.00 310.27, 239.43 309.81 C 239.86 309.34, 239.99 309.13, 240.04 308.89 C 240.08 308.65, 240.01 308.57, 239.66 308.61 C 239.32 308.64, 239.05 308.76, 238.30 309.05 C 237.56 309.34, 237.05 309.60, 235.95 310.07 C 234.85 310.54, 234.17 310.85, 232.80 311.40 C 231.44 311.96, 230.65 312.28, 229.14 312.84 C 227.63 313.40, 226.80 313.70, 225.25 314.21 C 223.70 314.72, 222.88 314.97, 221.39 315.37 C 219.90 315.78, 219.13 315.96, 217.81 316.22 C 216.49 316.48, 215.84 316.55, 214.78 316.68 C 213.72 316.82, 213.25 316.81, 212.52 316.90 C 211.80 316.98, 211.56 317.02, 211.17 317.11 C 210.77 317.19, 210.69 317.20, 210.55 317.33 C 210.42 317.46, 210.39 317.61, 210.50 317.78" style="stroke: white; fill: white;"/><path d="M 393.13,287.90 C 392.94 288.04, 392.88 288.20, 392.61 288.74 C 392.35 289.27, 392.21 289.60, 391.80 290.59 C 391.39 291.58, 391.16 292.26, 390.56 293.70 C 389.96 295.14, 389.60 296.03, 388.80 297.78 C 388.01 299.53, 387.51 300.55, 386.59 302.44 C 385.67 304.34, 385.13 305.39, 384.20 307.25 C 383.28 309.11, 382.78 310.10, 381.97 311.74 C 381.15 313.38, 380.74 314.19, 380.14 315.45 C 379.55 316.70, 379.30 317.28, 379.00 318.02 C 378.71 318.75, 378.68 319.01, 378.66 319.13 C 378.65 319.26, 378.79 319.10, 378.93 318.65 C 379.08 318.21, 379.23 317.76, 379.37 316.89 C 379.52 316.03, 379.58 315.38, 379.66 314.34 C 379.75 313.29, 379.76 312.63, 379.78 311.68 C 379.80 310.73, 379.81 310.26, 379.79 309.60 C 379.77 308.94, 379.72 308.67, 379.67 308.36 C 379.61 308.05, 379.50 308.03, 379.53 308.07 C 379.57 308.11, 379.54 308.32, 379.85 308.55 C 380.16 308.78, 380.40 309.02, 381.09 309.22 C 381.77 309.42, 382.22 309.54, 383.26 309.57 C 384.29 309.60, 384.92 309.60, 386.24 309.38 C 387.57 309.16, 388.33 308.99, 389.89 308.49 C 391.46 307.99, 392.33 307.67, 394.05 306.88 C 395.78 306.10, 396.74 305.63, 398.53 304.59 C 400.32 303.54, 401.27 302.91, 403.01 301.66 C 404.75 300.42, 405.66 299.71, 407.23 298.35 C 408.81 297.00, 409.60 296.24, 410.89 294.88 C 412.18 293.51, 412.78 292.78, 413.67 291.54 C 414.57 290.29, 414.94 289.67, 415.38 288.65 C 415.82 287.63, 415.93 287.15, 415.88 286.43 C 415.82 285.71, 415.63 285.36, 415.11 285.03 C 414.60 284.71, 414.17 284.61, 413.30 284.80 C 412.43 284.99, 411.89 285.22, 410.77 285.97 C 409.66 286.72, 409.01 287.26, 407.73 288.53 C 406.45 289.80, 405.71 290.64, 404.36 292.32 C 403.01 293.99, 402.27 295.02, 400.97 296.91 C 399.68 298.80, 399.00 299.87, 397.89 301.76 C 396.78 303.64, 396.24 304.66, 395.42 306.32 C 394.60 307.99, 394.23 308.81, 393.79 310.10 C 393.35 311.39, 393.21 311.94, 393.22 312.76 C 393.24 313.59, 393.38 313.89, 393.84 314.21 C 394.31 314.54, 394.73 314.56, 395.57 314.38 C 396.41 314.21, 396.98 313.92, 398.07 313.33 C 399.16 312.73, 399.81 312.22, 401.02 311.40 C 402.22 310.58, 402.94 310.03, 404.09 309.25 C 405.24 308.46, 405.90 308.01, 406.78 307.46 C 407.66 306.91, 408.04 306.68, 408.49 306.49 C 408.93 306.31, 408.98 306.33, 409.00 306.56 C 409.03 306.78, 408.84 307.04, 408.62 307.63 C 408.39 308.21, 408.10 308.68, 407.86 309.50 C 407.63 310.31, 407.47 310.86, 407.44 311.68 C 407.42 312.51, 407.44 312.98, 407.73 313.61 C 408.02 314.25, 408.24 314.55, 408.88 314.85 C 409.51 315.14, 409.95 315.21, 410.91 315.11 C 411.87 315.01, 412.46 314.82, 413.67 314.35 C 414.88 313.87, 415.59 313.48, 416.97 312.74 C 418.35 312.00, 419.14 311.49, 420.56 310.62 C 421.98 309.76, 422.77 309.22, 424.06 308.40 C 425.35 307.57, 426.03 307.14, 427.01 306.49 C 427.98 305.83, 428.44 305.55, 428.95 305.12 C 429.47 304.69, 429.59 304.52, 429.58 304.34 C 429.58 304.15, 429.38 304.10, 428.95 304.21 C 428.52 304.33, 428.13 304.47, 427.45 304.92 C 426.78 305.37, 426.34 305.74, 425.57 306.45 C 424.80 307.15, 424.35 307.63, 423.61 308.44 C 422.87 309.26, 422.45 309.72, 421.87 310.52 C 421.29 311.31, 421.00 311.73, 420.71 312.41 C 420.42 313.10, 420.34 313.45, 420.43 313.96 C 420.51 314.46, 420.69 314.71, 421.12 314.94 C 421.56 315.17, 421.92 315.22, 422.61 315.10 C 423.30 314.98, 423.75 314.80, 424.58 314.34 C 425.42 313.88, 425.89 313.50, 426.80 312.80 C 427.70 312.11, 428.23 311.65, 429.09 310.84 C 429.96 310.03, 430.51 309.48, 431.13 308.74 C 431.75 308.00, 432.00 307.55, 432.19 307.12 C 432.39 306.69, 432.30 306.55, 432.09 306.60 C 431.87 306.64, 431.56 306.84, 431.12 307.34 C 430.68 307.84, 430.26 308.32, 429.88 309.12 C 429.49 309.92, 429.30 310.53, 429.19 311.34 C 429.07 312.16, 429.07 312.61, 429.31 313.19 C 429.54 313.77, 429.75 314.04, 430.35 314.25 C 430.96 314.47, 431.39 314.51, 432.32 314.26 C 433.26 314.01, 433.83 313.74, 435.03 313.01 C 436.23 312.28, 436.91 311.75, 438.33 310.59 C 439.75 309.44, 440.55 308.71, 442.11 307.24 C 443.67 305.77, 444.55 304.89, 446.15 303.25 C 447.74 301.62, 448.59 300.69, 450.08 299.04 C 451.57 297.40, 452.34 296.51, 453.61 295.03 C 454.89 293.55, 455.54 292.82, 456.45 291.65 C 457.37 290.48, 457.80 289.88, 458.20 289.17 C 458.60 288.47, 458.63 288.19, 458.45 288.14 C 458.28 288.09, 457.95 288.24, 457.32 288.91 C 456.69 289.58, 456.20 290.17, 455.30 291.47 C 454.40 292.77, 453.84 293.73, 452.82 295.42 C 451.81 297.11, 451.22 298.14, 450.22 299.92 C 449.23 301.69, 448.70 302.66, 447.86 304.30 C 447.02 305.93, 446.61 306.76, 446.02 308.10 C 445.44 309.45, 445.19 310.05, 444.93 311.01 C 444.66 311.96, 444.62 312.35, 444.70 312.87 C 444.77 313.39, 444.95 313.54, 445.30 313.61 C 445.65 313.69, 445.97 313.57, 446.44 313.22 C 446.91 312.87, 447.22 312.52, 447.64 311.87 C 448.05 311.23, 448.27 310.71, 448.52 309.98 C 448.77 309.26, 448.87 308.80, 448.89 308.26 C 448.90 307.71, 448.78 307.46, 448.58 307.25 C 448.38 307.05, 448.11 307.05, 447.88 307.24 C 447.66 307.43, 447.42 307.74, 447.43 308.19 C 447.45 308.65, 447.57 309.05, 447.98 309.52 C 448.39 310.00, 448.74 310.24, 449.49 310.57 C 450.24 310.90, 450.70 311.05, 451.72 311.18 C 452.75 311.32, 453.38 311.33, 454.62 311.26 C 455.86 311.20, 456.58 311.08, 457.93 310.85 C 459.28 310.62, 460.03 310.44, 461.39 310.11 C 462.74 309.77, 463.53 309.54, 464.69 309.17 C 465.84 308.81, 466.39 308.60, 467.17 308.27 C 467.96 307.94, 468.35 307.75, 468.61 307.53 C 468.88 307.30, 468.83 307.18, 468.49 307.14 C 468.15 307.11, 467.73 307.19, 466.90 307.34 C 466.06 307.49, 465.50 307.60, 464.33 307.88 C 463.16 308.15, 462.38 308.41, 461.05 308.73 C 459.72 309.04, 458.99 309.22, 457.69 309.43 C 456.39 309.65, 455.69 309.74, 454.54 309.80 C 453.38 309.87, 452.80 309.85, 451.90 309.75 C 451.01 309.64, 450.62 309.52, 450.04 309.28 C 449.47 309.04, 449.30 308.83, 449.03 308.56 C 448.76 308.29, 448.80 308.16, 448.68 307.94 C 448.56 307.72, 448.56 307.58, 448.44 307.46 C 448.33 307.33, 448.28 307.22, 448.13 307.32 C 447.98 307.42, 447.91 307.55, 447.68 307.95 C 447.45 308.36, 447.30 308.73, 446.99 309.34 C 446.68 309.96, 446.42 310.41, 446.13 311.04 C 445.84 311.67, 445.70 312.04, 445.53 312.48 C 445.36 312.92, 445.31 313.15, 445.28 313.24 C 445.25 313.32, 445.26 313.29, 445.39 312.91 C 445.52 312.53, 445.58 312.20, 445.93 311.34 C 446.28 310.48, 446.51 309.89, 447.13 308.61 C 447.75 307.32, 448.16 306.51, 449.03 304.92 C 449.91 303.33, 450.45 302.38, 451.49 300.65 C 452.52 298.92, 453.18 297.93, 454.22 296.27 C 455.25 294.61, 455.88 293.71, 456.69 292.36 C 457.49 291.01, 457.87 290.36, 458.24 289.52 C 458.60 288.68, 458.67 288.34, 458.53 288.16 C 458.39 287.98, 458.13 288.10, 457.53 288.64 C 456.93 289.18, 456.49 289.76, 455.51 290.87 C 454.54 291.98, 453.93 292.73, 452.64 294.18 C 451.35 295.63, 450.58 296.51, 449.08 298.12 C 447.58 299.74, 446.73 300.65, 445.13 302.26 C 443.54 303.87, 442.66 304.73, 441.11 306.17 C 439.56 307.60, 438.76 308.31, 437.38 309.42 C 436.00 310.54, 435.32 311.02, 434.22 311.75 C 433.13 312.47, 432.63 312.72, 431.90 313.05 C 431.17 313.39, 430.90 313.45, 430.55 313.43 C 430.21 313.42, 430.16 313.32, 430.17 312.98 C 430.18 312.64, 430.33 312.35, 430.61 311.73 C 430.89 311.12, 431.22 310.66, 431.56 309.91 C 431.90 309.16, 432.14 308.62, 432.31 307.97 C 432.48 307.33, 432.53 306.96, 432.40 306.67 C 432.26 306.39, 432.10 306.34, 431.64 306.56 C 431.18 306.77, 430.81 307.11, 430.10 307.74 C 429.38 308.38, 428.91 308.95, 428.06 309.72 C 427.21 310.49, 426.71 310.93, 425.85 311.59 C 425.00 312.25, 424.52 312.55, 423.80 313.01 C 423.08 313.48, 422.73 313.65, 422.24 313.90 C 421.75 314.14, 421.57 314.23, 421.36 314.24 C 421.15 314.24, 421.12 314.20, 421.19 313.94 C 421.26 313.69, 421.37 313.46, 421.72 312.94 C 422.07 312.43, 422.34 312.05, 422.93 311.36 C 423.52 310.66, 423.94 310.22, 424.69 309.48 C 425.44 308.75, 425.94 308.36, 426.69 307.69 C 427.44 307.02, 427.89 306.70, 428.45 306.13 C 429.01 305.57, 429.26 305.27, 429.48 304.87 C 429.69 304.48, 429.72 304.27, 429.52 304.16 C 429.32 304.04, 429.11 304.06, 428.47 304.31 C 427.84 304.57, 427.38 304.84, 426.35 305.42 C 425.32 306.00, 424.64 306.43, 423.33 307.22 C 422.02 308.01, 421.22 308.53, 419.80 309.37 C 418.39 310.20, 417.59 310.69, 416.25 311.40 C 414.91 312.12, 414.21 312.47, 413.10 312.96 C 411.98 313.45, 411.46 313.65, 410.69 313.85 C 409.92 314.06, 409.63 314.09, 409.22 313.97 C 408.82 313.86, 408.75 313.71, 408.68 313.29 C 408.61 312.87, 408.71 312.53, 408.86 311.86 C 409.02 311.19, 409.26 310.73, 409.46 309.92 C 409.66 309.12, 409.84 308.58, 409.86 307.86 C 409.87 307.13, 409.85 306.72, 409.55 306.29 C 409.24 305.86, 409.03 305.70, 408.35 305.71 C 407.68 305.72, 407.19 305.88, 406.18 306.34 C 405.17 306.80, 404.49 307.25, 403.28 308.00 C 402.07 308.75, 401.33 309.27, 400.13 310.07 C 398.92 310.87, 398.25 311.34, 397.26 311.99 C 396.28 312.65, 395.82 312.99, 395.20 313.34 C 394.57 313.69, 394.36 313.84, 394.13 313.74 C 393.90 313.64, 393.90 313.49, 394.04 312.84 C 394.19 312.19, 394.35 311.69, 394.85 310.50 C 395.35 309.31, 395.71 308.51, 396.55 306.90 C 397.39 305.29, 397.94 304.29, 399.06 302.46 C 400.18 300.62, 400.86 299.56, 402.15 297.73 C 403.45 295.89, 404.19 294.88, 405.52 293.26 C 406.85 291.64, 407.59 290.84, 408.81 289.61 C 410.03 288.39, 410.65 287.90, 411.62 287.15 C 412.59 286.40, 413.02 286.18, 413.65 285.88 C 414.29 285.57, 414.50 285.53, 414.79 285.64 C 415.07 285.75, 415.14 285.91, 415.07 286.42 C 415.00 286.93, 414.89 287.31, 414.42 288.19 C 413.94 289.07, 413.59 289.66, 412.70 290.82 C 411.81 291.98, 411.23 292.69, 409.97 293.99 C 408.70 295.30, 407.92 296.03, 406.37 297.34 C 404.82 298.66, 403.93 299.35, 402.22 300.55 C 400.51 301.76, 399.58 302.38, 397.83 303.38 C 396.08 304.39, 395.15 304.85, 393.47 305.59 C 391.80 306.34, 390.95 306.65, 389.46 307.12 C 387.97 307.59, 387.25 307.75, 386.01 307.94 C 384.78 308.13, 384.22 308.10, 383.30 308.07 C 382.39 308.04, 382.04 307.89, 381.42 307.79 C 380.81 307.68, 380.62 307.57, 380.21 307.55 C 379.80 307.52, 379.66 307.51, 379.39 307.65 C 379.13 307.79, 379.05 307.87, 378.89 308.24 C 378.74 308.62, 378.73 308.86, 378.61 309.52 C 378.50 310.18, 378.47 310.63, 378.33 311.56 C 378.20 312.49, 378.06 313.14, 377.95 314.18 C 377.84 315.23, 377.76 315.88, 377.79 316.79 C 377.81 317.69, 377.88 318.18, 378.08 318.71 C 378.28 319.23, 378.45 319.45, 378.80 319.41 C 379.15 319.36, 379.34 319.15, 379.83 318.47 C 380.31 317.78, 380.55 317.22, 381.21 315.99 C 381.88 314.76, 382.28 313.95, 383.13 312.33 C 383.97 310.71, 384.48 309.73, 385.43 307.88 C 386.39 306.03, 386.94 304.98, 387.89 303.08 C 388.84 301.19, 389.35 300.17, 390.18 298.41 C 391.00 296.66, 391.41 295.76, 392.01 294.30 C 392.61 292.83, 392.86 292.14, 393.19 291.09 C 393.51 290.04, 393.54 289.65, 393.62 289.04 C 393.70 288.42, 393.68 288.24, 393.58 288.01 C 393.49 287.79, 393.33 287.75, 393.13 287.90" style="stroke: white; fill: white;"/><path d="M 504.57,306.29 C 504.79 306.19, 504.96 305.98, 505.15 305.61 C 505.34 305.23, 505.44 304.95, 505.50 304.42 C 505.55 303.89, 505.57 303.51, 505.42 302.96 C 505.27 302.41, 505.14 302.11, 504.75 301.66 C 504.36 301.20, 504.11 300.95, 503.46 300.69 C 502.81 300.42, 502.40 300.30, 501.49 300.33 C 500.59 300.37, 500.05 300.46, 498.94 300.87 C 497.82 301.29, 497.16 301.62, 495.93 302.42 C 494.71 303.22, 493.98 303.79, 492.81 304.87 C 491.63 305.96, 490.99 306.66, 490.05 307.84 C 489.10 309.03, 488.64 309.71, 488.09 310.80 C 487.53 311.89, 487.33 312.46, 487.25 313.32 C 487.18 314.17, 487.30 314.58, 487.72 315.08 C 488.14 315.59, 488.54 315.77, 489.36 315.85 C 490.18 315.92, 490.72 315.82, 491.81 315.46 C 492.91 315.10, 493.57 314.76, 494.83 314.04 C 496.10 313.32, 496.84 312.81, 498.15 311.85 C 499.46 310.90, 500.19 310.27, 501.38 309.26 C 502.57 308.25, 503.23 307.67, 504.12 306.79 C 505.02 305.92, 505.44 305.42, 505.85 304.87 C 506.25 304.31, 506.27 304.08, 506.15 304.03 C 506.02 303.98, 505.71 304.13, 505.23 304.62 C 504.74 305.11, 504.28 305.57, 503.71 306.48 C 503.14 307.38, 502.78 308.09, 502.39 309.15 C 501.99 310.20, 501.81 310.84, 501.74 311.76 C 501.67 312.68, 501.69 313.15, 502.03 313.76 C 502.37 314.38, 502.66 314.66, 503.43 314.86 C 504.19 315.05, 504.71 315.05, 505.84 314.74 C 506.96 314.43, 507.62 314.11, 509.03 313.31 C 510.43 312.51, 511.23 311.95, 512.86 310.74 C 514.48 309.53, 515.40 308.76, 517.13 307.26 C 518.87 305.75, 519.82 304.86, 521.54 303.20 C 523.25 301.54, 524.17 300.62, 525.71 298.96 C 527.25 297.31, 528.04 296.44, 529.26 294.93 C 530.48 293.43, 531.04 292.67, 531.82 291.43 C 532.60 290.18, 532.89 289.62, 533.15 288.73 C 533.42 287.84, 533.40 287.45, 533.13 286.97 C 532.86 286.48, 532.52 286.28, 531.79 286.29 C 531.05 286.30, 530.52 286.42, 529.44 287.02 C 528.35 287.62, 527.69 288.12, 526.38 289.29 C 525.07 290.45, 524.28 291.26, 522.88 292.85 C 521.48 294.45, 520.68 295.44, 519.37 297.25 C 518.07 299.07, 517.37 300.11, 516.36 301.92 C 515.34 303.73, 514.88 304.70, 514.30 306.30 C 513.73 307.91, 513.53 308.70, 513.48 309.95 C 513.43 311.20, 513.55 311.77, 514.05 312.57 C 514.55 313.37, 514.97 313.68, 515.97 313.94 C 516.96 314.21, 517.63 314.20, 519.01 313.88 C 520.39 313.57, 521.23 313.22, 522.87 312.37 C 524.52 311.52, 525.45 310.91, 527.24 309.64 C 529.04 308.36, 530.02 307.56, 531.84 306.01 C 533.66 304.45, 534.65 303.54, 536.35 301.88 C 538.06 300.21, 538.94 299.29, 540.37 297.69 C 541.80 296.08, 542.48 295.25, 543.50 293.85 C 544.51 292.45, 544.95 291.78, 545.46 290.69 C 545.97 289.60, 546.10 289.10, 546.06 288.40 C 546.02 287.69, 545.81 287.39, 545.24 287.16 C 544.67 286.93, 544.19 286.89, 543.20 287.24 C 542.22 287.58, 541.56 287.94, 540.31 288.89 C 539.06 289.83, 538.32 290.53, 536.94 291.96 C 535.57 293.40, 534.77 294.32, 533.44 296.06 C 532.11 297.81, 531.37 298.84, 530.30 300.68 C 529.23 302.53, 528.72 303.55, 528.08 305.28 C 527.45 307.01, 527.20 307.89, 527.12 309.34 C 527.05 310.79, 527.16 311.48, 527.70 312.53 C 528.24 313.59, 528.72 314.02, 529.83 314.61 C 530.95 315.20, 531.71 315.36, 533.28 315.47 C 534.84 315.58, 535.96 315.42, 537.64 315.16 C 539.31 314.90, 540.28 314.60, 541.63 314.17 C 542.97 313.75, 543.84 313.36, 544.36 313.04 C 544.88 312.71, 544.83 312.57, 544.23 312.55 C 543.62 312.54, 542.71 312.76, 541.34 312.98 C 539.98 313.19, 539.01 313.41, 537.41 313.63 C 535.81 313.85, 534.75 314.08, 533.33 314.08 C 531.90 314.08, 531.25 314.04, 530.29 313.64 C 529.33 313.25, 528.96 312.95, 528.54 312.10 C 528.13 311.26, 528.07 310.70, 528.21 309.43 C 528.35 308.15, 528.60 307.34, 529.26 305.73 C 529.92 304.13, 530.42 303.15, 531.49 301.39 C 532.56 299.64, 533.30 298.64, 534.61 296.97 C 535.93 295.30, 536.73 294.41, 538.06 293.04 C 539.39 291.67, 540.14 291.04, 541.27 290.10 C 542.40 289.16, 542.95 288.81, 543.72 288.35 C 544.48 287.88, 544.75 287.77, 545.08 287.77 C 545.41 287.78, 545.46 287.88, 545.35 288.36 C 545.24 288.84, 545.09 289.24, 544.53 290.19 C 543.96 291.14, 543.55 291.79, 542.53 293.12 C 541.50 294.44, 540.83 295.26, 539.40 296.81 C 537.98 298.37, 537.10 299.27, 535.40 300.89 C 533.70 302.51, 532.72 303.41, 530.92 304.92 C 529.12 306.43, 528.14 307.21, 526.40 308.44 C 524.65 309.67, 523.73 310.23, 522.19 311.06 C 520.64 311.90, 519.87 312.22, 518.66 312.60 C 517.46 312.99, 516.94 313.08, 516.16 312.98 C 515.38 312.89, 515.10 312.73, 514.77 312.14 C 514.44 311.55, 514.37 311.11, 514.50 310.03 C 514.64 308.95, 514.84 308.23, 515.44 306.74 C 516.05 305.25, 516.50 304.32, 517.52 302.60 C 518.54 300.87, 519.24 299.85, 520.54 298.11 C 521.84 296.37, 522.65 295.41, 524.02 293.87 C 525.40 292.34, 526.20 291.59, 527.43 290.45 C 528.67 289.32, 529.29 288.87, 530.19 288.21 C 531.09 287.55, 531.45 287.36, 531.94 287.16 C 532.43 286.95, 532.57 286.95, 532.64 287.20 C 532.71 287.45, 532.65 287.68, 532.30 288.40 C 531.94 289.12, 531.66 289.64, 530.86 290.79 C 530.05 291.93, 529.51 292.68, 528.28 294.13 C 527.06 295.58, 526.28 296.43, 524.74 298.04 C 523.20 299.66, 522.28 300.57, 520.57 302.19 C 518.86 303.81, 517.91 304.69, 516.19 306.16 C 514.47 307.63, 513.55 308.37, 511.96 309.54 C 510.38 310.71, 509.58 311.23, 508.27 312.02 C 506.96 312.81, 506.35 313.10, 505.41 313.48 C 504.47 313.86, 504.10 313.94, 503.58 313.93 C 503.05 313.91, 502.91 313.81, 502.79 313.42 C 502.67 313.03, 502.74 312.70, 502.96 311.98 C 503.18 311.25, 503.45 310.72, 503.90 309.79 C 504.35 308.86, 504.77 308.25, 505.23 307.33 C 505.69 306.41, 505.98 305.87, 506.19 305.20 C 506.39 304.53, 506.45 304.18, 506.26 303.99 C 506.08 303.79, 505.85 303.84, 505.25 304.20 C 504.64 304.57, 504.19 305.02, 503.23 305.81 C 502.28 306.60, 501.66 307.20, 500.47 308.16 C 499.28 309.13, 498.56 309.73, 497.28 310.64 C 496.00 311.55, 495.26 312.02, 494.07 312.71 C 492.88 313.41, 492.25 313.71, 491.31 314.13 C 490.36 314.55, 489.95 314.70, 489.34 314.80 C 488.74 314.89, 488.51 314.88, 488.28 314.61 C 488.05 314.35, 488.02 314.11, 488.19 313.47 C 488.37 312.83, 488.58 312.35, 489.16 311.40 C 489.75 310.46, 490.19 309.82, 491.12 308.73 C 492.05 307.64, 492.68 306.98, 493.80 305.97 C 494.93 304.96, 495.62 304.42, 496.75 303.67 C 497.88 302.92, 498.49 302.61, 499.46 302.20 C 500.43 301.80, 500.87 301.73, 501.59 301.65 C 502.30 301.58, 502.59 301.66, 503.04 301.81 C 503.49 301.96, 503.64 302.11, 503.86 302.39 C 504.07 302.67, 504.07 302.84, 504.10 303.22 C 504.13 303.60, 504.04 303.87, 504.01 304.29 C 503.98 304.70, 503.94 304.95, 503.95 305.31 C 503.95 305.68, 503.91 305.92, 504.04 306.11 C 504.16 306.31, 504.34 306.39, 504.57 306.29" style="stroke: white; fill: white;"/><path d="M 575.15,304.86 C 574.98 304.93, 574.91 304.97, 574.73 305.29 C 574.54 305.61, 574.38 305.86, 574.21 306.46 C 574.05 307.07, 573.96 307.51, 573.90 308.31 C 573.84 309.11, 573.81 309.64, 573.92 310.45 C 574.04 311.27, 574.10 311.73, 574.47 312.39 C 574.84 313.05, 575.10 313.39, 575.75 313.76 C 576.41 314.13, 576.84 314.25, 577.76 314.25 C 578.69 314.25, 579.25 314.14, 580.38 313.75 C 581.51 313.37, 582.17 313.03, 583.41 312.33 C 584.65 311.63, 585.35 311.13, 586.59 310.25 C 587.83 309.36, 588.52 308.81, 589.60 307.92 C 590.69 307.02, 591.30 306.49, 592.03 305.78 C 592.76 305.07, 593.04 304.66, 593.25 304.36 C 593.45 304.06, 593.35 303.98, 593.05 304.27 C 592.74 304.55, 592.41 304.85, 591.73 305.77 C 591.05 306.70, 590.57 307.41, 589.63 308.88 C 588.70 310.36, 588.14 311.33, 587.05 313.15 C 585.95 314.97, 585.33 316.01, 584.17 317.99 C 583.01 319.97, 582.39 321.07, 581.26 323.05 C 580.12 325.04, 579.54 326.10, 578.51 327.92 C 577.49 329.75, 576.98 330.67, 576.13 332.19 C 575.27 333.71, 574.86 334.41, 574.23 335.50 C 573.60 336.60, 573.31 337.04, 572.97 337.65 C 572.62 338.26, 572.54 338.45, 572.51 338.55 C 572.49 338.66, 572.61 338.58, 572.84 338.17 C 573.08 337.76, 573.26 337.39, 573.70 336.49 C 574.14 335.59, 574.38 334.93, 575.06 333.66 C 575.74 332.38, 576.13 331.58, 577.10 330.10 C 578.08 328.62, 578.67 327.80, 579.93 326.26 C 581.18 324.72, 581.91 323.91, 583.39 322.40 C 584.86 320.90, 585.68 320.14, 587.30 318.73 C 588.92 317.33, 589.81 316.65, 591.49 315.40 C 593.17 314.14, 594.06 313.54, 595.69 312.44 C 597.32 311.35, 598.15 310.84, 599.64 309.94 C 601.13 309.04, 601.87 308.64, 603.14 307.95 C 604.40 307.25, 605.00 306.96, 605.95 306.47 C 606.90 305.98, 607.32 305.81, 607.91 305.48 C 608.49 305.15, 608.69 305.04, 608.88 304.82 C 609.06 304.61, 609.02 304.49, 608.84 304.38 C 608.65 304.28, 608.42 304.20, 607.96 304.31 C 607.50 304.42, 607.17 304.55, 606.55 304.94 C 605.93 305.33, 605.56 305.63, 604.84 306.26 C 604.13 306.88, 603.69 307.27, 602.96 308.05 C 602.23 308.83, 601.80 309.30, 601.19 310.17 C 600.58 311.03, 600.27 311.53, 599.91 312.38 C 599.55 313.22, 599.42 313.67, 599.40 314.40 C 599.38 315.13, 599.48 315.51, 599.83 316.03 C 600.17 316.55, 600.48 316.78, 601.13 317.00 C 601.78 317.22, 602.22 317.25, 603.07 317.14 C 603.91 317.02, 604.42 316.85, 605.34 316.42 C 606.26 315.99, 606.77 315.65, 607.66 314.99 C 608.56 314.32, 609.05 313.89, 609.81 313.09 C 610.57 312.28, 610.95 311.81, 611.46 310.96 C 611.98 310.11, 612.17 309.64, 612.39 308.85 C 612.61 308.06, 612.61 307.65, 612.56 306.99 C 612.51 306.34, 612.36 306.04, 612.12 305.60 C 611.87 305.15, 611.66 304.94, 611.35 304.78 C 611.04 304.62, 610.76 304.65, 610.58 304.79 C 610.40 304.93, 610.30 305.20, 610.45 305.47 C 610.60 305.74, 610.78 305.95, 611.32 306.14 C 611.85 306.33, 612.25 306.40, 613.11 306.44 C 613.97 306.47, 614.52 306.42, 615.62 306.32 C 616.71 306.23, 617.36 306.14, 618.58 305.95 C 619.80 305.77, 620.50 305.62, 621.71 305.40 C 622.92 305.18, 623.59 305.04, 624.61 304.85 C 625.63 304.66, 626.19 304.54, 626.83 304.45 C 627.46 304.37, 627.67 304.30, 627.78 304.44 C 627.90 304.58, 627.74 304.71, 627.39 305.16 C 627.04 305.61, 626.66 305.95, 626.04 306.69 C 625.42 307.43, 624.94 307.97, 624.28 308.86 C 623.61 309.75, 623.20 310.29, 622.72 311.14 C 622.25 312.00, 622.02 312.44, 621.90 313.13 C 621.79 313.82, 621.83 314.17, 622.13 314.60 C 622.44 315.03, 622.74 315.21, 623.43 315.29 C 624.12 315.38, 624.60 315.31, 625.58 315.02 C 626.56 314.73, 627.16 314.44, 628.33 313.83 C 629.50 313.23, 630.18 312.78, 631.42 312.00 C 632.66 311.21, 633.37 310.72, 634.53 309.91 C 635.69 309.09, 636.39 308.60, 637.22 307.92 C 638.05 307.25, 638.38 306.88, 638.69 306.55 C 639.00 306.22, 638.94 306.15, 638.76 306.27 C 638.57 306.39, 638.25 306.59, 637.75 307.15 C 637.26 307.71, 636.79 308.21, 636.29 309.06 C 635.80 309.91, 635.54 310.52, 635.29 311.40 C 635.03 312.28, 634.94 312.76, 635.04 313.45 C 635.13 314.14, 635.28 314.47, 635.78 314.86 C 636.28 315.25, 636.67 315.39, 637.53 315.41 C 638.40 315.43, 638.98 315.31, 640.11 314.95 C 641.25 314.59, 641.92 314.25, 643.22 313.61 C 644.52 312.97, 645.26 312.52, 646.60 311.75 C 647.93 310.98, 648.70 310.51, 649.90 309.77 C 651.10 309.03, 651.77 308.59, 652.62 308.06 C 653.47 307.54, 653.81 307.30, 654.14 307.14 C 654.47 306.98, 654.44 307.02, 654.28 307.28 C 654.12 307.54, 653.83 307.82, 653.36 308.43 C 652.90 309.04, 652.49 309.53, 651.94 310.32 C 651.40 311.11, 651.00 311.66, 650.65 312.38 C 650.30 313.10, 650.16 313.52, 650.19 313.92 C 650.23 314.31, 650.39 314.44, 650.82 314.36 C 651.25 314.28, 651.61 314.06, 652.34 313.52 C 653.08 312.97, 653.57 312.47, 654.51 311.63 C 655.44 310.79, 656.00 310.19, 657.02 309.31 C 658.05 308.43, 658.62 307.95, 659.63 307.22 C 660.65 306.50, 661.18 306.16, 662.10 305.68 C 663.02 305.20, 663.45 305.05, 664.24 304.82 C 665.03 304.59, 665.33 304.63, 666.04 304.55 C 666.74 304.46, 667.41 304.54, 667.76 304.40 C 668.11 304.26, 668.14 304.02, 667.79 303.84 C 667.43 303.67, 666.76 303.53, 665.99 303.51 C 665.22 303.49, 664.84 303.53, 663.96 303.75 C 663.07 303.96, 662.58 304.12, 661.56 304.59 C 660.55 305.06, 659.98 305.40, 658.88 306.10 C 657.78 306.81, 657.17 307.28, 656.06 308.12 C 654.95 308.97, 654.28 309.47, 653.33 310.33 C 652.38 311.19, 651.89 311.72, 651.31 312.42 C 650.73 313.13, 650.54 313.49, 650.42 313.84 C 650.30 314.19, 650.39 314.29, 650.69 314.18 C 651.00 314.06, 651.37 313.83, 651.92 313.26 C 652.47 312.69, 652.91 312.16, 653.45 311.32 C 653.99 310.49, 654.32 309.90, 654.61 309.10 C 654.90 308.30, 655.02 307.84, 654.91 307.32 C 654.81 306.80, 654.65 306.57, 654.08 306.50 C 653.51 306.43, 653.04 306.57, 652.06 306.98 C 651.08 307.39, 650.42 307.85, 649.18 308.55 C 647.95 309.25, 647.20 309.73, 645.87 310.47 C 644.54 311.21, 643.80 311.63, 642.55 312.24 C 641.30 312.86, 640.64 313.14, 639.62 313.54 C 638.60 313.93, 638.12 314.08, 637.45 314.21 C 636.77 314.34, 636.53 314.34, 636.24 314.19 C 635.96 314.04, 635.93 313.88, 636.02 313.43 C 636.10 312.99, 636.29 312.64, 636.66 311.95 C 637.03 311.25, 637.42 310.79, 637.88 309.97 C 638.34 309.15, 638.69 308.58, 638.95 307.85 C 639.21 307.12, 639.30 306.72, 639.18 306.33 C 639.07 305.94, 638.91 305.82, 638.37 305.92 C 637.83 306.02, 637.39 306.29, 636.46 306.84 C 635.53 307.40, 634.88 307.93, 633.71 308.71 C 632.54 309.48, 631.84 309.97, 630.62 310.72 C 629.40 311.47, 628.71 311.87, 627.61 312.45 C 626.50 313.04, 625.93 313.29, 625.09 313.65 C 624.25 314.01, 623.89 314.14, 623.40 314.25 C 622.92 314.37, 622.78 314.39, 622.67 314.22 C 622.56 314.06, 622.62 313.89, 622.86 313.43 C 623.10 312.97, 623.35 312.61, 623.89 311.90 C 624.43 311.19, 624.89 310.72, 625.57 309.86 C 626.26 309.01, 626.76 308.49, 627.31 307.64 C 627.87 306.79, 628.17 306.32, 628.35 305.61 C 628.54 304.90, 628.56 304.54, 628.26 304.10 C 627.96 303.66, 627.62 303.53, 626.85 303.42 C 626.08 303.30, 625.49 303.40, 624.42 303.52 C 623.34 303.63, 622.68 303.80, 621.47 304.00 C 620.26 304.19, 619.57 304.33, 618.37 304.48 C 617.18 304.64, 616.54 304.71, 615.50 304.78 C 614.46 304.84, 613.93 304.82, 613.15 304.81 C 612.37 304.80, 612.07 304.73, 611.60 304.73 C 611.13 304.72, 611.02 304.70, 610.81 304.79 C 610.60 304.87, 610.56 304.99, 610.55 305.15 C 610.53 305.30, 610.60 305.37, 610.73 305.56 C 610.86 305.74, 611.04 305.78, 611.20 306.09 C 611.35 306.39, 611.48 306.58, 611.49 307.06 C 611.51 307.55, 611.50 307.87, 611.28 308.51 C 611.06 309.15, 610.88 309.55, 610.39 310.27 C 609.89 310.99, 609.54 311.41, 608.82 312.12 C 608.10 312.83, 607.63 313.22, 606.80 313.82 C 605.98 314.41, 605.50 314.71, 604.70 315.11 C 603.91 315.51, 603.47 315.64, 602.81 315.81 C 602.15 315.98, 601.84 316.01, 601.40 315.96 C 600.95 315.90, 600.77 315.82, 600.58 315.53 C 600.39 315.23, 600.35 315.01, 600.45 314.49 C 600.54 313.97, 600.68 313.61, 601.05 312.92 C 601.43 312.22, 601.72 311.77, 602.32 311.00 C 602.91 310.24, 603.32 309.80, 604.03 309.09 C 604.74 308.37, 605.16 308.01, 605.85 307.45 C 606.53 306.89, 606.92 306.69, 607.47 306.28 C 608.02 305.88, 608.27 305.73, 608.58 305.40 C 608.89 305.08, 608.99 304.88, 609.00 304.66 C 609.02 304.44, 608.97 304.32, 608.66 304.30 C 608.36 304.28, 608.13 304.33, 607.49 304.56 C 606.85 304.80, 606.43 304.99, 605.45 305.46 C 604.46 305.92, 603.85 306.21, 602.57 306.89 C 601.28 307.57, 600.52 307.97, 599.00 308.87 C 597.49 309.77, 596.64 310.28, 594.98 311.38 C 593.32 312.48, 592.42 313.08, 590.71 314.35 C 589.00 315.62, 588.09 316.31, 586.44 317.73 C 584.78 319.15, 583.94 319.92, 582.42 321.45 C 580.90 322.97, 580.15 323.80, 578.84 325.37 C 577.53 326.93, 576.91 327.77, 575.87 329.27 C 574.83 330.78, 574.36 331.57, 573.65 332.90 C 572.94 334.24, 572.64 334.91, 572.31 335.93 C 571.98 336.95, 571.95 337.43, 572.00 338.01 C 572.05 338.59, 572.23 338.81, 572.57 338.84 C 572.90 338.88, 573.15 338.73, 573.68 338.19 C 574.21 337.64, 574.49 337.18, 575.20 336.10 C 575.90 335.02, 576.30 334.31, 577.19 332.81 C 578.08 331.30, 578.60 330.38, 579.65 328.57 C 580.69 326.75, 581.28 325.70, 582.43 323.73 C 583.58 321.76, 584.21 320.68, 585.39 318.72 C 586.58 316.76, 587.22 315.74, 588.35 313.95 C 589.48 312.17, 590.13 311.26, 591.05 309.77 C 591.97 308.29, 592.44 307.57, 592.95 306.51 C 593.46 305.45, 593.62 305.01, 593.62 304.49 C 593.63 303.96, 593.46 303.81, 592.98 303.87 C 592.50 303.94, 592.08 304.21, 591.22 304.80 C 590.37 305.39, 589.82 305.96, 588.72 306.81 C 587.63 307.66, 586.96 308.21, 585.75 309.05 C 584.54 309.89, 583.85 310.36, 582.67 311.04 C 581.50 311.71, 580.89 312.02, 579.89 312.41 C 578.90 312.81, 578.42 312.93, 577.70 313.02 C 576.97 313.10, 576.69 313.06, 576.25 312.84 C 575.82 312.61, 575.69 312.40, 575.51 311.90 C 575.33 311.40, 575.35 311.04, 575.36 310.35 C 575.37 309.67, 575.47 309.19, 575.56 308.47 C 575.65 307.75, 575.74 307.34, 575.79 306.75 C 575.84 306.16, 575.85 305.88, 575.80 305.52 C 575.76 305.15, 575.71 305.07, 575.58 304.94 C 575.45 304.81, 575.32 304.79, 575.15 304.86" style="stroke: white; fill: white;"/><path d="M 699.28,303.66 C 699.10 303.73, 699.06 303.77, 698.80 304.12 C 698.54 304.46, 698.37 304.69, 697.97 305.39 C 697.57 306.09, 697.32 306.62, 696.81 307.63 C 696.30 308.64, 695.96 309.31, 695.41 310.44 C 694.86 311.56, 694.48 312.21, 694.06 313.26 C 693.64 314.30, 693.40 314.84, 693.29 315.65 C 693.19 316.47, 693.21 316.86, 693.51 317.33 C 693.82 317.80, 694.12 317.97, 694.82 318.01 C 695.51 318.05, 696.00 317.93, 696.98 317.53 C 697.96 317.13, 698.56 316.75, 699.71 316.01 C 700.87 315.27, 701.55 314.74, 702.77 313.83 C 703.99 312.92, 704.75 312.30, 705.81 311.45 C 706.87 310.61, 707.43 310.11, 708.08 309.58 C 708.72 309.05, 708.89 308.87, 709.03 308.80 C 709.17 308.74, 709.03 308.86, 708.76 309.27 C 708.50 309.68, 708.12 310.09, 707.71 310.86 C 707.31 311.63, 707.00 312.24, 706.74 313.14 C 706.47 314.03, 706.38 314.57, 706.40 315.33 C 706.41 316.10, 706.47 316.47, 706.82 316.96 C 707.16 317.46, 707.44 317.68, 708.11 317.80 C 708.77 317.93, 709.22 317.89, 710.13 317.60 C 711.03 317.31, 711.59 317.02, 712.62 316.37 C 713.66 315.72, 714.26 315.25, 715.29 314.37 C 716.33 313.49, 716.89 312.92, 717.79 311.96 C 718.69 311.00, 719.15 310.46, 719.80 309.59 C 720.45 308.71, 720.71 308.27, 721.04 307.57 C 721.37 306.86, 721.42 306.56, 721.45 306.07 C 721.48 305.58, 721.39 305.37, 721.20 305.13 C 721.02 304.89, 720.76 304.80, 720.54 304.87 C 720.32 304.93, 720.09 305.18, 720.10 305.48 C 720.10 305.77, 720.20 306.05, 720.56 306.33 C 720.92 306.61, 721.21 306.74, 721.88 306.88 C 722.56 307.01, 723.00 307.03, 723.93 307.00 C 724.85 306.97, 725.42 306.90, 726.51 306.73 C 727.60 306.57, 728.25 306.41, 729.38 306.18 C 730.51 305.95, 731.15 305.79, 732.16 305.58 C 733.17 305.36, 733.73 305.20, 734.43 305.09 C 735.13 304.98, 735.40 304.90, 735.65 305.01 C 735.89 305.12, 735.84 305.23, 735.65 305.66 C 735.47 306.09, 735.20 306.41, 734.71 307.17 C 734.23 307.92, 733.83 308.47, 733.23 309.44 C 732.63 310.41, 732.25 311.03, 731.72 312.02 C 731.20 313.00, 730.90 313.54, 730.62 314.38 C 730.34 315.21, 730.24 315.62, 730.32 316.21 C 730.39 316.80, 730.54 317.06, 731.00 317.33 C 731.45 317.59, 731.82 317.64, 732.59 317.52 C 733.37 317.39, 733.85 317.20, 734.88 316.71 C 735.90 316.21, 736.50 315.82, 737.72 315.07 C 738.94 314.31, 739.63 313.82, 740.98 312.93 C 742.34 312.04, 743.10 311.51, 744.49 310.62 C 745.88 309.73, 746.62 309.24, 747.94 308.47 C 749.25 307.69, 749.92 307.30, 751.05 306.74 C 752.17 306.17, 752.71 305.94, 753.56 305.64 C 754.41 305.35, 754.76 305.28, 755.29 305.26 C 755.82 305.24, 755.98 305.31, 756.21 305.54 C 756.44 305.77, 756.44 305.95, 756.44 306.41 C 756.43 306.86, 756.36 307.16, 756.19 307.80 C 756.01 308.43, 755.88 308.83, 755.55 309.59 C 755.22 310.34, 755.00 310.78, 754.53 311.57 C 754.06 312.36, 753.76 312.79, 753.19 313.52 C 752.63 314.26, 752.30 314.64, 751.70 315.25 C 751.10 315.86, 750.75 316.13, 750.17 316.56 C 749.59 317.00, 749.29 317.17, 748.80 317.42 C 748.32 317.67, 748.09 317.73, 747.75 317.81 C 747.42 317.89, 747.29 317.86, 747.14 317.83 C 747.00 317.79, 746.98 317.76, 747.03 317.62 C 747.07 317.48, 747.12 317.40, 747.37 317.12 C 747.61 316.83, 747.76 316.63, 748.25 316.19 C 748.74 315.75, 749.05 315.49, 749.82 314.93 C 750.59 314.37, 751.07 314.06, 752.11 313.39 C 753.16 312.72, 753.77 312.36, 755.04 311.58 C 756.31 310.81, 757.03 310.40, 758.47 309.52 C 759.91 308.64, 760.70 308.16, 762.25 307.19 C 763.79 306.22, 764.62 305.70, 766.18 304.65 C 767.74 303.59, 768.54 303.03, 770.03 301.93 C 771.51 300.84, 772.28 300.26, 773.60 299.18 C 774.93 298.10, 775.59 297.54, 776.64 296.53 C 777.70 295.52, 778.17 295.00, 778.86 294.14 C 779.55 293.28, 779.84 292.88, 780.09 292.23 C 780.35 291.58, 780.35 291.26, 780.15 290.89 C 779.94 290.52, 779.66 290.34, 779.07 290.37 C 778.49 290.41, 778.06 290.53, 777.22 291.05 C 776.38 291.58, 775.88 292.01, 774.88 292.98 C 773.88 293.96, 773.31 294.61, 772.23 295.92 C 771.14 297.23, 770.53 298.03, 769.46 299.54 C 768.39 301.04, 767.82 301.91, 766.87 303.44 C 765.92 304.97, 765.45 305.80, 764.72 307.20 C 763.99 308.60, 763.65 309.30, 763.21 310.44 C 762.77 311.58, 762.59 312.10, 762.52 312.91 C 762.45 313.72, 762.53 314.06, 762.88 314.48 C 763.22 314.91, 763.55 315.02, 764.25 315.03 C 764.95 315.04, 765.42 314.90, 766.39 314.52 C 767.35 314.14, 767.95 313.77, 769.07 313.13 C 770.19 312.49, 770.91 312.00, 771.99 311.33 C 773.08 310.65, 773.69 310.25, 774.49 309.77 C 775.29 309.29, 775.62 309.08, 776.01 308.92 C 776.39 308.76, 776.43 308.76, 776.41 308.96 C 776.39 309.16, 776.15 309.40, 775.91 309.92 C 775.67 310.45, 775.40 310.87, 775.20 311.59 C 774.99 312.31, 774.88 312.78, 774.87 313.51 C 774.86 314.25, 774.86 314.66, 775.13 315.25 C 775.40 315.85, 775.61 316.15, 776.20 316.48 C 776.80 316.81, 777.21 316.92, 778.12 316.90 C 779.03 316.88, 779.59 316.75, 780.75 316.38 C 781.91 316.00, 782.61 315.69, 783.93 315.02 C 785.25 314.35, 786.01 313.89, 787.35 313.03 C 788.68 312.17, 789.41 311.63, 790.60 310.72 C 791.79 309.81, 792.40 309.32, 793.28 308.48 C 794.16 307.64, 794.57 307.22, 795.00 306.54 C 795.44 305.85, 795.54 305.52, 795.46 305.05 C 795.37 304.59, 795.14 304.33, 794.58 304.22 C 794.02 304.11, 793.52 304.16, 792.65 304.50 C 791.79 304.85, 791.22 305.21, 790.25 305.94 C 789.29 306.66, 788.72 307.20, 787.84 308.14 C 786.97 309.07, 786.47 309.65, 785.87 310.62 C 785.27 311.59, 785.00 312.13, 784.85 313.00 C 784.69 313.87, 784.75 314.31, 785.11 314.96 C 785.48 315.60, 785.82 315.90, 786.68 316.22 C 787.53 316.55, 788.14 316.62, 789.39 316.57 C 790.63 316.51, 791.41 316.35, 792.90 315.95 C 794.39 315.54, 795.24 315.21, 796.85 314.56 C 798.46 313.90, 799.35 313.46, 800.94 312.67 C 802.54 311.87, 803.38 311.39, 804.82 310.58 C 806.26 309.77, 806.99 309.32, 808.16 308.62 C 809.32 307.92, 809.86 307.58, 810.65 307.07 C 811.44 306.57, 811.73 306.37, 812.10 306.11 C 812.47 305.85, 812.51 305.77, 812.52 305.76 C 812.52 305.76, 812.34 305.81, 812.13 306.08 C 811.92 306.34, 811.71 306.57, 811.47 307.08 C 811.23 307.60, 811.13 307.97, 810.91 308.65 C 810.70 309.33, 810.61 309.74, 810.40 310.47 C 810.20 311.20, 810.11 311.62, 809.89 312.32 C 809.67 313.02, 809.58 313.37, 809.31 313.98 C 809.04 314.58, 808.91 314.87, 808.55 315.36 C 808.19 315.86, 807.98 316.07, 807.51 316.45 C 807.03 316.83, 806.74 316.98, 806.17 317.25 C 805.60 317.52, 805.27 317.64, 804.66 317.81 C 804.05 317.97, 803.70 318.00, 803.12 318.08 C 802.55 318.16, 802.20 318.16, 801.80 318.20 C 801.40 318.25, 801.29 318.32, 801.13 318.29 C 800.97 318.26, 801.10 318.09, 801.01 318.06 C 800.92 318.02, 800.74 317.96, 800.68 318.11 C 800.63 318.26, 800.52 318.56, 800.72 318.82 C 800.92 319.07, 801.19 319.26, 801.70 319.38 C 802.22 319.50, 802.61 319.48, 803.28 319.41 C 803.94 319.35, 804.33 319.28, 805.02 319.08 C 805.71 318.88, 806.09 318.74, 806.74 318.41 C 807.40 318.08, 807.73 317.87, 808.29 317.41 C 808.85 316.94, 809.10 316.66, 809.53 316.08 C 809.96 315.50, 810.12 315.17, 810.44 314.50 C 810.77 313.84, 810.89 313.47, 811.16 312.75 C 811.42 312.03, 811.53 311.62, 811.78 310.90 C 812.02 310.17, 812.16 309.80, 812.39 309.14 C 812.62 308.48, 812.78 308.15, 812.91 307.59 C 813.05 307.02, 813.10 306.73, 813.06 306.31 C 813.02 305.88, 812.97 305.66, 812.72 305.47 C 812.46 305.29, 812.31 305.25, 811.78 305.38 C 811.26 305.51, 810.95 305.68, 810.10 306.11 C 809.25 306.54, 808.71 306.88, 807.53 307.54 C 806.34 308.20, 805.62 308.64, 804.18 309.41 C 802.74 310.19, 801.90 310.65, 800.33 311.41 C 798.75 312.17, 797.87 312.59, 796.31 313.21 C 794.74 313.83, 793.91 314.12, 792.50 314.51 C 791.10 314.90, 790.38 315.02, 789.27 315.16 C 788.17 315.29, 787.67 315.28, 786.99 315.16 C 786.30 315.04, 786.07 314.92, 785.85 314.53 C 785.62 314.15, 785.63 313.89, 785.86 313.25 C 786.09 312.62, 786.37 312.19, 786.98 311.38 C 787.60 310.57, 788.08 310.03, 788.94 309.21 C 789.79 308.38, 790.38 307.92, 791.25 307.24 C 792.13 306.56, 792.64 306.24, 793.32 305.80 C 793.99 305.35, 794.30 305.16, 794.62 305.01 C 794.94 304.86, 795.01 304.88, 794.92 305.05 C 794.84 305.23, 794.70 305.41, 794.21 305.91 C 793.71 306.41, 793.32 306.80, 792.44 307.54 C 791.55 308.28, 790.95 308.76, 789.78 309.62 C 788.60 310.47, 787.87 310.98, 786.56 311.79 C 785.26 312.60, 784.51 313.03, 783.25 313.67 C 781.99 314.31, 781.31 314.59, 780.26 314.98 C 779.22 315.37, 778.73 315.50, 778.01 315.62 C 777.28 315.74, 777.02 315.72, 776.64 315.58 C 776.26 315.44, 776.18 315.29, 776.10 314.91 C 776.02 314.53, 776.11 314.24, 776.25 313.67 C 776.38 313.09, 776.58 312.71, 776.76 312.03 C 776.95 311.34, 777.12 310.88, 777.16 310.23 C 777.21 309.57, 777.23 309.17, 776.98 308.75 C 776.73 308.33, 776.52 308.17, 775.90 308.14 C 775.29 308.12, 774.86 308.24, 773.92 308.61 C 772.98 308.98, 772.35 309.37, 771.21 309.99 C 770.08 310.61, 769.34 311.07, 768.25 311.71 C 767.16 312.35, 766.59 312.72, 765.76 313.19 C 764.93 313.66, 764.58 313.88, 764.10 314.07 C 763.62 314.25, 763.49 314.32, 763.36 314.12 C 763.23 313.92, 763.25 313.71, 763.44 313.07 C 763.63 312.42, 763.81 311.95, 764.30 310.89 C 764.78 309.84, 765.11 309.16, 765.86 307.81 C 766.60 306.47, 767.07 305.66, 768.03 304.17 C 768.99 302.69, 769.56 301.84, 770.63 300.39 C 771.71 298.93, 772.32 298.15, 773.39 296.90 C 774.46 295.64, 775.05 295.04, 775.99 294.10 C 776.92 293.17, 777.40 292.79, 778.06 292.21 C 778.73 291.64, 778.99 291.45, 779.32 291.22 C 779.65 290.99, 779.72 290.96, 779.71 291.07 C 779.71 291.19, 779.64 291.34, 779.30 291.80 C 778.95 292.26, 778.69 292.63, 777.99 293.39 C 777.29 294.16, 776.83 294.66, 775.79 295.62 C 774.75 296.58, 774.10 297.13, 772.79 298.18 C 771.48 299.23, 770.72 299.80, 769.25 300.87 C 767.78 301.94, 766.98 302.50, 765.43 303.53 C 763.88 304.56, 763.05 305.07, 761.52 306.03 C 759.98 306.99, 759.19 307.46, 757.75 308.32 C 756.31 309.19, 755.58 309.59, 754.30 310.36 C 753.02 311.13, 752.40 311.49, 751.33 312.17 C 750.27 312.84, 749.77 313.15, 748.96 313.74 C 748.14 314.34, 747.78 314.60, 747.25 315.15 C 746.72 315.71, 746.52 315.99, 746.30 316.50 C 746.08 317.00, 746.07 317.28, 746.16 317.69 C 746.25 318.10, 746.41 318.32, 746.75 318.55 C 747.10 318.77, 747.37 318.84, 747.87 318.82 C 748.38 318.80, 748.68 318.71, 749.28 318.46 C 749.88 318.21, 750.22 318.02, 750.89 317.57 C 751.55 317.11, 751.93 316.83, 752.61 316.19 C 753.29 315.55, 753.64 315.14, 754.27 314.37 C 754.89 313.59, 755.21 313.15, 755.74 312.31 C 756.26 311.47, 756.52 311.01, 756.88 310.16 C 757.24 309.32, 757.41 308.87, 757.53 308.08 C 757.66 307.30, 757.67 306.88, 757.51 306.26 C 757.36 305.63, 757.20 305.32, 756.76 304.94 C 756.32 304.56, 756.03 304.42, 755.33 304.35 C 754.62 304.28, 754.20 304.33, 753.24 304.58 C 752.28 304.84, 751.71 305.08, 750.51 305.62 C 749.32 306.17, 748.63 306.56, 747.27 307.32 C 745.92 308.08, 745.16 308.56, 743.75 309.44 C 742.33 310.31, 741.55 310.83, 740.19 311.69 C 738.82 312.56, 738.12 313.03, 736.92 313.76 C 735.72 314.49, 735.11 314.83, 734.18 315.35 C 733.25 315.87, 732.84 316.09, 732.25 316.36 C 731.67 316.63, 731.49 316.73, 731.27 316.70 C 731.04 316.67, 731.04 316.59, 731.14 316.22 C 731.24 315.86, 731.38 315.56, 731.76 314.86 C 732.13 314.17, 732.44 313.67, 733.01 312.76 C 733.59 311.84, 734.02 311.27, 734.62 310.29 C 735.22 309.31, 735.62 308.75, 736.01 307.86 C 736.41 306.97, 736.58 306.51, 736.59 305.83 C 736.59 305.14, 736.50 304.82, 736.05 304.44 C 735.61 304.07, 735.21 303.99, 734.38 303.94 C 733.55 303.90, 732.96 304.05, 731.91 304.21 C 730.85 304.37, 730.22 304.54, 729.10 304.75 C 727.98 304.95, 727.34 305.09, 726.29 305.23 C 725.25 305.37, 724.71 305.42, 723.88 305.45 C 723.04 305.48, 722.66 305.42, 722.11 305.37 C 721.57 305.32, 721.41 305.22, 721.14 305.19 C 720.87 305.15, 720.87 305.16, 720.76 305.19 C 720.65 305.22, 720.62 305.28, 720.59 305.33 C 720.56 305.38, 720.63 305.31, 720.63 305.43 C 720.64 305.55, 720.73 305.60, 720.62 305.92 C 720.51 306.25, 720.46 306.48, 720.09 307.05 C 719.73 307.63, 719.46 308.01, 718.80 308.80 C 718.14 309.58, 717.68 310.09, 716.78 310.97 C 715.89 311.86, 715.32 312.39, 714.32 313.21 C 713.32 314.03, 712.73 314.45, 711.79 315.07 C 710.85 315.69, 710.34 315.96, 709.62 316.32 C 708.90 316.67, 708.60 316.79, 708.18 316.83 C 707.76 316.88, 707.64 316.82, 707.52 316.54 C 707.40 316.27, 707.44 316.03, 707.60 315.46 C 707.76 314.89, 707.99 314.49, 708.32 313.69 C 708.64 312.89, 708.96 312.33, 709.22 311.48 C 709.49 310.64, 709.65 310.09, 709.63 309.47 C 709.61 308.85, 709.53 308.55, 709.10 308.39 C 708.68 308.23, 708.34 308.27, 707.50 308.65 C 706.67 309.03, 706.06 309.50, 704.93 310.28 C 703.80 311.07, 703.07 311.69, 701.85 312.57 C 700.63 313.45, 699.95 313.95, 698.85 314.68 C 697.75 315.41, 697.18 315.76, 696.35 316.24 C 695.53 316.71, 695.17 316.92, 694.72 317.08 C 694.27 317.24, 694.16 317.26, 694.08 317.03 C 694.01 316.79, 694.10 316.55, 694.35 315.91 C 694.60 315.28, 694.84 314.79, 695.33 313.84 C 695.82 312.89, 696.21 312.25, 696.81 311.16 C 697.40 310.07, 697.79 309.41, 698.30 308.38 C 698.82 307.36, 699.08 306.82, 699.37 306.04 C 699.66 305.27, 699.70 304.96, 699.76 304.51 C 699.82 304.06, 699.78 303.97, 699.68 303.80 C 699.58 303.63, 699.45 303.60, 699.28 303.66" style="stroke: white; fill: white;"/><path d="M 854.19,305.14 C 854.14 304.92, 854.01 304.73, 853.66 304.52 C 853.31 304.30, 853.05 304.14, 852.43 304.06 C 851.82 303.98, 851.41 303.94, 850.57 304.11 C 849.73 304.28, 849.25 304.44, 848.22 304.92 C 847.19 305.39, 846.57 305.72, 845.42 306.48 C 844.26 307.24, 843.58 307.72, 842.46 308.72 C 841.33 309.71, 840.70 310.32, 839.80 311.43 C 838.89 312.54, 838.45 313.17, 837.93 314.26 C 837.42 315.34, 837.24 315.91, 837.22 316.85 C 837.21 317.79, 837.34 318.27, 837.86 318.94 C 838.39 319.62, 838.83 319.92, 839.84 320.23 C 840.86 320.53, 841.52 320.57, 842.93 320.48 C 844.33 320.38, 845.19 320.19, 846.88 319.73 C 848.57 319.28, 849.54 318.92, 851.38 318.18 C 853.21 317.45, 854.21 316.97, 856.04 316.07 C 857.87 315.18, 858.85 314.65, 860.52 313.72 C 862.18 312.80, 863.02 312.28, 864.36 311.45 C 865.71 310.61, 866.33 310.20, 867.24 309.53 C 868.15 308.86, 868.52 308.57, 868.92 308.11 C 869.33 307.65, 869.36 307.46, 869.27 307.23 C 869.19 307.00, 868.98 306.88, 868.48 306.96 C 867.98 307.04, 867.56 307.16, 866.79 307.62 C 866.03 308.08, 865.52 308.49, 864.64 309.28 C 863.76 310.06, 863.25 310.60, 862.40 311.56 C 861.55 312.52, 861.05 313.08, 860.39 314.06 C 859.74 315.05, 859.42 315.60, 859.12 316.49 C 858.82 317.38, 858.77 317.82, 858.89 318.51 C 859.00 319.20, 859.20 319.53, 859.71 319.94 C 860.21 320.35, 860.61 320.50, 861.40 320.58 C 862.19 320.65, 862.71 320.58, 863.65 320.30 C 864.59 320.03, 865.14 319.76, 866.10 319.20 C 867.07 318.64, 867.61 318.26, 868.48 317.50 C 869.36 316.74, 869.81 316.28, 870.47 315.41 C 871.14 314.54, 871.45 314.03, 871.81 313.15 C 872.18 312.26, 872.28 311.77, 872.31 310.97 C 872.34 310.17, 872.21 309.76, 871.96 309.13 C 871.71 308.50, 871.46 308.20, 871.05 307.81 C 870.65 307.42, 870.32 307.24, 869.94 307.17 C 869.56 307.09, 869.27 307.23, 869.14 307.42 C 869.01 307.62, 869.01 307.88, 869.29 308.13 C 869.57 308.39, 869.85 308.55, 870.55 308.69 C 871.24 308.84, 871.74 308.87, 872.78 308.88 C 873.81 308.89, 874.46 308.82, 875.71 308.73 C 876.97 308.64, 877.71 308.54, 879.04 308.41 C 880.38 308.27, 881.12 308.17, 882.39 308.06 C 883.65 307.95, 884.33 307.89, 885.37 307.86 C 886.41 307.82, 886.93 307.79, 887.58 307.88 C 888.22 307.98, 888.44 308.04, 888.59 308.33 C 888.73 308.62, 888.63 308.81, 888.31 309.34 C 887.99 309.88, 887.64 310.24, 886.98 311.01 C 886.32 311.77, 885.74 312.31, 885.00 313.16 C 884.26 314.01, 883.72 314.55, 883.25 315.27 C 882.79 315.99, 882.62 316.38, 882.66 316.76 C 882.70 317.15, 882.87 317.27, 883.44 317.19 C 884.01 317.10, 884.50 316.87, 885.50 316.34 C 886.51 315.80, 887.20 315.29, 888.45 314.50 C 889.70 313.72, 890.45 313.17, 891.76 312.40 C 893.07 311.63, 893.83 311.21, 894.99 310.65 C 896.16 310.09, 896.76 309.86, 897.59 309.59 C 898.41 309.33, 898.74 309.28, 899.12 309.32 C 899.50 309.36, 899.53 309.47, 899.50 309.81 C 899.46 310.15, 899.26 310.43, 898.93 311.03 C 898.59 311.63, 898.28 312.06, 897.83 312.80 C 897.38 313.53, 897.02 314.00, 896.68 314.71 C 896.33 315.43, 896.13 315.85, 896.10 316.37 C 896.08 316.89, 896.16 317.14, 896.55 317.31 C 896.93 317.48, 897.26 317.46, 898.02 317.23 C 898.78 316.99, 899.30 316.70, 900.35 316.11 C 901.40 315.53, 902.05 315.04, 903.25 314.31 C 904.45 313.58, 905.17 313.13, 906.35 312.47 C 907.53 311.80, 908.22 311.45, 909.17 310.99 C 910.11 310.54, 910.55 310.36, 911.08 310.20 C 911.60 310.05, 911.71 310.05, 911.80 310.21 C 911.89 310.38, 911.73 310.55, 911.51 311.02 C 911.28 311.49, 910.99 311.87, 910.67 312.57 C 910.34 313.28, 910.12 313.76, 909.90 314.55 C 909.69 315.34, 909.56 315.80, 909.61 316.51 C 909.65 317.22, 909.73 317.61, 910.12 318.09 C 910.52 318.58, 910.85 318.79, 911.60 318.96 C 912.34 319.12, 912.83 319.12, 913.86 318.94 C 914.89 318.75, 915.51 318.54, 916.75 318.04 C 917.98 317.54, 918.71 317.16, 920.03 316.43 C 921.35 315.70, 922.09 315.24, 923.35 314.40 C 924.61 313.56, 925.28 313.07, 926.32 312.23 C 927.37 311.40, 927.89 310.98, 928.58 310.24 C 929.27 309.49, 929.55 309.12, 929.79 308.50 C 930.03 307.88, 930.01 307.56, 929.77 307.15 C 929.53 306.74, 929.23 306.54, 928.58 306.46 C 927.94 306.38, 927.42 306.43, 926.53 306.75 C 925.63 307.07, 925.08 307.40, 924.12 308.07 C 923.16 308.74, 922.60 309.23, 921.72 310.10 C 920.85 310.98, 920.35 311.51, 919.74 312.46 C 919.12 313.41, 918.84 313.95, 918.63 314.84 C 918.43 315.74, 918.44 316.21, 918.72 316.93 C 919.01 317.65, 919.29 318.01, 920.05 318.44 C 920.81 318.88, 921.36 319.04, 922.52 319.11 C 923.69 319.19, 924.41 319.11, 925.86 318.82 C 927.32 318.54, 928.16 318.27, 929.80 317.69 C 931.44 317.11, 932.37 316.71, 934.05 315.94 C 935.74 315.16, 936.65 314.67, 938.22 313.84 C 939.80 313.00, 940.61 312.52, 941.94 311.76 C 943.27 311.01, 943.91 310.63, 944.88 310.06 C 945.86 309.49, 946.26 309.25, 946.81 308.91 C 947.36 308.58, 947.49 308.48, 947.63 308.40 C 947.76 308.33, 947.65 308.35, 947.49 308.55 C 947.33 308.75, 947.10 308.92, 946.83 309.38 C 946.56 309.84, 946.40 310.19, 946.12 310.84 C 945.83 311.50, 945.71 311.92, 945.41 312.65 C 945.12 313.39, 944.97 313.81, 944.65 314.53 C 944.33 315.26, 944.17 315.64, 943.81 316.29 C 943.45 316.94, 943.27 317.25, 942.85 317.79 C 942.42 318.33, 942.19 318.58, 941.69 318.99 C 941.19 319.41, 940.91 319.57, 940.35 319.86 C 939.79 320.14, 939.47 320.26, 938.89 320.42 C 938.32 320.59, 938.00 320.62, 937.47 320.68 C 936.95 320.74, 936.68 320.72, 936.26 320.72 C 935.85 320.72, 935.68 320.69, 935.40 320.70 C 935.12 320.70, 935.00 320.66, 934.86 320.73 C 934.72 320.80, 934.65 320.91, 934.71 321.07 C 934.77 321.23, 934.87 321.36, 935.15 321.53 C 935.44 321.70, 935.67 321.83, 936.16 321.92 C 936.65 322.00, 936.98 322.00, 937.60 321.94 C 938.21 321.89, 938.58 321.84, 939.25 321.65 C 939.91 321.46, 940.28 321.32, 940.93 320.98 C 941.58 320.64, 941.91 320.43, 942.48 319.94 C 943.06 319.46, 943.33 319.17, 943.82 318.57 C 944.31 317.96, 944.51 317.62, 944.92 316.93 C 945.34 316.24, 945.51 315.85, 945.88 315.11 C 946.25 314.37, 946.42 313.96, 946.76 313.24 C 947.10 312.51, 947.31 312.14, 947.59 311.47 C 947.87 310.80, 948.02 310.46, 948.15 309.89 C 948.27 309.32, 948.30 309.02, 948.20 308.63 C 948.11 308.24, 948.02 308.04, 947.67 307.93 C 947.31 307.82, 947.10 307.84, 946.43 308.06 C 945.76 308.28, 945.35 308.52, 944.33 309.03 C 943.30 309.55, 942.67 309.92, 941.32 310.64 C 939.98 311.36, 939.17 311.82, 937.59 312.62 C 936.02 313.42, 935.12 313.90, 933.47 314.64 C 931.81 315.37, 930.89 315.76, 929.31 316.31 C 927.73 316.86, 926.92 317.10, 925.57 317.39 C 924.21 317.68, 923.57 317.75, 922.56 317.77 C 921.55 317.79, 921.12 317.72, 920.53 317.48 C 919.93 317.25, 919.75 317.08, 919.58 316.61 C 919.42 316.14, 919.45 315.82, 919.70 315.15 C 919.95 314.47, 920.22 314.03, 920.83 313.23 C 921.44 312.44, 921.92 311.95, 922.75 311.17 C 923.59 310.40, 924.15 309.97, 925.02 309.36 C 925.90 308.75, 926.39 308.50, 927.12 308.12 C 927.84 307.75, 928.21 307.63, 928.64 307.50 C 929.07 307.36, 929.21 307.32, 929.29 307.44 C 929.36 307.56, 929.32 307.69, 929.02 308.09 C 928.71 308.48, 928.46 308.78, 927.76 309.40 C 927.06 310.02, 926.56 310.42, 925.52 311.19 C 924.48 311.95, 923.82 312.42, 922.57 313.21 C 921.33 314.00, 920.60 314.44, 919.32 315.13 C 918.03 315.81, 917.32 316.15, 916.17 316.64 C 915.01 317.13, 914.44 317.32, 913.55 317.56 C 912.67 317.80, 912.29 317.86, 911.74 317.85 C 911.20 317.85, 911.02 317.80, 910.82 317.54 C 910.63 317.28, 910.66 317.07, 910.77 316.57 C 910.88 316.07, 911.08 315.71, 911.35 315.03 C 911.63 314.35, 911.90 313.90, 912.15 313.15 C 912.40 312.40, 912.58 311.92, 912.60 311.26 C 912.63 310.61, 912.60 310.25, 912.27 309.86 C 911.94 309.47, 911.69 309.32, 910.97 309.31 C 910.25 309.30, 909.74 309.43, 908.68 309.81 C 907.62 310.18, 906.91 310.55, 905.66 311.17 C 904.41 311.79, 903.67 312.22, 902.44 312.92 C 901.20 313.62, 900.49 314.04, 899.49 314.67 C 898.50 315.30, 898.02 315.65, 897.45 316.08 C 896.87 316.51, 896.71 316.71, 896.60 316.83 C 896.49 316.95, 896.63 316.94, 896.90 316.68 C 897.18 316.41, 897.51 316.12, 897.97 315.51 C 898.44 314.90, 898.80 314.42, 899.24 313.62 C 899.69 312.83, 899.98 312.31, 900.19 311.53 C 900.40 310.74, 900.45 310.28, 900.28 309.69 C 900.11 309.11, 899.91 308.85, 899.32 308.61 C 898.73 308.38, 898.31 308.36, 897.33 308.52 C 896.36 308.68, 895.71 308.91, 894.45 309.42 C 893.19 309.93, 892.41 310.35, 891.03 311.07 C 889.64 311.79, 888.81 312.24, 887.53 313.03 C 886.26 313.82, 885.54 314.32, 884.64 315.01 C 883.75 315.71, 883.39 316.11, 883.07 316.49 C 882.75 316.87, 882.79 316.99, 883.03 316.93 C 883.27 316.87, 883.62 316.70, 884.27 316.17 C 884.91 315.64, 885.46 315.14, 886.25 314.29 C 887.04 313.45, 887.60 312.86, 888.22 311.95 C 888.83 311.04, 889.12 310.54, 889.33 309.75 C 889.53 308.96, 889.54 308.56, 889.25 307.99 C 888.95 307.42, 888.61 307.18, 887.84 306.90 C 887.06 306.62, 886.48 306.63, 885.37 306.58 C 884.26 306.54, 883.58 306.61, 882.29 306.69 C 880.99 306.76, 880.25 306.86, 878.91 306.96 C 877.58 307.06, 876.85 307.14, 875.62 307.20 C 874.40 307.26, 873.77 307.25, 872.79 307.25 C 871.80 307.25, 871.36 307.18, 870.71 307.18 C 870.06 307.19, 869.84 307.17, 869.54 307.26 C 869.23 307.35, 869.19 307.46, 869.18 307.63 C 869.17 307.81, 869.27 307.93, 869.49 308.13 C 869.70 308.33, 869.95 308.36, 870.24 308.64 C 870.54 308.93, 870.76 309.09, 870.95 309.54 C 871.14 309.99, 871.24 310.28, 871.19 310.91 C 871.14 311.53, 871.05 311.92, 870.70 312.65 C 870.35 313.39, 870.06 313.83, 869.44 314.59 C 868.81 315.35, 868.39 315.76, 867.58 316.43 C 866.76 317.10, 866.25 317.43, 865.37 317.93 C 864.50 318.44, 864.00 318.65, 863.21 318.94 C 862.41 319.22, 862.01 319.31, 861.42 319.36 C 860.82 319.42, 860.56 319.41, 860.23 319.22 C 859.90 319.03, 859.79 318.87, 859.78 318.42 C 859.78 317.96, 859.86 317.64, 860.20 316.92 C 860.55 316.21, 860.85 315.73, 861.51 314.86 C 862.17 313.99, 862.66 313.46, 863.51 312.59 C 864.36 311.72, 864.90 311.26, 865.75 310.52 C 866.59 309.78, 867.09 309.46, 867.72 308.90 C 868.35 308.35, 868.63 308.10, 868.91 307.76 C 869.19 307.42, 869.21 307.28, 869.11 307.22 C 869.01 307.16, 868.90 307.19, 868.40 307.47 C 867.90 307.74, 867.54 308.01, 866.61 308.59 C 865.67 309.17, 865.06 309.58, 863.71 310.37 C 862.37 311.16, 861.53 311.66, 859.87 312.55 C 858.22 313.44, 857.24 313.96, 855.43 314.81 C 853.63 315.67, 852.63 316.14, 850.84 316.84 C 849.05 317.53, 848.10 317.86, 846.49 318.31 C 844.88 318.76, 844.07 318.92, 842.79 319.07 C 841.52 319.23, 840.96 319.23, 840.12 319.09 C 839.28 318.95, 838.96 318.80, 838.58 318.36 C 838.20 317.92, 838.13 317.62, 838.22 316.91 C 838.31 316.20, 838.49 315.74, 839.01 314.82 C 839.54 313.90, 839.96 313.32, 840.84 312.32 C 841.72 311.32, 842.34 310.74, 843.42 309.82 C 844.50 308.90, 845.15 308.44, 846.24 307.72 C 847.32 307.01, 847.92 306.69, 848.84 306.24 C 849.77 305.80, 850.18 305.66, 850.87 305.49 C 851.57 305.33, 851.84 305.41, 852.32 305.42 C 852.80 305.43, 852.95 305.52, 853.27 305.56 C 853.59 305.59, 853.75 305.68, 853.93 305.60 C 854.12 305.52, 854.25 305.36, 854.19 305.14" style="stroke: white; fill: white;"/><path d="M 987.53,294.10 C 987.36 294.19, 987.32 294.25, 987.07 294.64 C 986.83 295.03, 986.70 295.26, 986.31 296.06 C 985.91 296.86, 985.70 297.40, 985.11 298.63 C 984.52 299.86, 984.16 300.64, 983.35 302.20 C 982.54 303.75, 982.02 304.68, 981.06 306.41 C 980.11 308.14, 979.54 309.12, 978.56 310.87 C 977.58 312.61, 977.02 313.54, 976.15 315.12 C 975.29 316.71, 974.85 317.51, 974.23 318.77 C 973.61 320.03, 973.33 320.61, 973.03 321.43 C 972.73 322.26, 972.77 322.51, 972.72 322.90 C 972.67 323.30, 972.75 323.31, 972.80 323.42 C 972.85 323.54, 972.89 323.53, 972.98 323.46 C 973.07 323.39, 973.05 323.40, 973.24 323.08 C 973.44 322.75, 973.54 322.60, 973.95 321.85 C 974.36 321.10, 974.64 320.55, 975.31 319.33 C 975.98 318.12, 976.41 317.33, 977.30 315.77 C 978.20 314.22, 978.76 313.29, 979.77 311.56 C 980.78 309.83, 981.36 308.86, 982.34 307.13 C 983.33 305.40, 983.87 304.48, 984.71 302.91 C 985.54 301.35, 985.94 300.57, 986.53 299.31 C 987.12 298.05, 987.36 297.49, 987.66 296.62 C 987.96 295.76, 987.97 295.45, 988.03 294.97 C 988.08 294.49, 988.05 294.40, 987.95 294.23 C 987.85 294.05, 987.71 294.02, 987.53 294.10" style="stroke: white; fill: white;"/><path d="M 972.73,312.68 C 972.87 312.84, 972.99 312.91, 973.44 312.99 C 973.90 313.08, 974.20 313.12, 975.00 313.12 C 975.80 313.11, 976.33 313.09, 977.43 312.97 C 978.54 312.85, 979.21 312.75, 980.52 312.51 C 981.82 312.28, 982.57 312.11, 983.96 311.80 C 985.35 311.49, 986.10 311.30, 987.47 310.98 C 988.84 310.66, 989.57 310.48, 990.80 310.21 C 992.03 309.93, 992.70 309.75, 993.62 309.60 C 994.53 309.45, 994.92 309.36, 995.36 309.46 C 995.79 309.56, 995.85 309.67, 995.79 310.09 C 995.72 310.51, 995.52 310.82, 995.04 311.58 C 994.56 312.33, 994.13 312.87, 993.39 313.85 C 992.65 314.84, 992.14 315.50, 991.35 316.49 C 990.57 317.47, 990.06 318.01, 989.48 318.78 C 988.90 319.54, 988.63 319.91, 988.44 320.32 C 988.26 320.72, 988.31 320.86, 988.56 320.82 C 988.82 320.77, 989.12 320.60, 989.71 320.10 C 990.29 319.61, 990.72 319.15, 991.49 318.34 C 992.26 317.53, 992.71 316.94, 993.57 316.07 C 994.43 315.19, 994.92 314.70, 995.78 313.97 C 996.63 313.25, 997.07 312.91, 997.82 312.43 C 998.58 311.94, 998.92 311.78, 999.54 311.56 C 1000.16 311.33, 1000.40 311.32, 1000.91 311.32 C 1001.43 311.31, 1001.61 311.41, 1002.10 311.53 C 1002.58 311.65, 1002.80 311.78, 1003.34 311.92 C 1003.87 312.05, 1004.16 312.15, 1004.79 312.22 C 1005.41 312.28, 1005.76 312.29, 1006.47 312.22 C 1007.18 312.16, 1007.57 312.07, 1008.32 311.88 C 1009.07 311.68, 1009.50 311.54, 1010.22 311.25 C 1010.94 310.96, 1011.41 310.72, 1011.91 310.41 C 1012.41 310.10, 1012.62 309.83, 1012.74 309.70 C 1012.86 309.56, 1012.77 309.51, 1012.51 309.75 C 1012.25 309.98, 1011.97 310.22, 1011.45 310.86 C 1010.92 311.50, 1010.50 312.03, 1009.90 312.96 C 1009.29 313.89, 1008.91 314.52, 1008.40 315.53 C 1007.90 316.54, 1007.62 317.09, 1007.36 318.00 C 1007.10 318.91, 1007.01 319.36, 1007.10 320.09 C 1007.19 320.82, 1007.34 321.18, 1007.81 321.64 C 1008.28 322.11, 1008.65 322.29, 1009.45 322.40 C 1010.25 322.52, 1010.75 322.46, 1011.80 322.21 C 1012.85 321.95, 1013.47 321.69, 1014.70 321.11 C 1015.92 320.53, 1016.62 320.11, 1017.94 319.31 C 1019.25 318.50, 1019.99 317.99, 1021.27 317.08 C 1022.56 316.17, 1023.26 315.62, 1024.34 314.76 C 1025.42 313.89, 1026.01 313.39, 1026.66 312.73 C 1027.32 312.07, 1027.52 311.73, 1027.61 311.46 C 1027.69 311.20, 1027.50 311.17, 1027.10 311.40 C 1026.70 311.63, 1026.26 311.91, 1025.62 312.60 C 1024.99 313.30, 1024.49 313.89, 1023.91 314.86 C 1023.33 315.83, 1023.04 316.48, 1022.74 317.45 C 1022.44 318.42, 1022.33 318.91, 1022.42 319.69 C 1022.50 320.47, 1022.64 320.86, 1023.16 321.37 C 1023.69 321.87, 1024.10 322.06, 1025.03 322.20 C 1025.97 322.33, 1026.58 322.29, 1027.84 322.05 C 1029.10 321.80, 1029.86 321.54, 1031.34 320.95 C 1032.82 320.37, 1033.67 319.93, 1035.23 319.11 C 1036.79 318.29, 1037.67 317.78, 1039.15 316.85 C 1040.63 315.92, 1041.42 315.37, 1042.64 314.45 C 1043.85 313.53, 1044.44 313.04, 1045.23 312.24 C 1046.02 311.44, 1046.33 311.06, 1046.57 310.45 C 1046.80 309.85, 1046.75 309.54, 1046.43 309.23 C 1046.10 308.93, 1045.70 308.81, 1044.94 308.94 C 1044.17 309.06, 1043.58 309.27, 1042.60 309.85 C 1041.61 310.43, 1040.99 310.91, 1040.02 311.83 C 1039.04 312.74, 1038.47 313.34, 1037.73 314.41 C 1037.00 315.48, 1036.63 316.11, 1036.34 317.17 C 1036.05 318.23, 1036.02 318.80, 1036.29 319.70 C 1036.57 320.60, 1036.87 321.05, 1037.71 321.68 C 1038.56 322.31, 1039.19 322.56, 1040.51 322.86 C 1041.83 323.17, 1042.68 323.21, 1044.32 323.20 C 1045.97 323.18, 1047.09 323.04, 1048.75 322.79 C 1050.40 322.54, 1051.33 322.30, 1052.60 321.94 C 1053.87 321.59, 1054.61 321.30, 1055.09 321.02 C 1055.57 320.74, 1055.53 320.61, 1054.99 320.57 C 1054.44 320.53, 1053.67 320.68, 1052.38 320.82 C 1051.09 320.96, 1050.17 321.11, 1048.56 321.28 C 1046.94 321.45, 1045.85 321.62, 1044.29 321.67 C 1042.73 321.72, 1041.96 321.71, 1040.76 321.53 C 1039.57 321.35, 1039.04 321.19, 1038.33 320.77 C 1037.62 320.35, 1037.40 320.08, 1037.23 319.43 C 1037.05 318.78, 1037.13 318.37, 1037.46 317.53 C 1037.79 316.70, 1038.15 316.16, 1038.88 315.25 C 1039.60 314.35, 1040.17 313.82, 1041.09 313.01 C 1042.01 312.20, 1042.63 311.80, 1043.47 311.21 C 1044.31 310.61, 1044.77 310.35, 1045.31 310.03 C 1045.85 309.71, 1046.06 309.59, 1046.18 309.60 C 1046.29 309.60, 1046.25 309.69, 1045.90 310.05 C 1045.56 310.41, 1045.25 310.72, 1044.44 311.39 C 1043.63 312.05, 1043.07 312.54, 1041.86 313.39 C 1040.65 314.24, 1039.87 314.77, 1038.41 315.66 C 1036.95 316.54, 1036.08 317.03, 1034.56 317.81 C 1033.03 318.59, 1032.19 319.00, 1030.78 319.56 C 1029.38 320.12, 1028.66 320.34, 1027.52 320.63 C 1026.39 320.92, 1025.87 320.99, 1025.12 321.01 C 1024.36 321.02, 1024.09 320.98, 1023.75 320.71 C 1023.41 320.44, 1023.36 320.22, 1023.42 319.67 C 1023.47 319.12, 1023.62 318.74, 1024.03 317.97 C 1024.43 317.20, 1024.87 316.71, 1025.45 315.82 C 1026.03 314.94, 1026.48 314.35, 1026.93 313.55 C 1027.38 312.75, 1027.60 312.29, 1027.70 311.81 C 1027.79 311.32, 1027.76 311.13, 1027.40 311.13 C 1027.05 311.13, 1026.71 311.32, 1025.93 311.82 C 1025.15 312.33, 1024.59 312.85, 1023.50 313.67 C 1022.40 314.49, 1021.72 315.03, 1020.45 315.91 C 1019.19 316.78, 1018.45 317.27, 1017.17 318.05 C 1015.89 318.82, 1015.20 319.21, 1014.05 319.77 C 1012.90 320.33, 1012.33 320.55, 1011.42 320.85 C 1010.51 321.15, 1010.12 321.23, 1009.52 321.26 C 1008.91 321.29, 1008.69 321.24, 1008.41 321.00 C 1008.12 320.76, 1008.05 320.56, 1008.08 320.04 C 1008.10 319.53, 1008.21 319.17, 1008.54 318.42 C 1008.87 317.66, 1009.16 317.17, 1009.72 316.27 C 1010.28 315.37, 1010.75 314.83, 1011.35 313.91 C 1011.96 313.00, 1012.36 312.47, 1012.74 311.69 C 1013.13 310.91, 1013.27 310.53, 1013.28 310.02 C 1013.29 309.51, 1013.16 309.31, 1012.78 309.13 C 1012.40 308.96, 1012.02 309.01, 1011.40 309.16 C 1010.78 309.31, 1010.36 309.61, 1009.67 309.89 C 1008.98 310.17, 1008.62 310.34, 1007.95 310.54 C 1007.28 310.74, 1006.93 310.81, 1006.32 310.89 C 1005.71 310.97, 1005.43 310.97, 1004.89 310.94 C 1004.34 310.90, 1004.11 310.83, 1003.60 310.73 C 1003.08 310.64, 1002.86 310.54, 1002.32 310.45 C 1001.78 310.37, 1001.52 310.28, 1000.90 310.29 C 1000.27 310.31, 999.94 310.32, 999.21 310.54 C 998.47 310.76, 998.07 310.92, 997.21 311.39 C 996.35 311.87, 995.87 312.20, 994.92 312.91 C 993.98 313.62, 993.43 314.08, 992.49 314.93 C 991.54 315.78, 990.97 316.29, 990.20 317.16 C 989.44 318.02, 989.06 318.55, 988.67 319.25 C 988.28 319.95, 988.19 320.32, 988.25 320.64 C 988.30 320.95, 988.48 321.02, 988.93 320.83 C 989.38 320.64, 989.76 320.36, 990.48 319.69 C 991.21 319.02, 991.71 318.46, 992.56 317.49 C 993.40 316.51, 993.98 315.87, 994.71 314.81 C 995.45 313.75, 995.86 313.13, 996.24 312.18 C 996.62 311.23, 996.72 310.74, 996.61 310.05 C 996.49 309.36, 996.28 309.05, 995.66 308.72 C 995.04 308.39, 994.53 308.37, 993.50 308.41 C 992.48 308.45, 991.79 308.66, 990.52 308.91 C 989.26 309.16, 988.54 309.35, 987.17 309.65 C 985.80 309.95, 985.05 310.13, 983.67 310.41 C 982.29 310.69, 981.55 310.84, 980.27 311.04 C 978.99 311.24, 978.34 311.29, 977.27 311.41 C 976.19 311.53, 975.67 311.52, 974.90 311.62 C 974.12 311.72, 973.84 311.80, 973.40 311.93 C 972.97 312.05, 972.86 312.07, 972.73 312.23 C 972.59 312.38, 972.58 312.53, 972.73 312.68" style="stroke: white; fill: white;"/><path d="M 1065.18,323.11 C 1064.99 323.23, 1064.86 323.27, 1064.68 323.72 C 1064.49 324.16, 1064.16 324.95, 1064.26 325.35 C 1064.37 325.75, 1064.84 325.97, 1065.20 325.72 C 1065.56 325.47, 1065.98 324.63, 1066.07 324.11 C 1066.16 323.59, 1065.81 323.33, 1065.63 323.13 C 1065.46 322.93, 1065.37 323.00, 1065.18 323.11" style="stroke: white; fill: white;"/></svg>