<svg xmlns="http://www.w3.org/2000/svg" id="canvas" viewBox="205.648 283.034 885.640 76.144"><path d="M 231.31,291.89 C 231.08 292.13, 231.02 292.38, 230.74 293.18 C 230.45 293.97, 230.31 294.46, 229.89 295.89 C 229.47 297.31, 229.25 298.28, 228.64 300.30 C 228.03 302.32, 227.67 303.53, 226.85 305.98 C 226.03 308.43, 225.51 309.84, 224.54 312.55 C 223.58 315.25, 223.02 316.76, 222.02 319.53 C 221.02 322.29, 220.46 323.76, 219.56 326.37 C 218.65 328.97, 218.20 330.31, 217.50 332.54 C 216.80 334.76, 216.47 335.83, 216.04 337.49 C 215.61 339.16, 215.50 339.89, 215.34 340.87 C 215.17 341.84, 215.17 342.04, 215.21 342.36 C 215.26 342.68, 215.35 342.71, 215.56 342.47 C 215.78 342.23, 215.90 342.05, 216.29 341.14 C 216.67 340.24, 216.93 339.54, 217.48 337.92 C 218.03 336.30, 218.31 335.24, 219.05 333.04 C 219.79 330.85, 220.26 329.52, 221.18 326.94 C 222.09 324.35, 222.62 322.87, 223.63 320.11 C 224.64 317.36, 225.23 315.87, 226.24 313.16 C 227.25 310.46, 227.81 309.07, 228.68 306.61 C 229.55 304.15, 229.97 302.94, 230.58 300.89 C 231.20 298.83, 231.45 297.84, 231.76 296.35 C 232.06 294.86, 232.06 294.31, 232.10 293.43 C 232.13 292.56, 232.08 292.29, 231.92 291.98 C 231.76 291.67, 231.55 291.66, 231.31 291.89" style="stroke: white; fill: white;"/><path d="M 208.88,292.56 C 209.12 292.70, 209.26 292.69, 209.94 292.68 C 210.62 292.67, 211.03 292.65, 212.28 292.52 C 213.52 292.38, 214.34 292.25, 216.16 291.99 C 217.98 291.74, 219.12 291.57, 221.39 291.24 C 223.67 290.90, 225.00 290.69, 227.56 290.32 C 230.12 289.96, 231.53 289.75, 234.20 289.41 C 236.87 289.07, 238.30 288.90, 240.89 288.62 C 243.49 288.35, 244.82 288.21, 247.16 288.02 C 249.49 287.83, 250.64 287.76, 252.57 287.67 C 254.49 287.58, 255.37 287.56, 256.78 287.55 C 258.18 287.55, 258.74 287.62, 259.60 287.64 C 260.47 287.67, 260.78 287.76, 261.10 287.69 C 261.42 287.61, 261.47 287.48, 261.20 287.26 C 260.93 287.05, 260.63 286.85, 259.75 286.62 C 258.88 286.38, 258.28 286.20, 256.83 286.10 C 255.38 285.99, 254.47 286.04, 252.51 286.09 C 250.55 286.15, 249.39 286.20, 247.03 286.37 C 244.68 286.53, 243.33 286.65, 240.72 286.90 C 238.11 287.15, 236.67 287.31, 233.98 287.63 C 231.30 287.94, 229.88 288.14, 227.30 288.47 C 224.73 288.81, 223.41 289.00, 221.13 289.30 C 218.84 289.60, 217.71 289.71, 215.87 289.97 C 214.04 290.24, 213.20 290.34, 211.96 290.62 C 210.72 290.89, 210.30 291.08, 209.66 291.36 C 209.01 291.64, 208.89 291.76, 208.73 292.00 C 208.58 292.24, 208.64 292.43, 208.88 292.56" style="stroke: white; fill: white;"/><path d="M 258.02,318.28 C 257.52 318.40, 256.99 318.66, 255.97 319.41 C 254.95 320.15, 254.19 320.71, 252.92 322.03 C 251.66 323.34, 250.84 324.33, 249.65 325.99 C 248.45 327.65, 247.83 328.65, 246.95 330.31 C 246.07 331.97, 245.64 332.87, 245.22 334.30 C 244.81 335.74, 244.69 336.46, 244.89 337.48 C 245.09 338.50, 245.41 338.95, 246.21 339.41 C 247.02 339.86, 247.66 339.96, 248.91 339.77 C 250.16 339.58, 250.97 339.28, 252.46 338.45 C 253.96 337.61, 254.83 336.96, 256.39 335.61 C 257.95 334.25, 258.83 333.36, 260.26 331.68 C 261.70 329.99, 262.46 328.98, 263.56 327.18 C 264.67 325.38, 265.20 324.38, 265.80 322.68 C 266.39 320.98, 266.58 320.10, 266.56 318.69 C 266.54 317.28, 266.33 316.60, 265.70 315.63 C 265.07 314.66, 264.49 314.26, 263.42 313.83 C 262.35 313.41, 261.59 313.37, 260.36 313.51 C 259.14 313.64, 258.38 313.92, 257.30 314.52 C 256.22 315.11, 255.62 315.60, 254.97 316.47 C 254.32 317.34, 254.07 317.95, 254.04 318.86 C 254.01 319.77, 254.17 320.31, 254.83 321.01 C 255.50 321.71, 256.05 322.02, 257.35 322.34 C 258.65 322.66, 259.53 322.69, 261.35 322.60 C 263.16 322.51, 264.28 322.30, 266.43 321.88 C 268.59 321.46, 269.82 321.11, 272.12 320.49 C 274.41 319.86, 275.67 319.44, 277.91 318.75 C 280.14 318.07, 281.30 317.68, 283.28 317.04 C 285.25 316.41, 286.28 316.06, 287.80 315.58 C 289.31 315.09, 289.91 314.92, 290.85 314.62 C 291.78 314.31, 292.03 314.24, 292.47 314.06 C 292.90 313.87, 292.91 313.81, 293.03 313.71 C 293.15 313.61, 293.05 313.61, 293.06 313.57 C 293.08 313.52, 293.11 313.55, 293.09 313.50 C 293.08 313.44, 293.16 313.37, 292.99 313.29 C 292.83 313.22, 292.76 313.11, 292.27 313.13 C 291.78 313.14, 291.50 313.18, 290.52 313.37 C 289.54 313.56, 288.91 313.68, 287.36 314.08 C 285.81 314.49, 284.77 314.82, 282.77 315.41 C 280.78 316.01, 279.62 316.39, 277.39 317.05 C 275.17 317.70, 273.91 318.09, 271.64 318.68 C 269.37 319.26, 268.14 319.57, 266.06 319.97 C 263.98 320.36, 262.90 320.52, 261.22 320.66 C 259.54 320.80, 258.76 320.79, 257.65 320.68 C 256.54 320.56, 256.15 320.43, 255.68 320.09 C 255.20 319.75, 255.17 319.49, 255.28 318.97 C 255.39 318.46, 255.63 318.09, 256.20 317.51 C 256.78 316.94, 257.27 316.56, 258.15 316.09 C 259.03 315.62, 259.64 315.37, 260.61 315.18 C 261.57 314.99, 262.15 314.94, 262.96 315.16 C 263.77 315.39, 264.21 315.60, 264.65 316.30 C 265.09 317.00, 265.25 317.50, 265.18 318.67 C 265.11 319.83, 264.92 320.60, 264.29 322.11 C 263.67 323.62, 263.16 324.57, 262.07 326.23 C 260.98 327.90, 260.23 328.87, 258.84 330.44 C 257.45 332.02, 256.58 332.86, 255.11 334.13 C 253.64 335.40, 252.80 335.97, 251.49 336.80 C 250.18 337.62, 249.52 337.92, 248.55 338.26 C 247.59 338.59, 247.17 338.66, 246.66 338.48 C 246.16 338.30, 246.01 338.09, 246.02 337.36 C 246.03 336.62, 246.19 336.03, 246.69 334.80 C 247.19 333.57, 247.61 332.72, 248.53 331.20 C 249.45 329.68, 250.11 328.77, 251.29 327.20 C 252.47 325.64, 253.28 324.72, 254.42 323.38 C 255.56 322.05, 256.19 321.45, 257.00 320.53 C 257.80 319.62, 258.24 319.25, 258.44 318.80 C 258.65 318.35, 258.51 318.16, 258.02 318.28" style="stroke: white; fill: white;"/><path d="M 334.13,291.56 C 333.89 291.68, 333.83 291.75, 333.49 292.34 C 333.15 292.93, 332.97 293.26, 332.42 294.50 C 331.87 295.73, 331.57 296.58, 330.75 298.51 C 329.93 300.43, 329.40 301.65, 328.31 304.10 C 327.23 306.55, 326.56 308.03, 325.32 310.75 C 324.08 313.46, 323.32 314.98, 322.10 317.69 C 320.89 320.41, 320.20 321.86, 319.25 324.34 C 318.30 326.81, 317.85 328.06, 317.37 330.07 C 316.89 332.08, 316.72 333.00, 316.85 334.38 C 316.97 335.77, 317.21 336.32, 317.98 336.98 C 318.75 337.64, 319.36 337.79, 320.71 337.67 C 322.06 337.56, 322.92 337.24, 324.72 336.40 C 326.52 335.56, 327.57 334.86, 329.72 333.46 C 331.86 332.06, 333.10 331.10, 335.46 329.41 C 337.82 327.71, 339.14 326.70, 341.51 324.99 C 343.87 323.28, 345.13 322.37, 347.27 320.86 C 349.40 319.36, 350.47 318.61, 352.17 317.47 C 353.87 316.32, 354.64 315.86, 355.75 315.14 C 356.87 314.41, 357.27 314.21, 357.77 313.85 C 358.26 313.49, 358.28 313.43, 358.22 313.34 C 358.15 313.26, 357.88 313.25, 357.43 313.42 C 356.98 313.59, 356.61 313.74, 355.96 314.20 C 355.30 314.66, 354.93 315.02, 354.15 315.74 C 353.36 316.45, 352.94 316.87, 352.05 317.77 C 351.16 318.66, 350.64 319.17, 349.70 320.22 C 348.76 321.26, 348.23 321.86, 347.36 322.99 C 346.48 324.11, 346.02 324.74, 345.33 325.86 C 344.64 326.97, 344.29 327.55, 343.91 328.54 C 343.53 329.54, 343.39 330.04, 343.41 330.82 C 343.43 331.60, 343.57 331.98, 344.01 332.43 C 344.45 332.88, 344.83 333.06, 345.60 333.07 C 346.37 333.08, 346.88 332.95, 347.85 332.49 C 348.83 332.02, 349.37 331.63, 350.48 330.75 C 351.59 329.88, 352.20 329.28, 353.38 328.12 C 354.56 326.96, 355.22 326.25, 356.36 324.95 C 357.51 323.66, 358.14 322.92, 359.10 321.64 C 360.07 320.37, 360.65 319.61, 361.19 318.57 C 361.73 317.54, 361.86 317.00, 361.82 316.48 C 361.77 315.97, 361.50 315.84, 360.98 316.01 C 360.46 316.19, 359.94 316.52, 359.21 317.35 C 358.48 318.17, 357.96 318.91, 357.32 320.14 C 356.67 321.38, 356.37 322.23, 355.99 323.52 C 355.62 324.81, 355.44 325.51, 355.43 326.61 C 355.43 327.71, 355.52 328.24, 355.97 329.02 C 356.43 329.79, 356.81 330.13, 357.71 330.47 C 358.60 330.82, 359.20 330.88, 360.44 330.74 C 361.69 330.59, 362.44 330.35, 363.95 329.73 C 365.45 329.11, 366.31 328.63, 367.98 327.65 C 369.64 326.67, 370.56 326.01, 372.28 324.83 C 374.01 323.64, 374.94 322.93, 376.59 321.73 C 378.25 320.53, 379.11 319.86, 380.58 318.82 C 382.04 317.78, 382.76 317.26, 383.94 316.53 C 385.12 315.79, 385.64 315.49, 386.47 315.13 C 387.30 314.77, 387.60 314.69, 388.09 314.72 C 388.59 314.74, 388.69 314.88, 388.93 315.27 C 389.18 315.65, 389.20 315.97, 389.32 316.65 C 389.43 317.33, 389.47 317.79, 389.50 318.69 C 389.53 319.58, 389.57 320.13, 389.45 321.12 C 389.33 322.11, 389.23 322.65, 388.90 323.63 C 388.56 324.62, 388.33 325.13, 387.78 326.03 C 387.23 326.93, 386.88 327.39, 386.15 328.14 C 385.42 328.88, 384.96 329.23, 384.12 329.77 C 383.28 330.31, 382.78 330.54, 381.94 330.85 C 381.10 331.16, 380.62 331.25, 379.92 331.33 C 379.22 331.40, 378.88 331.37, 378.44 331.24 C 378.00 331.10, 377.83 331.00, 377.71 330.66 C 377.59 330.32, 377.61 330.12, 377.85 329.55 C 378.09 328.98, 378.28 328.62, 378.91 327.82 C 379.53 327.02, 379.95 326.54, 380.99 325.54 C 382.02 324.55, 382.68 324.00, 384.10 322.86 C 385.52 321.72, 386.36 321.11, 388.09 319.85 C 389.82 318.60, 390.81 317.93, 392.74 316.57 C 394.68 315.22, 395.74 314.52, 397.77 313.10 C 399.81 311.68, 400.90 310.93, 402.93 309.48 C 404.97 308.03, 406.02 307.27, 407.96 305.86 C 409.89 304.44, 410.88 303.71, 412.60 302.39 C 414.33 301.06, 415.16 300.39, 416.59 299.23 C 418.03 298.07, 418.72 297.52, 419.78 296.59 C 420.83 295.66, 421.36 295.17, 421.88 294.58 C 422.41 293.99, 422.48 293.70, 422.39 293.64 C 422.30 293.58, 422.01 293.67, 421.44 294.30 C 420.87 294.93, 420.43 295.46, 419.55 296.78 C 418.67 298.09, 418.12 299.04, 417.04 300.87 C 415.95 302.69, 415.30 303.81, 414.12 305.88 C 412.93 307.96, 412.26 309.12, 411.12 311.23 C 409.97 313.34, 409.36 314.48, 408.37 316.45 C 407.39 318.41, 406.92 319.41, 406.18 321.06 C 405.45 322.70, 405.12 323.47, 404.70 324.67 C 404.28 325.88, 404.14 326.41, 404.09 327.10 C 404.03 327.80, 404.24 328.06, 404.43 328.16 C 404.62 328.26, 405.00 327.75, 405.04 327.59 C 405.09 327.43, 404.76 327.27, 404.65 327.36 C 404.55 327.46, 404.44 328.05, 404.53 328.05 C 404.62 328.06, 404.80 327.96, 405.11 327.39 C 405.41 326.82, 405.54 326.34, 406.05 325.21 C 406.55 324.07, 406.86 323.32, 407.63 321.73 C 408.40 320.13, 408.88 319.15, 409.89 317.23 C 410.91 315.30, 411.52 314.18, 412.69 312.11 C 413.87 310.03, 414.55 308.89, 415.78 306.86 C 417.01 304.83, 417.73 303.76, 418.84 301.96 C 419.94 300.15, 420.56 299.25, 421.32 297.84 C 422.08 296.44, 422.39 295.82, 422.63 294.95 C 422.88 294.07, 422.85 293.73, 422.56 293.47 C 422.27 293.21, 421.93 293.27, 421.18 293.66 C 420.42 294.04, 419.91 294.53, 418.79 295.40 C 417.68 296.26, 417.04 296.85, 415.60 297.99 C 414.16 299.13, 413.33 299.78, 411.61 301.08 C 409.88 302.38, 408.90 303.09, 406.96 304.49 C 405.03 305.89, 403.97 306.63, 401.93 308.07 C 399.90 309.50, 398.82 310.25, 396.77 311.65 C 394.73 313.06, 393.67 313.75, 391.72 315.09 C 389.77 316.43, 388.77 317.10, 387.01 318.36 C 385.25 319.62, 384.40 320.23, 382.93 321.39 C 381.46 322.56, 380.77 323.11, 379.67 324.18 C 378.57 325.26, 378.09 325.78, 377.44 326.77 C 376.78 327.76, 376.56 328.26, 376.39 329.14 C 376.23 330.01, 376.29 330.47, 376.60 331.13 C 376.90 331.79, 377.24 332.10, 377.92 332.44 C 378.60 332.79, 379.09 332.87, 380.00 332.87 C 380.91 332.86, 381.48 332.74, 382.48 332.40 C 383.49 332.07, 384.05 331.80, 385.02 331.18 C 386.00 330.57, 386.51 330.17, 387.35 329.32 C 388.19 328.46, 388.59 327.94, 389.23 326.92 C 389.86 325.90, 390.13 325.33, 390.54 324.22 C 390.95 323.10, 391.10 322.49, 391.27 321.36 C 391.43 320.24, 391.44 319.62, 391.37 318.59 C 391.30 317.56, 391.21 317.03, 390.90 316.21 C 390.60 315.39, 390.38 314.99, 389.84 314.48 C 389.31 313.96, 388.98 313.76, 388.22 313.64 C 387.45 313.53, 387.03 313.58, 386.01 313.89 C 385.00 314.20, 384.44 314.49, 383.16 315.20 C 381.88 315.91, 381.14 316.42, 379.62 317.43 C 378.10 318.45, 377.24 319.10, 375.56 320.27 C 373.88 321.44, 372.95 322.14, 371.24 323.28 C 369.53 324.43, 368.62 325.05, 367.01 325.99 C 365.40 326.93, 364.57 327.36, 363.20 327.98 C 361.83 328.59, 361.17 328.82, 360.15 329.06 C 359.13 329.31, 358.72 329.34, 358.09 329.22 C 357.46 329.10, 357.25 328.95, 357.02 328.45 C 356.79 327.96, 356.78 327.59, 356.94 326.73 C 357.09 325.88, 357.31 325.28, 357.80 324.18 C 358.30 323.08, 358.79 322.39, 359.40 321.24 C 360.01 320.09, 360.44 319.38, 360.87 318.44 C 361.30 317.51, 361.49 317.00, 361.55 316.56 C 361.61 316.11, 361.53 316.00, 361.19 316.23 C 360.84 316.45, 360.53 316.82, 359.82 317.67 C 359.12 318.53, 358.64 319.32, 357.67 320.52 C 356.70 321.73, 356.10 322.46, 354.97 323.70 C 353.84 324.94, 353.17 325.63, 352.02 326.73 C 350.88 327.83, 350.25 328.38, 349.24 329.21 C 348.23 330.04, 347.72 330.38, 346.96 330.89 C 346.19 331.39, 345.87 331.57, 345.42 331.74 C 344.96 331.92, 344.84 331.95, 344.68 331.78 C 344.53 331.62, 344.52 331.45, 344.65 330.93 C 344.78 330.41, 344.91 330.01, 345.34 329.18 C 345.76 328.35, 346.08 327.80, 346.77 326.79 C 347.46 325.78, 347.92 325.17, 348.78 324.11 C 349.64 323.04, 350.15 322.46, 351.07 321.46 C 351.98 320.46, 352.49 319.95, 353.37 319.10 C 354.25 318.25, 354.69 317.89, 355.47 317.22 C 356.24 316.54, 356.68 316.30, 357.25 315.72 C 357.82 315.14, 358.08 314.82, 358.31 314.32 C 358.54 313.82, 358.59 313.49, 358.40 313.22 C 358.22 312.96, 358.06 312.85, 357.39 313.00 C 356.73 313.15, 356.28 313.33, 355.07 313.96 C 353.85 314.59, 353.07 315.05, 351.31 316.15 C 349.56 317.25, 348.46 317.97, 346.29 319.46 C 344.13 320.94, 342.87 321.87, 340.48 323.56 C 338.10 325.24, 336.75 326.24, 334.38 327.88 C 332.01 329.53, 330.73 330.42, 328.63 331.79 C 326.53 333.16, 325.50 333.83, 323.87 334.73 C 322.24 335.64, 321.53 336.01, 320.47 336.32 C 319.41 336.63, 319.04 336.68, 318.56 336.29 C 318.08 335.89, 317.99 335.52, 318.05 334.35 C 318.11 333.19, 318.29 332.35, 318.85 330.47 C 319.41 328.59, 319.87 327.37, 320.83 324.96 C 321.79 322.54, 322.44 321.08, 323.66 318.39 C 324.88 315.70, 325.64 314.20, 326.94 311.51 C 328.24 308.81, 329.00 307.37, 330.14 304.93 C 331.28 302.49, 331.84 301.26, 332.66 299.31 C 333.47 297.36, 333.80 296.48, 334.21 295.17 C 334.62 293.86, 334.62 293.44, 334.71 292.75 C 334.80 292.06, 334.77 291.97, 334.65 291.73 C 334.53 291.49, 334.36 291.44, 334.13 291.56" style="stroke: white; fill: white;"/><path d="M 401.20,319.32 C 401.38 319.51, 401.51 319.62, 402.10 319.72 C 402.69 319.82, 403.11 319.84, 404.15 319.80 C 405.20 319.76, 405.90 319.69, 407.34 319.51 C 408.78 319.34, 409.69 319.19, 411.36 318.92 C 413.04 318.66, 413.98 318.48, 415.73 318.19 C 417.47 317.89, 418.41 317.73, 420.09 317.45 C 421.76 317.17, 422.69 317.03, 424.11 316.77 C 425.53 316.50, 426.20 316.38, 427.18 316.12 C 428.17 315.87, 428.68 315.73, 429.04 315.50 C 429.39 315.27, 429.37 315.10, 428.96 314.98 C 428.56 314.86, 428.03 314.86, 427.01 314.89 C 425.99 314.92, 425.30 314.95, 423.86 315.11 C 422.42 315.27, 421.49 315.45, 419.81 315.71 C 418.13 315.96, 417.19 316.12, 415.44 316.38 C 413.70 316.64, 412.76 316.78, 411.09 316.99 C 409.42 317.20, 408.52 317.28, 407.09 317.45 C 405.66 317.62, 404.96 317.66, 403.94 317.84 C 402.93 318.02, 402.55 318.16, 402.00 318.34 C 401.45 318.52, 401.36 318.55, 401.20 318.75 C 401.04 318.94, 401.02 319.12, 401.20 319.32" style="stroke: white; fill: white;"/><path d="M 465.12,313.14 C 464.88 313.21, 464.80 313.30, 464.43 313.73 C 464.06 314.17, 463.79 314.42, 463.27 315.31 C 462.74 316.20, 462.41 316.89, 461.80 318.19 C 461.19 319.49, 460.80 320.35, 460.23 321.83 C 459.66 323.30, 459.31 324.17, 458.96 325.56 C 458.61 326.95, 458.44 327.68, 458.48 328.80 C 458.53 329.91, 458.66 330.44, 459.18 331.14 C 459.70 331.84, 460.13 332.12, 461.09 332.30 C 462.05 332.48, 462.68 332.43, 463.97 332.05 C 465.26 331.67, 466.01 331.28, 467.53 330.39 C 469.05 329.50, 469.90 328.85, 471.56 327.59 C 473.22 326.33, 474.15 325.53, 475.82 324.08 C 477.49 322.64, 478.42 321.78, 479.93 320.37 C 481.45 318.96, 482.25 318.21, 483.40 317.04 C 484.54 315.87, 485.09 315.26, 485.65 314.52 C 486.21 313.79, 486.30 313.49, 486.19 313.38 C 486.08 313.28, 485.71 313.42, 485.11 314.00 C 484.51 314.58, 483.97 315.13, 483.20 316.28 C 482.42 317.42, 481.94 318.31, 481.24 319.72 C 480.55 321.13, 480.15 321.99, 479.72 323.32 C 479.29 324.65, 479.09 325.34, 479.08 326.39 C 479.08 327.44, 479.20 327.94, 479.70 328.57 C 480.21 329.20, 480.66 329.43, 481.62 329.53 C 482.57 329.64, 483.21 329.54, 484.50 329.11 C 485.78 328.68, 486.54 328.26, 488.04 327.39 C 489.54 326.52, 490.40 325.88, 491.99 324.74 C 493.59 323.61, 494.50 322.89, 496.04 321.71 C 497.58 320.52, 498.50 319.80, 499.70 318.83 C 500.90 317.85, 501.45 317.34, 502.04 316.83 C 502.63 316.32, 502.72 316.18, 502.65 316.27 C 502.58 316.36, 502.27 316.60, 501.70 317.27 C 501.12 317.94, 500.54 318.56, 499.79 319.63 C 499.04 320.70, 498.56 321.50, 497.95 322.64 C 497.33 323.77, 496.98 324.41, 496.74 325.32 C 496.51 326.22, 496.48 326.67, 496.77 327.16 C 497.07 327.64, 497.40 327.80, 498.22 327.75 C 499.03 327.70, 499.62 327.49, 500.84 326.92 C 502.07 326.35, 502.85 325.81, 504.34 324.89 C 505.84 323.97, 506.75 323.31, 508.32 322.32 C 509.89 321.33, 510.86 320.73, 512.20 319.95 C 513.54 319.17, 514.21 318.79, 515.02 318.43 C 515.84 318.07, 516.08 318.01, 516.28 318.15 C 516.49 318.28, 516.32 318.48, 516.03 319.10 C 515.74 319.72, 515.32 320.23, 514.83 321.22 C 514.34 322.21, 513.96 322.93, 513.59 324.05 C 513.22 325.18, 513.00 325.86, 512.98 326.84 C 512.96 327.82, 513.03 328.35, 513.50 328.96 C 513.97 329.57, 514.36 329.85, 515.35 329.89 C 516.33 329.94, 517.00 329.80, 518.43 329.18 C 519.87 328.56, 520.72 328.04, 522.53 326.79 C 524.33 325.53, 525.39 324.70, 527.47 322.92 C 529.56 321.13, 530.71 320.01, 532.96 317.86 C 535.20 315.72, 536.43 314.48, 538.71 312.19 C 540.99 309.90, 542.23 308.64, 544.36 306.41 C 546.49 304.18, 547.59 303.02, 549.37 301.04 C 551.16 299.06, 552.01 298.09, 553.29 296.52 C 554.57 294.94, 555.19 294.16, 555.76 293.18 C 556.34 292.21, 556.40 291.78, 556.18 291.63 C 555.97 291.49, 555.55 291.64, 554.69 292.46 C 553.84 293.28, 553.19 294.02, 551.92 295.72 C 550.65 297.41, 549.84 298.65, 548.35 300.92 C 546.87 303.19, 545.99 304.63, 544.49 307.07 C 542.99 309.50, 542.15 310.85, 540.84 313.12 C 539.53 315.38, 538.90 316.54, 537.94 318.40 C 536.98 320.25, 536.56 321.09, 536.04 322.39 C 535.53 323.68, 535.39 324.17, 535.35 324.87 C 535.32 325.56, 535.48 325.72, 535.86 325.86 C 536.24 325.99, 536.65 325.88, 537.25 325.54 C 537.84 325.19, 538.26 324.82, 538.86 324.14 C 539.46 323.47, 539.73 322.93, 540.24 322.16 C 540.76 321.40, 541.01 320.94, 541.45 320.32 C 541.88 319.71, 542.05 319.44, 542.42 319.08 C 542.78 318.73, 542.90 318.66, 543.27 318.57 C 543.65 318.48, 543.79 318.55, 544.30 318.64 C 544.81 318.73, 545.09 318.88, 545.82 319.00 C 546.54 319.13, 546.98 319.23, 547.92 319.27 C 548.85 319.31, 549.39 319.31, 550.50 319.20 C 551.61 319.08, 552.24 318.99, 553.47 318.72 C 554.70 318.44, 555.40 318.25, 556.65 317.83 C 557.90 317.41, 558.61 317.18, 559.75 316.61 C 560.89 316.04, 561.90 315.45, 562.35 314.97 C 562.81 314.50, 562.68 314.23, 562.03 314.25 C 561.39 314.26, 560.30 314.67, 559.11 315.04 C 557.93 315.41, 557.30 315.73, 556.09 316.11 C 554.88 316.48, 554.23 316.67, 553.08 316.93 C 551.92 317.18, 551.33 317.27, 550.31 317.38 C 549.29 317.48, 548.83 317.48, 547.98 317.45 C 547.13 317.43, 546.76 317.32, 546.05 317.26 C 545.33 317.19, 545.01 317.12, 544.39 317.14 C 543.77 317.16, 543.50 317.18, 542.94 317.35 C 542.37 317.52, 542.12 317.62, 541.57 318.00 C 541.01 318.37, 540.74 318.63, 540.14 319.21 C 539.55 319.80, 539.21 320.21, 538.61 320.93 C 538.01 321.64, 537.62 322.08, 537.13 322.80 C 536.65 323.52, 536.43 323.97, 536.18 324.51 C 535.93 325.05, 535.87 325.38, 535.88 325.49 C 535.88 325.61, 535.92 325.60, 536.21 325.10 C 536.49 324.59, 536.67 324.16, 537.30 322.97 C 537.93 321.78, 538.33 320.94, 539.34 319.15 C 540.35 317.36, 541.00 316.23, 542.35 314.01 C 543.70 311.80, 544.54 310.46, 546.09 308.08 C 547.65 305.70, 548.62 304.34, 550.13 302.11 C 551.64 299.88, 552.52 298.69, 553.65 296.92 C 554.79 295.15, 555.29 294.32, 555.80 293.26 C 556.30 292.21, 556.38 291.81, 556.19 291.65 C 556.01 291.49, 555.69 291.70, 554.87 292.47 C 554.06 293.24, 553.45 294.01, 552.11 295.50 C 550.76 296.99, 549.93 297.97, 548.15 299.93 C 546.37 301.89, 545.32 303.09, 543.21 305.32 C 541.10 307.55, 539.88 308.82, 537.60 311.08 C 535.32 313.34, 534.07 314.55, 531.80 316.62 C 529.52 318.69, 528.30 319.72, 526.22 321.42 C 524.14 323.13, 523.10 323.93, 521.38 325.16 C 519.66 326.38, 518.85 326.85, 517.62 327.54 C 516.40 328.23, 515.91 328.43, 515.24 328.61 C 514.58 328.78, 514.45 328.72, 514.31 328.42 C 514.17 328.11, 514.28 327.80, 514.53 327.08 C 514.77 326.35, 515.10 325.81, 515.54 324.80 C 515.99 323.78, 516.39 323.09, 516.75 322.00 C 517.11 320.91, 517.34 320.23, 517.33 319.35 C 517.33 318.46, 517.25 318.01, 516.72 317.58 C 516.19 317.15, 515.75 317.03, 514.68 317.18 C 513.61 317.34, 512.86 317.67, 511.38 318.35 C 509.89 319.03, 508.91 319.64, 507.28 320.59 C 505.64 321.53, 504.69 322.14, 503.21 323.06 C 501.73 323.98, 500.95 324.48, 499.88 325.18 C 498.81 325.89, 498.37 326.24, 497.87 326.59 C 497.36 326.94, 497.29 327.05, 497.33 326.93 C 497.38 326.80, 497.61 326.58, 498.09 325.95 C 498.58 325.31, 499.03 324.78, 499.76 323.76 C 500.48 322.74, 501.06 322.01, 501.73 320.85 C 502.39 319.70, 502.80 318.93, 503.07 317.97 C 503.33 317.02, 503.36 316.51, 503.05 316.08 C 502.74 315.66, 502.39 315.58, 501.52 315.84 C 500.64 316.11, 499.99 316.54, 498.67 317.41 C 497.34 318.28, 496.46 319.04, 494.90 320.19 C 493.34 321.34, 492.45 322.06, 490.87 323.15 C 489.30 324.25, 488.44 324.83, 487.03 325.68 C 485.62 326.54, 484.91 326.91, 483.83 327.42 C 482.75 327.92, 482.28 328.10, 481.61 328.21 C 480.95 328.32, 480.72 328.30, 480.49 327.96 C 480.26 327.63, 480.27 327.32, 480.45 326.52 C 480.63 325.73, 480.86 325.14, 481.41 323.98 C 481.95 322.82, 482.44 322.05, 483.17 320.73 C 483.91 319.42, 484.45 318.60, 485.07 317.39 C 485.69 316.18, 486.03 315.53, 486.27 314.70 C 486.52 313.87, 486.56 313.46, 486.27 313.24 C 485.99 313.03, 485.65 313.12, 484.84 313.64 C 484.04 314.16, 483.47 314.75, 482.25 315.83 C 481.02 316.91, 480.25 317.68, 478.72 319.05 C 477.19 320.41, 476.27 321.25, 474.60 322.65 C 472.93 324.05, 472.01 324.83, 470.39 326.05 C 468.78 327.26, 467.93 327.85, 466.53 328.73 C 465.12 329.60, 464.45 329.95, 463.38 330.40 C 462.32 330.86, 461.87 331.00, 461.21 331.02 C 460.55 331.04, 460.33 330.96, 460.07 330.53 C 459.81 330.09, 459.79 329.74, 459.91 328.85 C 460.03 327.96, 460.23 327.32, 460.67 326.07 C 461.10 324.82, 461.49 324.00, 462.10 322.60 C 462.72 321.21, 463.17 320.38, 463.76 319.10 C 464.35 317.81, 464.68 317.14, 465.06 316.19 C 465.43 315.24, 465.53 314.89, 465.65 314.33 C 465.76 313.77, 465.76 313.62, 465.65 313.38 C 465.55 313.14, 465.37 313.07, 465.12 313.14" style="stroke: white; fill: white;"/><path d="M 561.15,303.11 C 561.34 302.88, 561.47 302.60, 561.42 302.47 C 561.37 302.33, 561.11 302.39, 560.92 302.43 C 560.73 302.46, 560.61 302.57, 560.47 302.65 C 560.34 302.73, 560.35 302.71, 560.23 302.82 C 560.11 302.93, 559.98 303.02, 559.89 303.19 C 559.81 303.37, 559.68 303.61, 559.80 303.69 C 559.92 303.78, 560.21 303.73, 560.48 303.61 C 560.75 303.49, 560.97 303.33, 561.15 303.11" style="stroke: white; fill: white;"/><path d="M 565.99,310.14 C 565.76 310.43, 565.77 310.82, 565.51 311.64 C 565.25 312.45, 565.10 312.98, 564.68 314.19 C 564.26 315.39, 563.95 316.24, 563.43 317.66 C 562.90 319.09, 562.55 319.89, 562.05 321.31 C 561.56 322.73, 561.19 323.50, 560.94 324.76 C 560.69 326.02, 560.58 326.69, 560.80 327.61 C 561.03 328.54, 561.28 328.99, 562.08 329.39 C 562.89 329.78, 563.47 329.87, 564.81 329.61 C 566.16 329.34, 566.99 329.02, 568.81 328.08 C 570.63 327.13, 571.70 326.45, 573.91 324.89 C 576.12 323.33, 577.36 322.28, 579.86 320.27 C 582.37 318.25, 583.78 317.07, 586.45 314.81 C 589.11 312.55, 590.57 311.28, 593.20 308.96 C 595.82 306.64, 597.20 305.41, 599.56 303.22 C 601.92 301.03, 603.14 299.95, 605.01 298.02 C 606.89 296.09, 607.74 295.14, 608.93 293.58 C 610.12 292.02, 610.57 291.33, 610.96 290.23 C 611.36 289.14, 611.34 288.66, 610.92 288.12 C 610.51 287.57, 610.00 287.36, 608.88 287.51 C 607.76 287.67, 606.96 287.92, 605.32 288.88 C 603.67 289.83, 602.65 290.57, 600.66 292.29 C 598.68 294.01, 597.51 295.19, 595.40 297.47 C 593.30 299.75, 592.10 301.14, 590.15 303.68 C 588.20 306.23, 587.12 307.66, 585.65 310.20 C 584.18 312.73, 583.51 314.08, 582.79 316.35 C 582.07 318.62, 581.90 319.74, 582.05 321.55 C 582.21 323.35, 582.53 324.18, 583.56 325.39 C 584.59 326.60, 585.41 327.05, 587.19 327.60 C 588.97 328.15, 590.14 328.22, 592.46 328.14 C 594.78 328.06, 596.40 327.72, 598.80 327.18 C 601.19 326.64, 602.54 326.13, 604.43 325.45 C 606.31 324.76, 607.49 324.21, 608.20 323.75 C 608.92 323.30, 608.85 323.11, 608.01 323.15 C 607.17 323.19, 605.92 323.54, 604.00 323.95 C 602.07 324.37, 600.71 324.76, 598.38 325.22 C 596.05 325.68, 594.51 326.07, 592.35 326.25 C 590.19 326.43, 589.15 326.46, 587.57 326.13 C 586.00 325.80, 585.33 325.52, 584.48 324.59 C 583.64 323.65, 583.40 323.02, 583.35 321.47 C 583.30 319.92, 583.50 318.93, 584.25 316.85 C 585.00 314.76, 585.66 313.48, 587.10 311.05 C 588.54 308.61, 589.53 307.16, 591.45 304.69 C 593.37 302.22, 594.60 300.88, 596.71 298.71 C 598.82 296.54, 600.07 295.49, 602.00 293.85 C 603.93 292.21, 604.91 291.52, 606.35 290.50 C 607.80 289.48, 608.42 289.16, 609.24 288.75 C 610.06 288.35, 610.30 288.27, 610.45 288.47 C 610.60 288.67, 610.51 288.92, 609.98 289.76 C 609.45 290.60, 609.02 291.23, 607.79 292.66 C 606.57 294.09, 605.71 295.00, 603.86 296.90 C 602.01 298.79, 600.87 299.94, 598.54 302.14 C 596.22 304.34, 594.86 305.59, 592.25 307.89 C 589.64 310.20, 588.18 311.46, 585.50 313.67 C 582.81 315.88, 581.38 317.03, 578.84 318.95 C 576.29 320.87, 574.98 321.78, 572.79 323.27 C 570.60 324.76, 569.56 325.42, 567.88 326.38 C 566.20 327.34, 565.47 327.66, 564.39 328.08 C 563.31 328.49, 562.95 328.57, 562.47 328.44 C 561.99 328.31, 561.97 328.10, 561.98 327.45 C 561.99 326.80, 562.17 326.27, 562.53 325.18 C 562.90 324.08, 563.24 323.34, 563.80 321.98 C 564.36 320.62, 564.79 319.83, 565.35 318.39 C 565.91 316.94, 566.26 316.06, 566.59 314.76 C 566.92 313.45, 566.98 312.79, 566.99 311.87 C 567.00 310.95, 566.85 310.51, 566.65 310.16 C 566.45 309.82, 566.21 309.84, 565.99 310.14" style="stroke: white; fill: white;"/><path d="M 656.82,292.44 C 656.56 292.55, 656.44 292.65, 656.04 293.22 C 655.65 293.80, 655.43 294.15, 654.82 295.31 C 654.21 296.47, 653.85 297.27, 652.98 299.02 C 652.12 300.77, 651.60 301.89, 650.48 304.06 C 649.36 306.24, 648.66 307.52, 647.39 309.90 C 646.12 312.28, 645.38 313.61, 644.12 315.94 C 642.87 318.28, 642.18 319.52, 641.12 321.56 C 640.06 323.60, 639.53 324.60, 638.83 326.13 C 638.14 327.66, 637.95 328.29, 637.63 329.21 C 637.32 330.13, 637.25 330.40, 637.25 330.74 C 637.24 331.08, 637.34 331.13, 637.60 330.91 C 637.85 330.69, 638.01 330.46, 638.52 329.64 C 639.04 328.82, 639.36 328.27, 640.18 326.81 C 641.00 325.36, 641.50 324.36, 642.61 322.36 C 643.71 320.36, 644.41 319.12, 645.70 316.81 C 646.99 314.50, 647.75 313.17, 649.05 310.80 C 650.36 308.44, 651.08 307.16, 652.24 304.98 C 653.40 302.81, 653.97 301.70, 654.83 299.93 C 655.70 298.16, 656.08 297.34, 656.57 296.11 C 657.05 294.87, 657.11 294.44, 657.26 293.76 C 657.42 293.07, 657.43 292.94, 657.34 292.68 C 657.25 292.41, 657.07 292.33, 656.82 292.44" style="stroke: white; fill: white;"/><path d="M 636.57,317.27 C 636.74 317.51, 636.93 317.69, 637.57 317.88 C 638.21 318.07, 638.64 318.21, 639.76 318.23 C 640.87 318.25, 641.61 318.25, 643.14 317.99 C 644.66 317.72, 645.56 317.49, 647.37 316.89 C 649.19 316.30, 650.19 315.92, 652.20 315.02 C 654.21 314.12, 655.30 313.57, 657.42 312.39 C 659.54 311.21, 660.68 310.52, 662.79 309.12 C 664.91 307.71, 666.02 306.91, 668.00 305.36 C 669.97 303.81, 670.98 302.95, 672.69 301.38 C 674.39 299.81, 675.24 298.97, 676.54 297.52 C 677.84 296.08, 678.45 295.35, 679.19 294.15 C 679.93 292.96, 680.19 292.28, 680.23 291.54 C 680.27 290.81, 680.02 290.45, 679.39 290.47 C 678.75 290.49, 678.16 290.72, 677.04 291.62 C 675.92 292.53, 675.20 293.29, 673.78 294.98 C 672.35 296.67, 671.50 297.88, 669.93 300.07 C 668.36 302.27, 667.44 303.62, 665.92 305.94 C 664.40 308.26, 663.59 309.53, 662.34 311.66 C 661.08 313.79, 660.46 314.88, 659.63 316.60 C 658.80 318.32, 658.45 319.10, 658.18 320.28 C 657.91 321.46, 657.93 321.92, 658.27 322.51 C 658.60 323.10, 658.99 323.24, 659.85 323.23 C 660.70 323.23, 661.34 323.01, 662.54 322.48 C 663.74 321.95, 664.49 321.42, 665.84 320.59 C 667.20 319.76, 668.01 319.15, 669.33 318.33 C 670.66 317.52, 671.44 317.04, 672.49 316.50 C 673.53 315.96, 673.98 315.74, 674.54 315.63 C 675.11 315.51, 675.19 315.58, 675.32 315.92 C 675.44 316.27, 675.28 316.61, 675.16 317.34 C 675.04 318.07, 674.80 318.63, 674.71 319.59 C 674.61 320.55, 674.51 321.18, 674.67 322.14 C 674.83 323.10, 674.96 323.65, 675.49 324.37 C 676.03 325.08, 676.41 325.42, 677.37 325.72 C 678.33 326.02, 678.95 326.07, 680.30 325.87 C 681.64 325.66, 682.46 325.40, 684.09 324.71 C 685.71 324.02, 686.67 323.48, 688.43 322.41 C 690.19 321.34, 691.20 320.61, 692.87 319.34 C 694.54 318.06, 695.44 317.30, 696.79 316.02 C 698.14 314.74, 698.81 314.06, 699.61 312.94 C 700.40 311.83, 700.68 311.24, 700.76 310.44 C 700.85 309.64, 700.66 309.25, 700.05 308.94 C 699.45 308.63, 698.84 308.58, 697.74 308.89 C 696.63 309.21, 695.82 309.61, 694.52 310.53 C 693.22 311.45, 692.42 312.19, 691.24 313.49 C 690.05 314.80, 689.37 315.63, 688.61 317.06 C 687.84 318.48, 687.50 319.31, 687.42 320.62 C 687.34 321.93, 687.48 322.61, 688.20 323.59 C 688.93 324.57, 689.56 325.02, 691.05 325.53 C 692.55 326.04, 693.81 326.12, 695.68 326.15 C 697.55 326.17, 698.77 325.97, 700.41 325.67 C 702.04 325.36, 703.20 324.96, 703.87 324.61 C 704.54 324.26, 704.49 324.05, 703.76 323.92 C 703.03 323.78, 701.84 323.90, 700.23 323.93 C 698.61 323.96, 697.45 324.08, 695.70 324.07 C 693.95 324.07, 692.80 324.16, 691.49 323.91 C 690.18 323.66, 689.69 323.47, 689.15 322.84 C 688.61 322.22, 688.58 321.76, 688.78 320.78 C 688.97 319.81, 689.34 319.14, 690.13 317.96 C 690.91 316.78, 691.59 316.04, 692.72 314.89 C 693.85 313.75, 694.66 313.14, 695.79 312.24 C 696.93 311.34, 697.59 310.93, 698.40 310.42 C 699.21 309.90, 699.55 309.71, 699.84 309.67 C 700.13 309.62, 700.14 309.72, 699.86 310.18 C 699.58 310.64, 699.28 311.08, 698.43 311.99 C 697.59 312.90, 696.95 313.56, 695.62 314.73 C 694.28 315.90, 693.39 316.63, 691.74 317.83 C 690.10 319.03, 689.10 319.72, 687.41 320.74 C 685.73 321.76, 684.79 322.25, 683.30 322.93 C 681.81 323.61, 681.08 323.86, 679.96 324.15 C 678.84 324.44, 678.37 324.48, 677.70 324.37 C 677.03 324.27, 676.86 324.10, 676.61 323.62 C 676.35 323.15, 676.40 322.77, 676.42 322.00 C 676.45 321.23, 676.65 320.70, 676.73 319.77 C 676.80 318.84, 676.91 318.22, 676.79 317.34 C 676.67 316.47, 676.59 315.97, 676.13 315.40 C 675.68 314.84, 675.38 314.61, 674.52 314.52 C 673.66 314.43, 673.07 314.55, 671.84 314.97 C 670.60 315.39, 669.77 315.86, 668.35 316.62 C 666.93 317.38, 666.07 317.93, 664.73 318.77 C 663.38 319.60, 662.65 320.10, 661.62 320.78 C 660.60 321.45, 660.16 321.84, 659.61 322.13 C 659.06 322.42, 658.93 322.54, 658.88 322.24 C 658.83 321.95, 658.93 321.65, 659.35 320.66 C 659.78 319.67, 660.13 318.93, 661.02 317.31 C 661.91 315.70, 662.52 314.62, 663.82 312.56 C 665.11 310.50, 665.94 309.25, 667.49 307.00 C 669.05 304.74, 670.00 303.42, 671.60 301.29 C 673.19 299.16, 674.12 298.03, 675.45 296.34 C 676.78 294.66, 677.43 293.90, 678.27 292.85 C 679.10 291.80, 679.39 291.41, 679.62 291.10 C 679.85 290.78, 679.76 290.85, 679.43 291.29 C 679.10 291.73, 678.78 292.27, 677.97 293.30 C 677.15 294.33, 676.63 295.06, 675.35 296.43 C 674.06 297.80, 673.23 298.61, 671.55 300.13 C 669.87 301.64, 668.88 302.49, 666.93 303.99 C 664.98 305.49, 663.89 306.27, 661.81 307.64 C 659.74 309.00, 658.62 309.67, 656.55 310.81 C 654.48 311.95, 653.41 312.49, 651.46 313.34 C 649.51 314.20, 648.53 314.55, 646.80 315.08 C 645.07 315.62, 644.22 315.78, 642.79 316.03 C 641.37 316.28, 640.71 316.23, 639.69 316.32 C 638.67 316.41, 638.31 316.42, 637.71 316.49 C 637.11 316.56, 636.93 316.51, 636.70 316.66 C 636.47 316.82, 636.40 317.03, 636.57 317.27" style="stroke: white; fill: white;"/><path d="M 759.64,316.22 C 759.67 315.92, 759.60 315.62, 759.28 315.15 C 758.97 314.69, 758.71 314.35, 758.06 313.91 C 757.42 313.48, 756.98 313.22, 756.05 312.99 C 755.12 312.76, 754.60 312.68, 753.41 312.75 C 752.23 312.83, 751.54 312.91, 750.12 313.38 C 748.69 313.84, 747.85 314.19, 746.30 315.07 C 744.75 315.95, 743.85 316.57, 742.35 317.76 C 740.86 318.95, 740.04 319.72, 738.84 321.04 C 737.65 322.35, 737.04 323.12, 736.38 324.35 C 735.71 325.58, 735.50 326.24, 735.50 327.19 C 735.50 328.14, 735.72 328.60, 736.38 329.08 C 737.05 329.56, 737.61 329.71, 738.82 329.58 C 740.03 329.45, 740.80 329.20, 742.43 328.43 C 744.05 327.65, 744.99 327.04, 746.92 325.70 C 748.85 324.35, 749.97 323.49, 752.09 321.70 C 754.21 319.90, 755.37 318.81, 757.52 316.72 C 759.67 314.64, 760.83 313.46, 762.84 311.28 C 764.85 309.10, 765.88 307.91, 767.57 305.83 C 769.26 303.75, 770.05 302.66, 771.29 300.88 C 772.52 299.09, 773.06 298.24, 773.77 296.89 C 774.48 295.54, 774.70 294.94, 774.82 294.12 C 774.93 293.29, 774.79 292.92, 774.33 292.79 C 773.88 292.65, 773.41 292.75, 772.54 293.46 C 771.66 294.16, 771.07 294.82, 769.96 296.32 C 768.84 297.82, 768.19 298.90, 766.96 300.97 C 765.72 303.03, 764.99 304.33, 763.79 306.64 C 762.60 308.95, 761.92 310.27, 760.97 312.52 C 760.02 314.78, 759.56 315.96, 759.04 317.92 C 758.51 319.89, 758.32 320.83, 758.34 322.35 C 758.35 323.87, 758.51 324.53, 759.12 325.50 C 759.73 326.47, 760.23 326.84, 761.37 327.21 C 762.52 327.58, 763.28 327.59, 764.85 327.35 C 766.41 327.11, 767.34 326.77, 769.20 326.02 C 771.07 325.27, 772.14 324.68, 774.16 323.58 C 776.18 322.49, 777.30 321.78, 779.31 320.54 C 781.31 319.31, 782.38 318.59, 784.17 317.42 C 785.97 316.24, 786.88 315.63, 788.29 314.68 C 789.70 313.72, 790.36 313.32, 791.23 312.64 C 792.10 311.97, 792.38 311.72, 792.64 311.31 C 792.90 310.89, 792.80 310.74, 792.51 310.58 C 792.22 310.41, 791.85 310.35, 791.19 310.51 C 790.53 310.66, 790.06 310.84, 789.20 311.35 C 788.35 311.87, 787.87 312.28, 786.93 313.07 C 785.99 313.86, 785.45 314.35, 784.50 315.32 C 783.55 316.28, 783.02 316.85, 782.20 317.91 C 781.39 318.97, 780.96 319.56, 780.41 320.61 C 779.85 321.65, 779.60 322.21, 779.43 323.14 C 779.25 324.08, 779.25 324.58, 779.52 325.29 C 779.80 326.00, 780.11 326.35, 780.81 326.69 C 781.50 327.04, 782.00 327.12, 783.00 327.01 C 784.00 326.91, 784.61 326.72, 785.80 326.18 C 786.99 325.64, 787.68 325.20, 788.97 324.31 C 790.26 323.42, 790.97 322.82, 792.25 321.72 C 793.54 320.62, 794.25 319.97, 795.39 318.81 C 796.53 317.64, 797.23 316.91, 797.95 315.89 C 798.68 314.86, 798.91 314.26, 799.01 313.67 C 799.10 313.08, 798.89 312.89, 798.41 312.93 C 797.94 312.97, 797.42 313.21, 796.63 313.87 C 795.85 314.52, 795.21 315.14, 794.48 316.21 C 793.75 317.28, 793.39 318.08, 792.97 319.22 C 792.55 320.36, 792.38 320.97, 792.39 321.90 C 792.40 322.84, 792.51 323.29, 793.02 323.89 C 793.53 324.49, 793.96 324.75, 794.93 324.91 C 795.90 325.06, 796.56 325.01, 797.87 324.67 C 799.19 324.33, 799.98 323.96, 801.51 323.21 C 803.05 322.45, 803.94 321.90, 805.53 320.90 C 807.12 319.90, 808.00 319.25, 809.47 318.21 C 810.93 317.17, 811.72 316.59, 812.85 315.69 C 813.97 314.79, 814.53 314.29, 815.07 313.71 C 815.62 313.14, 815.68 312.88, 815.56 312.80 C 815.45 312.73, 815.08 312.86, 814.50 313.34 C 813.93 313.81, 813.39 314.27, 812.70 315.17 C 812.01 316.08, 811.54 316.79, 811.06 317.86 C 810.58 318.94, 810.35 319.61, 810.30 320.55 C 810.25 321.50, 810.34 321.97, 810.79 322.58 C 811.25 323.19, 811.64 323.43, 812.56 323.59 C 813.49 323.75, 814.14 323.70, 815.43 323.39 C 816.72 323.08, 817.51 322.74, 819.04 322.02 C 820.56 321.31, 821.45 320.78, 823.07 319.83 C 824.68 318.88, 825.59 318.27, 827.11 317.26 C 828.63 316.25, 829.52 315.62, 830.67 314.79 C 831.82 313.95, 832.32 313.48, 832.85 313.08 C 833.38 312.67, 833.44 312.51, 833.32 312.76 C 833.21 313.01, 832.92 313.31, 832.28 314.32 C 831.64 315.32, 831.12 316.11, 830.12 317.79 C 829.13 319.46, 828.53 320.57, 827.30 322.69 C 826.07 324.81, 825.36 326.05, 823.97 328.39 C 822.58 330.73, 821.82 332.01, 820.37 334.39 C 818.92 336.77, 818.15 338.03, 816.72 340.26 C 815.29 342.50, 814.56 343.64, 813.23 345.57 C 811.90 347.49, 811.24 348.41, 810.07 349.90 C 808.91 351.39, 808.33 352.03, 807.39 353.00 C 806.45 353.97, 806.01 354.30, 805.37 354.76 C 804.73 355.21, 804.49 355.30, 804.20 355.26 C 803.91 355.23, 803.88 355.08, 803.92 354.57 C 803.96 354.06, 804.05 353.65, 804.39 352.73 C 804.72 351.80, 804.92 351.18, 805.61 349.95 C 806.29 348.72, 806.72 347.97, 807.83 346.58 C 808.93 345.18, 809.61 344.42, 811.13 342.99 C 812.66 341.57, 813.56 340.83, 815.45 339.45 C 817.34 338.08, 818.45 337.39, 820.59 336.11 C 822.73 334.84, 823.89 334.21, 826.15 333.08 C 828.40 331.95, 829.61 331.43, 831.88 330.47 C 834.15 329.51, 835.33 329.08, 837.48 328.27 C 839.63 327.46, 840.84 327.08, 842.64 326.41 C 844.43 325.75, 845.26 325.45, 846.48 324.93 C 847.69 324.41, 848.30 324.14, 848.71 323.83 C 849.13 323.51, 849.07 323.35, 848.55 323.34 C 848.03 323.33, 847.39 323.48, 846.10 323.78 C 844.81 324.09, 843.95 324.28, 842.10 324.87 C 840.26 325.45, 839.07 325.88, 836.89 326.69 C 834.71 327.50, 833.53 327.94, 831.22 328.91 C 828.92 329.88, 827.68 330.40, 825.38 331.53 C 823.07 332.67, 821.88 333.30, 819.69 334.59 C 817.49 335.88, 816.35 336.58, 814.39 338.00 C 812.43 339.41, 811.50 340.18, 809.89 341.66 C 808.29 343.14, 807.56 343.92, 806.36 345.40 C 805.16 346.87, 804.64 347.64, 803.90 349.01 C 803.16 350.38, 802.89 351.10, 802.66 352.25 C 802.42 353.41, 802.47 354.02, 802.74 354.78 C 803.00 355.55, 803.35 355.87, 803.99 356.07 C 804.63 356.27, 805.08 356.20, 805.96 355.79 C 806.84 355.38, 807.33 355.01, 808.39 354.02 C 809.46 353.04, 810.05 352.37, 811.28 350.87 C 812.52 349.37, 813.20 348.44, 814.58 346.51 C 815.95 344.57, 816.70 343.43, 818.16 341.19 C 819.62 338.96, 820.40 337.70, 821.88 335.33 C 823.36 332.96, 824.14 331.68, 825.57 329.35 C 827.00 327.03, 827.75 325.82, 829.03 323.72 C 830.30 321.61, 831.01 320.57, 831.96 318.83 C 832.90 317.09, 833.37 316.24, 833.76 315.00 C 834.16 313.77, 834.18 313.23, 833.92 312.66 C 833.66 312.08, 833.31 311.99, 832.48 312.12 C 831.64 312.26, 831.02 312.62, 829.74 313.33 C 828.46 314.05, 827.62 314.72, 826.09 315.69 C 824.56 316.65, 823.68 317.25, 822.10 318.16 C 820.51 319.06, 819.62 319.53, 818.18 320.21 C 816.74 320.90, 816.01 321.19, 814.90 321.59 C 813.79 321.99, 813.29 322.12, 812.63 322.21 C 811.97 322.29, 811.78 322.27, 811.60 322.00 C 811.43 321.73, 811.49 321.48, 811.76 320.85 C 812.03 320.23, 812.38 319.75, 812.95 318.87 C 813.51 317.98, 814.03 317.38, 814.58 316.43 C 815.13 315.48, 815.46 314.87, 815.69 314.12 C 815.93 313.37, 816.00 312.96, 815.74 312.68 C 815.48 312.40, 815.19 312.41, 814.40 312.73 C 813.62 313.06, 813.03 313.51, 811.84 314.30 C 810.64 315.10, 809.88 315.71, 808.42 316.70 C 806.95 317.69, 806.07 318.31, 804.51 319.25 C 802.96 320.20, 802.07 320.70, 800.63 321.42 C 799.19 322.15, 798.45 322.47, 797.32 322.88 C 796.20 323.30, 795.71 323.42, 795.01 323.48 C 794.31 323.54, 794.06 323.49, 793.81 323.20 C 793.56 322.92, 793.57 322.68, 793.75 322.05 C 793.93 321.42, 794.18 320.94, 794.72 320.04 C 795.26 319.14, 795.79 318.55, 796.47 317.56 C 797.14 316.57, 797.62 315.92, 798.09 315.09 C 798.55 314.26, 798.76 313.78, 798.79 313.40 C 798.83 313.03, 798.71 312.95, 798.28 313.23 C 797.84 313.50, 797.46 313.92, 796.62 314.78 C 795.78 315.63, 795.19 316.39, 794.07 317.49 C 792.96 318.60, 792.27 319.24, 791.03 320.29 C 789.79 321.33, 789.08 321.88, 787.87 322.71 C 786.66 323.55, 786.00 323.92, 784.97 324.46 C 783.94 324.99, 783.44 325.17, 782.70 325.39 C 781.96 325.61, 781.67 325.65, 781.25 325.56 C 780.83 325.47, 780.71 325.35, 780.62 324.94 C 780.54 324.53, 780.58 324.21, 780.83 323.51 C 781.08 322.80, 781.30 322.33, 781.85 321.44 C 782.41 320.54, 782.82 319.99, 783.61 319.04 C 784.41 318.08, 784.92 317.54, 785.83 316.65 C 786.75 315.77, 787.27 315.32, 788.18 314.62 C 789.09 313.91, 789.62 313.67, 790.37 313.14 C 791.12 312.60, 791.50 312.38, 791.95 311.94 C 792.40 311.51, 792.57 311.22, 792.62 310.97 C 792.66 310.72, 792.61 310.59, 792.18 310.70 C 791.75 310.80, 791.42 310.96, 790.47 311.49 C 789.51 312.01, 788.87 312.44, 787.42 313.33 C 785.98 314.22, 785.05 314.82, 783.24 315.95 C 781.42 317.08, 780.35 317.78, 778.35 318.97 C 776.35 320.16, 775.22 320.84, 773.25 321.89 C 771.27 322.95, 770.21 323.49, 768.46 324.25 C 766.72 325.01, 765.87 325.34, 764.52 325.68 C 763.16 326.03, 762.58 326.12, 761.69 325.97 C 760.80 325.82, 760.48 325.65, 760.08 324.93 C 759.68 324.21, 759.60 323.70, 759.70 322.39 C 759.80 321.08, 759.99 320.20, 760.57 318.37 C 761.15 316.54, 761.61 315.40, 762.60 313.24 C 763.59 311.07, 764.27 309.79, 765.50 307.55 C 766.73 305.32, 767.51 304.06, 768.75 302.05 C 769.98 300.05, 770.70 299.04, 771.69 297.52 C 772.67 296.00, 773.13 295.33, 773.66 294.46 C 774.19 293.59, 774.28 293.30, 774.33 293.17 C 774.38 293.04, 774.26 293.21, 773.90 293.81 C 773.54 294.41, 773.31 294.95, 772.53 296.18 C 771.75 297.41, 771.25 298.24, 770.00 299.96 C 768.74 301.68, 767.94 302.72, 766.26 304.76 C 764.59 306.79, 763.59 307.99, 761.60 310.13 C 759.61 312.27, 758.47 313.45, 756.32 315.47 C 754.17 317.49, 752.97 318.51, 750.86 320.23 C 748.76 321.95, 747.66 322.78, 745.79 324.08 C 743.93 325.38, 743.00 325.91, 741.55 326.71 C 740.09 327.52, 739.44 327.77, 738.51 328.09 C 737.57 328.40, 737.24 328.45, 736.86 328.29 C 736.48 328.14, 736.43 327.93, 736.60 327.31 C 736.77 326.68, 737.00 326.18, 737.71 325.17 C 738.42 324.16, 738.99 323.45, 740.15 322.27 C 741.32 321.08, 742.11 320.36, 743.53 319.25 C 744.95 318.14, 745.81 317.55, 747.25 316.73 C 748.68 315.90, 749.45 315.56, 750.71 315.12 C 751.97 314.67, 752.56 314.57, 753.54 314.49 C 754.52 314.41, 754.89 314.50, 755.60 314.70 C 756.30 314.90, 756.54 315.17, 757.06 315.48 C 757.59 315.79, 757.80 316.03, 758.21 316.26 C 758.62 316.50, 758.82 316.68, 759.11 316.67 C 759.39 316.66, 759.60 316.53, 759.64 316.22" style="stroke: white; fill: white;"/><path d="M 890.09,311.57 C 889.88 311.72, 889.87 311.87, 889.61 312.38 C 889.36 312.89, 889.20 313.21, 888.82 314.13 C 888.44 315.04, 888.20 315.72, 887.70 316.96 C 887.21 318.20, 886.88 318.99, 886.36 320.33 C 885.84 321.67, 885.50 322.43, 885.12 323.66 C 884.75 324.89, 884.53 325.52, 884.49 326.49 C 884.44 327.46, 884.50 327.93, 884.90 328.52 C 885.30 329.12, 885.65 329.35, 886.48 329.47 C 887.32 329.58, 887.87 329.50, 889.08 329.10 C 890.28 328.70, 890.96 328.31, 892.49 327.46 C 894.01 326.61, 894.89 326.00, 896.70 324.85 C 898.51 323.70, 899.56 322.97, 901.54 321.70 C 903.52 320.43, 904.63 319.69, 906.60 318.50 C 908.58 317.31, 909.64 316.69, 911.42 315.76 C 913.20 314.84, 914.08 314.42, 915.49 313.87 C 916.91 313.32, 917.53 313.15, 918.48 313.02 C 919.44 312.89, 919.78 312.96, 920.28 313.22 C 920.77 313.48, 920.85 313.73, 920.95 314.33 C 921.04 314.93, 920.97 315.35, 920.75 316.23 C 920.53 317.11, 920.35 317.68, 919.85 318.74 C 919.35 319.81, 919.01 320.44, 918.27 321.55 C 917.52 322.66, 917.03 323.26, 916.12 324.28 C 915.20 325.29, 914.66 325.81, 913.70 326.63 C 912.74 327.46, 912.22 327.78, 911.32 328.40 C 910.42 329.01, 909.56 329.32, 909.19 329.71 C 908.82 330.10, 908.89 330.36, 909.46 330.35 C 910.03 330.35, 910.97 330.16, 912.03 329.68 C 913.10 329.20, 913.69 328.79, 914.77 327.95 C 915.85 327.11, 916.43 326.56, 917.44 325.49 C 918.44 324.42, 918.98 323.80, 919.80 322.60 C 920.63 321.40, 921.04 320.73, 921.57 319.51 C 922.09 318.30, 922.31 317.63, 922.43 316.52 C 922.55 315.41, 922.50 314.81, 922.18 313.97 C 921.85 313.12, 921.56 312.73, 920.80 312.29 C 920.04 311.84, 919.55 311.72, 918.39 311.75 C 917.23 311.78, 916.53 311.94, 914.99 312.44 C 913.44 312.95, 912.53 313.36, 910.67 314.26 C 908.81 315.16, 907.72 315.78, 905.69 316.95 C 903.66 318.11, 902.54 318.85, 900.53 320.10 C 898.52 321.35, 897.46 322.06, 895.65 323.19 C 893.85 324.32, 892.95 324.88, 891.50 325.74 C 890.05 326.59, 889.40 326.95, 888.40 327.45 C 887.39 327.95, 887.01 328.13, 886.48 328.25 C 885.94 328.37, 885.83 328.37, 885.72 328.06 C 885.60 327.75, 885.67 327.46, 885.89 326.70 C 886.10 325.94, 886.33 325.37, 886.79 324.25 C 887.25 323.13, 887.62 322.39, 888.20 321.09 C 888.78 319.79, 889.19 319.01, 889.69 317.75 C 890.19 316.48, 890.46 315.77, 890.72 314.75 C 890.97 313.74, 890.98 313.30, 890.97 312.68 C 890.97 312.06, 890.87 311.86, 890.70 311.64 C 890.52 311.42, 890.31 311.42, 890.09 311.57" style="stroke: white; fill: white;"/><path d="M 968.82,318.46 C 969.14 318.48, 969.49 318.37, 969.90 318.03 C 970.30 317.70, 970.56 317.39, 970.84 316.78 C 971.12 316.16, 971.28 315.71, 971.29 314.97 C 971.29 314.23, 971.20 313.80, 970.87 313.10 C 970.54 312.40, 970.30 312.01, 969.62 311.47 C 968.94 310.93, 968.51 310.64, 967.48 310.40 C 966.46 310.16, 965.83 310.08, 964.50 310.26 C 963.18 310.44, 962.40 310.64, 960.85 311.30 C 959.31 311.96, 958.41 312.45, 956.79 313.55 C 955.16 314.65, 954.23 315.39, 952.74 316.78 C 951.24 318.18, 950.46 319.05, 949.34 320.53 C 948.21 322.00, 947.70 322.84, 947.12 324.16 C 946.54 325.49, 946.36 326.16, 946.44 327.15 C 946.52 328.14, 946.78 328.63, 947.52 329.12 C 948.26 329.62, 948.88 329.78, 950.13 329.64 C 951.38 329.50, 952.17 329.22, 953.78 328.43 C 955.39 327.64, 956.32 327.03, 958.18 325.67 C 960.05 324.30, 961.09 323.42, 963.09 321.60 C 965.09 319.77, 966.17 318.64, 968.19 316.52 C 970.21 314.41, 971.27 313.22, 973.19 311.02 C 975.10 308.82, 976.09 307.63, 977.76 305.52 C 979.44 303.41, 980.26 302.32, 981.56 300.48 C 982.85 298.64, 983.52 297.67, 984.24 296.33 C 984.96 294.99, 985.17 294.34, 985.15 293.77 C 985.13 293.20, 984.83 293.08, 984.15 293.50 C 983.47 293.91, 982.86 294.43, 981.74 295.83 C 980.62 297.24, 979.87 298.37, 978.55 300.51 C 977.23 302.64, 976.45 304.08, 975.15 306.52 C 973.86 308.96, 973.11 310.34, 972.07 312.70 C 971.02 315.07, 970.51 316.30, 969.93 318.34 C 969.34 320.38, 969.14 321.35, 969.14 322.90 C 969.15 324.45, 969.31 325.12, 969.95 326.08 C 970.59 327.05, 971.14 327.40, 972.34 327.72 C 973.53 328.04, 974.34 328.01, 975.95 327.69 C 977.55 327.38, 978.51 326.98, 980.38 326.14 C 982.25 325.31, 983.31 324.66, 985.28 323.50 C 987.26 322.34, 988.35 321.60, 990.25 320.35 C 992.14 319.10, 993.15 318.40, 994.76 317.27 C 996.36 316.14, 997.15 315.58, 998.27 314.70 C 999.39 313.82, 999.85 313.45, 1000.37 312.86 C 1000.88 312.27, 1000.93 312.03, 1000.83 311.75 C 1000.72 311.46, 1000.41 311.36, 999.84 311.45 C 999.27 311.54, 998.80 311.68, 997.99 312.20 C 997.18 312.71, 996.68 313.14, 995.80 314.01 C 994.93 314.88, 994.43 315.47, 993.61 316.54 C 992.79 317.61, 992.34 318.23, 991.72 319.36 C 991.10 320.48, 990.79 321.10, 990.51 322.18 C 990.23 323.25, 990.16 323.82, 990.31 324.71 C 990.46 325.61, 990.69 326.06, 991.26 326.66 C 991.82 327.26, 992.26 327.50, 993.14 327.71 C 994.02 327.92, 994.60 327.91, 995.65 327.70 C 996.70 327.50, 997.33 327.26, 998.41 326.67 C 999.49 326.09, 1000.08 325.66, 1001.05 324.79 C 1002.02 323.92, 1002.53 323.38, 1003.26 322.33 C 1004.00 321.28, 1004.34 320.67, 1004.74 319.56 C 1005.14 318.45, 1005.26 317.83, 1005.26 316.77 C 1005.27 315.72, 1005.13 315.16, 1004.78 314.29 C 1004.42 313.43, 1004.08 313.03, 1003.49 312.45 C 1002.90 311.87, 1002.48 311.63, 1001.85 311.40 C 1001.22 311.17, 1000.78 311.15, 1000.33 311.31 C 999.88 311.47, 999.63 311.80, 999.61 312.19 C 999.60 312.59, 999.73 312.94, 1000.25 313.29 C 1000.78 313.64, 1001.23 313.79, 1002.25 313.94 C 1003.26 314.08, 1003.94 314.07, 1005.35 314.00 C 1006.75 313.93, 1007.61 313.81, 1009.27 313.59 C 1010.93 313.37, 1011.90 313.18, 1013.63 312.91 C 1015.36 312.64, 1016.33 312.45, 1017.94 312.24 C 1019.54 312.03, 1020.38 311.92, 1021.66 311.87 C 1022.94 311.82, 1023.53 311.82, 1024.32 311.99 C 1025.12 312.16, 1025.38 312.27, 1025.63 312.73 C 1025.88 313.19, 1025.81 313.50, 1025.57 314.28 C 1025.33 315.05, 1025.01 315.59, 1024.44 316.61 C 1023.86 317.63, 1023.41 318.30, 1022.70 319.40 C 1022.00 320.49, 1021.45 321.12, 1020.91 322.08 C 1020.37 323.03, 1020.09 323.55, 1020.00 324.16 C 1019.90 324.77, 1020.00 325.04, 1020.45 325.14 C 1020.91 325.24, 1021.34 325.12, 1022.29 324.65 C 1023.24 324.17, 1023.90 323.67, 1025.20 322.76 C 1026.50 321.85, 1027.29 321.14, 1028.79 320.10 C 1030.28 319.07, 1031.19 318.46, 1032.67 317.58 C 1034.16 316.70, 1035.01 316.27, 1036.20 315.71 C 1037.39 315.15, 1037.94 314.94, 1038.63 314.77 C 1039.33 314.60, 1039.51 314.64, 1039.68 314.86 C 1039.85 315.09, 1039.72 315.31, 1039.50 315.91 C 1039.28 316.51, 1038.96 316.96, 1038.58 317.87 C 1038.20 318.78, 1037.89 319.40, 1037.59 320.44 C 1037.30 321.49, 1037.11 322.11, 1037.11 323.08 C 1037.11 324.06, 1037.15 324.60, 1037.60 325.32 C 1038.05 326.05, 1038.41 326.39, 1039.36 326.71 C 1040.31 327.02, 1040.95 327.07, 1042.36 326.90 C 1043.76 326.73, 1044.61 326.48, 1046.36 325.85 C 1048.11 325.21, 1049.16 324.72, 1051.11 323.73 C 1053.05 322.73, 1054.17 322.08, 1056.10 320.88 C 1058.02 319.69, 1059.07 318.97, 1060.73 317.75 C 1062.40 316.53, 1063.25 315.87, 1064.41 314.77 C 1065.58 313.67, 1066.08 313.12, 1066.56 312.25 C 1067.04 311.37, 1067.09 310.92, 1066.83 310.38 C 1066.57 309.85, 1066.15 309.60, 1065.26 309.58 C 1064.37 309.55, 1063.63 309.69, 1062.36 310.24 C 1061.09 310.80, 1060.27 311.32, 1058.92 312.35 C 1057.57 313.38, 1056.77 314.10, 1055.60 315.39 C 1054.43 316.68, 1053.79 317.44, 1053.07 318.79 C 1052.35 320.14, 1052.06 320.89, 1052.01 322.14 C 1051.95 323.39, 1052.10 324.04, 1052.78 325.05 C 1053.46 326.05, 1054.03 326.51, 1055.38 327.15 C 1056.73 327.79, 1057.65 328.00, 1059.53 328.25 C 1061.40 328.49, 1062.56 328.50, 1064.75 328.39 C 1066.94 328.29, 1068.37 328.07, 1070.49 327.73 C 1072.60 327.39, 1073.75 327.13, 1075.33 326.72 C 1076.91 326.30, 1077.80 325.99, 1078.38 325.66 C 1078.97 325.34, 1078.93 325.17, 1078.27 325.10 C 1077.61 325.03, 1076.69 325.16, 1075.08 325.31 C 1073.48 325.45, 1072.32 325.59, 1070.23 325.82 C 1068.14 326.04, 1066.75 326.30, 1064.65 326.42 C 1062.55 326.54, 1061.46 326.55, 1059.73 326.40 C 1058.00 326.25, 1057.18 326.09, 1056.00 325.67 C 1054.82 325.25, 1054.36 324.98, 1053.83 324.30 C 1053.29 323.61, 1053.20 323.19, 1053.34 322.26 C 1053.47 321.32, 1053.77 320.74, 1054.50 319.63 C 1055.22 318.53, 1055.85 317.84, 1056.99 316.72 C 1058.12 315.60, 1058.93 314.97, 1060.19 314.03 C 1061.45 313.09, 1062.22 312.66, 1063.28 312.02 C 1064.34 311.38, 1064.87 311.11, 1065.47 310.83 C 1066.08 310.55, 1066.27 310.46, 1066.29 310.61 C 1066.32 310.75, 1066.19 310.96, 1065.61 311.55 C 1065.02 312.15, 1064.55 312.63, 1063.37 313.58 C 1062.19 314.53, 1061.36 315.18, 1059.71 316.32 C 1058.06 317.46, 1057.02 318.15, 1055.12 319.28 C 1053.23 320.42, 1052.12 321.04, 1050.23 321.98 C 1048.34 322.93, 1047.31 323.38, 1045.67 324.01 C 1044.04 324.64, 1043.25 324.86, 1042.05 325.13 C 1040.85 325.41, 1040.36 325.45, 1039.68 325.37 C 1039.00 325.29, 1038.84 325.17, 1038.64 324.74 C 1038.45 324.32, 1038.54 323.98, 1038.71 323.24 C 1038.88 322.51, 1039.14 322.01, 1039.50 321.07 C 1039.85 320.13, 1040.20 319.53, 1040.48 318.53 C 1040.76 317.54, 1040.94 316.94, 1040.90 316.09 C 1040.87 315.25, 1040.78 314.80, 1040.31 314.30 C 1039.83 313.80, 1039.47 313.61, 1038.52 313.59 C 1037.58 313.57, 1036.94 313.73, 1035.59 314.20 C 1034.24 314.67, 1033.35 315.11, 1031.76 315.95 C 1030.17 316.78, 1029.21 317.37, 1027.64 318.37 C 1026.06 319.37, 1025.15 319.98, 1023.88 320.96 C 1022.61 321.93, 1021.99 322.50, 1021.27 323.24 C 1020.55 323.97, 1020.36 324.35, 1020.28 324.63 C 1020.20 324.91, 1020.42 324.95, 1020.85 324.65 C 1021.29 324.36, 1021.73 323.98, 1022.44 323.15 C 1023.15 322.32, 1023.66 321.64, 1024.41 320.50 C 1025.15 319.37, 1025.64 318.66, 1026.17 317.47 C 1026.69 316.28, 1026.96 315.60, 1027.05 314.54 C 1027.13 313.48, 1027.05 312.93, 1026.58 312.17 C 1026.11 311.42, 1025.69 311.13, 1024.71 310.75 C 1023.72 310.37, 1023.05 310.33, 1021.66 310.27 C 1020.27 310.22, 1019.40 310.33, 1017.74 310.48 C 1016.08 310.64, 1015.10 310.82, 1013.36 311.05 C 1011.62 311.28, 1010.66 311.46, 1009.03 311.64 C 1007.41 311.82, 1006.58 311.89, 1005.25 311.95 C 1003.93 312.01, 1003.32 311.95, 1002.41 311.94 C 1001.50 311.92, 1001.16 311.86, 1000.70 311.89 C 1000.24 311.93, 1000.17 311.99, 1000.10 312.10 C 1000.03 312.21, 1000.12 312.31, 1000.35 312.46 C 1000.58 312.61, 1000.82 312.62, 1001.24 312.83 C 1001.65 313.05, 1001.99 313.15, 1002.42 313.55 C 1002.86 313.96, 1003.13 314.22, 1003.40 314.86 C 1003.66 315.50, 1003.77 315.91, 1003.73 316.73 C 1003.70 317.56, 1003.59 318.06, 1003.21 318.98 C 1002.84 319.89, 1002.53 320.41, 1001.86 321.30 C 1001.18 322.19, 1000.71 322.67, 999.84 323.42 C 998.97 324.17, 998.43 324.53, 997.51 325.04 C 996.59 325.56, 996.07 325.75, 995.24 325.99 C 994.42 326.23, 994.00 326.29, 993.39 326.24 C 992.77 326.20, 992.51 326.11, 992.16 325.78 C 991.82 325.44, 991.68 325.18, 991.65 324.56 C 991.62 323.93, 991.70 323.50, 992.02 322.64 C 992.34 321.78, 992.63 321.24, 993.25 320.26 C 993.87 319.28, 994.31 318.70, 995.12 317.75 C 995.92 316.81, 996.46 316.32, 997.28 315.53 C 998.11 314.73, 998.61 314.40, 999.24 313.78 C 999.87 313.16, 1000.15 312.85, 1000.43 312.43 C 1000.71 312.02, 1000.78 311.79, 1000.63 311.70 C 1000.48 311.62, 1000.32 311.65, 999.67 312.01 C 999.02 312.36, 998.55 312.69, 997.38 313.46 C 996.20 314.23, 995.42 314.79, 993.79 315.86 C 992.17 316.93, 991.15 317.61, 989.25 318.81 C 987.36 320.00, 986.25 320.72, 984.32 321.84 C 982.38 322.96, 981.33 323.56, 979.57 324.39 C 977.82 325.23, 976.94 325.60, 975.54 326.01 C 974.14 326.42, 973.52 326.56, 972.59 326.46 C 971.65 326.35, 971.29 326.20, 970.86 325.50 C 970.44 324.80, 970.36 324.29, 970.48 322.95 C 970.59 321.61, 970.81 320.71, 971.45 318.81 C 972.09 316.91, 972.60 315.72, 973.69 313.45 C 974.79 311.19, 975.55 309.84, 976.91 307.49 C 978.26 305.14, 979.18 303.80, 980.48 301.69 C 981.77 299.58, 982.49 298.46, 983.36 296.94 C 984.23 295.42, 984.57 294.75, 984.82 294.08 C 985.08 293.40, 985.00 293.27, 984.63 293.56 C 984.27 293.86, 983.88 294.36, 983.00 295.55 C 982.12 296.74, 981.54 297.74, 980.22 299.52 C 978.91 301.30, 978.10 302.39, 976.44 304.46 C 974.77 306.54, 973.80 307.73, 971.90 309.89 C 970.00 312.06, 968.93 313.23, 966.92 315.29 C 964.90 317.35, 963.79 318.43, 961.82 320.19 C 959.84 321.95, 958.82 322.79, 957.03 324.10 C 955.25 325.41, 954.33 325.94, 952.89 326.75 C 951.45 327.55, 950.81 327.83, 949.83 328.13 C 948.86 328.43, 948.48 328.45, 948.02 328.26 C 947.57 328.06, 947.45 327.84, 947.55 327.16 C 947.64 326.47, 947.85 325.95, 948.48 324.84 C 949.12 323.73, 949.61 322.95, 950.71 321.62 C 951.82 320.28, 952.58 319.45, 954.01 318.16 C 955.43 316.86, 956.34 316.16, 957.86 315.14 C 959.38 314.11, 960.22 313.64, 961.60 313.02 C 962.99 312.40, 963.67 312.22, 964.78 312.02 C 965.88 311.82, 966.36 311.89, 967.14 312.04 C 967.91 312.18, 968.19 312.38, 968.65 312.72 C 969.10 313.07, 969.24 313.32, 969.42 313.75 C 969.59 314.18, 969.58 314.41, 969.51 314.87 C 969.45 315.32, 969.27 315.59, 969.10 316.03 C 968.93 316.47, 968.81 316.69, 968.65 317.06 C 968.50 317.44, 968.30 317.64, 968.33 317.92 C 968.36 318.20, 968.51 318.43, 968.82 318.46" style="stroke: white; fill: white;"/><path d="M 1087.89,330.35 C 1088.11 330.46, 1088.25 330.49, 1088.28 330.43 C 1088.32 330.37, 1088.21 330.22, 1088.05 330.04 C 1087.90 329.86, 1087.72 329.65, 1087.52 329.52 C 1087.31 329.40, 1087.10 329.34, 1087.03 329.40 C 1086.96 329.46, 1087.00 329.65, 1087.17 329.84 C 1087.35 330.03, 1087.67 330.23, 1087.89 330.35" style="stroke: white; fill: white;"/></svg>